<?xml version="1.0" standalone="no"?>
<!DOCTYPE svg PUBLIC "-//W3C//DTD SVG 20010904//EN"
 "http://www.w3.org/TR/2001/REC-SVG-20010904/DTD/svg10.dtd">
<svg version="1.0" xmlns="http://www.w3.org/2000/svg"
 width="571.000000pt" height="571.000000pt" viewBox="0 0 571.000000 571.000000"
 preserveAspectRatio="xMidYMid meet">
<metadata>
Created by potrace 1.11, written by Peter Selinger 2001-2013
</metadata>
<g transform="translate(0.000000,571.000000) scale(0.100000,-0.100000)"
fill="#000000" stroke="none">
<path d="M1590 5690 c-96 -3 267 -7 808 -8 l982 -2 0 -86 0 -87 108 6 108 5
50 -81 c43 -71 53 -82 77 -82 21 1 26 -3 22 -15 -13 -32 -17 -218 -7 -285 16
-98 65 -193 116 -221 110 -62 221 -23 282 98 40 79 55 299 27 416 -5 21 -2 22
48 22 74 -1 103 -27 124 -112 28 -112 35 -126 60 -132 20 -5 25 -14 30 -54 14
-98 59 -199 105 -232 43 -31 110 -43 159 -30 51 13 109 63 129 110 l14 35 24
-30 c13 -17 24 -33 24 -37 0 -4 -42 -35 -92 -69 -51 -34 -95 -63 -97 -65 -2
-2 54 -97 125 -211 106 -171 146 -248 227 -436 l100 -227 -82 -78 -82 -77 145
-240 c144 -239 145 -240 123 -255 -88 -59 -126 -145 -134 -305 -7 -135 8 -229
48 -308 l29 -58 -41 -61 -42 -61 17 -47 17 -46 -42 -89 c-22 -49 -39 -98 -36
-109 8 -35 49 -149 64 -179 14 -26 12 -32 -32 -115 -26 -48 -49 -88 -50 -90
-10 -11 -270 -62 -317 -62 l-58 0 0 196 0 195 -22 -6 c-135 -41 -214 -69 -220
-78 -11 -17 3 -37 26 -37 13 0 55 11 94 24 l72 25 0 -158 0 -158 -67 -6 c-38
-4 -101 -7 -140 -7 l-73 0 -130 -173 -130 -173 15 -205 c13 -176 22 -231 52
-329 3 -8 -9 9 -26 37 -66 110 -206 133 -294 48 -45 -44 -74 -105 -86 -185
-33 -203 11 -405 102 -471 l40 -29 -274 0 c-241 1 -272 2 -255 15 88 67 114
117 129 255 21 187 -24 373 -102 429 -107 77 -240 34 -301 -97 -31 -65 -46
-215 -33 -331 13 -112 56 -208 109 -244 l34 -24 -623 -6 c-953 -11 -1338 -9
-1305 6 50 22 106 85 129 145 26 69 37 264 20 354 -14 76 -58 165 -96 194
-106 80 -246 36 -306 -99 -22 -48 -24 -64 -24 -227 0 -160 2 -180 23 -233 27
-65 73 -115 124 -133 28 -11 2 -13 -168 -13 -110 -1 -296 -4 -412 -8 l-212 -6
0 -57 0 -57 -56 -6 c-53 -5 -72 -12 -63 -21 15 -15 507 -19 2857 -22 l2632 -4
-2 2837 -3 2838 -1970 0 c-1083 1 -2049 -2 -2145 -5z m2497 -315 c41 -13 44
-311 3 -403 -31 -72 -79 -112 -132 -112 -62 0 -101 29 -133 102 -25 55 -29 78
-33 182 -5 140 9 223 40 235 19 7 230 4 255 -4z m685 -342 c10 -9 18 -22 18
-30 0 -26 -39 -90 -70 -117 -57 -47 -148 -28 -190 39 -21 34 -50 128 -50 161
l0 22 137 -30 c76 -16 145 -36 155 -45z m608 -1934 l72 -91 -14 -36 c-13 -35
-17 -37 -136 -75 l-122 -38 5 -82 c4 -70 3 -76 -6 -42 -6 22 -9 99 -7 170 3
119 5 135 32 188 25 51 71 97 98 97 3 0 39 -41 78 -91z m-4109 -2232 c58 -39
82 -116 87 -274 4 -144 -9 -216 -49 -267 -23 -29 -96 -66 -130 -66 -59 0 -116
74 -138 178 -24 114 -10 285 30 363 43 86 128 114 200 66z m2064 3 c22 -13 41
-40 61 -82 25 -56 28 -77 32 -190 4 -108 1 -137 -16 -195 -37 -120 -125 -173
-213 -127 -22 11 -40 35 -62 82 -32 66 -32 69 -32 217 0 137 2 155 24 203 47
103 128 140 206 92z m685 3 c62 -36 100 -148 100 -298 0 -109 -19 -204 -49
-245 -64 -88 -177 -92 -229 -8 -41 67 -54 141 -50 276 4 146 25 210 85 262 39
35 97 40 143 13z m285 -306 l120 -127 27 -93 c15 -50 27 -102 27 -114 l1 -23
-232 0 c-232 0 -233 0 -202 19 47 29 90 87 110 149 14 44 18 90 18 200 0 79 3
137 6 129 3 -8 59 -71 125 -140z m-3948 -475 c-2 -15 -4 -2 -4 28 0 30 2 43 4
27 2 -15 2 -39 0 -55z"/>
<path d="M435 5531 c-51 -24 -88 -63 -117 -126 -21 -46 -23 -63 -23 -225 0
-172 0 -176 29 -238 51 -110 129 -155 228 -131 64 15 118 69 150 147 20 51 22
74 22 217 0 144 -2 165 -23 215 -31 76 -66 119 -115 141 -52 24 -100 24 -151
0z m153 -66 c16 -13 40 -48 53 -77 22 -49 24 -66 24 -213 0 -153 -1 -163 -27
-217 -32 -68 -73 -98 -135 -98 -57 0 -104 42 -135 118 -20 50 -23 74 -23 202
0 131 3 150 24 198 34 76 79 112 141 112 37 0 55 -6 78 -25z"/>
<path d="M2492 5529 c-50 -25 -93 -83 -117 -156 -14 -42 -16 -82 -13 -215 3
-162 3 -164 36 -231 35 -71 80 -107 151 -122 77 -16 167 38 209 127 45 93 54
329 17 443 -48 147 -167 211 -283 154z m148 -54 c65 -33 100 -139 100 -301 0
-203 -58 -314 -163 -314 -114 0 -174 128 -165 353 4 104 7 121 36 178 18 37
43 71 59 81 35 22 95 23 133 3z"/>
<path d="M3183 5530 c-51 -26 -99 -87 -118 -152 -7 -26 -17 -89 -20 -140 -15
-197 35 -358 125 -407 88 -49 193 -25 251 57 41 57 59 125 65 241 14 252 -64
408 -209 418 -39 3 -63 -1 -94 -17z m146 -54 c65 -34 101 -141 101 -298 0
-147 -19 -216 -75 -275 -36 -38 -47 -43 -84 -43 -63 0 -97 25 -134 99 -29 59
-32 74 -35 185 -3 91 0 138 12 186 18 71 55 131 89 148 32 15 94 14 126 -2z"/>
<path d="M1097 5504 c-105 -34 -132 -53 -108 -77 8 -8 33 -4 96 15 l85 25 0
-298 0 -299 -96 0 c-93 0 -95 -1 -92 -22 3 -23 4 -23 209 -26 177 -2 208 0
219 13 21 26 0 34 -95 37 l-90 3 -3 333 c-1 182 -6 332 -10 331 -4 0 -56 -16
-115 -35z"/>
<path d="M1785 5502 c-93 -31 -110 -40 -113 -59 -4 -30 12 -30 111 1 l77 24 0
-299 0 -299 -96 0 c-93 0 -95 -1 -92 -22 3 -23 4 -23 209 -26 172 -2 208 0
218 12 23 28 1 36 -95 36 l-94 0 0 335 c0 184 -3 335 -7 334 -5 0 -57 -17
-118 -37z"/>
<path d="M1350 3905 c0 -542 0 -544 -21 -555 -11 -7 -22 -10 -23 -8 -8 14 -26
57 -32 78 -8 30 -44 248 -45 273 0 17 -4 18 -58 21 -41 1 -86 48 -113 115 -20
49 -23 74 -23 201 0 131 3 150 24 198 32 71 80 112 131 112 36 0 40 2 40 25 0
34 -23 41 -79 26 -58 -15 -112 -67 -143 -135 -20 -44 -23 -71 -26 -204 -3
-134 -1 -161 18 -223 23 -76 69 -138 119 -159 35 -14 33 -20 -30 -130 -21 -36
-52 -102 -69 -147 -18 -46 -36 -85 -40 -88 -18 -11 -86 101 -131 217 -11 29
-46 105 -77 168 -52 104 -56 120 -52 165 2 28 5 111 5 185 0 119 -3 143 -24
199 -51 134 -158 192 -266 142 -51 -24 -88 -63 -117 -126 -21 -46 -23 -63 -23
-225 0 -172 0 -176 29 -238 27 -57 74 -113 108 -124 10 -4 3 -24 -26 -79 -43
-80 -152 -258 -186 -301 -26 -34 -44 -84 -36 -103 12 -33 54 -16 106 44 59 67
84 105 135 211 50 103 124 220 140 220 7 0 23 9 36 19 l23 19 27 -37 c15 -20
30 -54 34 -76 4 -22 15 -51 24 -65 9 -14 41 -79 70 -145 29 -66 57 -127 62
-135 5 -8 17 -32 26 -53 21 -47 51 -57 92 -28 43 31 127 161 141 219 13 55 50
103 50 65 0 -11 6 -38 14 -59 7 -22 16 -60 20 -85 l7 -46 -41 -12 c-56 -17
-113 -71 -141 -134 -21 -46 -24 -71 -27 -205 -3 -134 -1 -161 18 -223 25 -83
72 -140 134 -164 60 -23 90 -17 94 18 3 25 1 27 -33 27 -111 0 -172 134 -163
355 6 128 30 197 85 245 37 33 82 39 139 18 27 -10 35 -8 63 11 l31 22 0 -655
0 -656 250 0 250 0 0 646 c0 513 3 645 13 641 6 -3 44 -19 83 -35 86 -36 131
-59 165 -85 41 -29 116 -25 195 12 l64 30 0 -605 0 -605 573 4 c544 3 577 5
669 25 369 83 646 290 800 597 99 195 142 390 142 646 l1 175 26 -40 c14 -23
38 -52 53 -65 14 -14 26 -29 26 -35 0 -6 18 -19 39 -29 78 -35 116 -156 109
-338 -5 -132 -28 -200 -85 -249 -38 -34 -94 -40 -142 -15 -27 13 -29 13 -39
-10 -10 -21 -8 -27 11 -39 34 -23 100 -30 143 -16 52 16 108 71 136 134 21 47
23 64 23 231 0 175 -1 182 -27 239 -23 48 -25 57 -10 51 73 -31 71 -31 97 -4
l26 25 -21 27 c-14 17 -31 27 -48 27 -73 0 -153 95 -223 265 -68 166 -66 155
-26 148 77 -12 167 48 208 140 22 48 24 64 24 232 l0 180 -33 68 c-45 91 -90
122 -178 122 -53 0 -68 -4 -105 -30 -61 -43 -99 -120 -112 -231 -11 -85 -11
-86 18 -142 l30 -57 6 126 c5 111 9 133 33 183 32 66 72 96 129 96 115 0 174
-125 165 -351 -5 -133 -28 -200 -86 -250 -32 -28 -40 -31 -89 -27 -53 5 -54 4
-48 -19 5 -22 4 -23 -16 -13 -22 13 -70 5 -80 -12 -4 -6 -10 0 -14 13 -47 154
-188 369 -312 475 -120 102 -311 205 -453 243 -168 46 -243 51 -807 51 l-533
0 0 -440 c0 -414 -1 -440 -18 -440 -35 0 -83 -37 -171 -134 -81 -88 -91 -103
-91 -137 0 -78 -44 -118 -94 -86 -52 35 -122 102 -133 130 -10 22 -13 159 -13
568 l0 539 -250 0 -250 0 0 -545z m-762 410 c16 -13 40 -48 53 -77 20 -46 24
-72 27 -199 l4 -146 -29 4 c-39 6 -100 -49 -142 -126 -18 -34 -34 -61 -36 -61
-2 0 -20 14 -39 31 -51 45 -78 122 -84 246 -10 222 52 353 168 353 37 0 55 -6
78 -25z m2432 -311 c0 -3 -5 -15 -11 -27 -26 -48 -3 -354 39 -522 28 -110 55
-290 47 -314 -6 -19 -8 -20 -30 -5 -13 9 -29 13 -35 9 -5 -3 -44 -8 -85 -10
l-75 -4 0 439 0 440 75 0 c41 0 75 -3 75 -6z m495 -19 c33 -9 98 -35 144 -57
68 -32 101 -57 167 -122 67 -68 90 -99 128 -177 44 -90 78 -208 92 -315 l6
-51 -47 -22 c-27 -12 -57 -23 -69 -23 -12 0 -40 -4 -63 -10 -39 -10 -44 -8
-112 36 -83 53 -103 84 -80 124 8 16 25 28 39 30 14 2 35 8 47 14 17 8 29 8
48 0 38 -17 53 -15 80 13 31 30 33 81 4 136 -20 40 -21 40 -62 34 -57 -9 -189
-80 -247 -132 -80 -72 -93 -133 -48 -229 45 -99 112 -130 263 -122 81 5 104
10 171 42 l77 36 -6 -97 c-19 -318 -168 -563 -412 -679 -130 -62 -161 -67
-478 -72 l-287 -4 2 359 3 358 61 7 c34 4 80 16 102 27 l39 20 -15 -42 c-23
-64 -22 -315 1 -383 43 -126 105 -179 207 -179 70 1 117 28 158 93 40 63 51
107 58 232 7 127 -6 212 -45 296 -39 84 -89 118 -172 119 -58 0 -58 0 -43 22
7 12 14 29 14 37 0 24 38 105 67 141 19 24 38 36 65 40 21 4 40 11 44 16 3 5
21 9 40 9 38 0 39 2 23 51 -18 53 -29 62 -49 44 -9 -8 -30 -15 -46 -15 -46 0
-127 -43 -161 -86 -17 -21 -34 -36 -38 -32 -4 4 -16 49 -26 100 -11 51 -22
101 -25 111 -5 17 -3 16 32 -3 82 -43 166 -34 227 25 39 38 74 105 79 150 3
26 -1 30 -23 33 -23 3 -27 -2 -39 -44 -9 -30 -29 -63 -55 -91 -36 -38 -47 -43
-84 -43 -24 0 -56 8 -72 17 -37 22 -83 112 -98 192 -7 34 -15 70 -18 78 -5 14
16 15 183 10 132 -3 207 -10 249 -22z m-1145 -630 l0 -125 -27 -11 c-31 -11
-116 -14 -132 -4 -20 12 -13 89 12 121 46 62 122 144 135 144 9 0 12 -32 12
-125z m961 -181 c22 -11 40 -35 62 -82 29 -62 32 -77 35 -194 4 -109 1 -137
-17 -195 -31 -99 -75 -143 -145 -143 -60 0 -99 30 -132 102 -28 61 -29 69 -29
213 0 137 2 155 24 203 32 71 80 112 132 112 22 0 54 -7 70 -16z"/>
<path d="M3737 3706 c-7 -17 11 -36 35 -36 17 0 17 1 2 25 -18 28 -29 31 -37
11z"/>
<path d="M1960 3695 c0 -24 2 -25 69 -25 54 0 70 3 75 16 11 28 -3 34 -75 34
-67 0 -69 -1 -69 -25z"/>
<path d="M405 3202 c-91 -31 -110 -40 -110 -57 0 -29 29 -29 113 -1 l72 25 0
-299 0 -299 -92 -3 c-85 -3 -93 -5 -93 -23 0 -19 8 -20 211 -23 187 -2 212 -1
218 14 11 29 -4 34 -100 34 l-94 0 0 335 c0 184 -3 335 -7 334 -5 0 -57 -17
-118 -37z"/>
<path d="M1960 2545 c0 -24 2 -25 69 -25 54 0 70 3 75 16 11 28 -3 34 -75 34
-67 0 -69 -1 -69 -25z"/>
<path d="M1125 2081 c-52 -24 -88 -64 -117 -126 -20 -44 -23 -69 -26 -208 -3
-139 -1 -164 17 -219 30 -88 58 -125 119 -155 43 -21 61 -25 100 -19 129 17
202 147 202 357 l0 79 -29 0 -29 0 -4 -112 c-3 -96 -8 -122 -30 -170 -31 -67
-73 -98 -131 -98 -114 0 -175 133 -165 358 6 125 30 194 85 242 25 23 43 30
74 30 38 0 40 2 37 28 -2 22 -8 27 -33 30 -16 1 -48 -6 -70 -17z"/>
<path d="M405 2051 c-91 -30 -110 -40 -110 -56 0 -29 29 -29 113 -1 l72 25 0
-299 0 -299 -92 -3 c-85 -3 -93 -5 -93 -23 0 -19 7 -20 215 -20 208 0 215 1
215 20 0 18 -8 20 -97 23 l-98 3 0 334 c0 184 -3 335 -7 334 -5 0 -57 -17
-118 -38z"/>
<path d="M1960 2055 c0 -14 13 -43 29 -65 47 -65 64 -147 60 -296 -4 -118 -6
-134 -33 -187 -33 -67 -72 -97 -129 -97 -22 0 -52 8 -69 18 -58 33 -98 150
-98 287 0 73 -1 75 -25 75 l-25 0 0 -105 c0 -198 66 -311 193 -332 88 -14 178
50 217 153 28 75 38 249 21 349 -15 86 -56 170 -97 201 -39 30 -44 30 -44 -1z"/>
<path d="M4076 2007 c-16 -12 -15 -16 11 -72 24 -52 28 -75 31 -180 8 -222
-50 -345 -163 -345 -114 0 -169 113 -163 336 l3 125 -25 -6 c-14 -4 -27 -9
-29 -11 -3 -3 -7 -44 -9 -92 -11 -230 64 -388 192 -407 90 -14 170 35 215 131
51 108 50 364 -2 478 -27 59 -33 63 -61 43z"/>
<path d="M2360 1687 c0 -218 76 -332 221 -332 137 1 218 134 219 358 l0 77
-30 0 -30 0 0 -88 c0 -184 -61 -292 -166 -292 -58 0 -97 31 -129 102 -24 53
-29 80 -33 171 -4 105 -5 107 -28 107 -24 0 -24 -1 -24 -103z"/>
<path d="M3240 1605 l0 -185 -94 0 c-66 0 -95 -4 -98 -12 -13 -36 0 -38 217
-38 216 0 230 2 218 38 -3 8 -32 12 -99 12 l-94 0 0 185 0 185 -25 0 -25 0 0
-185z"/>
<path d="M410 901 c-81 -26 -116 -42 -118 -54 -6 -28 27 -31 97 -9 37 12 73
22 79 22 9 0 12 -75 12 -295 l0 -294 -92 -3 c-85 -3 -93 -5 -93 -23 0 -19 7
-20 215 -20 208 0 215 1 215 20 0 18 -8 20 -97 23 l-98 3 -2 334 -3 334 -115
-38z"/>
<path d="M1785 902 c-93 -31 -110 -40 -113 -59 -4 -30 24 -30 103 -3 32 11 64
20 72 20 11 0 13 -55 13 -295 l0 -295 -96 0 c-93 0 -95 -1 -92 -22 3 -23 4
-23 212 -26 213 -2 232 1 219 35 -4 9 -30 13 -99 13 l-94 0 0 335 c0 184 -3
335 -7 334 -5 0 -57 -17 -118 -37z"/>
<path d="M2475 902 c-93 -31 -110 -40 -113 -59 -4 -29 20 -30 106 -3 35 11 68
20 73 20 5 0 9 -124 9 -295 l0 -295 -95 0 c-95 0 -95 0 -95 -25 l0 -25 214 0
c218 0 231 2 218 38 -3 8 -32 12 -98 12 l-94 0 0 335 c0 184 -3 335 -7 334 -5
0 -57 -17 -118 -37z"/>
</g>
</svg>
