<?xml version="1.0" encoding="UTF-8" standalone="no"?>
<!-- Created with Inkscape (http://www.inkscape.org/) -->

<svg
   xmlns:dc="http://purl.org/dc/elements/1.1/"
   xmlns:cc="http://creativecommons.org/ns#"
   xmlns:rdf="http://www.w3.org/1999/02/22-rdf-syntax-ns#"
   xmlns:svg="http://www.w3.org/2000/svg"
   xmlns="http://www.w3.org/2000/svg"
   xmlns:xlink="http://www.w3.org/1999/xlink"
   xmlns:sodipodi="http://sodipodi.sourceforge.net/DTD/sodipodi-0.dtd"
   xmlns:inkscape="http://www.inkscape.org/namespaces/inkscape"
   width="160mm"
   height="90mm"
   viewBox="0 0 566.92913 318.89763"
   id="svg2"
   version="1.1"
   inkscape:version="0.92.3 (2405546, 2018-03-11)"
   sodipodi:docname="background-matchID-MGMSIC.svg"
   inkscape:export-filename="background-MI-dss.png"
   inkscape:export-xdpi="150"
   inkscape:export-ydpi="150">
  <defs
     id="defs4">
    <linearGradient
       id="linearGradient4183"
       inkscape:collect="always">
      <stop
         style="stop-color:#ffffff;stop-opacity:0;"
         offset="0"
         id="stop4187" />
      <stop
         id="stop4229"
         offset="0.3547895"
         style="stop-color:#ffffff;stop-opacity:0.59625667" />
      <stop
         style="stop-color:#ffffff;stop-opacity:1;"
         offset="1"
         id="stop4185" />
    </linearGradient>
    <linearGradient
       id="linearGradient6928">
      <stop
         id="stop6930"
         offset="0"
         style="stop-color:#174791;stop-opacity:1;" />
      <stop
         id="stop6934"
         offset="1"
         style="stop-color:#c2001f;stop-opacity:0.31123918" />
    </linearGradient>
    <linearGradient
       id="linearGradient6450"
       inkscape:collect="always">
      <stop
         id="stop6452"
         offset="0"
         style="stop-color:#003189;stop-opacity:1;" />
      <stop
         id="stop6454"
         offset="1"
         style="stop-color:#003189;stop-opacity:0;" />
    </linearGradient>
    <linearGradient
       gradientTransform="matrix(0.74536574,0,0,0.74536574,445.44332,1056.6106)"
       gradientUnits="userSpaceOnUse"
       y2="-401.41888"
       x2="-460.14178"
       y1="-400.78754"
       x1="-419.73984"
       id="linearGradient6456-3"
       xlink:href="#linearGradient6450"
       inkscape:collect="always" />
    <linearGradient
       gradientUnits="userSpaceOnUse"
       y2="-393.46113"
       x2="-201.88051"
       y1="-393.46113"
       x1="-398.63919"
       id="linearGradient4189"
       xlink:href="#linearGradient4183"
       inkscape:collect="always"
       gradientTransform="matrix(0.68088672,0,0,0.68088672,274.21475,1025.9252)" />
  </defs>
  <sodipodi:namedview
     id="base"
     pagecolor="#ffffff"
     bordercolor="#666666"
     borderopacity="1.0"
     inkscape:pageopacity="0.0"
     inkscape:pageshadow="2"
     inkscape:zoom="5.6"
     inkscape:cx="105.20059"
     inkscape:cy="316.75523"
     inkscape:document-units="px"
     inkscape:current-layer="layer1"
     showgrid="false"
     units="mm"
     inkscape:window-width="1920"
     inkscape:window-height="1018"
     inkscape:window-x="0"
     inkscape:window-y="34"
     inkscape:window-maximized="1" />
  <metadata
     id="metadata7">
    <rdf:RDF>
      <cc:Work
         rdf:about="">
        <dc:format>image/svg+xml</dc:format>
        <dc:type
           rdf:resource="http://purl.org/dc/dcmitype/StillImage" />
        <dc:title />
      </cc:Work>
    </rdf:RDF>
  </metadata>
  <g
     inkscape:label="Calque 1"
     inkscape:groupmode="layer"
     id="layer1"
     transform="translate(0,-733.46453)">
    <text
       xml:space="preserve"
       style="font-style:normal;font-weight:normal;font-size:8.17064095px;line-height:0%;font-family:sans-serif;letter-spacing:0px;word-spacing:0px;fill:#e2011c;fill-opacity:1;stroke:none;stroke-width:0.68088675px;stroke-linecap:butt;stroke-linejoin:miter;stroke-opacity:1"
       x="-134.99622"
       y="802.16638"
       id="text6351-3-9"><tspan
         sodipodi:role="line"
         id="tspan6353-1-4"
         x="-134.99622"
         y="802.16638"
         style="font-style:normal;font-variant:normal;font-weight:normal;font-stretch:normal;font-size:30.22585678px;line-height:125%;font-family:Raleway;-inkscape-font-specification:'Raleway, Normal';text-align:start;writing-mode:lr-tb;text-anchor:start;fill:#e2011c;fill-opacity:1;stroke-width:0.68088675px"> <tspan
   style="fill:#003189;fill-opacity:1;stroke-width:0.68088675px"
   id="tspan6360-4-2" /></tspan></text>
    <path
       style="color:#000000;clip-rule:nonzero;display:inline;overflow:visible;visibility:visible;opacity:1;isolation:auto;mix-blend-mode:normal;color-interpolation:sRGB;color-interpolation-filters:linearRGB;solid-color:#000000;solid-opacity:1;fill:url(#linearGradient4189);fill-opacity:1;fill-rule:evenodd;stroke:none;stroke-width:2.04266024;stroke-linecap:butt;stroke-linejoin:miter;stroke-miterlimit:4;stroke-dasharray:none;stroke-dashoffset:0;stroke-opacity:1;color-rendering:auto;image-rendering:auto;shape-rendering:auto;text-rendering:auto;enable-background:accumulate"
       d="M 125.19451,740.80853 H 2.7866195 v 34.42842 H 130.90019 l -0.46571,-2.09185 -1.5503,-1.66136 -0.38758,-1.25958 -0.17579,-2.44688 1.34674,-1.84312 2.43546,-0.0244 1.93788,-0.45388 0.8101,-1.53806 -0.53048,-1.4339 0.54486,-1.20005 -0.21074,-0.50064 0.55104,-0.83015 -0.12852,-1.54445 1.38787,-0.46769 0.29197,-0.96621 -1.22235,-1.62203 -1.57806,-2.72004 0.953,-0.94071 -1.34572,-3.21962 -1.35908,-2.27148 1.26348,-0.87799 -1.20488,-1.15633 -2.28432,-0.64588 -0.2601,-1.38128 -0.45528,-0.10036 -0.99603,-0.10743 -1.88706,0.22481 -0.99795,-0.47619 -0.18813,-0.87162 z"
       id="path4241"
       inkscape:connector-curvature="0"
       sodipodi:nodetypes="cccccccccccccccccccccccccccccccccc" />
    <g
       style="font-style:normal;font-weight:normal;font-size:95.20922089px;line-height:125%;font-family:sans-serif;letter-spacing:0px;word-spacing:0px;fill:#e2011c;fill-opacity:1;stroke:#ffffff;stroke-width:6.4342289;stroke-linecap:butt;stroke-linejoin:miter;stroke-miterlimit:4;stroke-dasharray:none;stroke-opacity:1"
       id="text6351-3-1"
       transform="matrix(0.32914253,0,0,0.32914253,212.99557,895.61139)">
      <path
         inkscape:connector-curvature="0"
         d="M -340.65545,-386.61166 V -454.115 h 13.13888 v 67.50334 z"
         style="font-style:normal;font-variant:normal;font-weight:bold;font-stretch:normal;font-size:95.20922089px;line-height:125%;font-family:Raleway;-inkscape-font-specification:'Raleway, Bold';text-align:start;writing-mode:lr-tb;text-anchor:start;fill:#e2011c;fill-opacity:1;stroke:#ffffff;stroke-width:6.4342289;stroke-miterlimit:4;stroke-dasharray:none;stroke-opacity:1"
         id="path7177" />
      <path
         inkscape:connector-curvature="0"
         d="m -313.50594,-386.61166 v -67.59855 h 24.56398 q 8.2832,0 14.4718,2.66586 6.28381,2.66586 10.47301,7.2359 4.18921,4.57004 6.28381,10.75864 2.0946,6.09339 2.0946,13.04366 0,7.71195 -2.38023,13.99576 -2.28502,6.1886 -6.66464,10.66343 -4.37963,4.37963 -10.56822,6.85507 -6.0934,2.38023 -13.71013,2.38023 z m 44.65312,-33.89449 q 0,-4.85567 -1.33293,-8.94966 -1.33293,-4.094 -3.90357,-7.04549 -2.57065,-2.95148 -6.37902,-4.57004 -3.71316,-1.61855 -8.47362,-1.61855 h -11.42511 v 44.55791 h 11.42511 q 4.85567,0 8.56883,-1.71377 3.80837,-1.71376 6.28381,-4.66525 2.57064,-3.04669 3.90357,-7.14069 1.33293,-4.094 1.33293,-8.85446 z"
         style="font-style:normal;font-variant:normal;font-weight:bold;font-stretch:normal;font-size:95.20922089px;line-height:125%;font-family:Raleway;-inkscape-font-specification:'Raleway, Bold';text-align:start;writing-mode:lr-tb;text-anchor:start;fill:#e2011c;fill-opacity:1;stroke:#ffffff;stroke-width:6.4342289;stroke-miterlimit:4;stroke-dasharray:none;stroke-opacity:1"
         id="path7179" />
    </g>
    <g
       style="font-style:normal;font-weight:normal;font-size:95.20922089px;line-height:125%;font-family:sans-serif;letter-spacing:0px;word-spacing:0px;fill:#e2011c;fill-opacity:1;stroke:none;stroke-width:1px;stroke-linecap:butt;stroke-linejoin:miter;stroke-opacity:1"
       id="text6351-3"
       transform="matrix(0.32914253,0,0,0.32914253,212.65443,895.52541)">
      <path
         inkscape:connector-curvature="0"
         d="m -339.31978,-386.13562 v -67.50334 h 13.13887 v 67.50334 z"
         style="font-style:normal;font-variant:normal;font-weight:bold;font-stretch:normal;font-size:95.20922089px;line-height:125%;font-family:Raleway;-inkscape-font-specification:'Raleway, Bold';text-align:start;writing-mode:lr-tb;text-anchor:start;fill:#e2011c;fill-opacity:1;stroke:none;stroke-opacity:0.82795697"
         id="path7192" />
      <path
         inkscape:connector-curvature="0"
         d="m -312.17028,-386.13562 v -67.59855 h 24.56398 q 8.2832,0 14.4718,2.66586 6.28381,2.66586 10.47302,7.2359 4.1892,4.57004 6.28381,10.75864 2.0946,6.09339 2.0946,13.04367 0,7.71194 -2.38023,13.99575 -2.28502,6.1886 -6.66465,10.66344 -4.37962,4.37962 -10.56822,6.85506 -6.09339,2.38023 -13.71013,2.38023 z m 44.65313,-33.89448 q 0,-4.85567 -1.33293,-8.94967 -1.33293,-4.094 -3.90358,-7.04548 -2.57065,-2.95149 -6.37902,-4.57004 -3.71316,-1.61856 -8.47362,-1.61856 h -11.4251 v 44.55791 h 11.4251 q 4.85567,0 8.56883,-1.71376 3.80837,-1.71377 6.28381,-4.66525 2.57065,-3.0467 3.90358,-7.1407 1.33293,-4.09399 1.33293,-8.85445 z"
         style="font-style:normal;font-variant:normal;font-weight:bold;font-stretch:normal;font-size:95.20922089px;line-height:125%;font-family:Raleway;-inkscape-font-specification:'Raleway, Bold';text-align:start;writing-mode:lr-tb;text-anchor:start;fill:#e2011c;fill-opacity:1;stroke:none;stroke-opacity:0.82795697"
         id="path7194" />
    </g>
    <path
       inkscape:connector-curvature="0"
       style="fill:none;fill-opacity:1;fill-rule:evenodd;stroke:url(#linearGradient6456-3);stroke-width:0.96365625;stroke-linecap:butt;stroke-linejoin:miter;stroke-miterlimit:4;stroke-dasharray:none;stroke-opacity:1"
       d="m 123.53203,741.35907 0.82188,0.016 0.70763,-0.11848 0.65058,1.05999 0.62168,-0.17613 2.63852,0.10095 -0.83625,-0.76006 1.5826,1.27902 0.26036,1.01757 2.28486,0.48843 1.20434,1.57253 -1.26371,0.84929 1.35955,2.19716 1.34512,3.11377 -0.95245,0.90955 1.57752,2.63082 1.223,1.56939 -0.29261,0.93461 -1.38754,0.45164 0.12893,1.49425 -0.55129,0.8031 0.21033,0.48375 -0.54448,1.16081 0.53007,1.38702 -0.80996,1.48723 -1.93796,0.4391 -2.43497,0.0242 -1.34682,1.78231 0.17556,2.36624 0.3876,1.21796 1.55037,1.60698 0.48426,2.10246 H 99.780894"
       id="path3581-3-4-8"
       sodipodi:nodetypes="ccccccccccccccccccccccccccccccccc" />
    <path
       style="fill:#003189;fill-opacity:1;stroke-width:0.68088675"
       d="m 62.296963,750.33553 c -0.160458,0.0106 -0.309837,0.22895 -0.423321,0.70027 -0.05985,0.24838 -0.203993,0.55078 -0.319785,0.67148 -0.470697,0.49065 0.135136,7.31375 0.851238,9.59032 0.128313,0.40792 0.258308,0.88828 0.28988,1.06957 0.339838,1.95192 0.438573,2.57854 0.503829,3.21357 0.04194,0.40791 0.148754,0.83635 0.236976,0.94968 0.467865,0.60054 1.233263,-0.0392 1.872718,-1.566 0.123397,-0.29462 0.277059,-0.5372 0.342785,-0.5372 0.06571,0 0.119639,-0.13909 0.119639,-0.30935 0,-0.59992 0.751576,-2.39488 1.062891,-2.53968 0.170079,-0.079 0.373487,-0.33679 0.453233,-0.57317 0.123737,-0.36682 0.248537,-0.43548 0.848929,-0.46765 0.417574,-0.0224 0.777192,-0.14109 0.883444,-0.29257 0.130608,-0.18615 0.334057,-0.22747 0.756908,-0.15587 0.672668,0.11379 0.689806,0.0543 0.324395,-1.11037 -0.279334,-0.89021 -0.376361,-0.95547 -0.78682,-0.52759 -0.181306,0.18895 -0.525685,0.28655 -1.012287,0.28777 -1.088146,0.003 -2.488049,0.89414 -3.011528,1.91375 -0.08894,0.17316 -0.265376,0.31415 -0.391109,0.31415 -0.242239,0 -0.266104,-0.0842 -0.56135,-1.89456 -0.103542,-0.63454 -0.318927,-1.56145 -0.478534,-2.06003 -0.159845,-0.49933 -0.325464,-1.6109 -0.368101,-2.47492 -0.118808,-2.40858 -0.71265,-4.23469 -1.19403,-4.2016 z m 20.507859,0.93288 c -0.792158,0 -1.156548,0.77372 -1.702469,3.62605 -0.550871,2.87822 -0.481455,5.04477 0.23927,7.51109 0.448276,1.53399 -0.32368,2.43828 -2.659543,3.12005 -0.412556,0.12044 -0.980525,0.29462 -1.263038,0.38609 -0.370886,0.12008 -0.571012,0.11155 -0.717805,-0.0287 -0.111788,-0.10695 -0.592214,-0.41172 -1.067494,-0.67869 -1.298961,-0.72968 -2.090445,-1.54981 -1.971637,-2.04325 0.193747,-0.80465 0.591173,-1.1915 1.125002,-1.09598 0.330584,0.0591 0.558525,0.005 0.692489,-0.16307 0.216999,-0.27254 0.722775,-0.33623 0.858142,-0.1079 0.213724,0.36047 1.235115,0.34267 1.523021,-0.0264 0.457863,-0.58691 0.546214,-1.67948 0.179448,-2.21831 -0.169207,-0.24857 -0.337904,-0.60051 -0.375005,-0.7818 -0.03922,-0.19188 -0.161861,-0.30168 -0.294484,-0.26141 -0.125269,0.0379 -0.50931,0.10272 -0.853532,0.1439 -0.344229,0.0412 -1.020404,0.29966 -1.502315,0.57316 -0.481912,0.27352 -1.189332,0.67148 -1.57133,0.88493 -1.531042,0.85546 -2.546803,2.12104 -2.546803,3.17279 0,1.61207 1.381295,3.80832 2.394958,3.80832 0.23763,0 0.475429,0.0749 0.529144,0.16546 0.132542,0.2235 2.896887,0.2098 3.832862,-0.0192 0.736726,-0.18022 0.898409,-0.24284 1.54372,-0.59715 0.173918,-0.0955 0.615923,-0.30288 0.982376,-0.46045 0.380711,-0.1637 0.821878,-0.52161 1.028391,-0.83696 0.198785,-0.30356 0.444068,-0.58743 0.545247,-0.62833 0.230766,-0.0932 1.023182,1.21505 1.318265,1.3142 0,0 0.249933,0.28603 0.53374,-0.16547 0.162671,-0.2588 0.468675,-0.44334 0.848944,-0.51321 0.859483,-0.15778 2.097464,-1.02444 2.34434,-1.64036 0.114144,-0.28485 0.31777,-0.6119 0.453232,-0.72905 0.135524,-0.11731 0.247285,-0.29833 0.248463,-0.40049 0.02615,-1.62111 1.478457,-2.05269 1.969349,-0.58515 0.592296,1.77071 1.897801,3.44858 2.684832,3.44858 0.10024,0 0.480004,0.2291 0.84434,0.5084 0.530499,0.40622 0.757697,0.4854 1.138817,0.3981 0.346061,-0.0792 0.625701,-0.0106 1.026076,0.24702 0.315298,0.20306 0.676202,0.31223 0.84434,0.25661 0.343821,-0.11367 1.107551,-0.91611 0.871937,-0.91611 -0.08811,0 -0.243975,-0.19276 -0.347395,-0.42928 -0.143872,-0.32909 -0.268699,-0.40732 -0.531446,-0.33573 -0.48136,0.1312 -1.570574,-0.41116 -2.148797,-1.06959 -1.166188,-1.32802 -1.451698,-1.71489 -1.451698,-1.95932 0,-0.14296 -0.06421,-0.33119 -0.140337,-0.41728 -0.0761,-0.0861 -0.402908,-0.82211 -0.727004,-1.63796 -0.324108,-0.81583 -0.688294,-1.71922 -0.809826,-2.00486 -0.121538,-0.28566 -0.220859,-0.59195 -0.220859,-0.6811 0,-0.31115 -0.712466,-0.67046 -0.99848,-0.50361 -0.147841,0.0862 -0.340988,0.11108 -0.427916,0.0552 -0.08693,-0.056 -0.2049,0.0323 -0.262264,0.19664 -0.05733,0.16439 -0.305712,0.56901 -0.552152,0.89933 -0.246433,0.3303 -0.446328,0.68388 -0.446328,0.78419 0,0.10036 -0.0576,0.18227 -0.126536,0.18227 -0.06891,0 -0.20622,0.31502 -0.30599,0.70027 -0.178713,0.69002 -1.183708,2.08869 -1.921027,2.67396 -0.423157,0.3359 -1.032463,0.10377 -1.361978,-0.52041 -0.08693,-0.16471 -0.205961,-0.33599 -0.262264,-0.3813 -0.681479,-0.54862 -0.930431,-4.59523 -0.515342,-8.37445 0.10566,-0.96194 -0.141707,-1.8442 -0.517651,-1.84421 z m -64.367177,1.71471 c -0.657811,-0.1444 -2.058109,0.9419 -2.737743,2.40056 -0.738681,1.58536 -2.44343,4.8046 -2.967836,5.60455 -0.237691,0.3626 -0.711227,1.06744 -1.051377,1.56601 -0.340151,0.49857 -0.621064,0.98716 -0.625776,1.08638 -0.0048,0.0992 -0.157673,0.32156 -0.340498,0.49403 -1.1215429,1.05805 -1.0377871,2.74131 0.105892,2.1176 0.589777,-0.32166 2.43867,-2.55082 2.43867,-2.94018 0,-0.11414 0.178304,-0.38184 0.395711,-0.59474 0.2174,-0.21292 0.395704,-0.49864 0.395704,-0.63553 0,-0.26904 0.468457,-1.28963 0.957061,-2.08401 0.167267,-0.27195 0.353932,-0.60506 0.414129,-0.74104 0.06019,-0.13597 0.369238,-0.61875 0.68788,-1.07198 0.318641,-0.45326 0.698263,-1.06518 0.84434,-1.35978 0.312759,-0.63076 0.796515,-0.7039 1.062885,-0.16308 0.100478,0.20396 0.381637,0.59381 0.625776,0.86576 0.326076,0.3632 0.461498,0.7007 0.506144,1.27582 0.04079,0.52517 0.169608,0.89062 0.393402,1.10796 0.183486,0.17819 0.380997,0.49324 0.439424,0.70027 0.05842,0.20702 0.491559,1.17276 0.961671,2.14636 0.470125,0.97362 0.853539,1.88551 0.853539,2.02647 0,0.14095 0.178297,0.44248 0.395697,0.6691 0.217407,0.22662 0.395711,0.54616 0.395711,0.71225 0,0.34893 0.24943,0.58827 0.745408,0.71466 0.739443,0.18844 3.093275,-2.88824 3.310614,-4.32632 0.169221,-1.11962 1.002912,-2.10655 1.003076,-1.1871 4.7e-5,0.24394 0.143599,0.83493 0.317483,1.3118 0.173878,0.47689 0.31856,1.21796 0.322094,1.64756 0.0082,1.00771 0.584017,1.76026 1.456308,1.90176 0.328977,0.0534 0.593563,0.0258 0.593563,-0.0599 0,-0.0849 0.09553,-0.15349 0.213961,-0.15349 0.382352,0 2.240628,-2.03502 2.634229,-2.88501 0.352365,-0.76094 0.986073,-1.75264 1.389574,-2.17515 0.200446,-0.2099 0.473917,-0.65858 0.609672,-0.99764 0.270027,-0.67437 1.033253,-1.52284 1.368876,-1.52284 0.262658,0 0.485438,0.46366 0.807531,1.68832 0.606323,2.30539 0.795746,2.88045 1.143413,3.45817 0.203483,0.33813 0.372643,0.6713 0.374999,0.74104 0.02403,0.67863 1.532226,1.74993 3.315217,2.35502 1.253805,0.42548 2.539108,1.06473 2.954013,1.46767 1.048035,1.0178 3.730755,0.24937 6.278436,-1.79862 0.749418,-0.60245 0.946834,-0.61475 1.389581,-0.084 0.189035,0.22661 0.42838,0.41249 0.531446,0.41249 0.103072,0 0.385572,0.16037 0.625775,0.35732 0.903489,0.74082 2.070618,1.17758 4.033015,1.50846 0.742691,0.12522 0.886705,0.11096 1.180222,-0.11273 0.187407,-0.14283 0.541598,-0.19484 0.975479,-0.14388 0.832098,0.0978 2.788415,-0.68426 2.712442,-1.08397 -0.07456,-0.39253 -0.642444,-0.50832 -1.311361,-0.2686 -0.407,0.14587 -0.680757,0.16806 -0.802922,0.0624 -0.112374,-0.0972 -0.334356,-0.10413 -0.56135,-0.0168 -0.627213,0.24129 -2.145182,-0.0207 -2.514603,-0.43406 -0.20108,-0.22499 -0.515261,-0.36447 -0.830532,-0.36692 -0.836763,-0.007 -2.32593,-1.60389 -2.32593,-2.49411 0,-0.24644 -0.06421,-0.49153 -0.142646,-0.54199 -0.07845,-0.0504 -0.191874,-0.55562 -0.25077,-1.12234 -0.22728,-2.18586 -0.635867,-2.58396 -1.49311,-1.4557 -0.716749,0.94332 -0.982193,1.70823 -0.862738,2.48691 0.0557,0.36285 0.03724,0.66066 -0.03908,0.6619 -0.07633,0.001 -0.385824,0.22836 -0.690194,0.50601 -0.304363,0.27766 -0.732764,0.66792 -0.950157,0.86574 -0.744931,0.67779 -2.505568,0.88126 -3.285306,0.37892 -0.250273,-0.16124 -0.122069,-1.65674 0.172544,-2.01447 0.143565,-0.17433 0.777885,-0.89294 1.410293,-1.59718 l 1.150317,-1.28063 0.655681,0.10319 c 1.342116,0.20817 1.829501,-1.03819 0.579761,-1.48208 -1.213715,-0.43109 -2.3459,10e-4 -3.345135,1.27343 -0.226865,0.28888 -0.906233,1.02732 -1.509213,1.64276 -0.986843,1.00714 -1.094185,1.18031 -1.074398,1.72908 0.07409,2.05556 -1.183831,2.60695 -2.56981,1.12716 -0.456963,-0.48789 -0.986639,-0.93922 -1.177927,-1.00245 -0.214452,-0.071 -0.381399,-0.29494 -0.437116,-0.58514 -0.0497,-0.25886 -0.179209,-0.50586 -0.287579,-0.5492 -0.10837,-0.0434 -0.243369,-0.37588 -0.299086,-0.73863 -0.05563,-0.36277 -0.159559,-0.68433 -0.23236,-0.71466 -0.198798,-0.0827 -0.938908,-2.25614 -1.055994,-3.10325 -0.539997,-3.90891 -2.167705,-3.88356 -4.341292,0.0695 -0.252739,0.45966 -0.60729,1.00131 -0.78682,1.20149 -0.179529,0.20017 -0.326696,0.40741 -0.326696,0.46045 0,0.053 -0.284822,0.55234 -0.632666,1.11036 -0.347852,0.55803 -0.630379,1.05651 -0.630379,1.10795 0,0.10166 -1.507156,1.15833 -1.651851,1.15833 -0.04875,0 -0.0874,-0.14018 -0.0874,-0.31177 0,-0.1716 -0.09341,-0.34787 -0.207058,-0.3933 -0.206097,-0.0823 -0.630262,-2.29335 -0.837436,-4.36228 -0.06441,-0.64313 -0.215453,-1.16157 -0.400313,-1.38376 -0.162746,-0.19559 -0.294484,-0.41967 -0.294484,-0.49641 0,-0.0768 -0.09376,-0.1391 -0.207058,-0.1391 -0.214731,0 -1.058281,1.4857 -1.058281,1.86338 0,0.11898 -0.182676,0.47198 -0.40491,0.78422 -0.678803,0.9536 -1.608684,2.83933 -1.718585,3.48694 -0.05713,0.33701 -0.193543,0.70869 -0.303676,0.82497 -0.11014,0.11626 -0.250233,0.3506 -0.312895,0.52281 l -0.114967,0.31416 -0.3658,-0.35972 c -0.201896,-0.19772 -0.467027,-0.56066 -0.588967,-0.8058 -0.12194,-0.24512 -0.496482,-0.96613 -0.830532,-1.60198 -0.334043,-0.63585 -0.773269,-1.66469 -0.977774,-2.28786 -0.204484,-0.62319 -0.512925,-1.29183 -0.683276,-1.48448 -0.170338,-0.19265 -0.463807,-0.72186 -0.653386,-1.17511 -0.189559,-0.45324 -0.410173,-0.95054 -0.490034,-1.10796 -0.07987,-0.15739 -0.144934,-0.39364 -0.144934,-0.5228 0,-0.12914 -0.213056,-0.42108 -0.473938,-0.6499 -0.260875,-0.22883 -0.473931,-0.4627 -0.473931,-0.52041 0,-0.35339 -0.137335,-0.53942 -0.356601,-0.58754 z"
       id="path4186"
       inkscape:connector-curvature="0"
       sodipodi:nodetypes="ccsscccssscccccccccscccccsscscccccssccccscsscccsscscccccssccccsccsscccscscssscsccsccssssccscssssccccccsscsssccccsssscssccsssssssccccccscsscscscccscccssccsccscccscssssssccsssccscccsscsccscscc" />
  </g>
</svg>
