<?xml version="1.0" encoding="UTF-8" standalone="no"?>
<svg
   xmlns:dc="http://purl.org/dc/elements/1.1/"
   xmlns:cc="http://creativecommons.org/ns#"
   xmlns:rdf="http://www.w3.org/1999/02/22-rdf-syntax-ns#"
   xmlns:svg="http://www.w3.org/2000/svg"
   xmlns="http://www.w3.org/2000/svg"
   xmlns:sodipodi="http://sodipodi.sourceforge.net/DTD/sodipodi-0.dtd"
   xmlns:inkscape="http://www.inkscape.org/namespaces/inkscape"
   width="389.63"
   height="723.8"
   viewBox="0 0 389.63 723.8"
   version="1.1"
   id="svg82"
   sodipodi:docname="doctor-man-2.svg"
   inkscape:version="0.92.3 (2405546, 2018-03-11)">
  <metadata
     id="metadata88">
    <rdf:RDF>
      <cc:Work
         rdf:about="">
        <dc:format>image/svg+xml</dc:format>
        <dc:type
           rdf:resource="http://purl.org/dc/dcmitype/StillImage" />
        <dc:title />
      </cc:Work>
    </rdf:RDF>
  </metadata>
  <defs
     id="defs86" />
  <sodipodi:namedview
     pagecolor="#ffffff"
     bordercolor="#666666"
     borderopacity="1"
     objecttolerance="10"
     gridtolerance="10"
     guidetolerance="10"
     inkscape:pageopacity="0"
     inkscape:pageshadow="2"
     inkscape:window-width="1920"
     inkscape:window-height="1018"
     id="namedview84"
     showgrid="false"
     inkscape:zoom="0.92222826"
     inkscape:cx="-35.658675"
     inkscape:cy="485.82944"
     inkscape:window-x="0"
     inkscape:window-y="34"
     inkscape:window-maximized="1"
     inkscape:current-layer="svg82" />
  <g
     id="g1192"
     transform="matrix(-1,0,0,1,389.63,0)">
    <path
       style="fill-rule:evenodd"
       inkscape:connector-curvature="0"
       id="path2"
       d="m 82.92,647 -5.76,29.3 32.9,15.36 13.83,-30.34 z" />
    <path
       style="fill-rule:evenodd"
       inkscape:connector-curvature="0"
       id="path4"
       d="m 96.35,723.8 17,-39.26 c 0,0 -19.22,-8.81 -34.77,-15.2 -24.35,3.63 -61.2,1.54 -73.4,-1 C 1.85,676.6 0,682.23 0,682.23 Z" />
    <path
       style="fill-rule:evenodd"
       inkscape:connector-curvature="0"
       id="path6"
       d="m 321.84,650.19 14.16,13.1 30.6,-22.5 -10.8,-14.28 z" />
    <path
       style="fill-rule:evenodd"
       inkscape:connector-curvature="0"
       id="path8"
       d="m 363.9,637.19 25.73,33.74 -55.21,43.33 h -54.56 l 0.12,-14.32 c 0,0 38.68,-7 38.56,-6.89 8,-9.53 14.5,-32.52 14.5,-32.52 z" />
    <path
       style="fill:#aadaf1;fill-rule:evenodd"
       inkscape:connector-curvature="0"
       id="path10"
       d="m 268.45,338.14 c 0,0 17.94,132.48 24.3,146.75 6.36,14.27 67.92,142.53 67.92,142.53 l -44.49,31.91 c 0,0 -99.05,-149.33 -103.54,-157.33 -2.9,-5.12 -10.63,-35.61 -10.63,-35.61 L 125.73,674.1 75.18,651 128.25,343.48 Z" />
    <path
       style="fill:#73a9c3;fill-rule:evenodd"
       inkscape:connector-curvature="0"
       id="path12"
       d="m 214.72,340.2 -39.72,1.51 0.29,9.58 z M 176,376.49 180.55,524.81 202,466.56 Z" />
    <path
       style="fill:none;stroke:#0097f7;stroke-width:1.70000005;stroke-linecap:round;stroke-linejoin:round"
       inkscape:connector-curvature="0"
       id="path14"
       d="M 202.05,466.56 172.26,362.72" />
    <path
       style="fill:none;stroke:#0097f7;stroke-width:1.70000005;stroke-linecap:round;stroke-linejoin:round"
       inkscape:connector-curvature="0"
       id="path16"
       d="m 316.12,588.63 -41.46,-76.7 c 8.1,-8.19 11.49,-16.94 -7.08,-6.56 -13.77,7.69 -16.07,5.08 -4,-8.23 16.25,-17.88 13.42,-20.33 -2.56,-17.75" />
    <path
       style="fill:none;stroke:#0097f7;stroke-width:1.70000005;stroke-linecap:round;stroke-linejoin:round"
       inkscape:connector-curvature="0"
       id="path18"
       d="m 264.36,473 c 0,0 -13.36,-93.68 -17.22,-105.21" />
    <path
       style="fill:none;stroke:#0097f7;stroke-width:1.70000005;stroke-linecap:round;stroke-linejoin:round"
       inkscape:connector-curvature="0"
       id="path20"
       d="m 126.26,582.44 c 1.47,-6.29 9.43,-62.3 14.38,-63.68 23.52,-6.54 27.77,-15.69 5.3,-22.1 -22,-6.29 -21.92,-8.18 -2.08,-14.22 20.3,-6.19 16.3,-9.47 3.25,-21.12 -4.42,-3.95 15.86,-53.31 17,-58.12" />
    <path
       style="fill:none;stroke:#7c7c7c;stroke-width:1.70000005;stroke-linecap:round;stroke-linejoin:round"
       inkscape:connector-curvature="0"
       id="path76"
       d="M 99.52,716.45 2.65,674.81" />
    <path
       style="fill:none;stroke:#7c7c7c;stroke-width:1.70000005;stroke-linecap:round;stroke-linejoin:round"
       inkscape:connector-curvature="0"
       id="path78"
       d="m 279.91,708.09 51.75,-1.79 53.07,-41.8" />
    <path
       style="fill:#f7d167;fill-rule:evenodd"
       inkscape:connector-curvature="0"
       id="path16-9"
       d="m 210.38,341.32 h -70.24 l -9.51,-103.77 12.69,-79.52001 24,-23.11 24.06,-10.74 43.45,6.64 z" />
    <path
       style="fill:#ffffff;fill-rule:evenodd"
       inkscape:connector-curvature="0"
       id="path20-6"
       d="m 222.45,122.89999 c 16.42,0.45 65.45,18.25 72.61,36.31 5.44,13.7 9.17,137.66001 -3.61,143.71001 a 13.88,13.88 0 0 1 -2.56,0.94 c 0.77,3.8 8.13,91.79 6.26,99.11 -1.87,7.32 -6.78,18.4 -13.89,18 -27.51,-1.65 -78.05,-37.76 -83.07,-43.65 -0.77,-11.16 -2.9,-53.08 -2.9,-53.08 l 4.38,-124.38001 25.07,-68.54 c 0,0 -18.71,-8.87 -2.29,-8.42 z" />
    <path
       style="fill:#ffffff;fill-rule:evenodd"
       inkscape:connector-curvature="0"
       id="path22-2"
       d="m 186.67,122.11999 c -28.23,3.51 -68.08,25.4 -73.21,35.37 -4.32,8.38 -2.13,116.87001 -2.13,116.87001 0,0 16,21.95 8.79,53.52 -6.62,29.12 -8.58,68.43 -1.64,75.78 11.44,-5.79 26.15,-29 28.8,-34.72 2.65,-5.72 3.34,-38.08 5.38,-45 2.04,-6.92 11.17,-129.43001 11.17,-129.43001 0,0 4.26,-49.49 22.84,-72.39 z" />
    <g
       transform="translate(-7.9421651,13.670559)"
       id="g1094">
      <path
         d="m 240.06,42 c 0.3,-17.69 -17.77,-42 -43.79,-42 -20.39,0 -41.22,9.7 -41.75,25.48 -1.06,-6.52 -2.07,-10.55 -1.33,-14.15 -4.4,-0.22 -13.25,11.13 -13.25,26.29 0,5.86 4.57,28 17.57,27.73 13,-0.27 62.61,17.49 62.61,17.49 0,0 3.26,4.77 7.66,4.41 4.4,-0.36 12.73,-8.61 12.8,-13.16 0.07,-4.55 -4.05,-12.73 -4,-15.26 0.05,-2.53 3.17,0.83 3.48,-16.83 z"
         id="path26"
         inkscape:connector-curvature="0"
         style="fill:#6a3416;fill-rule:evenodd" />
      <path
         d="M 151.92,64.71 A 38.7,38.7 0 1 1 190.61,103.4 38.69,38.69 0 0 1 151.92,64.71 Z"
         id="path30"
         inkscape:connector-curvature="0"
         style="fill:#f77f89;fill-rule:evenodd" />
      <path
         d="m 150.06,50 c 0,0 5.2,-1 12.85,-12.32 9.54,1.8 25.24,1.72 38.62,-2.32 0.17,8.07 6.09,21.28 14.24,19.82 8.15,-1.46 11.49,-21.1 11.49,-21.1 L 208.05,14 179,14.19 158.55,28.6 Z"
         id="path32"
         inkscape:connector-curvature="0"
         style="fill:#6a3416;fill-rule:evenodd" />
      <path
         d="m 161.61,60.11 c -0.36,-3.09 0.61,-5.73 2.16,-5.91 1.55,-0.18 3.11,2.17 3.47,5.25 0.36,3.08 -0.61,5.73 -2.17,5.91 -1.56,0.18 -3.07,-2.17 -3.46,-5.25 z"
         id="path34"
         inkscape:connector-curvature="0"
         style="fill:#90415b;fill-rule:evenodd" />
      <path
         d="m 229.68,72.76 c -1,6.15 -3,35.4 0.17,41.62 -7.07,7.12 -27.8,10.19 -38.66,7.1 0.85,-8.44 -2.65,-16.69 -4.52,-20.06 -1.87,-3.37 43.98,-34.82 43.01,-28.66 z"
         id="path36"
         inkscape:connector-curvature="0"
         style="fill:#f77f89;fill-rule:evenodd" />
      <path
         d="m 187.45,55.36 c -0.36,-3.08 0.61,-5.72 2.16,-5.91 1.55,-0.19 3.11,2.17 3.46,5.26 0.35,3.09 -0.6,5.73 -2.16,5.91 -1.56,0.18 -3.1,-2.17 -3.46,-5.26 z"
         id="path38"
         inkscape:connector-curvature="0"
         style="fill:#90415b;fill-rule:evenodd" />
      <path
         d="m 174.57,61.14 c 0.31,3.64 -2.61,17.4 -3.23,19.53 -0.62,2.13 2.71,2.92 2.71,2.92"
         id="path40"
         inkscape:connector-curvature="0"
         style="fill:none;stroke:#90415b;stroke-width:1.70000005;stroke-linecap:round;stroke-linejoin:round" />
      <path
         d="m 153.86,76.84 c 0.2,3.87 9.34,23.83 14.73,26.9 5.39,3.07 46,2.67 55.33,-17.43 -7.66,-1.19 -12.85,-7.69 -18.91,-21.6 -13.54,2 -28.89,0 -31.36,0.13 -2.71,0.16 -9.23,9.16 -19.79,12 z"
         id="path42"
         inkscape:connector-curvature="0"
         style="fill:#ffffff;fill-rule:evenodd" />
      <path
         d="M 210.89,60.35 A 14.74,14.74 0 1 1 225.63,75.08 14.74,14.74 0 0 1 210.89,60.35 Z"
         id="path66"
         inkscape:connector-curvature="0"
         style="fill:#f77f89;fill-rule:evenodd" />
      <path
         d="m 205.16,65 c 0,0 9.31,-17 19.17,-19.33"
         id="path68"
         inkscape:connector-curvature="0"
         style="fill:none;stroke:#ffffff;stroke-width:1.70000005;stroke-linecap:round;stroke-linejoin:round" />
      <path
         d="M 223.86,86.43 231.08,74"
         id="path70"
         inkscape:connector-curvature="0"
         style="fill:none;stroke:#ffffff;stroke-width:1.70000005;stroke-linecap:round;stroke-linejoin:round" />
      <path
         d="m 155,80.93 c 2.64,7.21 9.31,20.37 13.6,22.81 1.71,1 7,1.6 13.74,1.35"
         id="path74"
         inkscape:connector-curvature="0"
         style="fill:none;stroke:#c9c9c9;stroke-width:3.41000009;stroke-linecap:round;stroke-linejoin:round" />
    </g>
    <path
       style="fill:none;stroke:#c9c9c9;stroke-width:2;stroke-linecap:round;stroke-linejoin:round"
       inkscape:connector-curvature="0"
       id="path24-1"
       d="m 257.74,132.53999 c -14.21,25.91 -43,55.44 -57.84,66.71" />
    <path
       style="fill:none;stroke:#c9c9c9;stroke-width:2;stroke-linecap:round;stroke-linejoin:round"
       inkscape:connector-curvature="0"
       id="path26-7"
       d="m 172.38,125.08999 c -12.65,17.06 -15.91,46.05 -6,75.49" />
    <path
       style="fill:none;stroke:#353823;stroke-width:3.41000009;stroke-linecap:round;stroke-linejoin:round"
       inkscape:connector-curvature="0"
       id="path28-8"
       d="M 243.38,204.91999 A 11.26,11.26 0 1 0 232.13,216.18 11.26,11.26 0 0 0 243.38,204.91999 Z" />
    <path
       style="fill:#353823;fill-rule:evenodd"
       inkscape:connector-curvature="0"
       id="path30-5"
       d="m 237.9,204.91999 a 5.75,5.75 0 1 0 -5.75,5.75 5.75,5.75 0 0 0 5.75,-5.75 z" />
    <path
       style="fill:none;stroke:#353823;stroke-width:3.41000009;stroke-linecap:round;stroke-linejoin:round"
       inkscape:connector-curvature="0"
       id="path32-7"
       d="m 235.17,194.06999 c 7.6,-27.91 8.09,-66.75 -11.53,-73.75" />
    <g
       transform="translate(-7.7831928,5.4537615)"
       id="g1131">
      <path
         d="m 189.38,115.56999 c -11.19,4.74 -21.85,26.6 -24.35,45.32"
         id="path34-4"
         inkscape:connector-curvature="0"
         style="fill:none;stroke:#353823;stroke-width:3.41000009;stroke-linecap:round;stroke-linejoin:round" />
      <path
         d="m 177.11,196.04999 c 3.58,-17.3 -1.82,-33 -12.06,-35.16 -10.24,-2.16 -21.45,10.18 -25,27.48 -3.55,17.3 1.82,33.00001 12.06,35.15001 10.24,2.15 21.42,-10.20001 25,-27.47001 z"
         id="path36-1"
         inkscape:connector-curvature="0"
         style="fill:none;stroke:#353823;stroke-width:3.41000009;stroke-linecap:round;stroke-linejoin:round" />
    </g>
    <path
       style="fill:none;stroke:#c9c9c9;stroke-width:2;stroke-linecap:round;stroke-linejoin:round"
       inkscape:connector-curvature="0"
       id="path38-8"
       d="M 246.75,168.83999 251.07,252.95" />
    <path
       style="fill:none;stroke:#c9c9c9;stroke-width:2;stroke-linecap:round;stroke-linejoin:round"
       inkscape:connector-curvature="0"
       id="path40-5"
       d="m 258.91,171.31999 -11.23,15.66" />
    <path
       style="fill:#606060;fill-rule:evenodd;stroke:#c9c9c9;stroke-width:2;stroke-linecap:round;stroke-linejoin:round"
       inkscape:connector-curvature="0"
       id="path42-9"
       d="m 221.38,246.26 43.18,10.33" />
    <path
       style="fill:none;stroke:#c9c9c9;stroke-width:2;stroke-linecap:round;stroke-linejoin:round"
       inkscape:connector-curvature="0"
       id="path44-7"
       d="m 262.38,245.04 -11,8.4" />
    <path
       style="fill:none;stroke:#c9c9c9;stroke-width:2;stroke-linecap:round;stroke-linejoin:round"
       inkscape:connector-curvature="0"
       id="path46-5"
       d="m 219.74,294.97 c 18.16,7.31 61.3,16.05 69.45,8.81 10.9,-9.69 14,-109.70001 8.53,-136.23001 -3.19,-15.44 -19.3,-25.38 -27.7,-29.38" />
    <path
       style="fill:none;stroke:#c9c9c9;stroke-width:2;stroke-linecap:round;stroke-linejoin:round"
       inkscape:connector-curvature="0"
       id="path48-3"
       d="m 232.72,299.25 c 5.18,-6.57 7.16,-39.33 4.66,-49.16" />
    <path
       style="fill:#c9c9c9;fill-rule:evenodd"
       inkscape:connector-curvature="0"
       id="path50-8"
       d="m 232.15,256.49 a 2.64,2.64 0 1 0 -2.64,2.63 2.63,2.63 0 0 0 2.64,-2.63 z" />
    <path
       style="fill:none;stroke:#c9c9c9;stroke-width:2;stroke-linecap:round;stroke-linejoin:round"
       inkscape:connector-curvature="0"
       id="path52-8"
       d="m 236.96,336.79 a 49.9,49.9 0 0 0 18,3.35 49.76,49.76 0 0 0 13.49,-2 16.58,16.58 0 0 1 0.53,3.88 v 20.89 a 16.5,16.5 0 1 1 -33,0 V 342 a 16.4,16.4 0 0 1 0.98,-5.21 z" />
    <path
       style="fill:#6367fd;fill-rule:evenodd"
       inkscape:connector-curvature="0"
       id="path54-3"
       d="M 172.96,189.83999 H 86.73 c -5.23,0 -8.35,4.09 -7,9.13 L 113.02,321.43 a 13.07,13.07 0 0 0 12,9.13 h 86.18 c 5.22,0 8.35,-4.09 7,-9.13 L 184.92,198.96999 a 13.06,13.06 0 0 0 -11.96,-9.13 z" />
    <path
       style="fill:#3b4161;fill-rule:evenodd"
       inkscape:connector-curvature="0"
       id="path56-1"
       d="m 149.16,183.53999 h -48.94 a 3.23,3.23 0 0 0 -3.29,4.36 l 2.38,8.32 a 6.34,6.34 0 0 0 5.78,4.36 h 48.94 a 3.24,3.24 0 0 0 3.29,-4.36 l -2.38,-8.32 a 6.36,6.36 0 0 0 -5.78,-4.36 z" />
    <path
       style="fill:#f77f89;fill-rule:evenodd"
       inkscape:connector-curvature="0"
       id="path58-8"
       d="m 221.63,252.26 a 58.58,58.58 0 0 0 -12.07,-5.27 c -6.07,-5 -10.53,-24.75 -12.14,-26 -1.61,-1.25 -7,-0.44 -7.16,1.43 -0.7,6.85 -0.33,14.85 5.74,22 -17.66,-11.23 -19,-16.21 -23.86,-12.45 -4.86,3.76 -6.61,22.1 -2.44,29.68 11.48,20.92 41.68,23.75 50.92,23.89 2.3,-9.95 2.3,-21.98 1.01,-33.28 z" />
    <path
       style="fill:none;stroke:#a7464f;stroke-width:3.41000009;stroke-linecap:round;stroke-linejoin:round"
       inkscape:connector-curvature="0"
       id="path70-9"
       d="m 169.03,237.41 15.45,12.37" />
    <path
       style="fill:none;stroke:#a7464f;stroke-width:3.41000009;stroke-linecap:round;stroke-linejoin:round"
       inkscape:connector-curvature="0"
       id="path72-6"
       d="M 167.38,250.21 187,265.81" />
    <path
       style="fill:#f77f89;fill-rule:evenodd"
       inkscape:connector-curvature="0"
       id="path74-4"
       d="m 81.22,249.62 c 0.24,-4.12 -1,-13.27 -4.66,-22 -1.34,-3.16 -1.42,-8.36 3.29,-8.36 5.36,0 12.53,10.76 9,23.57 -3.53,12.81 -7.98,12.61 -7.63,6.79 z" />
    <path
       style="fill:#f77f89;fill-rule:evenodd"
       inkscape:connector-curvature="0"
       id="path76-3"
       d="m 97.82,225.41 c -4.26,0 -17.21,25.62 -17.12,28.73 0.09,3.11 1.44,7.84 3.45,7.6 2.01,-0.24 18.83,-21.65 18.83,-28.92 0,-4.21 -2.05,-7.41 -5.16,-7.41 z" />
    <path
       style="fill:#f77f89;fill-rule:evenodd"
       inkscape:connector-curvature="0"
       id="path78-3"
       d="m 103.38,240.13 c -5.31,0 -19.31,20.42 -19.41,22.76 -0.1,2.34 2.73,4.49 5.07,4.59 2.34,0.1 19.07,-13.62 19.07,-20 0.03,-3.9 -1.73,-7.35 -4.73,-7.35 z" />
    <path
       style="fill:#f77f89;fill-rule:evenodd"
       inkscape:connector-curvature="0"
       id="path80"
       d="m 98.48,278.32 c -2.3,-0.11 -8.7,-5.83 -8.7,-10.33 0,-1.77 4.47,-6.35 6.71,-6.21 2.24,0.14 6.81,8.75 6.72,10.94 -0.09,2.19 -1.72,5.71 -4.73,5.6 z" />
    <path
       style="fill:none;stroke:#a7464f;stroke-width:3.41000009;stroke-linecap:round;stroke-linejoin:round"
       inkscape:connector-curvature="0"
       id="path82"
       d="m 89.78,234.88 c -4.59,7.64 -9.13,17.42 -9.08,19.26" />
    <path
       style="fill:none;stroke:#a94b53;stroke-width:3.41000009;stroke-linecap:round;stroke-linejoin:round"
       inkscape:connector-curvature="0"
       id="path84"
       d="M 100.17,241.63 C 93.85,246.39 84.08,260.94 84,262.89" />
    <path
       style="fill:none;stroke:#737999;stroke-width:1.70000005;stroke-linecap:round;stroke-linejoin:round"
       inkscape:connector-curvature="0"
       id="path118"
       d="m 196.69,350.96 -46.7,-1.46" />
    <path
       style="fill:none;stroke:#c9c9c9;stroke-width:2;stroke-linecap:round;stroke-linejoin:round"
       inkscape:connector-curvature="0"
       id="path132"
       d="m 268.89,418.52 c 15,6.28 26.26,-4.91 26.35,-16 0.09,-11.09 -4.3,-77.26 -4.9,-83.86" />
    <path
       style="fill:none;stroke:#c9c9c9;stroke-width:2;stroke-linecap:round;stroke-linejoin:round"
       inkscape:connector-curvature="0"
       id="path134"
       d="m 111.56,173.31999 c -0.78,-22.64 23.06,-33 32.87,-37.44" />
    <path
       style="fill:none;stroke:#c9c9c9;stroke-width:2;stroke-linecap:round;stroke-linejoin:round"
       inkscape:connector-curvature="0"
       id="path136"
       d="m 116.22,399.32 c -1.87,-12.07 -2,-44.73 1.16,-57.19" />
  </g>
</svg>
