<?xml version="1.0" encoding="UTF-8" standalone="no"?>
<svg
   xmlns:dc="http://purl.org/dc/elements/1.1/"
   xmlns:cc="http://creativecommons.org/ns#"
   xmlns:rdf="http://www.w3.org/1999/02/22-rdf-syntax-ns#"
   xmlns:svg="http://www.w3.org/2000/svg"
   xmlns="http://www.w3.org/2000/svg"
   xmlns:sodipodi="http://sodipodi.sourceforge.net/DTD/sodipodi-0.dtd"
   xmlns:inkscape="http://www.inkscape.org/namespaces/inkscape"
   viewBox="0 0 521.4 1252.69"
   version="1.1"
   id="svg121"
   sodipodi:docname="persona_5-1.svg"
   inkscape:version="0.92.3 (2405546, 2018-03-11)">
  <metadata
     id="metadata125">
    <rdf:RDF>
      <cc:Work
         rdf:about="">
        <dc:format>image/svg+xml</dc:format>
        <dc:type
           rdf:resource="http://purl.org/dc/dcmitype/StillImage" />
      </cc:Work>
    </rdf:RDF>
  </metadata>
  <sodipodi:namedview
     pagecolor="#ffffff"
     bordercolor="#666666"
     borderopacity="1"
     objecttolerance="10"
     gridtolerance="10"
     guidetolerance="10"
     inkscape:pageopacity="0"
     inkscape:pageshadow="2"
     inkscape:window-width="1920"
     inkscape:window-height="1018"
     id="namedview123"
     showgrid="false"
     inkscape:zoom="0.53286035"
     inkscape:cx="541.83435"
     inkscape:cy="762.83039"
     inkscape:window-x="0"
     inkscape:window-y="34"
     inkscape:window-maximized="1"
     inkscape:current-layer="svg121" />
  <defs
     id="defs4">
    <style
       id="style2">.cls-1,.cls-13,.cls-14,.cls-5{fill:none;}.cls-1{stroke:#424d76;}.cls-1,.cls-5{stroke-linecap:round;}.cls-1,.cls-12,.cls-14,.cls-2,.cls-3{stroke-miterlimit:10;}.cls-1,.cls-2,.cls-3{stroke-width:5px;}.cls-10,.cls-12,.cls-2{fill:#fff;}.cls-14,.cls-2,.cls-3{stroke:#ffb000;}.cls-3{fill:#ffd880;}.cls-4{fill:#ffb000;}.cls-13,.cls-5{stroke:#fff;stroke-linejoin:round;}.cls-5{stroke-width:4px;}.cls-6{fill:#424d76;}.cls-7{fill:#c36f0b;}.cls-8{fill:#6562cf;}.cls-9{fill:#eaeaff;}.cls-11{fill:#b65a18;}.cls-12{stroke:#6562cf;stroke-width:7px;}.cls-13{stroke-width:6px;}.cls-14{stroke-width:3px;}</style>
  </defs>
  <g
     id="LEGS">
    <path
       class="cls-4"
       d="m 266.23,1064.52 c 8.37,4.78 26.28,5.31 29.47,17.58 3.19,12.27 -14.34,60.85 -11.55,78 2.79,17.15 2.54,53.77 -25.88,57.73 -31.45,4.38 -55.34,-6.37 -55.34,-18.32 0,-11.95 18.32,-25.51 21.07,-45.81 2.75,-20.3 10,-64.1 10,-64.1 z"
       id="path17"
       inkscape:connector-curvature="0"
       style="fill:#ffb000" />
    <path
       class="cls-5"
       d="m 226.12,1118 c 0,0 13.27,-11.5 33.62,0"
       id="path19"
       inkscape:connector-curvature="0"
       style="fill:none;stroke:#ffffff;stroke-width:4px;stroke-linecap:round;stroke-linejoin:round" />
    <path
       class="cls-5"
       d="m 223.12,1132 c 0,0 13.27,-11.5 33.62,0"
       id="path21"
       inkscape:connector-curvature="0"
       style="fill:none;stroke:#ffffff;stroke-width:4px;stroke-linecap:round;stroke-linejoin:round" />
    <path
       class="cls-5"
       d="m 220.12,1146 c 0,0 13.27,-11.5 33.62,0"
       id="path23"
       inkscape:connector-curvature="0"
       style="fill:none;stroke:#ffffff;stroke-width:4px;stroke-linecap:round;stroke-linejoin:round" />
    <path
       class="cls-4"
       d="m 373.48,1124.82 c -5.32,7.78 -36,26.89 -34.39,35.65 1.61,8.76 29.86,34.24 31.85,47.77 1.99,13.53 -0.79,33.84 11.15,39.82 11.94,5.98 75.25,6.37 85.6,0 10.35,-6.37 -0.8,-26.68 -11.95,-31.06 -11.15,-4.38 -41,-54.14 -39.28,-84.8 z"
       id="path25"
       inkscape:connector-curvature="0"
       style="fill:#ffb000" />
    <path
       class="cls-5"
       d="m 429.57,1160.75 c 0,0 -13.27,-11.5 -33.62,0"
       id="path27"
       inkscape:connector-curvature="0"
       style="fill:none;stroke:#ffffff;stroke-width:4px;stroke-linecap:round;stroke-linejoin:round" />
    <path
       class="cls-5"
       d="m 434.57,1174.75 c 0,0 -13.27,-11.5 -33.62,0"
       id="path29"
       inkscape:connector-curvature="0"
       style="fill:none;stroke:#ffffff;stroke-width:4px;stroke-linecap:round;stroke-linejoin:round" />
    <path
       class="cls-5"
       d="m 440.57,1188.75 c 0,0 -13.27,-11.5 -33.62,0"
       id="path31"
       inkscape:connector-curvature="0"
       style="fill:none;stroke:#ffffff;stroke-width:4px;stroke-linecap:round;stroke-linejoin:round" />
    <path
       class="cls-6"
       d="m 183.25,586.83 c 0,0 -183.25,72.96 -183.25,135.73 0,111.93 156.27,318 188.25,314.91 31.98,-3.09 53.51,-28.88 52.28,-42.41 -1.23,-13.53 -59,-187.64 -100.28,-246.69 0,0 126.12,-32 142.73,-32.6 16.61,-0.6 102.11,45.52 103.34,47.36 1.23,1.84 -44.2,126.56 -17.84,289.1 3.69,22.76 72.58,27.68 79.35,18.46 6.77,-9.22 83,-330.32 72.58,-356.15 -10.42,-25.83 -98,-96.53 -150.93,-124.71 -38.14,-20.3 -186.23,-3 -186.23,-3 z"
       id="path33"
       inkscape:connector-curvature="0"
       style="fill:#424d76" />
    <path
       class="cls-7"
       d="m 426.69,1103.34 c -1.14,3.52 -6.55,20.09 -10.23,28.86 -3.52,8.37 -47.37,5.53 -43,-7.39 3.73,-11 3.79,-26 3.72,-30.22 7.18,2.85 27.54,10 49.51,8.75 z"
       id="path35"
       inkscape:connector-curvature="0"
       style="fill:#c36f0b" />
    <path
       class="cls-8"
       d="m 427.53,1103.29 12.25,-29.18 c 0,0 -39.77,4.94 -66.3,-13.39 l 1,32.72 c 0,0 27.58,12.56 53.05,9.85 z"
       id="path37"
       inkscape:connector-curvature="0"
       style="fill:#6562cf" />
    <path
       class="cls-7"
       d="m 248.15,1030.09 c 0,0 14.5,30.05 18.08,34.43 3.58,4.38 -16.32,26.67 -32.24,25.08 l -25.44,-34.29 c 0,0 27.29,-5.1 39.6,-25.22 z"
       id="path39"
       inkscape:connector-curvature="0"
       style="fill:#c36f0b" />
    <path
       class="cls-8"
       d="m 238.91,1003.73 10.24,26.36 c 0,0 -15.89,22.05 -42.6,26.22 l -18.3,-18.84 c 0,0 34.27,-4.13 50.66,-33.74 z"
       id="path41"
       inkscape:connector-curvature="0"
       style="fill:#6562cf" />
  </g>
  <g
     id="T-SHIRT">
    <path
       class="cls-9"
       d="m 356.33,211 c 16.18,11.89 60.14,32.68 87.5,51.83 22.07,15.45 41.76,83 41.76,83 0,0 -30.73,31.34 -82.35,43.63 0,0 -29.5,91 -40.56,197.28 0,0 -94.65,35 -180.07,0 0,0 -34.42,-194.82 -38.72,-196 -4.3,-1.18 -68.08,-20.75 -89,-52.1 0,0 24.67,-71.07 58.3,-85 36.54,-15.14 85.23,-35.89 102.17,-45 8.64,-4.72 140.97,2.36 140.97,2.36 z"
       id="path44"
       inkscape:connector-curvature="0"
       style="fill:#eaeaff" />
    <path
       class="cls-10"
       d="m 130.18,246.49 -71.74,96.78 c -0.78,-0.93 -1.53,-1.87 -2.22,-2.83 l 67.71,-91.32 z"
       id="path46"
       inkscape:connector-curvature="0"
       style="fill:#ffffff" />
    <path
       class="cls-10"
       d="m 165.26,231.57 -92.65,125 c -0.93,-0.71 -1.84,-1.42 -2.73,-2.14 l 89,-120.08 z"
       id="path48"
       inkscape:connector-curvature="0"
       style="fill:#ffffff" />
    <path
       class="cls-10"
       d="M 201.11,215.59 88.74,367.16 c -1,-0.58 -2,-1.16 -3,-1.77 L 194.53,218.63 v 0 c 2.31,-1.06 4.47,-2.07 6.58,-3.04 z"
       id="path50"
       inkscape:connector-curvature="0"
       style="fill:#ffffff" />
    <path
       class="cls-10"
       d="M 231.43,207.07 106.09,376.13 c -1.06,-0.49 -2.12,-1 -3.19,-1.51 L 227,207.19 c 1.4,-0.05 2.87,-0.1 4.43,-0.12 z"
       id="path52"
       inkscape:connector-curvature="0"
       style="fill:#ffffff" />
    <path
       class="cls-10"
       d="M 255.39,207.12 124.39,383.89 121,382.58 251.13,207.06 Z"
       id="path54"
       inkscape:connector-curvature="0"
       style="fill:#ffffff" />
    <path
       class="cls-10"
       d="M 279,207.71 143.42,390.54 c -0.69,-0.21 -1.89,-0.58 -3.5,-1.1 L 274.74,207.59 v 0 c 1.41,0.03 2.81,0.07 4.26,0.12 z"
       id="path56"
       inkscape:connector-curvature="0"
       style="fill:#ffffff" />
    <path
       class="cls-10"
       d="M 302.35,208.54 150.08,413.91 c -0.33,-1.56 -0.65,-3.06 -1,-4.5 l 149.05,-201 z"
       id="path58"
       inkscape:connector-curvature="0"
       style="fill:#ffffff" />
    <path
       class="cls-10"
       d="M 325.62,209.52 155.29,439.27 c -0.31,-1.55 -0.61,-3.08 -0.91,-4.58 L 321.45,209.33 Z"
       id="path60"
       inkscape:connector-curvature="0"
       style="fill:#ffffff" />
    <path
       class="cls-10"
       d="M 348.81,210.62 160.29,464.91 c -0.3,-1.54 -0.6,-3.09 -0.89,-4.62 L 344.65,210.42 Z"
       id="path62"
       inkscape:connector-curvature="0"
       style="fill:#ffffff" />
    <path
       class="cls-10"
       d="M 367.28,218.1 165.15,490.73 c -0.28,-1.55 -0.57,-3.1 -0.86,-4.65 l 200,-269.79 c 0.96,0.59 1.96,1.19 2.99,1.81 z"
       id="path64"
       inkscape:connector-curvature="0"
       style="fill:#ffffff" />
    <path
       class="cls-10"
       d="M 384.15,227.71 170,516.62 c -0.29,-1.54 -0.57,-3.09 -0.86,-4.66 L 381.09,226 c 1.01,0.58 2.03,1.15 3.06,1.71 z"
       id="path66"
       inkscape:connector-curvature="0"
       style="fill:#ffffff" />
    <path
       class="cls-10"
       d="M 401.17,237.13 174.69,542.61 c -0.27,-1.53 -0.55,-3.09 -0.84,-4.67 v 0 l 224.27,-302.5 z"
       id="path68"
       inkscape:connector-curvature="0"
       style="fill:#ffffff" />
    <path
       class="cls-10"
       d="m 418.08,246.7 -238.69,322 c -0.27,-1.49 -0.54,-3 -0.84,-4.69 L 415.06,245 Z"
       id="path70"
       inkscape:connector-curvature="0"
       style="fill:#ffffff" />
    <path
       class="cls-10"
       d="M 434.64,256.73 188.33,589 185,587.67 431.73,254.87 Z"
       id="path72"
       inkscape:connector-curvature="0"
       style="fill:#ffffff" />
    <path
       class="cls-10"
       d="M 450,268.46 207.81,595.07 c -1.2,-0.3 -2.39,-0.63 -3.59,-1 l 243.3,-328.18 c 0.82,0.82 1.63,1.66 2.48,2.57 z"
       id="path74"
       inkscape:connector-curvature="0"
       style="fill:#ffffff" />
    <path
       class="cls-10"
       d="m 461.4,285.39 -232.77,314 c -1.28,-0.19 -2.57,-0.4 -3.85,-0.64 L 459.53,282.1 c 0.63,1.07 1.25,2.18 1.87,3.29 z"
       id="path76"
       inkscape:connector-curvature="0"
       style="fill:#ffffff" />
    <path
       class="cls-10"
       d="m 402.7,391.12 c -0.58,1.86 -1.61,5.2 -3,9.85 v 0 L 250.85,601.79 c -1.37,-0.09 -2.73,-0.18 -4.11,-0.3 z"
       id="path78"
       inkscape:connector-curvature="0"
       style="fill:#ffffff" />
    <path
       class="cls-10"
       d="m 470.86,305 -61.4,82.82 c -1.76,0.49 -3.55,1 -5.35,1.4 l 65.14,-87.88 c 0.54,1.24 1.08,2.46 1.61,3.66 z"
       id="path80"
       inkscape:connector-curvature="0"
       style="fill:#ffffff" />
    <path
       class="cls-10"
       d="m 388.46,442.73 c -0.71,2.8 -1.41,5.7 -2.12,8.67 v 0 L 274.55,602.2 v 0 c -1.45,0 -2.9,0.06 -4.37,0.07 z"
       id="path82"
       inkscape:connector-curvature="0"
       style="fill:#ffffff" />
    <path
       class="cls-10"
       d="M 479.13,326.23 443,375 c -2.14,1.06 -4.35,2.11 -6.65,3.14 l 41.38,-55.82 c 0.48,1.34 0.95,2.68 1.4,3.91 z"
       id="path84"
       inkscape:connector-curvature="0"
       style="fill:#ffffff" />
    <path
       class="cls-10"
       d="m 377.9,489.35 q -0.81,3.93 -1.61,8 v 0 l -76.43,103.1 c -1.55,0.17 -3.1,0.34 -4.68,0.49 z"
       id="path86"
       inkscape:connector-curvature="0"
       style="fill:#ffffff" />
    <path
       class="cls-10"
       d="m 370,532.42 c -0.39,2.45 -0.79,4.91 -1.17,7.39 L 327,596.21 c -1.63,0.32 -3.31,0.65 -5,1 z"
       id="path88"
       inkscape:connector-curvature="0"
       style="fill:#ffffff" />
  </g>
  <g
     id="HANDS">
    <g
       id="RIGHT">
      <path
         class="cls-7"
         d="m 515,507.3 c -2.26,42 -81.92,81 -123.93,98.7 -1.39,8.7 -7.1,12.51 -18.08,15.34 -22.89,5.9 -20.74,21 -21.92,23.88 -1.85,4.59 -24.43,9.82 -29.86,6 -3.23,-2.29 5.89,-31.05 11.08,-41.16 3.23,-6.29 24.87,-18.2 39.06,-23.33 0,0 72,-87.27 81.86,-92.19 0,0 -26.63,-73 -37.77,-99.27 -1.59,-3.77 -2.87,-6.57 -3.7,-8.06 0,0 40,-12 67.06,-35.3 0,0 2.45,6.11 6.06,16.16 10.87,30.26 32.43,96.32 30.14,139.23 z"
         id="path91"
         inkscape:connector-curvature="0"
         style="fill:#c36f0b" />
      <path
         class="cls-11"
         d="m 484.85,368.06 c -5.6,5.95 -22.62,18.84 -69.42,27.2 -1.6,-3.76 -2.88,-6.57 -3.71,-8.06 0,0 40,-12 67.07,-35.3 0,0 2.44,6.1 6.06,16.16 z"
         id="path93"
         inkscape:connector-curvature="0"
         style="fill:#b65a18" />
    </g>
    <g
       id="LEFT">
      <path
         class="cls-7"
         d="m 226.85,650.21 c -6.07,2.68 -24.2,-2.34 -25.86,-5 -1.66,-2.66 -4,-19.2 -21.91,-24.88 -12.82,-4.07 -18.64,-8.12 -18.42,-20.77 C 123.39,586.83 24.28,549.07 19.79,506.2 c -3,-28.6 26.91,-110.41 39.4,-143 3.27,-8.51 5.34,-13.67 5.34,-13.67 28.81,24 66.2,36.52 66.2,36.52 l -3.09,8.47 -36.07,98.78 c 16.42,6.23 76.22,79.67 85.54,91.2 19.43,3.76 40.24,17.27 42.67,24.55 2.55,7.63 13.32,38.39 7.07,41.16 z"
         id="path96"
         inkscape:connector-curvature="0"
         style="fill:#c36f0b" />
      <path
         class="cls-11"
         d="m 64.54,349.51 c 28.8,24 66.2,36.52 66.2,36.52 l -3.09,8.46 C 107.9,391.37 75.46,383.74 59.2,363.17 c 3.26,-8.5 5.34,-13.66 5.34,-13.66 z"
         id="path98"
         inkscape:connector-curvature="0"
         style="fill:#b65a18" />
    </g>
  </g>
  <g
     id="LAPTOP">
    <path
       class="cls-12"
       d="M 419.4,677.63 H 129.85 L 81.11,486.05 A 17.53,17.53 0 0 1 98,463.67 h 353.29 a 17.53,17.53 0 0 1 16.85,22.38 z"
       id="path102"
       inkscape:connector-curvature="0"
       style="fill:#ffffff;stroke:#6562cf;stroke-width:7px;stroke-miterlimit:10" />
    <path
       class="cls-8"
       d="m 410.62,675.83 h -272 l -45.79,-180 c -3,-10.53 -5.12,-23 5.83,-23 h 351.92 c 10.95,0 8.86,12.49 5.83,23 z"
       id="path104"
       inkscape:connector-curvature="0"
       style="fill:#6562cf" />
    <path
       class="cls-13"
       d="m 291.18,589.74 h -33.11 a 5,5 0 0 1 -4.84,-3.77 l -3.95,-21.33 a 2.3,2.3 0 0 1 2.21,-2.93 h 46.27 a 2.3,2.3 0 0 1 2.21,2.93 L 296,586 a 5,5 0 0 1 -4.82,3.74 z"
       id="path106"
       inkscape:connector-curvature="0"
       style="fill:none;stroke:#ffffff;stroke-width:6px;stroke-linejoin:round" />
  </g>
  <g
     id="HEAD">
    <path
       id="NECK"
       class="cls-11"
       d="m 318.63,152 c 0,0 -1.64,36 37.7,59 0,0 -39,28.4 -71.29,64.88 0,0 -34.6,-42.31 -69.65,-67.33 0,0 34.41,-27.05 34.41,-56.54 z"
       inkscape:connector-curvature="0"
       style="fill:#b65a18" />
    <path
       id="HEAD-2"
       data-name="HEAD"
       class="cls-7"
       d="m 352.11,132.18 c -3.95,5.18 -11.08,14.89 -14.52,21.86 -6.12,33.19 -27,55.15 -53.47,55.15 -22.94,0 -38.44,-25.72 -45.58,-49.63 0,0 0,0 0,0 a 10.89,10.89 0 0 1 -0.42,-1.33 c -1.77,-6.59 -11.36,-19.7 -16.18,-26 a 4.42,4.42 0 0 1 1.33,-6.52 c 5.88,-3.37 8.93,-0.92 10.53,2.28 -0.85,-23.91 0.14,-49 14.06,-49.14 16,-0.15 69.21,-1.2 78.43,1.88 7.93,2.64 13.16,13.75 13.18,49.26 1.25,-4 4.25,-8.33 11.31,-4.28 a 4.42,4.42 0 0 1 1.33,6.47 z"
       inkscape:connector-curvature="0"
       style="fill:#c36f0b" />
    <g
       id="HAIR">
      <path
         class="cls-4"
         d="m 361.67,88.67 c -10.58,13.3 -23.11,44.09 -23.11,44.09 0,0 4.55,-47.66 -13.89,-47.14 -8.77,0.24 -26.41,12.53 -44.88,10.53 -15.34,-1.66 -34.5,-22.48 -42.39,-8.87 -4.37,10.43 -4.06,26.8 -3.4,43.64 C 229.29,109.37 219.55,95.03 214.2,86.47 202.96,80.64 194.14,68.16 196.68,55.47 201,34 217.55,35.2 217.55,35.2 245.46,38.09 229.17,21.82 263,6.45 c 33.83,-15.37 72.31,-0.82 75.62,17.7 2.28,12.7 10.09,6.34 22.32,12 17.18,8.02 13.16,36.85 0.73,52.52 z"
         id="path111"
         inkscape:connector-curvature="0"
         style="fill:#ffb000" />
      <path
         class="cls-14"
         d="m 260.88,103.08 c 47.36,6 52.06,-19.71 72.45,-16.6"
         id="path113"
         inkscape:connector-curvature="0"
         style="fill:none;stroke:#ffb000;stroke-width:3px;stroke-miterlimit:10" />
    </g>
  </g>
</svg>
