<?xml version="1.0" encoding="UTF-8" standalone="no"?>
<svg
   xmlns:dc="http://purl.org/dc/elements/1.1/"
   xmlns:cc="http://creativecommons.org/ns#"
   xmlns:rdf="http://www.w3.org/1999/02/22-rdf-syntax-ns#"
   xmlns:svg="http://www.w3.org/2000/svg"
   xmlns="http://www.w3.org/2000/svg"
   xmlns:sodipodi="http://sodipodi.sourceforge.net/DTD/sodipodi-0.dtd"
   xmlns:inkscape="http://www.inkscape.org/namespaces/inkscape"
   viewBox="0 0 774.87718 1372.8507"
   version="1.1"
   id="svg144"
   sodipodi:docname="persona_cooking.svg"
   width="774.8772"
   height="1372.8507"
   inkscape:version="0.92.3 (2405546, 2018-03-11)">
  <metadata
     id="metadata148">
    <rdf:RDF>
      <cc:Work
         rdf:about="">
        <dc:format>image/svg+xml</dc:format>
        <dc:type
           rdf:resource="http://purl.org/dc/dcmitype/StillImage" />
        <dc:title></dc:title>
      </cc:Work>
    </rdf:RDF>
  </metadata>
  <sodipodi:namedview
     pagecolor="#ffffff"
     bordercolor="#666666"
     borderopacity="1"
     objecttolerance="10"
     gridtolerance="10"
     guidetolerance="10"
     inkscape:pageopacity="0"
     inkscape:pageshadow="2"
     inkscape:window-width="1920"
     inkscape:window-height="1018"
     id="namedview146"
     showgrid="false"
     fit-margin-top="0"
     fit-margin-left="0"
     fit-margin-right="0"
     fit-margin-bottom="0"
     inkscape:zoom="0.49243743"
     inkscape:cx="456.06849"
     inkscape:cy="578.49462"
     inkscape:window-x="0"
     inkscape:window-y="34"
     inkscape:window-maximized="1"
     inkscape:current-layer="svg144" />
  <defs
     id="defs4">
    <style
       id="style2">.cls-1,.cls-10,.cls-13,.cls-17,.cls-18,.cls-5{fill:none;}.cls-1,.cls-18,.cls-19,.cls-2,.cls-3{stroke:#d8baa3;}.cls-1,.cls-10,.cls-13,.cls-14,.cls-15,.cls-17,.cls-18,.cls-19,.cls-2,.cls-3,.cls-5{stroke-miterlimit:10;}.cls-1,.cls-10,.cls-2,.cls-3{stroke-width:6px;}.cls-12,.cls-14,.cls-16,.cls-19,.cls-2{fill:#fff;}.cls-3,.cls-9{fill:#f0e1d4;}.cls-4{fill:#722d54;}.cls-10,.cls-15,.cls-5{stroke:#fff;}.cls-10,.cls-18,.cls-19,.cls-5{stroke-linecap:round;}.cls-13,.cls-14,.cls-18,.cls-19,.cls-5{stroke-width:5px;}.cls-6{fill:#3f4d90;}.cls-7{fill:#c36f0b;}.cls-8{fill:#b65a18;}.cls-11{fill:#ffb000;}.cls-13,.cls-14,.cls-17{stroke:#722d54;}.cls-15{fill:#3f4d79;stroke-width:2px;}.cls-16{opacity:0.2;}.cls-17{stroke-width:3px;}</style>
  </defs>
  <g
     id="g1579"
     transform="translate(-1199.2119,-37.825462)">
    <path
       sodipodi:nodetypes="cccccccccc"
       inkscape:connector-curvature="0"
       id="path1420"
       d="m 1251.5117,612.30254 c -32.4203,-7.70271 -50.7054,-28.52358 -52.1163,-59.34358 -0.8961,-19.57394 -0.8961,-19.57394 59.8822,-19.11045 133.4358,1.01742 231.5776,5.44835 233.272,10.53174 20.3137,-2.95805 22.8294,6.70378 19.7104,10.46185 -4.4129,5.31711 -34.6991,7.60216 -53.4162,5.26365 -27.4291,-3.42706 -35.3864,0.72137 -39.7833,20.74067 -1.5793,7.19038 -8.9558,18.19312 -16.3922,24.45043 -13.0887,11.01336 -15.488,11.36226 -75.0791,10.91613 -33.8571,-0.25329 -68.092,-2.01313 -76.0775,-3.91044 z"
       style="fill:#959599;fill-opacity:1;stroke-width:4.5020957" />
    <g
       transform="translate(860.6895,-49.77326)"
       id="_Группа_2"
       data-name="&lt;Группа&gt;">
      <path
         class="cls-7"
         d="m 703.05,598.42 c 0,0 -32.27,-25.72 -47.33,-21.23 -15.06,4.49 -17,23.65 -18.81,28.54 -1.81,4.89 -3.4,22.4 -3.36,27.76 0.04,5.36 15.15,8 21.17,8 6.02,0 45.47,0.47 53.07,-1.62 7.6,-2.09 -4.74,-41.45 -4.74,-41.45 z"
         id="path88"
         inkscape:connector-curvature="0"
         style="fill:#c36f0b" />
      <path
         class="cls-8"
         d="m 654.72,641.5 c -6,0 -16.83,0.38 -20.16,-3.63 -6.6,-8 -4.57,-22.14 -3.15,-27.54 1.21,-4.64 9.26,-28.64 24.31,-33.14 0,0 -18.37,33.54 -1,64.31"
         id="path90"
         inkscape:connector-curvature="0"
         style="fill:#b65a18" />
    </g>
    <path
       id="path1495"
       d="m 1960.7516,578.48802 c 0,-1.66215 -3.3529,-6.72701 -7.4509,-11.25524 -8.1265,-8.9797 -49.6575,-12.36213 -44.2443,-3.60339 6.4782,10.48192 51.6952,23.47849 51.6952,14.85863 z"
       style="fill:#fddc68;stroke-width:4.5020957"
       inkscape:connector-curvature="0" />
    <path
       id="path1493"
       d="m 1930.7974,516.01298 c 16.7819,-16.29847 19.5225,-22.11321 12.475,-26.4688 -5.6487,-3.49106 -23.8476,12.00797 -33.4239,28.46547 -11.4967,19.75766 -0.3575,18.696 20.9489,-1.99667 z"
       style="fill:#fddc68;stroke-width:4.5020957"
       inkscape:connector-curvature="0" />
    <path
       sodipodi:nodetypes="ccsscssc"
       inkscape:connector-curvature="0"
       id="path1428"
       d="m 1674.322,293.40791 c -13.9052,-5.55515 -42.2486,-37.59986 -36.9387,-47.52139 2.2881,-4.27539 8.2216,-23.38188 8.2216,-28.18745 0,-5.95685 3.9905,-9.53551 12.5394,-11.24529 22.694,-4.53879 51.997,-7.57267 61.5617,-28.16404 4.8882,-10.52365 16.3424,17.41896 18.0078,17.41896 5.4565,0 14.4123,17.24523 11.1696,37.06362 -6.4072,39.15893 -47.7663,71.34022 -74.5614,60.63559 z"
       style="fill:#c36f0b;fill-opacity:1;stroke-width:4.5020957" />
    <g
       transform="translate(321.64882,14.667119)"
       id="g1479">
      <path
         style="fill:#c36f0b"
         inkscape:connector-curvature="0"
         d="m 1400.6492,129.93846 c 0,0 -3.5691,30.69631 18.4692,49.91248 7.3015,6.3615 -97.7656,40.02564 -97.7656,40.02564 l -6.4702,-58.20174 z"
         class="cls-7"
         id="NECK" />
      <path
         style="fill:#c36f0b"
         inkscape:connector-curvature="0"
         d="m 1276.1726,85.099606 c 3.4807,14.247523 14.2787,46.771514 11.7289,87.166894 -2.5499,40.39538 58.3736,16.90275 72.5864,6.6428 14.4663,-10.4391 19.7743,-26.84048 19.7743,-26.84048 0,0 28.9794,-20.31969 24.1021,-33.44268 -3.7584,-10.15694 -18.228,0.76319 -18.228,0.76319 0,0 -16.1771,-71.467529 -33.7631,-68.969318 -17.5859,2.49821 -80.2277,18.235144 -76.2006,34.679594 z"
         class="cls-7"
         data-name="HEAD"
         id="HEAD-2" />
      <g
         id="HAIR"
         transform="rotate(-20.306092,1088.9511,-1473.9551)">
        <path
           style="fill:#722d54"
           inkscape:connector-curvature="0"
           id="path102"
           d="m 813.81,125.32 c -6,2.76 -20.75,-13.31 -13.11,-31 9.14,-21.11 11.94,-39.13 -4.29,-42.68 -16.23,-3.55 -32,15.48 -65.29,6.1 -33.29,-9.38 -28.23,-51.11 0.38,-54.39 28.61,-3.28 32.36,18.27 37,18.74 4.64,0.47 36.16,-13.62 53.77,4.67 14.62,15.19 9.44,24.45 13.43,25.39 3.99,0.94 17.7,6.52 16.76,21.06 -0.94,14.54 -24.13,50.23 -24.13,50.23 0,0 -5.39,-2.34 -14.52,1.88 z"
           class="cls-4" />
        <path
           style="fill:none;stroke:#722d54;stroke-width:3px;stroke-miterlimit:10"
           inkscape:connector-curvature="0"
           id="path104"
           d="M 786.93,49.78 C 770.22,53.13 754,70 720.7,60.62 687.4,51.24 692.46,4.77 721.07,1.49"
           class="cls-17" />
        <path
           style="fill:none;stroke:#722d54;stroke-width:3px;stroke-miterlimit:10"
           inkscape:connector-curvature="0"
           id="path106"
           d="m 830.07,52.13 c 3.71,-1.75 17.91,-5.92 26.24,6"
           class="cls-17" />
        <path
           style="fill:#722d54"
           inkscape:connector-curvature="0"
           id="path108"
           d="m 820.24,116.13 c -5.39,5.63 -18,25.53 -20.36,46.78 -2.36,21.25 -16.4,38.22 -52,36.81 -35.6,-1.41 -55.41,-11.26 -57.28,-23 -1.87,-11.74 15.51,-42.32 15.51,-42.32 0,0 13.16,-22.32 32.39,-18 19.23,4.32 23,35.93 35.17,35.79 22.81,-0.27 33.63,-42.81 33.63,-42.81 z"
           class="cls-4" />
      </g>
    </g>
    <path
       style="fill:#722d54"
       inkscape:connector-curvature="0"
       id="path17"
       d="m 1578.648,1349.8464 c 0,6.93 14.7,35.31 14.21,47.53 -0.49,12.22 -52.83,11.08 -78.74,11.24 -30.8,0.2 -96.31,0.2 -96.31,0.2 0,0 -6.35,-28.24 27.38,-32.15 33.73,-3.91 74.51,-39.56 74.51,-39.56 z"
       class="cls-4" />
    <g
       transform="translate(-203.60978,-40.4245)"
       id="g1543">
      <path
         class="cls-4"
         d="m 2068.4909,1371.3907 c 1.59,5.78 19.19,31.19 19.19,55.63 0,0 -31.78,22 -43,23.44 -11.22,1.44 -103.65,0 -103.65,0 0,0 -2.22,-30.28 38.14,-35.52 28.35,-3.69 29.31,-38 29.31,-38 z"
         id="path19"
         inkscape:connector-curvature="0"
         style="fill:#722d54" />
      <path
         class="cls-5"
         d="m 2019.2309,1421.0507 c 0,0 -14.91,-10 -40.08,-10.14"
         id="path21"
         inkscape:connector-curvature="0"
         style="fill:none;stroke:#ffffff;stroke-width:5px;stroke-linecap:round;stroke-miterlimit:10" />
    </g>
    <path
       sodipodi:nodetypes="ccccssccsssccc"
       inkscape:connector-curvature="0"
       id="path1424"
       d="m 1544.3077,1351.7898 c -14.8569,-1.4894 -29.8043,-4.4992 -33.2165,-6.6886 -9.8885,-6.3449 -3.197,-48.4781 19.1827,-120.7847 10.9438,-35.3579 26.3272,-88.3174 34.1854,-117.6878 7.8583,-29.3703 20.2472,-68.2836 27.531,-86.474 7.2838,-18.1904 16.7011,-46.83461 20.9274,-63.6539 4.2263,-16.81922 7.9862,-31.16571 8.3553,-31.88113 6.1911,-20.29815 15.0017,2.6705 32.5169,7.52425 17.5152,4.85368 43.0983,10.23083 56.8514,11.94916 13.753,1.71832 25.0055,3.86366 25.0055,4.76739 0,5.5027 -53.4528,209.72453 -70.59,269.69613 -25.5571,89.437 -41.0631,122.0102 -62.3063,130.8862 -8.461,3.5353 -18.9941,6.1188 -23.4069,5.7412 -4.4128,-0.3777 -20.179,-1.905 -35.0359,-3.3942 z"
       style="fill:#959599;fill-opacity:1;stroke-width:4.5020957" />
    <path
       sodipodi:nodetypes="csccsscscsssc"
       inkscape:connector-curvature="0"
       id="path1422"
       d="m 1774.4104,1336.5162 c -9.1557,-9.1557 -10.9703,-17.5993 -15.7229,-73.1591 -6.4886,-75.8545 -8.7098,-255.4319 -3.6011,-291.14356 3.6065,-25.21138 2.587,-34.77674 18.8235,-37.72139 35.7425,-6.48215 53.1775,-27.36899 66.6473,-56.90409 9.2688,-20.32357 9.4367,-17.9141 10.6493,-109.24103 1.2138,-91.41775 8.7409,-147.26668 17.2646,-141.99881 3.6108,2.23163 10.9024,16.37534 29.5198,139.51234 13.834,91.49957 15.9351,138.72874 8.5226,191.57448 -2.4312,17.33305 -6.3166,89.25406 -8.6341,159.82436 -3.293,100.2731 -6.2297,137.6553 -13.4398,171.0797 -11.8267,54.8258 -15.8716,58.5272 -63.9564,58.5272 -31.2684,0 -37.0132,-1.2906 -46.0728,-10.3501 z"
       style="fill:#959599;fill-opacity:1;stroke-width:4.5020957" />
    <path
       id="path1470"
       d="m 1899.5644,1106.0042 c 0,-42.0946 0.6716,-59.9211 1.5038,-39.6144 0.8322,20.3067 0.8365,54.7477 0.01,76.5356 -0.827,21.7879 -1.5079,5.1734 -1.5131,-36.9212 z"
       style="fill:#9518cf;stroke-width:4.5020957"
       inkscape:connector-curvature="0" />
    <path
       id="path1468"
       d="m 1750.7262,1139.7699 c 0,-21.0472 0.7755,-29.6575 1.7234,-19.1339 0.9478,10.5237 0.9478,27.7442 0,38.2678 -0.9479,10.5237 -1.7234,1.9134 -1.7234,-19.1339 z"
       style="fill:#9518cf;stroke-width:4.5020957"
       inkscape:connector-curvature="0" />
    <path
       id="path1466"
       d="m 1750.3791,1000.205 c 0,-11.14269 0.878,-15.70111 1.951,-10.12975 1.0731,5.57137 1.0731,14.68805 0,20.25945 -1.073,5.5713 -1.951,1.0129 -1.951,-10.1297 z"
       style="fill:#9518cf;stroke-width:4.5020957"
       inkscape:connector-curvature="0" />
    <path
       id="path1464"
       d="m 1912.6234,885.4015 c 0.027,-14.85688 0.8657,-20.39197 1.8677,-12.30013 1.002,8.09184 0.9813,20.24751 -0.046,27.01262 -1.0273,6.76504 -1.847,0.14446 -1.8218,-14.71249 z"
       style="fill:#9518cf;stroke-width:4.5020957"
       inkscape:connector-curvature="0" />
    <path
       sodipodi:nodetypes="ccccccc"
       inkscape:connector-curvature="0"
       id="path1462"
       d="m 1851.939,652.31901 c -1.7708,-4.61445 -7.7096,-24.00361 -9.2486,-42.20949 -2.9489,-34.88609 -5.6309,-39.19883 15.5018,-41.00506 1.1163,-34.28057 18.6677,16.20995 18.9101,37.90637 0.1981,17.73967 -0.5317,31.36698 -1.6219,30.28285 -1.0902,-1.08408 -4.2509,3.57935 -7.0237,10.36305 -4.4701,10.93595 -13.6632,12.10102 -16.5177,4.66228 z"
       style="fill:#9518cf;stroke-width:4.5020957" />
    <path
       id="path1452"
       d="m 1851.2006,546.99427 c -5.5213,-5.52123 -3.0913,-17.63758 8.2538,-41.15486 6.1904,-12.83203 11.2863,-26.88637 11.3242,-31.23173 0.059,-6.74742 0.706,-6.91494 4.4332,-1.14762 2.4003,3.71422 4.3952,20.35699 4.4331,36.98389 0.058,25.3226 -1.3449,30.98738 -8.6392,34.89127 -10.1008,5.40572 -15.5979,5.86624 -19.8051,1.65905 z"
       style="fill:#9518cf;stroke-width:4.5020957"
       inkscape:connector-curvature="0" />
    <path
       sodipodi:nodetypes="cccccssccsccsssscsscccsccccccc"
       inkscape:connector-curvature="0"
       id="path1497"
       d="m 1700.5573,946.91259 c -32.6696,-3.17798 -82.0711,-24.93123 -115.7307,-42.74209 -27.0126,-14.29369 -27.0126,-14.29369 -26.8397,-37.55783 0.095,-12.79523 2.3966,-27.98378 5.1145,-33.75233 2.7178,-5.76848 7.4072,-19.60491 10.4208,-30.74757 3.0136,-11.14272 11.1783,-37.47996 18.1437,-58.52723 14.8542,-44.88476 22.4243,-83.16014 22.4243,-113.37924 0,-20.45364 6.4052,-57.26794 -5.2733,-58.04555 -6.8094,-0.45345 23.411,13.25753 78.3254,11.85377 114.0769,-2.91595 115.1217,17.70369 142.5401,-24.23435 13.4895,-20.63301 15.8872,-22.45115 20.7813,-15.75821 9.5952,13.12217 29.5811,0.40875 51.3078,-32.63736 20.9224,-31.82296 35.5947,-44.20769 47.1294,-39.78142 18.1809,6.97667 10.8797,40.86588 -12.8209,59.50876 -6.2398,4.90822 -11.3452,9.83134 -11.3452,10.9401 0,1.10881 8.0133,4.41687 17.8073,7.35122 30.6194,9.17378 41.4073,27.88409 21.3473,37.02405 -8.0013,3.64569 -15.7099,2.69454 -33.7657,-4.16612 -12.8685,-4.88963 -23.3972,-6.97823 -23.3972,-4.64133 0,2.33689 4.0518,12.1913 9.0041,21.89859 13.6006,26.65925 10.6377,31.28375 -7.5221,11.74064 -17.0069,-18.30227 -17.7352,-17.02613 -8.0736,14.14639 1.9056,6.14815 1.2468,10.12971 -1.6759,10.12971 -5.4937,0 -14.1804,-27.8997 -14.2179,-45.66476 -0.027,-12.92356 -8.9409,-18.80443 -21.4101,-14.12572 -13.1271,4.92571 -18.6118,15.55649 -14.1206,27.36942 6.3059,2.70031 8.4382,55.70092 11.5047,54.22089 -7.3561,75.59466 30.4824,213.77787 -39.7215,266.3188 -10.1081,7.32227 -25.7365,14.48382 -34.7297,15.91452 -36.8194,12.3827 -48.2014,11.07801 -85.2066,7.34425 z"
       style="fill:#fddc68;stroke-width:4.5020957" />
    <path
       sodipodi:nodetypes="cccsscsccccsscccc"
       id="path1430"
       d="m 1418.249,499.1746 c -21.8396,-12.31412 -41.3198,-40.33723 -60.686,-87.29957 -7.9859,-19.36568 -16.2735,-37.06991 -18.4168,-39.34274 -3.4144,-3.62081 -24.1469,0.50463 -47.4245,9.43736 -4.2117,1.61623 -6.2845,-0.87587 -6.2845,-7.55593 0,-7.26876 -1.9417,-9.22249 -7.1714,-7.21564 -15.7842,6.05695 -28.8454,7.98139 -28.8454,4.25007 0,-5.35202 65.7797,-72.31572 76.8648,-78.24829 4.8736,-2.60831 11.3517,-3.27245 14.3957,-1.4759 19.6136,11.57575 48.6349,40.04654 71.6804,70.32032 26.759,35.15194 26.759,35.15194 43.9574,21.53059 17.1984,-13.62142 37.9745,-23.14377 45.2317,-12.0679 3.9915,6.0918 -13.5189,21.77985 -13.5189,23.22403 0,1.44412 6.8817,13.38343 15.2926,26.53177 8.4109,13.14841 40.8093,6.66846 39.1973,8.87715 -11.0022,15.07435 -89.1019,72.86127 -95.8418,72.8009 -4.5475,-0.0389 -18.5259,1.81842 -28.4306,-3.76622 z"
       style="fill:#c36f0b;fill-opacity:1;stroke-width:4.5020957"
       inkscape:connector-curvature="0" />
    <path
       sodipodi:nodetypes="csccsccscsc"
       inkscape:connector-curvature="0"
       id="path1450"
       d="m 1503.7329,421.90199 c -8.6357,-13.4999 -15.7014,-25.84933 -15.7014,-27.44314 0,-1.59382 -3.6586,-8.27549 -8.1302,-14.84808 -4.4716,-6.57264 -7.7638,-14.48265 -7.3159,-17.57785 0.448,-3.09519 1.0676,-7.42539 1.3771,-9.62262 0.7947,-5.64178 59.1785,-52.22212 79.9993,-63.82599 9.5472,-5.32079 19.9399,-11.77292 23.0949,-14.33805 19.9203,-14.29412 10.8294,-2.16731 15.4283,42.5683 5.3312,51.85942 2.3511,76.01303 -12.5069,101.36621 -10.3123,17.37347 -16.1516,12.23078 -47.2746,28.26641 -9.9102,5.10608 -15.7788,-3.9232 -28.9706,-24.54519 z"
       style="fill:#9518cf;stroke-width:4.5020957" />
    <path
       sodipodi:nodetypes="ccccccscccccscccccsscc"
       inkscape:connector-curvature="0"
       id="path1489"
       d="m 1594.2715,542.28757 c 13.9471,-1.7647 13.9471,-1.7647 1.5604,-39.56694 -6.8127,-20.7912 -18.8189,-68.38313 -20.5377,-78.55696 21.5373,-59.35364 16.6125,-77.04347 12.8202,-140.41456 -4.4158,-12.05707 0.1183,-17.89765 5.6669,-23.4462 8.7982,-8.7982 22.0426,-15.88184 22.8639,-7.9209 0.3192,3.09519 -0.9825,16.79519 -0.4797,22.98556 2.4901,30.65769 14.4656,61.27171 20.1394,72.35037 45.2947,35.66401 15.7223,7.41954 26.0254,6.24286 -0.1896,1.67608 -17.6348,15.85471 -7.1222,19.40835 42.3555,14.31753 77.008,-16.37653 87.5038,-72.32395 3.0378,-30.93472 2.2061,-63.31951 21.406,-75.28693 9.7196,-5.20177 39.0603,10.06593 39.0603,19.39587 0,3.06466 -7.0908,16.10133 -15.7573,28.9704 -22.6933,44.37614 -22.8225,70.73218 -24.3448,121.91193 -0.6988,23.22921 0.8412,39.74858 4.0678,43.63641 3.9973,4.81649 15.7909,29.32489 8.0139,50.65402 -5.556,15.23778 -25.215,11.62481 -27.8915,12.37339 0,0 -18.459,4.50478 -35.0722,8.34701 -16.6132,3.84222 -45.636,13.1644 -64.495,20.71592 -19.6296,7.86007 -41.3617,13.42204 -50.8319,13.00959 -15.6283,-0.6807 -15.7718,-0.81803 -2.5957,-2.48524 z"
       style="fill:#fddc68;stroke-width:4.5020957" />
    <path
       class="cls-7"
       d="m 1875.6895,398.67674 c 0,0 6.28,137.08 -12.06,159.44 -56.62,69 -298.94,26.38 -298.94,26.38 l -0.95,-35.85 c 0,0 104.18,-37.34 197.32,-52.42 l 6.32,-56.27 c 0,0 67.39,-13.38 108.31,-41.28 z"
       id="path84"
       inkscape:connector-curvature="0"
       style="fill:#c36f0b" />
    <path
       sodipodi:nodetypes="cccccccsccscc"
       inkscape:connector-curvature="0"
       id="path1446"
       d="m 1651.4511,370.0938 c -7.9273,-4.83347 -17.3932,-14.5508 -21.0353,-21.59394 -6.8705,-13.28587 -19.7904,-91.75764 -15.6312,-98.48733 1.3006,-2.10443 17.0345,-8.13197 22.4597,-8.12945 7.1627,0.003 5.1103,8.21561 14.3982,24.75218 7.2038,12.826 17.6219,24.61002 23.8513,26.97845 24.6996,9.39072 65.4176,-24.56717 70.9511,-59.17158 1.75,-10.94396 5.2483,-17.6018 9.2488,-17.6018 8.8391,0 13.1824,8.24815 7.8086,14.82903 -2.4389,2.98672 -7.646,22.56461 -11.5713,43.50643 -10.1225,54.00374 -25.1177,82.66627 -49.3967,94.41954 -23.8838,11.56197 -32.7959,11.64891 -51.0832,0.49815 z"
       style="fill:#9518cf;stroke-width:4.5020957" />
    <path
       sodipodi:nodetypes="csscsccc"
       inkscape:connector-curvature="0"
       id="path1448"
       d="m 1767.3795,439.95674 c -8.6351,-10.4047 -2.9021,-123.8063 7.3514,-145.41397 8.563,-18.04518 20.1643,-48.79317 28.7884,-48.79317 10.7183,0 43.3908,28.98497 52.9973,49.42211 5.1346,10.92319 14.8479,42.60416 21.5853,70.40209 10.9815,45.30854 11.5826,51.72358 5.8054,61.95435 -7.0132,12.41965 -10.2945,13.20548 -71.9551,17.23336 -32.1245,2.09844 -39.5037,1.30296 -44.5727,-4.80477 z"
       style="fill:#9518cf;stroke-width:4.5020957" />
  </g>
</svg>
