<?xml version="1.0" encoding="UTF-8" standalone="no"?>
<svg
   xmlns:dc="http://purl.org/dc/elements/1.1/"
   xmlns:cc="http://creativecommons.org/ns#"
   xmlns:rdf="http://www.w3.org/1999/02/22-rdf-syntax-ns#"
   xmlns:svg="http://www.w3.org/2000/svg"
   xmlns="http://www.w3.org/2000/svg"
   xmlns:sodipodi="http://sodipodi.sourceforge.net/DTD/sodipodi-0.dtd"
   xmlns:inkscape="http://www.inkscape.org/namespaces/inkscape"
   viewBox="0 0 1756.5044 1253.9939"
   version="1.1"
   id="svg111"
   sodipodi:docname="persona_13-16.svg"
   inkscape:version="0.92.3 (2405546, 2018-03-11)"
   width="1756.5044"
   height="1253.9939">
  <metadata
     id="metadata115">
    <rdf:RDF>
      <cc:Work
         rdf:about="">
        <dc:format>image/svg+xml</dc:format>
        <dc:type
           rdf:resource="http://purl.org/dc/dcmitype/StillImage" />
        <dc:title></dc:title>
      </cc:Work>
    </rdf:RDF>
  </metadata>
  <sodipodi:namedview
     pagecolor="#ffffff"
     bordercolor="#666666"
     borderopacity="1"
     objecttolerance="10"
     gridtolerance="10"
     guidetolerance="10"
     inkscape:pageopacity="0"
     inkscape:pageshadow="2"
     inkscape:window-width="1920"
     inkscape:window-height="1018"
     id="namedview113"
     showgrid="false"
     inkscape:zoom="0.26616246"
     inkscape:cx="774.30901"
     inkscape:cy="531.83274"
     inkscape:window-x="0"
     inkscape:window-y="34"
     inkscape:window-maximized="1"
     inkscape:current-layer="svg111"
     showguides="false"
     fit-margin-top="0"
     fit-margin-left="0"
     fit-margin-right="0"
     fit-margin-bottom="0" />
  <defs
     id="defs4">
    <style
       id="style2">.cls-1,.cls-11,.cls-13,.cls-16,.cls-8{fill:none;}.cls-1,.cls-16,.cls-17,.cls-2,.cls-3{stroke:#6562cf;}.cls-1,.cls-11,.cls-14,.cls-2,.cls-3{stroke-linecap:round;}.cls-1,.cls-11,.cls-13,.cls-14,.cls-16,.cls-17,.cls-2,.cls-3{stroke-miterlimit:10;}.cls-1,.cls-11,.cls-14,.cls-16,.cls-2,.cls-3,.cls-8{stroke-width:5px;}.cls-14,.cls-2{fill:#fff;}.cls-3,.cls-6{fill:#eaeeff;}.cls-4{fill:#f1921b;}.cls-5{fill:#eb7200;}.cls-7{fill:#dbdaff;}.cls-8{stroke:#c7bfff;stroke-linejoin:round;}.cls-9{fill:#3f4d79;}.cls-10{fill:#ffb000;}.cls-11,.cls-14{stroke:#3f4d79;}.cls-12{fill:#3c4564;}.cls-13{stroke:#ffb000;stroke-width:4px;}.cls-15{fill:#c0c1ff;}.cls-17{fill:#d1d1ff;stroke-width:6px;}</style>
  </defs>
  <g
     id="g1120">
    <g
       transform="translate(-435.83113,11.265266)"
       id="g962">
      <line
         class="cls-1"
         x1="1697.3606"
         y1="771.51025"
         x2="1697.3606"
         y2="1237.1702"
         id="line121"
         style="fill:none;stroke:#ffb000;stroke-width:6px;stroke-linecap:round;stroke-miterlimit:10" />
      <line
         class="cls-1"
         x1="1903.1028"
         y1="771.51025"
         x2="1903.1028"
         y2="1237.1702"
         id="line123"
         style="fill:none;stroke:#ffb000;stroke-width:6px;stroke-linecap:round;stroke-miterlimit:10" />
      <line
         class="cls-1"
         x1="1695.3723"
         y1="1162.3101"
         x2="1900.5833"
         y2="1162.3101"
         id="line125"
         style="fill:none;stroke:#ffb000;stroke-width:6px;stroke-linecap:round;stroke-miterlimit:10" />
      <rect
         class="cls-2"
         x="1646.0715"
         y="709.10022"
         width="306.32999"
         height="62.41"
         rx="16.610001"
         id="rect127"
         style="fill:#ffffff;stroke:#6562cf;stroke-width:6px;stroke-linecap:round;stroke-miterlimit:10" />
      <path
         style="fill:#ffb819;stroke:#6562cf;stroke-width:5px;stroke-linecap:round;stroke-miterlimit:10"
         inkscape:connector-curvature="0"
         id="path130"
         d="m 1898.0821,259.51019 c 16.93,-4.75 40.34,-57.32 14.69,-85.79 -25.65,-28.47 -80,-29.33 -126.14,-22.42 -42.65,6.39 -98.67,31.13 -77.32,84.49 30.36,75.87 188.77,23.72 188.77,23.72 z"
         class="cls-3" />
      <path
         style="fill:#f49c00"
         inkscape:connector-curvature="0"
         id="path132"
         d="m 1872.5621,223.71019 c 16,-3.38 43.49,-30 19.33,-50.26 -24.16,-20.26 -61.37,-22.23 -101,-15.46 -39.63,6.77 -80.7,20.78 -61.85,59.19 18.85,38.41 143.52,6.53 143.52,6.53 z"
         class="cls-4" />
      <path
         class="cls-5"
         d="m 1966.9921,1232.5403 c -10.35,6.37 -73.65,6 -85.6,0 -11.95,-6 -9.15,-26.28 -11.14,-39.82 -1.99,-13.54 -30.26,-39 -31.85,-47.77 -1.59,-8.77 29.06,-27.87 34.38,-35.65 -4.38,12.92 39.47,15.75 43,7.38 -1.72,30.66 20.81,79.4 39.29,83.8 11.63,2.78 22.27,25.69 11.92,32.06 z"
         id="path135"
         inkscape:connector-curvature="0"
         style="fill:#dbdaff" />
      <path
         class="cls-6"
         d="m 1925.2221,1083.1503 -9.46,33.53 c -3.51,8.37 -47.36,5.54 -43,-7.38 4.36,-12.92 2.71,-35.37 2.71,-35.37 z"
         id="path137"
         inkscape:connector-curvature="0"
         style="fill:#c36f0b" />
      <path
         class="cls-7"
         d="m 1838.4121,1144.9903 c 1.6,8.76 29.86,34.24 31.86,47.78 2,13.54 -0.8,33.84 11.14,39.81 11.94,5.97 75.25,6.37 85.6,0"
         id="path139"
         inkscape:connector-curvature="0"
         style="fill:none;stroke:#6562cf;stroke-width:7px;stroke-linecap:round;stroke-miterlimit:10" />
      <path
         class="cls-8"
         d="m 1918.2221,1200.4403 c 0,0 21,-9.38 41.9,-2"
         id="path141"
         inkscape:connector-curvature="0"
         style="fill:none;stroke:#ffffff;stroke-width:6px;stroke-linecap:round;stroke-linejoin:round;stroke-miterlimit:10" />
      <path
         class="cls-5"
         d="m 1678.5421,1232.5403 c 10.35,6.37 66.65,6 78.6,0 11.95,-6 19.15,-26.28 21.14,-39.82 1.99,-13.54 21.26,-44 22.85,-52.77 1.59,-8.77 -29.06,-27.87 -34.38,-35.65 4.38,12.92 -38.47,20.75 -42,12.38 1.72,30.66 -15.82,79.4 -34.29,83.8 -11.64,2.78 -22.27,25.69 -11.92,32.06 z"
         id="path144"
         inkscape:connector-curvature="0"
         style="fill:#dbdaff" />
      <path
         class="cls-6"
         d="m 1703.3121,1081.1503 21.46,35.53 c 3.51,8.37 46.36,0.54 42,-12.38 -4.36,-12.92 -5.71,-33.37 -5.71,-33.37 z"
         id="path146"
         inkscape:connector-curvature="0"
         style="fill:#c36f0b" />
      <path
         class="cls-7"
         d="m 1801.1321,1139.9903 c -1.59,8.76 -20.86,39.24 -22.85,52.78 -1.99,13.54 -9.2,33.84 -21.15,39.81 -11.95,5.97 -68.24,6.37 -78.6,0"
         id="path148"
         inkscape:connector-curvature="0"
         style="fill:none;stroke:#6562cf;stroke-width:7px;stroke-linecap:round;stroke-miterlimit:10" />
      <path
         class="cls-8"
         d="m 1727.3121,1200.4403 c 0,0 -20.95,-9.38 -41.9,-2"
         id="path150"
         inkscape:connector-curvature="0"
         style="fill:none;stroke:#ffffff;stroke-width:6px;stroke-linecap:round;stroke-linejoin:round;stroke-miterlimit:10" />
      <path
         style="fill:#3f4d79"
         inkscape:connector-curvature="0"
         d="m 1697.5621,574.31019 c 0,0 -208.26,102 -208.26,164.74 0,111.92 186.27,348.00011 218.26,344.90011 31.99,-3.1 63.5,-9.87 62.27,-23.41 -1.23,-13.54 -68.22,-225.84011 -120.28,-288.69011 0,0 19,-29.91 137.73,-28.6 57.22,0.63 107.11,4.52 108.34,6.37 1.23,1.85 -62.21,125.66 -29.84,317.10011 2.83,16.68 72.59,23.68 79.35,14.45 6.76,-9.23 115.04,-334.31011 104.59,-360.18011 -10.45,-25.87 -119,-118.52 -171.94,-146.71 -38.13,-20.29 -180.22,0.03 -180.22,0.03 z"
         class="cls-9"
         id="PANTS" />
      <path
         style="fill:#ffb000"
         inkscape:connector-curvature="0"
         id="path155"
         d="m 1638.0921,250.86019 c -26.41,14.5 -65.88,144.53 -65.88,144.53 0,0 -95.1,-116.73 -99.5,-117.83 -4.4,-1.1 -29.95,33 -29.95,33 0,0 49.65,221.68 127.1,226.61 32.51,2.07 60,-16.79 82.57,-44.35 10,33.35 19.34,60.85 19.34,60.85 4,14 -70.64,52.55 -53.61,63.14 0,0 58.11,-18.9 160.65,7.54 122.6,31.64 181.87,7.64 170.28,-1.56 -11.59,-9.2 -29.79,-39.11 -36.08,-59.12 l 11.31,-107.68 c 0,0 39.58,100.46 99.41,100.46 71.37,0 136.5999,-218.19 136.5999,-218.19 -25.3699,-0.72 -46.3899,-18.84 -46.3899,-18.84 -26.82,18.84 -82.64,84.84 -82.64,84.84 0,0 -34.79,-105.17 -51.46,-129.09 -16.67,-23.92 -71,-42.77 -107.28,-51.46 l -143.52,-6.53 c -9.63,-1.84 -68.48,18.33 -90.95,33.68 z"
         class="cls-10" />
      <path
         style="fill:none;stroke:#f49c00;stroke-width:6px;stroke-linecap:round;stroke-miterlimit:10"
         inkscape:connector-curvature="0"
         id="path157"
         d="m 2031.3021,399.86019 c -18.15,20.87 -34.55,58 -34.55,58"
         class="cls-11" />
      <path
         style="fill:none;stroke:#f49c00;stroke-width:6px;stroke-linecap:round;stroke-miterlimit:10"
         inkscape:connector-curvature="0"
         id="path159"
         d="m 1917.2921,239.56019 c -69.68,-5.89 -139.64,37.94 -139.64,37.94 0,0 -61.5,-13.78 -73.8,-54.72"
         class="cls-11" />
      <path
         style="fill:none;stroke:#f49c00;stroke-width:6px;stroke-linecap:round;stroke-miterlimit:10"
         inkscape:connector-curvature="0"
         id="path161"
         d="m 1673.7721,553.67019 c 0,0 -38.46,-110.48 -43.83,-157.07"
         class="cls-12" />
      <path
         class="cls-6"
         d="m 2158.322,258.66019 c -0.93,5.95 -7.4,15.18 -1,15.11 3.3,0 27.16,-3.89 30.08,4.89 a 19.16,19.16 0 0 1 -0.63,12.67 c 5.23,7.81 1.23,14.19 1.23,14.19 3.16,4.86 4,11.15 1.8,13.92 0,0 5.53,12.75 0.25,15.71 -16.36,9.2 -42.45,11.11 -55.0899,7.84 -8.87,-2.29 -19.51,-7.77 -22.23,-26.65 -1.12,-7.73 6.58,-28 12.46,-36.36 2.4,-3.44 11.19,-17.16 14.16,-20.92 a 44.41,44.41 0 0 0 8.4199,-18.75 c 0,0 13.15,1.73 10.55,18.35 z"
         id="path164"
         inkscape:connector-curvature="0"
         style="fill:#c36f0b" />
      <path
         class="cls-13"
         d="m 2179.712,277.49019 c 0.58,4 -23.79,4.84 -28,5.76 -6,1.3 -5.22,14.11 2.56,12.86 a 162.58,162.58 0 0 0 31.39,-4.53"
         id="path166"
         inkscape:connector-curvature="0"
         style="fill:none;stroke:#b65a18;stroke-width:4px;stroke-linecap:round;stroke-miterlimit:10" />
      <path
         class="cls-13"
         d="m 2186.412,305.65019 c -25.78,5.2 -32.66,4.72 -32.66,4.72 -3.76,0.74 -8.6,-12.55 0.52,-14.26"
         id="path168"
         inkscape:connector-curvature="0"
         style="fill:none;stroke:#b65a18;stroke-width:4px;stroke-linecap:round;stroke-miterlimit:10" />
      <path
         class="cls-13"
         d="m 2187.052,318.99019 c -24.26,5.33 -32.66,4.72 -32.66,4.72 -3.59,0.43 -8.08,-12.21 -0.75,-13.08"
         id="path170"
         inkscape:connector-curvature="0"
         style="fill:none;stroke:#b65a18;stroke-width:4px;stroke-linecap:round;stroke-miterlimit:10" />
      <path
         class="cls-13"
         d="m 2161.182,323.50019 c 0,0 -8.67,-0.81 -8.54,4.59 0.24,9.6 4.89,10.63 26.84,6.6"
         id="path172"
         inkscape:connector-curvature="0"
         style="fill:none;stroke:#b65a18;stroke-width:4px;stroke-linecap:round;stroke-miterlimit:10" />
      <path
         id="ARM"
         class="cls-6"
         d="m 1438.0021,229.15019 c 0.2,6 5.45,15.86 -0.84,15 -3.26,-0.44 -26.31,-7.13 -30.25,1.16 a 19,19 0 0 0 -0.92,12.57 c -6.1,7.06 -2.94,13.84 -2.94,13.84 -3.7,4.41 -5.29,10.51 -3.46,13.51 0,0 -7,11.89 -2.16,15.45 15,11.06 40.5,16.11 53.36,14.42 9,-1.18 20.17,-5.29 25.15,-23.57 2,-7.48 -3.09,-28.35 -7.86,-37.35 -1.95,-3.69 -8.95,-18.28 -11.43,-22.35 a 44.32,44.32 0 0 1 -6,-19.5 c 0,0 -13.19,0.12 -12.65,16.82 z"
         inkscape:connector-curvature="0"
         style="fill:#c36f0b" />
      <path
         style="fill:#c36f0b"
         inkscape:connector-curvature="0"
         id="path176"
         d="m 1407.9021,301.54019 c 21.15,6.64 25.86,6.18 27.27,-3.25 0.44,-3 -2.11,-4.37 -4.42,-5 a 29.61,29.61 0 0 0 3.23,0.45 c 3.22,0.79 8.67,-10.18 3.84,-13.21 2,-1 4.12,-8.17 4.11,-14.54 3.73,-2.58 4,-10.23 -0.34,-11.76 -4.09,-1.43 -28,-5.24 -27,-9.1 z"
         class="cls-6" />
      <path
         style="fill:none;stroke:#b65a18;stroke-width:3px;stroke-linecap:round;stroke-miterlimit:10"
         inkscape:connector-curvature="0"
         id="path178"
         d="m 1408.2821,258.29019 a 164.82,164.82 0 0 0 29.22,8.28 c 7.51,2.17 9.84,-10.36 4.09,-12.37 -4.09,-1.43 -23.22,-7.66 -27,-9.09"
         class="cls-14" />
      <path
         style="fill:none;stroke:#b65a18;stroke-width:3px;stroke-linecap:round;stroke-miterlimit:10"
         inkscape:connector-curvature="0"
         id="path180"
         d="m 1405.8421,272.07019 c 24.78,8.25 30.44,8.62 30.44,8.62 3.61,1.18 10,-11.32 1.22,-14.12"
         class="cls-14" />
      <path
         style="fill:none;stroke:#b65a18;stroke-width:3px;stroke-linecap:round;stroke-miterlimit:10"
         inkscape:connector-curvature="0"
         id="path182"
         d="m 1402.4121,285.09019 c 23.26,8.21 31.62,8.62 31.62,8.62 3.49,0.87 8.36,-12.24 -0.2,-13.37"
         class="cls-14" />
      <path
         style="fill:none;stroke:#b65a18;stroke-width:3px;stroke-linecap:round;stroke-miterlimit:10"
         inkscape:connector-curvature="0"
         id="path184"
         d="m 1427.3021,292.72019 c 0,0 8.65,0.26 7.87,5.57 -1.41,9.43 -6.11,9.88 -27.26,3.25"
         class="cls-14" />
      <path
         class="cls-6"
         d="m 1842.1221,130.20019 c 0,0 -15.23,68.14 30.44,93.51 0,0 -42,7.25 -95.68,51.46 0,0 -41.32,-34.79 -47.84,-58 0,0 42,-14.49 37.69,-87 z"
         id="path189"
         inkscape:connector-curvature="0"
         style="fill:#c36f0b" />
      <path
         class="cls-15"
         d="m 1842.1221,130.20019 h -75.39 c 4.35,72.49 -37.69,87 -37.69,87 0,0 83.83,0 107.54,-74.74 z"
         id="path191"
         inkscape:connector-curvature="0"
         style="fill:#b65a18" />
      <path
         style="fill:#c36f0b"
         inkscape:connector-curvature="0"
         d="m 1845.0021,129.53019 c 0,0 -22.39,43.65 -75.89,43.67 -47.72,0 -55,-140.069992 16.07,-141.999992 67.72,-1.84 59,78.289992 59,78.289992 0,0 12.19,-7.09 16.62,0.29 4.43,7.38 -15.8,19.75 -15.8,19.75 z"
         class="cls-6"
         data-name="HEAD"
         id="HEAD-2-3" />
      <path
         class="cls-16"
         d="m 1813.6521,36.430198 c 0,0 -0.77,24.24999 -34.34,23.87999 -29.15,-0.32 -45.13,16.18 -46.69,28.06"
         id="path195"
         inkscape:connector-curvature="0"
         style="fill:none;stroke:#212121;stroke-width:3px;stroke-linecap:round;stroke-miterlimit:10;stroke-opacity:1" />
      <path
         class="cls-9"
         d="m 1879.4024,84.320188 c 0,26.420002 -5.5903,49.260002 -40.9003,64.760002 -2.09,0.92 -5.47,1.13 -9.75,0.79 6.4508,-5.88493 11.9346,-12.74901 16.25,-20.34 0,0 20.11,-12.54 15.76,-19.75 -4.35,-7.21 -16.62,-0.3 -16.62,-0.3 0,0 6.11,-55.850002 -31.28,-73.199992 -0.29,0.54 -10,17.65999 -38.7,18.56999 -27.3,0.85 -34.75,11.26 -37.87,22.14 -0.1,0.38 -0.2,0.75 -0.29,1.13 -3.5181,14.471965 -4.3586,29.465512 -2.48,44.240002 l -0.16,-0.06 c -2.65,-3.22 -27.5887,-64.138417 -18.1387,-88.748417 45.9625,-7.964471 15.7963,-43.815919 128.46,-30.7188156 33.1071,10.8656556 35.709,67.5972306 35.719,81.4872306 z"
         id="path197"
         inkscape:connector-curvature="0"
         style="fill:#212121;fill-opacity:1"
         sodipodi:nodetypes="ccccscccccccccc" />
      <path
         style="fill:#c7bfff;stroke:#6562cf;stroke-width:6px;stroke-miterlimit:10"
         inkscape:connector-curvature="0"
         id="path202"
         d="m 1667.6921,462.99019 h -402.75 a 26.41,26.41 0 0 1 -25,-18 l -85.36,-254.17 a 18.57,18.57 0 0 1 17.61,-24.48 h 402.75 a 26.42,26.42 0 0 1 25,18 l 85.31,254.11 a 18.57,18.57 0 0 1 -17.56,24.54 z"
         class="cls-17" />
      <path
         style="fill:#ffffff"
         inkscape:connector-curvature="0"
         id="path204"
         d="m 1658.5021,472.90019 h -402.76 a 26.41,26.41 0 0 1 -25,-18 l -85.33,-254.12 a 18.57,18.57 0 0 1 17.6,-24.48 h 402.74 a 26.41,26.41 0 0 1 25,18 l 85.32,254.12 a 18.57,18.57 0 0 1 -17.57,24.48 z"
         class="cls-18" />
      <path
         style="fill:none;stroke:#6562cf;stroke-width:6px;stroke-miterlimit:10"
         inkscape:connector-curvature="0"
         id="path206"
         d="m 1667.6921,462.17019 h -402.75 a 26.4,26.4 0 0 1 -25,-18 l -85.36,-254.12 a 18.57,18.57 0 0 1 17.61,-24.48 h 402.75 a 26.42,26.42 0 0 1 25,18 l 85.35,254.12 a 18.57,18.57 0 0 1 -17.6,24.48 z"
         class="cls-19" />
      <path
         style="fill:#e2e2ff"
         inkscape:connector-curvature="0"
         id="path208"
         d="m 1493.4921,382.52019 30.64,76.25 h -66.22 c 0,0 12.87,-59.65 35.58,-76.25 z"
         class="cls-20" />
      <path
         style="fill:#ffffff;stroke:#6562cf;stroke-width:6px;stroke-linecap:round;stroke-miterlimit:10"
         inkscape:connector-curvature="0"
         id="path210"
         d="m 1537.5321,554.40019 c -130.39,0 -75.56,-139.53 -49.63,-168.51 h -100.35 c -25.92,29 -96.07,176.17 34.31,176.17 h 115.67 z"
         class="cls-2" />
      <ellipse
         style="fill:#e2e2ff"
         id="ellipse212"
         transform="rotate(-57.74)"
         ry="24.01"
         rx="19.059999"
         cy="1353.0587"
         cx="491.51178"
         class="cls-20" />
      <ellipse
         style="fill:none;stroke:#6562cf;stroke-width:6px;stroke-miterlimit:10"
         id="ellipse214"
         transform="rotate(-57.74)"
         ry="24.01"
         rx="19.059999"
         cy="1355.59"
         cx="499.50006"
         class="cls-19" />
      <path
         style="fill:#ffffff"
         inkscape:connector-curvature="0"
         id="path217"
         d="m 1238.1621,562.06019 h 597.17 c 8.78,0 15.9,6.64 15.9,14.84 v 0 c 0,8.19 -7.12,14.83 -15.9,14.83 h -597.17 z"
         class="cls-18" />
      <path
         style="fill:none;stroke:#6562cf;stroke-width:6px;stroke-miterlimit:10"
         inkscape:connector-curvature="0"
         id="path219"
         d="m 1238.1621,562.06019 h 597.17 c 8.78,0 15.9,6.64 15.9,14.84 v 0 c 0,8.19 -7.12,14.83 -15.9,14.83 h -597.17"
         class="cls-19" />
    </g>
    <g
       transform="translate(-0.00708647,-0.00604578)"
       id="g1018">
      <path
         class="cls-1"
         d="M 208.11,863.68 H 67.69 A 25.73,25.73 0 0 1 42.6,843.59 L 12,707.2 a 25.7,25.7 0 0 1 25.08,-31.32"
         id="path6"
         inkscape:connector-curvature="0"
         style="fill:none;stroke:#6562cf;stroke-width:5px;stroke-linecap:round;stroke-miterlimit:10" />
      <path
         class="cls-1"
         d="M 467.11,863.68 H 326.69 A 25.73,25.73 0 0 1 301.6,843.59 L 271,707.2 a 25.7,25.7 0 0 1 25.08,-31.32"
         id="path8"
         inkscape:connector-curvature="0"
         style="fill:none;stroke:#6562cf;stroke-width:5px;stroke-linecap:round;stroke-miterlimit:10" />
      <path
         class="cls-2"
         d="M 313.42,724 H 75.12 A 38.41,38.41 0 0 1 37.71,694.3 L 3.37,546.82 a 32.77,32.77 0 0 1 31.92,-40.2 H 273.6 a 38.4,38.4 0 0 1 37.4,29.7 l 34.34,147.51 A 32.78,32.78 0 0 1 313.42,724 Z"
         id="path10"
         inkscape:connector-curvature="0"
         style="fill:#ffffff;stroke:#6562cf;stroke-width:5px;stroke-linecap:round;stroke-miterlimit:10" />
      <rect
         class="cls-3"
         x="75.110001"
         y="829.65997"
         width="416.20999"
         height="34.02"
         rx="17.01"
         id="rect12"
         style="fill:#eaeeff;stroke:#6562cf;stroke-width:5px;stroke-linecap:round;stroke-miterlimit:10" />
      <path
         class="cls-1"
         d="M 46.69,1250.4 94.14,896.78 c 0.91,-18.55 15.53,-33.1 33.26,-33.1 h 82 c 17.73,0 32.35,14.55 33.27,33.1 l 47.45,353.62"
         id="path14"
         inkscape:connector-curvature="0"
         style="fill:none;stroke:#6562cf;stroke-width:5px;stroke-linecap:round;stroke-miterlimit:10" />
      <path
         class="cls-1"
         d="m 348.05,863.68 h 79.62 c 17.21,0 31.41,14.55 32.3,33.1 l 46.95,353.62"
         id="path16"
         inkscape:connector-curvature="0"
         style="fill:none;stroke:#6562cf;stroke-width:5px;stroke-linecap:round;stroke-miterlimit:10" />
      <g
         id="RIGHT_HAND"
         data-name="RIGHT HAND">
        <path
           class="cls-4"
           d="m 723.77,513.27 c 5.17,3.41 17.16,28.81 17.38,31.87 0.22,3.06 -13.55,25.8 -13.55,25.8 0,0 -5.47,0.12 -6.51,-12.39 -1.27,-14.81 -7.77,-20.42 -17.19,-22.53 -3.94,-0.88 -11.18,2.12 -11.69,7.92 -0.51,5.8 14.47,9.65 17.48,13.17 4.57,5.32 2,12.82 2,13 0,0 -23.12,-7 -27.56,-8.3 -4,-1.19 -21.86,-17.43 -33,-33.53 a 115.51,115.51 0 0 1 -13,8.25 c -28,15.06 -124,50.09 -173.73,42.15 -49.94,-8 -10.05,-167 -10.05,-167 72.32,3.34 102.6,-5.87 108.12,-7.82 l -11.23,73.5 c 30.39,-0.9 105.17,11.49 105.21,11.5 21.01,2.76 59.89,19.52 67.32,24.41 z"
           id="path19"
           inkscape:connector-curvature="0"
           style="fill:#f1921b" />
        <path
           class="cls-5"
           d="m 454,411.61 h 0.43 c 72.32,3.34 102.6,-5.87 108.12,-7.82 l -2.65,18 c 0,0 -53.65,25.26 -113.32,23 z"
           id="path21"
           inkscape:connector-curvature="0"
           style="fill:#eb7200" />
      </g>
      <g
         id="T-SHIRT">
        <path
           class="cls-6"
           d="m 461.25,612.59 c 17.18,-1.26 48.32,-201.18 48.32,-201.18 38.35,0.56 84.72,-17.33 84.72,-17.33 0,0 -31.71,-103.92 -42.64,-125.35 C 540.72,247.3 462.26,210.25 453,207.57 l -152.94,-35 c 0,0 -130.55,32.43 -171.72,65.71 C 87.17,271.56 55,411.94 55,411.94 c 75.61,30.49 154,26 154,26 l -26.65,160.63 c -8.63,39 -36.2,162.82 12.41,222.94 0,0 39.11,-192.22 266.49,-208.92 z"
           id="path24"
           inkscape:connector-curvature="0"
           style="fill:#eaeeff" />
        <path
           class="cls-7"
           d="M 360.74,224 315,251.91 257,184.47 300.54,158.39 a 11.15,11.15 0 0 1 15.36,4 z"
           id="path26"
           inkscape:connector-curvature="0"
           style="fill:#dbdaff" />
        <path
           class="cls-7"
           d="m 430.3,230.4 32.19,19 -1.55,-38.62 -7.94,-3.21 c 0,0 -14.14,9.48 -22.7,22.83 z"
           id="path28"
           inkscape:connector-curvature="0"
           style="fill:#dbdaff" />
        <path
           class="cls-8"
           d="m 209,437.92 c 6.2,-20.31 12.4,-69.37 12.4,-69.37"
           id="path30"
           inkscape:connector-curvature="0"
           style="fill:none;stroke:#c7bfff;stroke-width:5px;stroke-linejoin:round" />
        <path
           class="cls-8"
           d="m 315,251.91 44.88,-26.21 c 0,0 43.06,51.23 44.26,60.19 1.2,8.96 3.46,100.33 3.46,100.33 h 22.7"
           id="path32"
           inkscape:connector-curvature="0"
           style="fill:none;stroke:#c7bfff;stroke-width:5px;stroke-linejoin:round" />
        <path
           class="cls-8"
           d="M 461.64,249.36 431.15,232.1 c 0,0 -27.65,43.74 -27,53.79"
           id="path34"
           inkscape:connector-curvature="0"
           style="fill:none;stroke:#c7bfff;stroke-width:5px;stroke-linejoin:round" />
        <path
           class="cls-8"
           d="m 213.87,417.74 c 0,0 -96.64,2.87 -153.44,-27.39"
           id="path36"
           inkscape:connector-curvature="0"
           style="fill:none;stroke:#c7bfff;stroke-width:5px;stroke-linejoin:round" />
      </g>
      <g
         id="LEFT_HAND"
         data-name="LEFT HAND">
        <path
           class="cls-4"
           d="m 503,576 c 0,4.59 -47.14,2.92 -53.78,2.92 -6.64,0 -48.23,1.58 -58,0 -53.11,4.37 -290,21.59 -317.55,-16.7 C 41.78,517.88 70.27,417.58 70.27,417.58 141.82,442.43 209,437.91 209,437.91 L 203.13,476 c 56.79,7 159.27,43 194.11,55.61 7.47,-2.39 35.91,-11 50.31,-7.72 16.66,3.75 36.67,18.75 38.75,22.92 2.08,4.17 16.7,24.61 16.7,29.19 z"
           id="path39"
           inkscape:connector-curvature="0"
           style="fill:#f1921b" />
        <path
           class="cls-5"
           d="m 449.19,578.92 c 6.64,0 53.78,1.67 53.78,-2.91 0,-4.58 -14.59,-25 -16.67,-29.17 -2.08,-4.17 -22.08,-19.17 -38.75,-22.92 0,0 20.57,28.57 1.64,55"
           id="path41"
           inkscape:connector-curvature="0"
           style="fill:#eb7200" />
        <path
           class="cls-5"
           d="m 70.23,417.61 c 0,0 73.23,25.76 138.77,20.31 L 203.13,476 c 0,0 -87.46,-14 -136,-45.68 z"
           id="path43"
           inkscape:connector-curvature="0"
           style="fill:#eb7200" />
      </g>
      <g
         id="LEGS">
        <g
           id="RIGHT">
          <g
             id="SHOES">
            <path
               class="cls-9"
               d="M 703.79,1254 H 541.86 c -0.16,-2.47 -0.22,-4.83 -0.17,-7.1 H 704 a 34.1,34.1 0 0 1 -0.21,7.1 z"
               id="path46"
               inkscape:connector-curvature="0"
               style="fill:#3f4d79" />
            <path
               class="cls-10"
               d="m 558.36,1181.5 c 0.58,17.66 -16.49,28.85 -16.49,65.35 h 161.92 c 0,0 2.35,-30.62 -30,-37.68 -32.35,-7.06 -61.83,-16.49 -64.77,-27.67 z"
               id="path48"
               inkscape:connector-curvature="0"
               style="fill:#ffb000" />
            <line
               class="cls-11"
               x1="610.13"
               y1="1214.49"
               x2="624.90997"
               y2="1192.61"
               id="line50"
               style="fill:none;stroke:#3f4d79;stroke-width:5px;stroke-linecap:round;stroke-miterlimit:10" />
            <line
               class="cls-11"
               x1="621.65997"
               y1="1217.15"
               x2="635.56"
               y2="1197.05"
               id="line52"
               style="fill:none;stroke:#3f4d79;stroke-width:5px;stroke-linecap:round;stroke-miterlimit:10" />
            <line
               class="cls-11"
               x1="636.73999"
               y1="1218.04"
               x2="647.97998"
               y2="1199.71"
               id="line54"
               style="fill:none;stroke:#3f4d79;stroke-width:5px;stroke-linecap:round;stroke-miterlimit:10" />
          </g>
          <g
             id="PANT">
            <path
               class="cls-12"
               d="m 384.22,626.74 c 0,0 247.14,-15.46 307.2,55.2 60.06,70.66 -56.52,322.66 -68.3,475.75 0,0 -59.14,5.89 -83.15,0 -24.01,-5.89 -44.91,-267.62 15.59,-339.46 0,0 -230,52.91 -319.69,-13.82 C 146.18,737.68 346.91,628 384.22,626.74 Z"
               id="path57"
               inkscape:connector-curvature="0"
               style="fill:#3c4564" />
          </g>
          <path
             id="LEG"
             class="cls-4"
             d="m 609,1181.5 a 79.06,79.06 0 0 1 -50.63,0 l -4.79,-21.84 c 0,0 31.46,1.59 60.2,-1.16 z"
             inkscape:connector-curvature="0"
             style="fill:#f1921b" />
        </g>
        <g
           id="LEFT">
          <g
             id="SHOE">
            <path
               class="cls-9"
               d="m 1069.71,1008.8 -128.45,98.59 q -2.73,-3.33 -4.93,-6.51 l 127.94,-98.2 a 35.88,35.88 0 0 1 5.44,6.12 z"
               id="path62"
               inkscape:connector-curvature="0"
               style="fill:#3f4d79" />
            <path
               class="cls-10"
               d="m 909.23,1039.29 c 11.22,13.66 4.48,32.93 26.71,61.89 l 128.45,-98.59 c 0,0 -16.78,-25.72 -46.77,-11.61 -29.99,14.11 -59.08,24.57 -68.23,17.48 z"
               id="path64"
               inkscape:connector-curvature="0"
               style="fill:#ffb000" />
            <line
               class="cls-11"
               x1="970.71997"
               y1="1032.38"
               x2="969.13"
               y2="1006.89"
               id="line66"
               style="fill:none;stroke:#3f4d79;stroke-width:5px;stroke-linecap:round;stroke-miterlimit:10" />
            <line
               class="cls-11"
               x1="980.47998"
               y1="1026.17"
               x2="978.89001"
               y2="1003.34"
               id="line68"
               style="fill:none;stroke:#3f4d79;stroke-width:5px;stroke-linecap:round;stroke-miterlimit:10" />
            <line
               class="cls-11"
               x1="990.23999"
               y1="1019.96"
               x2="988.65002"
               y2="999.78998"
               id="line70"
               style="fill:none;stroke:#3f4d79;stroke-width:5px;stroke-linecap:round;stroke-miterlimit:10" />
          </g>
          <g
             id="PANT-2"
             data-name="PANT">
            <path
               class="cls-9"
               d="m 194.76,811.51 c 3.7,19.94 214,68.26 437.78,-73 0,0 14.71,170.4 240.82,294 0,0 49.2,-17.76 71.31,-56.79 0,0 -147.5,-172.49 -204.29,-330.89 -23.84,-66.51 -323.89,-31.69 -367.76,-18.09 -43.87,13.6 -194.35,95.9 -177.86,184.77 z"
               id="path73"
               inkscape:connector-curvature="0"
               style="fill:#3f4d79" />
          </g>
          <path
             id="LEG-2"
             data-name="LEG"
             class="cls-4"
             d="m 949.39,1008.46 c 0,0 -9.69,29.84 -40.16,30.83 l -19.86,-14.08 a 153.38,153.38 0 0 0 47,-37.17 z"
             inkscape:connector-curvature="0"
             style="fill:#f1921b" />
        </g>
      </g>
      <path
         class="cls-4"
         d="m 388,117.6 c 0,0 -9.35,24.58 -70,48 0,0 42.68,58.42 86.09,113.31 0,0 17.4,-50.43 48.85,-71.32 z"
         id="path79"
         inkscape:connector-curvature="0"
         style="fill:#f1921b" />
      <path
         class="cls-5"
         d="m 453,207.57 c -9.27,6.33 -17.08,14.88 -23.54,24 -20,-15 -42.49,-41.33 -49.15,-60.43 -3.29,-9.45 5.42,-35 10.47,-49.76 z"
         id="path81"
         inkscape:connector-curvature="0"
         style="fill:#eb7200" />
      <path
         style="fill:#f1921b"
         inkscape:connector-curvature="0"
         d="m 386.78,122.4 c 0,8 -6.95,32.63 1.46,42.51 15.38,18.07 59.44,47 81.11,45.79 15.44,-0.83 37.31,-67.81 40.57,-77.82 3.26,-10.01 17.34,-50.15 7.34,-60.88 -10,-10.73 -93.59,-34.21 -110.2,0.37 -18.41,38.33 -20.28,50.03 -20.28,50.03 z"
         class="cls-4"
         data-name="HEAD"
         id="HEAD-2" />
      <path
         class="cls-10"
         d="m 551.65,48.72 c -8.21,53.71 -43.19,60.73 -112.1,20.39 -31.57,-18.47 -9.25,14.61 -27,43.33 l -5.8,2.16 c 0.19,-2.89 0.6,-14.83 -5.34,-14.86 -8.75,0 -11.44,13.24 -12.28,21.41 l -3.36,1.25 c 0,0 -0.36,-59.87 8.13,-78.9 21,-47.11 81.7,-21.66 96.59,-13.65 46.98,25.25 61.16,18.87 61.16,18.87 z"
         id="path85"
         inkscape:connector-curvature="0"
         style="fill:#565248;fill-opacity:1" />
      <path
         class="cls-13"
         d="m 438,65 c 49,38.68 87.5,47.85 106.62,25.11"
         id="path87"
         inkscape:connector-curvature="0"
         style="fill:#565248;fill-opacity:1;stroke:#565248;stroke-width:4px;stroke-miterlimit:10;stroke-opacity:1" />
      <rect
         class="cls-14"
         x="382.39426"
         y="-29.222271"
         width="44.259998"
         height="54.099998"
         rx="22.08"
         transform="rotate(15.88)"
         id="rect90"
         style="fill:#ffffff;stroke:#3f4d79;stroke-width:5px;stroke-linecap:round;stroke-miterlimit:10" />
      <path
         class="cls-14"
         d="m 413.14,107 -4.38,15.4 a 19.06,19.06 0 0 1 -23.54,13.11 l -5.92,-1.69 c -0.26,-0.07 -0.51,-0.15 -0.77,-0.24 a 19,19 0 0 0 22.76,-13.31 l 4.38,-15.4 A 19,19 0 0 0 393.33,81.58 l 0.78,0.2 5.89,1.66 A 19,19 0 0 1 413.14,107 Z"
         id="path92"
         inkscape:connector-curvature="0"
         style="fill:#ffffff;stroke:#3f4d79;stroke-width:5px;stroke-linecap:round;stroke-miterlimit:10" />
      <path
         class="cls-11"
         d="m 394.11,81.75 18,-63.2 a 22.08,22.08 0 0 1 27.28,-15.2 l 64,18.2 c 7.92,2.25 11.52,8.5 9.26,16.43"
         id="path94"
         inkscape:connector-curvature="0"
         style="fill:none;stroke:#3f4d79;stroke-width:5px;stroke-linecap:round;stroke-miterlimit:10" />
      <path
         class="cls-6"
         d="M 693.12,581.44 H 412.53 c -12.81,0 -20.93,-12.81 -14.75,-23.27 l 95,-160.67 c 8.26,-14 24,-22.66 41.16,-22.66 h 280.6 c 12.81,0 20.93,12.81 14.75,23.27 l -95,160.67 c -8.29,13.98 -24.05,22.66 -41.17,22.66 z"
         id="path99"
         inkscape:connector-curvature="0"
         style="fill:#eaeeff" />
      <path
         class="cls-15"
         d="M 690.37,586.6 H 421.3 c -12.55,0 -20.5,-12.55 -14.44,-22.8 l 93.07,-157.41 c 8.1,-13.7 23.55,-22.2 40.33,-22.2 h 269.07 c 12.55,0 20.5,12.55 14.44,22.8 l -93.07,157.4 c -8.1,13.7 -23.55,22.21 -40.33,22.21 z"
         id="path101"
         inkscape:connector-curvature="0"
         style="fill:#c0c1ff" />
      <path
         class="cls-16"
         d="M 693.12,581.44 H 412.53 c -12.81,0 -20.93,-12.81 -14.75,-23.27 l 95,-160.67 c 8.26,-14 24,-22.66 41.16,-22.66 h 280.6 c 12.81,0 20.93,12.81 14.75,23.27 l -95,160.67 c -8.29,13.98 -24.05,22.66 -41.17,22.66 z"
         id="path103"
         inkscape:connector-curvature="0"
         style="fill:none;stroke:#6562cf;stroke-width:5px;stroke-miterlimit:10" />
      <rect
         class="cls-17"
         x="174.75"
         y="581.65002"
         width="531.92999"
         height="21.719999"
         rx="9.7799997"
         id="rect105"
         style="fill:#d1d1ff;stroke:#6562cf;stroke-width:6px;stroke-miterlimit:10" />
    </g>
  </g>
</svg>
