<?xml version="1.0" encoding="UTF-8" standalone="no"?>
<svg
   xmlns:dc="http://purl.org/dc/elements/1.1/"
   xmlns:cc="http://creativecommons.org/ns#"
   xmlns:rdf="http://www.w3.org/1999/02/22-rdf-syntax-ns#"
   xmlns:svg="http://www.w3.org/2000/svg"
   xmlns="http://www.w3.org/2000/svg"
   xmlns:sodipodi="http://sodipodi.sourceforge.net/DTD/sodipodi-0.dtd"
   xmlns:inkscape="http://www.inkscape.org/namespaces/inkscape"
   width="389.63"
   height="723.8"
   viewBox="0 0 389.63 723.8"
   version="1.1"
   id="svg82"
   sodipodi:docname="police-man.svg"
   inkscape:version="0.92.5 (2060ec1f9f, 2020-04-08)">
  <metadata
     id="metadata88">
    <rdf:RDF>
      <cc:Work
         rdf:about="">
        <dc:format>image/svg+xml</dc:format>
        <dc:type
           rdf:resource="http://purl.org/dc/dcmitype/StillImage" />
        <dc:title />
      </cc:Work>
    </rdf:RDF>
  </metadata>
  <defs
     id="defs86" />
  <sodipodi:namedview
     pagecolor="#ffffff"
     bordercolor="#666666"
     borderopacity="1"
     objecttolerance="10"
     gridtolerance="10"
     guidetolerance="10"
     inkscape:pageopacity="0"
     inkscape:pageshadow="2"
     inkscape:window-width="1920"
     inkscape:window-height="1009"
     id="namedview84"
     showgrid="false"
     inkscape:zoom="0.73933763"
     inkscape:cx="299.1038"
     inkscape:cy="387.36837"
     inkscape:window-x="0"
     inkscape:window-y="34"
     inkscape:window-maximized="1"
     inkscape:current-layer="svg82"
     inkscape:document-rotation="0" />
  <path
     style="fill-rule:evenodd;stroke-width:1"
     inkscape:connector-curvature="0"
     id="path8"
     d="m 158.7597,678.48791 9.15894,39.96506 -51.9659,2.79389 H 67.54355 l 0.10647,-12.70564 c 0,0 34.31942,-6.21086 34.21295,-6.11326 7.09812,-8.45564 13.29614,-21.58495 13.29614,-21.58495 z"
     sodipodi:nodetypes="cccccccc" />
  <path
     style="fill-rule:evenodd;stroke-width:1"
     inkscape:connector-curvature="0"
     id="path150"
     d="m 248.98833,662.68238 -8.14594,51.67001 51.9659,2.79388 h 48.40919 l -0.10647,-12.70564 c 0,0 -34.31942,-6.21085 -34.21295,-6.11325 -7.09812,-8.45564 -13.29614,-21.58496 -13.29614,-21.58496 z"
     sodipodi:nodetypes="cccccccc" />
  <path
     style="fill:#0a1223;fill-opacity:1;fill-rule:evenodd;stroke-width:1"
     inkscape:connector-curvature="0"
     id="path86"
     d="m 119.68218,372.82741 c 0,0 -11.1504,160.59306 -11.39363,175.38848 -0.22786,13.86 -4.9161,138.80625 -4.9161,138.80625 l 66.35585,-1.15756 c 0,0 5.90679,-106.25574 5.99302,-113.21307 0.0862,-6.95733 9.73032,-123.26132 9.73032,-123.26132 l 55.50533,238.99235 58.01224,-4.78372 -40.07517,-312.1304 z"
     sodipodi:nodetypes="cscczccccc" />
  <path
     inkscape:connector-curvature="0"
     sodipodi:nodetypes="ssssssssssssscssssscssscccsssssssscsscsssssssssssssccscssscssc"
     id="path28"
     d="m 120.34753,313.95003 c -1.50411,-6.34993 -2.98803,-12.71885 -3.2976,-14.15316 -0.64715,-2.99837 -0.10376,-2.84646 -6.99479,-1.95547 -11.744611,1.51853 -21.881241,1.29571 -31.715383,-0.69716 -7.760827,-1.57271 -12.148358,-4.45961 -13.584967,-8.93859 -0.726412,-2.26476 -2.104607,-12.53304 -3.085823,-22.99092 -0.368684,-3.92949 -0.586681,-12.48596 -0.571969,-22.45004 0.02371,-16.06022 0.462855,-22.83776 2.167014,-33.44496 0.574775,-3.57757 0.56189,-3.76405 -0.299633,-4.33608 -1.238675,-0.82245 -1.121319,-2.26263 0.803493,-9.86004 5.158963,-20.36291 14.002708,-39.2089 23.933906,-51.00305 5.253467,-6.23895 9.137035,-9.32285 16.457392,-13.06862 3.78384,-1.93617 4.62811,-2.17139 11.56517,-3.22212 12.41131,-1.8799 33.42459,-3.8885 40.70488,-3.89085 1.64816,-3.4e-4 2.38106,-0.18184 2.38106,-0.58903 0,-1.11495 6.77626,-6.75606 9.73485,-8.10408 1.13714,-0.51812 1.15002,-0.58439 1.15002,-5.91614 0,-4.13173 -0.17554,-5.73145 -0.75095,-6.84363 -1.29642,-2.505756 -1.973,-5.812093 -2.274,-11.112544 l -0.29107,-5.125713 -1.44059,-0.601912 c -4.04049,-1.688227 -5.10506,-7.363526 -2.03677,-10.858114 1.28426,-1.462695 1.31189,-1.59299 0.88732,-4.185511 -0.241,-1.471702 -0.43937,-3.979916 -0.44082,-5.573811 -0.002,-2.234307 -0.18439,-3.030988 -0.79631,-3.478747 -4.17543,-41.953253 51.78671,-41.407209 54.29767,0.326692 -0.49158,0.414153 -0.89378,1.204326 -0.89378,1.755937 0,0.551618 -0.32207,3.171981 -0.71572,5.823031 -0.67174,4.523949 -0.66773,4.847972 0.0653,5.273873 1.94368,1.129322 2.99697,2.404709 3.37307,4.084292 0.83909,3.747208 -0.99778,7.24554 -4.13907,7.882884 -1.4027,0.284598 -1.54109,0.462021 -1.64484,2.108787 -0.27957,4.437611 -1.1317,11.08311 -1.71483,13.373446 -0.35074,1.37756 -0.76208,4.74507 -0.91409,7.48334 l -0.27639,4.97868 2.8318,1.58738 c 1.55749,0.87306 4.26408,2.9721 6.01466,4.66454 l 3.18286,3.07717 8.64719,0.65192 c 4.75595,0.35856 11.60651,0.86581 15.22346,1.12722 23.21575,1.67791 30.85646,3.92283 40.3497,11.85518 3.36021,2.80773 8.88915,9.34595 12.2101,14.43899 7.08647,10.86789 14.05886,27.58803 18.02757,43.23103 1.89511,7.46972 2.00463,8.88814 0.75057,9.72081 -0.79936,0.53076 -0.86914,0.86655 -0.54292,2.61274 3.46907,18.56902 3.53324,47.81696 0.16071,73.25405 -0.38032,2.86862 -0.99161,6.14055 -1.35842,7.27095 -1.52969,4.71411 -5.47296,7.311 -13.78686,9.0795 -4.3846,0.93268 -5.53066,0.98829 -15.42023,0.74833 -5.87598,-0.14257 -13.51318,-0.58926 -16.97155,-0.99264 -3.45838,-0.40339 -6.33033,-0.67171 -6.38212,-0.59629 -0.0518,0.0754 -1.42107,6.69029 -3.04287,14.69968 -16.51847,31.23386 -132.93768,41.32498 -139.53539,2.87877 z M 193.08261,149.4644 c 0.86579,-2.79812 1.69418,-5.40028 1.84088,-5.78259 0.23024,-0.59998 -0.4581,-0.69509 -5.03071,-0.69509 -4.2935,0 -5.26965,0.11962 -5.1508,0.63119 0.0806,0.34714 1.26914,4.21581 2.64109,8.59703 l 2.49444,7.96585 0.81548,-2.81445 c 0.44851,-1.54795 1.52384,-5.10382 2.38962,-7.90194 z"
     style="fill:#fcb086;stroke-width:0.99999982" />
  <path
     inkscape:connector-curvature="0"
     sodipodi:nodetypes="ssssssscssssssssssssssssscssssssssssssscsssssscsssssssssssssssssssssssssssssssssssssscsssssscssccsss"
     id="path26-3"
     d="m 178.99264,378.09896 c -24.02303,-0.72344 -57.15443,-3.40357 -58.47149,-4.72999 -0.32372,-0.32604 -0.46973,-4.03567 -0.43335,-11.01025 0.0439,-8.40516 0.25808,-11.83988 1.06631,-17.09486 0.70175,-4.56266 0.99018,-8.33716 0.942,-12.32721 -0.0453,-3.74862 0.11695,-6.04944 0.46593,-6.60824 0.43738,-0.70037 -0.0576,-3.38373 -2.70368,-14.65819 -1.78148,-7.59048 -3.23633,-14.05211 -3.233,-14.35916 0.003,-0.30705 0.46526,-0.65973 1.02651,-0.78373 13.70433,-3.02771 27.9241,-7.47959 42.97256,-13.45371 3.3675,-1.33687 6.32683,-2.45167 6.57627,-2.47733 0.52421,-0.0539 0.93727,-0.2239 7.93689,-3.26598 40.76868,-17.71838 59.73563,-23.64025 79.59713,-24.85187 4.45891,-0.27201 9.23863,0.0584 14.62373,1.01107 1.41525,0.25035 1.4637,0.2099 1.24215,-1.03695 -0.12681,-0.7136 -0.95496,-5.37464 -1.84035,-10.35787 -0.88538,-4.98323 -1.69769,-9.14833 -1.80513,-9.25577 -0.10744,-0.10743 0.0358,-0.47391 0.31841,-0.81437 0.40195,-0.48432 0.3635,-0.56138 -0.17667,-0.35409 -0.37973,0.14571 -6.27622,-0.65783 -13.10331,-1.78565 -16.88633,-2.78957 -19.99333,-3.15429 -24.20485,-2.84127 -8.45782,0.62863 -65.40449,13.14399 -107.89182,23.71176 -7.45595,1.8545 -13.61429,3.3138 -13.6852,3.2429 -0.0709,-0.0709 0.37826,-2.47439 0.99816,-5.34107 0.6199,-2.86668 1.89647,-9.80419 2.83682,-15.4167 l 1.70974,-10.20457 -1.85063,-0.93355 c -1.01785,-0.51345 -3.48668,-1.88141 -5.48631,-3.03992 -11.310072,-6.55263 -21.948879,-10.23316 -36.908666,-12.76864 -3.84011,-0.65085 -6.685772,-1.35367 -6.909484,-1.70651 -0.638976,-1.00779 -0.450657,-2.65932 0.963631,-8.45106 2.539216,-10.39847 7.080087,-22.8367 11.845303,-32.44632 8.378267,-16.89578 16.882609,-26.62954 28.295386,-32.38591 3.48861,-1.75958 4.97165,-2.2086 10.20456,-3.08966 11.06513,-1.86302 25.17875,-3.34067 39.11751,-4.0955 3.89753,-0.21106 5.78258,-0.4843 5.78258,-0.8382 0,-0.28879 0.6633,-1.15769 1.474,-1.93089 1.53382,-1.46289 8.11886,-6.27833 8.97642,-6.56418 0.44086,-0.14695 0.58152,-1.51549 0.81774,-7.95638 l 0.0702,-1.9156 1.92753,1.92642 c 3.60091,3.59883 7.85898,4.85276 16.47891,4.85276 9.4829,0 20.01095,-2.54337 21.0289,-5.08017 0.29846,-0.74378 0.42659,0.28097 0.4471,3.57561 0.0262,4.21223 0.10878,4.64359 0.93922,4.90716 1.47983,0.46968 7.86674,5.39216 9.38291,7.23154 l 1.40049,1.69903 8.0993,0.60569 c 4.45462,0.33314 12.48727,0.92874 17.85034,1.32357 15.46527,1.13854 23.65552,2.75917 29.93339,5.92301 14.30783,7.21066 26.6303,25.54314 35.88329,53.38453 1.93848,5.83272 4.48143,15.79143 4.48143,17.5502 0,0.61379 -0.40486,1.54695 -0.89971,2.07369 -0.89725,0.95508 -0.89725,0.97434 6e-5,7.05904 1.4748,10.00055 1.96682,18.06048 1.95056,31.95291 -0.0163,13.94465 -0.43522,20.51689 -2.20323,34.56727 -1.23611,9.82327 -1.94216,11.91145 -4.87682,14.42341 -2.14832,1.83889 -5.11849,3.03171 -10.36818,4.16385 -5.01357,1.08122 -20.05576,0.982 -30.93392,-0.20404 -5.17088,-0.56377 -7.70193,-0.68042 -7.81704,-0.36024 -0.0936,0.26042 -1.4787,6.90236 -3.07795,14.75988 -2.71865,13.35735 -2.85916,14.34121 -2.16076,15.12958 0.622,0.70211 0.75326,2.03003 0.78452,7.93687 0.0207,3.90155 0.27323,8.4203 0.56129,10.0417 0.83786,4.71594 1.2111,19.67202 0.58114,23.28621 -1.06858,6.13056 -1.723,6.94774 -6.39564,7.98616 -6.03327,1.34081 -56.17993,3.01103 -74.15318,2.46978 z m 2.37162,-95.24356 c -0.1507,-0.15071 -0.54188,-0.16682 -0.86928,-0.0358 -0.3618,0.14477 -0.25433,0.25224 0.27402,0.274 0.4781,0.0197 0.74597,-0.0875 0.59526,-0.2382 z m 9.42151,-125.35552 c 0.31884,-1.52412 3.4862,-12.12022 4.10493,-13.7326 0.27274,-0.71076 -0.17119,-0.78056 -4.96466,-0.78056 -2.89531,0 -5.27596,0.15307 -5.29033,0.34015 -0.0726,0.94411 5.28296,16.69472 5.52991,16.26349 0.15845,-0.27671 0.43753,-1.21743 0.62015,-2.09048 z m 12.52892,-30.72708 c 0.56414,-0.71934 0.5481,-0.73538 -0.17124,-0.17124 -0.43653,0.34235 -0.79369,0.69951 -0.79369,0.79369 0,0.37328 0.37244,0.13303 0.96493,-0.62245 z m 8.83694,-52.868521 c -0.14587,-0.5439 -0.27079,-1.601181 -0.27761,-2.349516 -0.007,-0.748335 -0.13049,-1.800871 -0.27484,-2.338975 l -0.26247,-0.978359 -1.60878,1.091746 c -1.8495,1.255107 -3.31589,1.341118 -7.20954,0.422891 -4.15431,-0.979703 -12.72729,-1.729644 -15.81563,-1.383508 -1.49667,0.167739 -4.85716,0.72136 -7.46776,1.230266 -4.82655,0.940877 -8.57675,0.902522 -9.78482,-0.100077 -0.47478,-0.394042 -0.70436,-0.13304 -1.08329,1.231542 -0.26445,0.952348 -0.48197,1.986658 -0.48335,2.298466 -0.002,0.355568 -0.65773,0.566921 -1.75998,0.566921 -1.61908,0 -1.781,-0.11606 -2.05646,-1.473995 -0.16445,-0.810695 -0.42122,-3.412859 -0.57059,-5.782587 -7.58653,-53.156091 60.74399,-60.634434 51.87117,1.68393 -0.42419,3.02244 -0.8789,5.775845 -1.01046,6.118678 -0.39313,1.024501 -1.91098,0.861109 -2.20561,-0.237423 z"
     style="fill:#e6c36c;stroke-width:0.99999982" />
  <path
     inkscape:connector-curvature="0"
     sodipodi:nodetypes="sssssssssssssssssscssssssssscsssssssssscsssscsssssssscsssssssssssssssssssssssssssscsssscssssssssssssssssssssssssssssssssssssssssscsssssssssssssssssssssssscsssssscsccsss"
     id="path24"
     d="m 120.12589,312.80436 c -1.21967,0.0136 -2.94949,-16.57389 -2.52068,-16.26532 11.60355,8.34993 27.93722,-7.47799 43.01922,-13.46542 3.3675,-1.33687 6.32683,-2.45167 6.57627,-2.47733 0.52421,-0.0539 0.93727,-0.2239 7.93689,-3.26598 40.76868,-17.71838 59.73563,-23.64025 79.59713,-24.85187 4.45891,-0.27201 9.23863,0.0584 14.62373,1.01107 1.41525,0.25035 1.4637,0.2099 1.24215,-1.03695 -0.12681,-0.7136 -0.95496,-5.37464 -1.84035,-10.35787 -0.88538,-4.98323 -1.69769,-9.14833 -1.80513,-9.25577 -0.10744,-0.10743 0.0358,-0.47391 0.31841,-0.81437 0.40195,-0.48432 0.3635,-0.56138 -0.17667,-0.35409 -0.37973,0.14571 -6.27622,-0.65783 -13.10331,-1.78565 -16.88633,-2.78957 -19.99333,-3.15429 -24.20485,-2.84127 -8.45782,0.62863 -65.40449,13.14399 -107.89182,23.71176 -7.45595,1.8545 -13.61429,3.3138 -13.6852,3.2429 -0.0709,-0.0709 0.37826,-2.47439 0.99816,-5.34107 0.6199,-2.86668 1.89647,-9.80419 2.83682,-15.4167 l 1.70974,-10.20457 -1.85063,-0.93355 c -1.01785,-0.51345 -3.48668,-1.88141 -5.48631,-3.03992 -11.193046,-6.48483 -22.230416,-10.33726 -36.048744,-12.58227 -6.854131,-1.11356 -8.163652,-1.68062 -8.163652,-3.53507 0,-1.54251 2.247606,-10.81355 3.842059,-15.84793 0.95326,-3.00984 1.378885,-3.77685 2.185764,-3.93891 0.55109,-0.11069 2.895685,-0.52573 5.210196,-0.92231 7.948866,-1.36201 12.023937,-3.74104 13.255577,-7.73864 0.741623,-2.4071 1.037569,-9.91692 0.587745,-14.91436 l -0.363616,-4.03971 -2.476641,-0.84067 c -1.362153,-0.46237 -2.661629,-1.02566 -2.887729,-1.25175 -0.658691,-0.6587 4.029358,-7.0716 8.765892,-11.99108 5.126964,-5.32498 8.32901,-7.701 14.084939,-10.45144 3.85297,-1.84113 5.03507,-2.1615 11.76663,-3.18896 9.20009,-1.40424 22.33126,-2.75523 33.90183,-3.48795 5.8504,-0.3705 8.73057,-0.72161 8.73057,-1.06435 0,-0.28131 0.6633,-1.14409 1.474,-1.91729 1.53382,-1.46289 8.11886,-6.27833 8.97642,-6.56418 0.44086,-0.14695 0.58152,-1.51549 0.81774,-7.95638 l 0.0702,-1.9156 1.92753,1.92642 c 3.60091,3.59883 7.85898,4.85276 16.47891,4.85276 9.4829,0 20.01095,-2.54337 21.0289,-5.08017 0.30041,-0.74866 0.431,0.23599 0.46323,3.49279 l 0.0448,4.53536 3.00668,1.81415 c 1.65368,0.99778 4.33879,3.10397 5.96691,4.68043 2.58848,2.50633 3.21983,2.89141 5.02746,3.06645 1.13698,0.1101 9.00634,0.71843 17.48747,1.35186 8.48113,0.63342 17.46114,1.45132 19.95559,1.81754 13.91063,2.04226 21.30528,5.92963 30.06203,15.80365 3.46322,3.90507 7.56128,9.73126 7.14539,10.15853 -0.16677,0.17133 -1.46346,0.72795 -2.88155,1.23695 l -2.57833,0.92544 -0.36679,4.06346 c -0.20174,2.2349 -0.28801,6.20641 -0.19171,8.82559 0.33837,9.20336 2.96285,11.84414 13.71157,13.79677 2.24472,0.40778 4.63852,0.85316 5.31956,0.98974 1.09643,0.21987 1.37275,0.67296 2.41253,3.95592 1.5265,4.8197 3.83257,14.25785 3.83257,15.68571 0,0.61379 -0.40487,1.54695 -0.89972,2.07369 -0.89725,0.95508 -0.89725,0.97434 7e-5,7.05904 1.47479,10.00055 1.9668,18.06048 1.95055,31.95291 -0.0163,13.94465 -0.43522,20.51689 -2.20323,34.56727 -1.23611,9.82327 -1.94216,11.91145 -4.87682,14.42341 -2.14832,1.83889 -5.11849,3.03171 -10.36817,4.16385 -5.01357,1.08122 -20.05577,0.982 -30.93393,-0.20404 -5.17088,-0.56377 -7.47867,-0.32455 -7.81703,-0.36024 -6.93538,-0.73156 -11.73745,14.85634 -3.07796,14.75988 z m 61.23837,-29.94896 c -0.1507,-0.15071 -0.54188,-0.16682 -0.86928,-0.0358 -0.3618,0.14477 -0.25433,0.25224 0.27402,0.274 0.4781,0.0197 0.74597,-0.0875 0.59526,-0.2382 z m 58.27789,-98.1509 c 0.81673,-0.50304 2.76292,-1.3135 4.32487,-1.80103 5.25946,-1.6416 7.06171,-3.13246 8.09863,-6.69934 0.80918,-2.78345 0.60139,-4.71339 -1.00906,-9.37244 -1.39421,-4.03348 -1.42834,-7.46451 -0.0978,-9.83191 0.54326,-0.96659 0.90042,-1.81352 0.79369,-1.88206 -0.10673,-0.0685 -1.27357,-1.00818 -2.593,-2.08808 l -2.39896,-1.96344 -1.80543,0.72239 c -2.3116,0.92492 -4.89487,0.92357 -5.91881,-0.003 -0.73475,-0.66494 -0.88806,-0.66494 -1.83739,0 -1.31559,0.92148 -3.49204,0.92484 -5.78114,0.009 l -1.79082,-0.71655 -2.41357,1.89979 c -1.32746,1.04489 -2.47451,2.0604 -2.549,2.2567 -0.0745,0.19629 0.2819,1.04145 0.79199,1.87812 1.27793,2.09613 1.20154,5.42828 -0.22431,9.78424 -1.51978,4.64293 -1.77447,6.73993 -1.11571,9.18637 0.82507,3.06408 3.13229,5.07363 7.48651,6.52062 1.99556,0.66316 4.24056,1.598 4.9889,2.07742 0.74833,0.47941 1.40669,0.88659 1.46303,0.90482 0.0563,0.0182 0.77065,-0.37843 1.58737,-0.88147 z m -2.61954,-1.75028 c -0.23698,-0.21846 -2.10384,-0.94595 -4.14858,-1.61664 -4.26277,-1.39821 -5.88333,-2.5053 -6.76858,-4.62399 -0.98046,-2.34658 -0.74377,-5.24212 0.79454,-9.72009 1.16607,-3.3944 1.37763,-4.5992 1.1835,-6.74006 -0.13001,-1.43376 -0.51384,-3.05935 -0.85296,-3.61243 -0.53715,-0.87605 -0.51722,-1.06208 0.15472,-1.44398 0.42422,-0.24111 1.09849,-0.76558 1.49839,-1.16547 0.63418,-0.63419 1.06106,-0.65623 3.34066,-0.17246 1.82447,0.38718 3.1022,0.41971 4.23199,0.10776 1.0803,-0.29828 2.30088,-0.29069 3.67095,0.0228 1.61,0.36841 2.50738,0.31995 4.16213,-0.22482 2.07275,-0.68238 2.13486,-0.67404 3.5555,0.47702 0.79524,0.64435 1.52363,1.22551 1.61865,1.29148 0.095,0.066 -0.1601,0.82137 -0.56692,1.67869 -1.12251,2.36551 -0.91988,5.66541 0.62093,10.11229 1.48465,4.28477 1.703,7.07312 0.73527,9.38924 -0.90162,2.15787 -2.58366,3.28032 -6.87904,4.59049 -2.08465,0.63586 -3.9142,1.35664 -4.06568,1.60174 -0.34168,0.55285 -1.70694,0.58177 -2.28547,0.0484 z m 11.19216,-8.56012 c 0.56415,-0.71934 0.54811,-0.73538 -0.17123,-0.17123 -0.43653,0.34234 -0.79369,0.6995 -0.79369,0.79368 0,0.37328 0.37244,0.13303 0.96492,-0.62245 z m -19.65228,-0.54629 c -0.30447,-0.48755 -0.64143,-0.79862 -0.74878,-0.69127 -0.19438,0.19439 0.79403,1.57771 1.1273,1.57771 0.0963,0 -0.074,-0.3989 -0.37852,-0.88644 z m 2.81359,-1.10231 c 0,-0.096 -0.56125,-0.51633 -1.24722,-0.93399 l -1.24723,-0.75938 1.0707,0.93399 c 1.04483,0.91142 1.42375,1.11352 1.42375,0.75938 z m 9.58054,-9.4706 c -0.44792,-0.44458 -0.50001,-0.39249 -0.25389,0.25389 0.17032,0.44729 0.42392,0.699 0.56356,0.55936 0.13963,-0.13964 2.9e-4,-0.50559 -0.30967,-0.81325 z m -3.77216,-5.10672 c -0.13964,-0.13964 -0.39324,0.11207 -0.56355,0.55936 -0.24613,0.64638 -0.19404,0.69847 0.25388,0.25389 0.30996,-0.30765 0.44931,-0.67361 0.30967,-0.81325 z m -44.60097,-6.69446 c 1.15363,-3.938 2.21209,-7.45857 2.35213,-7.8235 0.21444,-0.55883 -0.57588,-0.6635 -5.00958,-0.6635 -2.89531,0 -5.273,0.15307 -5.28376,0.34015 -0.0108,0.18708 1.16276,4.06436 2.60783,8.61616 1.70471,5.36963 2.73425,7.99764 2.93163,7.48335 0.16733,-0.43596 1.24811,-4.01466 2.40175,-7.95266 z m 10.7312,-24.70092 c 0.56414,-0.71934 0.5481,-0.73538 -0.17124,-0.17124 -0.43653,0.34235 -0.79369,0.69951 -0.79369,0.79369 0,0.37328 0.37244,0.13303 0.96493,-0.62245 z m 8.83694,-52.868521 c -0.14587,-0.5439 -0.27079,-1.601181 -0.27761,-2.349516 -0.007,-0.748335 -0.13049,-1.800871 -0.27484,-2.338975 l -0.26247,-0.978359 -1.60878,1.091746 c -1.8495,1.255107 -3.31589,1.341118 -7.20954,0.422891 -4.15431,-0.979703 -12.72729,-1.729644 -15.81563,-1.383508 -1.49667,0.167739 -4.85716,0.72136 -7.46776,1.230266 -4.82655,0.940877 -8.57675,0.902522 -9.78482,-0.100077 -0.47478,-0.394042 -0.70436,-0.13304 -1.08329,1.231542 -0.26445,0.952348 -0.48197,1.986658 -0.48335,2.298466 -0.002,0.355568 -0.65773,0.566921 -1.75998,0.566921 -1.61908,0 -1.781,-0.11606 -2.05646,-1.473995 -0.16445,-0.810695 -0.42122,-3.412859 -0.57059,-5.782587 -2.45224,-55.172588 60.14886,-58.6823803 51.8473,1.662106 -0.41103,3.034443 -0.85498,5.797669 -0.98654,6.140502 -0.39314,1.024501 -1.91099,0.861109 -2.20561,-0.237423 z"
     style="fill:#ed9b6d;stroke-width:0.99999982" />
  <path
     inkscape:connector-curvature="0"
     sodipodi:nodetypes="sssssssssscssssssssssssssssssssssssssssscssscsssscssssssssssssssssssscssscssssssscsssssssssssssssscsssssssssssssssssssssssssssssssssssssssscsssssscsssscsssssssssssccsss"
     id="path22"
     d="m 177.83613,377.89694 c -15.74049,-0.31794 -29.06447,-1.11607 -44.90009,-2.68961 -13.04795,-1.29653 -12.61948,-1.1853 -13.00848,-3.37693 -0.81851,-4.61155 -0.13607,-19.39398 1.28679,-27.87313 0.45627,-2.719 0.69377,-6.56745 0.64375,-10.43131 -0.0602,-4.64681 0.0745,-6.33193 0.55852,-6.9905 0.55295,-0.75235 0.52646,-1.30234 -0.19915,-4.13482 -1.11382,-4.34786 -5.8355,-24.72615 -5.8355,-25.18542 0,-0.19876 1.17353,-0.59395 2.60784,-0.87818 9.48718,-1.88003 25.76745,-6.95564 39.94711,-12.45409 l 7.85943,-3.04765 13.91031,2.5246 c 27.56965,5.00366 68.1867,11.39557 78.50812,12.35485 1.76322,0.16387 3.20586,0.47952 3.20586,0.70144 0,0.4355 -4.60044,23.20231 -5.426,26.85238 -0.43689,1.93159 -0.39747,2.32909 0.30823,3.10838 0.66,0.72881 0.80799,1.70008 0.80271,5.26848 -0.004,2.40624 -0.0852,5.08929 -0.18146,5.96236 -0.0962,0.87303 0.17754,3.62827 0.60841,6.12274 1.14798,6.6461 1.24592,23.50383 0.15697,27.01897 -0.43073,1.39037 -1.15344,2.86309 -1.60602,3.27267 -0.92838,0.84017 -5.33047,1.92951 -9.40276,2.32678 -11.01735,1.07477 -50.23775,1.94403 -69.84459,1.54799 z m 26.42916,-37.69406 c 0.43555,-0.34403 0.54709,-2.30545 0.45354,-7.97565 -0.12387,-7.50781 -0.12582,-7.52036 -1.2579,-8.10474 -0.86188,-0.44485 -4.03625,-0.55523 -13.23443,-0.46012 -6.65533,0.0688 -12.26784,0.29239 -12.47225,0.49679 -0.20441,0.2044 -0.37165,3.69079 -0.37165,7.74751 0,8.12542 0.16667,8.69358 2.6416,9.0042 2.82706,0.35481 23.66602,-0.25382 24.24109,-0.70799 z m -96.04697,-86.78005 c 0,-0.34976 0.42138,-2.52161 0.93639,-4.82634 0.99961,-4.47332 4.58474,-25.35232 4.38717,-25.54989 -0.0649,-0.0649 -1.23817,-0.71534 -2.60736,-1.44549 -1.36919,-0.73016 -4.67372,-2.55058 -7.3434,-4.04538 -9.698378,-5.43026 -22.301638,-9.57785 -34.376918,-11.31305 -2.868615,-0.41222 -5.699732,-1.04612 -6.291373,-1.40867 -0.959627,-0.58807 -1.045114,-0.88241 -0.7922,-2.72762 0.342512,-2.4989 2.165538,-9.84952 3.699964,-14.91864 l 1.120315,-3.70107 3.285941,-0.54077 c 14.509093,-2.38778 17.179685,-5.00741 17.069581,-16.74376 -0.02708,-2.8857 -0.180144,-6.45997 -0.340152,-7.94281 l -0.290929,-2.69608 -2.669922,-1.0321 c -1.468457,-0.56765 -2.766335,-1.1285 -2.884174,-1.24634 -0.453263,-0.45326 5.262321,-7.94111 9.093329,-11.91294 6.466799,-6.70451 13.885928,-11.23942 20.553348,-12.56315 9.32108,-1.85057 37.46265,-4.7584 46.54569,-4.8095 0.77287,-0.005 1.24722,-0.25241 1.24722,-0.65225 0,-1.29812 10.15747,-8.93094 10.84014,-8.14581 0.19159,0.22035 0.69994,1.35655 1.12966,2.52491 1.06033,2.88288 3.91043,7.2326 7.11837,10.86381 2.65217,3.00211 2.66915,3.03983 6.23439,13.85285 1.96625,5.9634 4.04442,12.4238 4.61816,14.35645 0.57374,1.93266 1.17774,3.35231 1.34222,3.15477 0.16447,-0.19753 0.5664,-1.48165 0.89316,-2.8536 0.84316,-3.54016 5.06178,-16.68759 6.94642,-21.64873 1.23828,-3.25965 2.12209,-4.76714 3.98847,-6.80304 2.9733,-3.24334 5.36189,-6.89001 7.04775,-10.75979 0.71099,-1.63202 1.42993,-2.96731 1.59765,-2.96731 0.49607,0 7.30433,4.95645 8.90409,6.48223 0.81069,0.7732 1.47399,1.66804 1.47399,1.98852 0,0.77516 0.76872,0.89362 9.52426,1.46779 24.66405,1.61741 32.57314,2.46574 39.23088,4.20786 7.73291,2.02347 13.64732,5.65878 20.03319,12.31348 3.90279,4.06707 9.55863,11.44962 9.11305,11.89519 -0.12238,0.12238 -1.42397,0.68706 -2.89243,1.25483 l -2.66992,1.03232 -0.2953,2.46909 c -0.16242,1.358 -0.31548,4.93215 -0.34015,7.94258 -0.0979,11.94565 2.63062,14.66143 17.06038,16.98075 l 3.27238,0.52597 1.12753,3.70336 c 1.5464,5.07911 3.37777,12.42496 3.71988,14.92093 0.25279,1.84429 0.16694,2.14052 -0.7922,2.73374 -0.59164,0.36593 -2.91253,0.91653 -5.15754,1.22357 -14.12929,1.93234 -24.7364,5.57131 -38.40375,13.1751 -3.57298,1.98782 -6.76395,3.61649 -7.09104,3.61926 -0.6088,0.005 -0.5969,0.23683 0.34625,6.73907 l 0.35182,2.42541 -1.41229,-0.28924 c -3.24399,-0.66437 -23.59258,-3.90654 -28.57585,-4.55304 -5.1073,-0.66258 -5.68551,-0.65222 -10.88487,0.19506 -17.39374,2.83445 -76.16437,16.07774 -112.63899,25.38191 -4.06064,1.03581 -5.10228,1.17169 -5.10228,0.6656 z m 131.67152,-68.84646 c 1.0422,-0.60323 2.81217,-1.33884 3.93327,-1.6347 4.5971,-1.21319 7.27104,-3.46842 8.19919,-6.91529 0.63466,-2.35697 0.28044,-5.17177 -1.1751,-9.33786 -1.38833,-3.97367 -1.43727,-6.84376 -0.16165,-9.47882 0.53016,-1.09516 0.78527,-2.13924 0.56692,-2.32018 -2.53568,-2.10123 -4.71491,-3.68513 -5.07023,-3.68513 -0.24132,0 -1.02333,0.30488 -1.73782,0.67751 -1.68683,0.87974 -4.23315,0.86914 -5.50675,-0.0229 -0.91231,-0.63901 -1.10366,-0.63901 -2.01597,0 -1.29265,0.9054 -3.48067,0.89883 -5.7704,-0.0173 l -1.80784,-0.72335 -2.16978,1.72112 c -1.19338,0.94662 -2.34843,1.86916 -2.56678,2.05011 -0.21835,0.18094 0.0368,1.22501 0.56692,2.32017 1.30802,2.702 1.21279,5.14268 -0.39669,10.16713 -1.5265,4.76544 -1.68741,7.11059 -0.65732,9.58032 1.23916,2.97098 3.21867,4.55561 7.22646,5.78495 1.99949,0.6133 4.2477,1.52235 4.99604,2.02009 0.74833,0.49774 1.42631,0.90633 1.50661,0.90797 0.0803,0.002 0.99872,-0.49056 2.04092,-1.09379 z m -2.86723,-1.62212 c -0.37417,-0.24293 -2.31303,-0.98405 -4.30859,-1.64695 -4.54728,-1.51053 -5.82989,-2.40497 -6.75146,-4.70821 -1.04257,-2.60563 -0.91714,-4.41447 0.62872,-9.06739 1.50097,-4.5178 1.72566,-7.77264 0.70517,-10.21502 -0.64604,-1.54618 -0.63417,-1.58492 0.82709,-2.69948 1.4112,-1.07637 1.60479,-1.10515 4.02303,-0.59791 1.87239,0.39273 2.96688,0.40201 4.16181,0.0353 1.17657,-0.3611 2.06604,-0.3611 3.24261,0 1.19167,0.36573 2.28616,0.35814 4.13019,-0.0287 2.39353,-0.50206 2.57909,-0.47269 4.03628,0.63877 1.48037,1.12913 1.50681,1.20483 0.85872,2.45812 -1.0742,2.07726 -0.82189,5.98176 0.69191,10.70755 1.57983,4.9319 1.66142,6.47824 0.47922,9.08213 -0.9571,2.10808 -1.84984,2.68377 -7.16879,4.62284 -1.93325,0.70479 -3.82113,1.41174 -4.1953,1.57102 -0.37417,0.15926 -0.98644,0.0908 -1.36061,-0.1521 z m 6.27393,-5.82785 c 1.211,-0.46015 3.13504,-1.4787 4.27565,-2.26346 2.00004,-1.37606 2.0555,-1.4754 1.55867,-2.79166 -0.60415,-1.60056 -1.29025,-1.70193 -3.04795,-0.45034 -2.44714,1.74253 -5.15844,2.69374 -7.69969,2.70131 -3.34135,0.01 -5.38861,-0.6145 -8.18566,-2.49677 -1.28525,-0.86491 -2.3936,-1.57257 -2.46299,-1.57257 -0.0694,0 -0.39197,0.64171 -0.71684,1.42601 -0.5465,1.31936 -0.50854,1.4925 0.50756,2.3153 4.36167,3.53186 11.16398,4.8828 15.77125,3.13218 z m 0.0756,-6.8567 c 0,-0.24021 -0.40076,-1.45348 -0.89058,-2.69617 l -0.89059,-2.25942 1.79766,-1.42377 c 0.98871,-0.78307 1.79765,-1.68895 1.79765,-2.01306 0,-0.66957 -1.39016,-1.13333 -3.42453,-1.14244 -1.18824,-0.005 -1.52363,-0.29438 -2.37517,-2.0471 -0.54536,-1.1225 -1.28346,-2.04091 -1.64024,-2.04091 -0.35678,0 -0.99943,0.91841 -1.42812,2.04091 -0.58335,1.5275 -1.02064,2.04154 -1.73827,2.04344 -1.47234,0.004 -4.36036,0.89802 -4.36036,1.34998 0,0.22155 0.81201,0.9773 1.80446,1.67945 1.97266,1.39563 2.17038,2.09583 1.14632,4.05939 -1.39065,2.66646 -0.77476,2.98618 2.85035,1.47965 l 2.29381,-0.95327 1.96189,1.17574 c 2.05496,1.23153 3.09572,1.48286 3.09572,0.74758 z M 211.82021,71.382014 c -0.17206,-1.746113 -0.40802,-3.174753 -0.52437,-3.174753 -0.11634,0 -0.76572,0.394611 -1.44305,0.876916 -1.99556,1.420962 -3.24149,1.496724 -8.00256,0.486625 -6.96815,-1.478349 -14.78353,-1.686736 -20.61257,-0.549607 -7.95054,1.550995 -9.30253,1.587895 -12.32571,0.336379 -0.62399,-0.258318 -0.81504,0.04861 -1.06412,1.709619 -0.28453,1.897358 -0.40612,2.041093 -1.93687,2.2895 -0.89831,0.145775 -1.69169,0.206639 -1.76307,0.135258 -0.0714,-0.07138 -0.37216,-2.667256 -0.6684,-5.76861 -10.16015,-57.310411 59.91357,-59.7216661 51.56649,0.149762 -0.86208,6.275437 -0.98922,6.683663 -2.08147,6.683663 -0.69681,0 -0.88162,-0.512922 -1.14392,-3.174752 z"
     style="fill:#9e711a;stroke-width:0.99999982" />
  <path
     inkscape:connector-curvature="0"
     sodipodi:nodetypes="ssssssssssscsssssssssssccssssssscssssssscsssssscsssssssssssssssscsssscsssssscssssssssscssssssscssssscc"
     id="path20-67"
     d="m 163.79918,377.45032 c -13.68691,-0.73629 -36.30199,-2.66934 -41.40077,-3.53877 -1.84965,-0.31539 -1.92193,-0.39213 -2.21848,-2.35474 -0.76712,-5.07708 -0.11475,-18.71742 1.32258,-27.65356 0.4959,-3.083 0.72576,-6.76106 0.65192,-10.43131 -0.0819,-4.07308 0.0578,-5.98844 0.49628,-6.80304 0.52263,-0.97093 0.49315,-1.59763 -0.2052,-4.36157 -1.21702,-4.81674 -5.8141,-24.72466 -5.8141,-25.17829 0,-0.21645 0.37101,-0.39354 0.82448,-0.39354 0.45346,0 4.38221,-0.89585 8.73057,-1.99077 9.25573,-2.33062 20.90772,-6.13935 32.52213,-10.63067 l 8.28873,-3.20526 7.35827,1.35169 c 30.39217,5.58292 61.70136,10.60848 82.79498,13.28973 2.82622,0.35925 5.23117,0.74577 5.34434,0.85893 0.17378,0.17378 -3.69258,19.91686 -5.23944,26.75455 -0.40871,1.80665 -0.36791,2.34964 0.24708,3.28825 0.93393,1.42534 1.2905,6.00797 0.73415,9.43507 -0.31326,1.92972 -0.26348,3.39683 0.18468,5.44244 0.33746,1.54031 0.85064,6.94492 1.1404,12.01023 0.77261,13.50567 -0.21406,19.8258 -3.32546,21.30145 -2.11393,1.00256 -10.16836,1.86073 -22.59256,2.40719 -14.84669,0.65299 -60.31426,0.91467 -69.84458,0.40199 z m 38.55058,-36.65327 2.49445,-0.29532 0.26783,-3.40152 c 0.41324,-5.24831 -0.0514,-12.19102 -0.87071,-13.01031 -0.58981,-0.58982 -2.48272,-0.6652 -13.27082,-0.52846 -6.92059,0.0877 -12.75289,0.32927 -12.96068,0.53676 -0.5261,0.52543 -0.74809,12.37637 -0.27326,14.58841 0.32453,1.51195 0.61192,1.86094 1.72971,2.10065 1.77002,0.37957 19.69507,0.38723 22.88348,0.01 z m -93.6867,-88.31741 c 1.03243,-4.11354 5.24713,-27.59441 5.24713,-29.23274 0,-0.33699 -9.30457,-5.55623 -14.82025,-8.31317 -7.969438,-3.98342 -18.356267,-7.09286 -29.846825,-8.93507 -3.239351,-0.51934 -6.169483,-1.17643 -6.511404,-1.4602 -0.441694,-0.36657 -0.541549,-1.10056 -0.344907,-2.53523 0.335903,-2.45066 2.177746,-9.82882 3.709682,-14.86046 l 1.124077,-3.69203 2.141996,-0.29568 c 8.214349,-1.13393 12.933252,-2.72776 15.410458,-5.20497 2.345353,-2.34536 2.972097,-5.34314 2.893644,-13.84072 -0.07626,-8.26074 -0.259056,-8.79939 -3.28755,-9.68748 -3.555169,-1.04254 -3.548798,-0.98692 -0.590021,-5.14888 7.673792,-10.79434 18.19879,-18.72562 27.22828,-20.5183 9.32108,-1.85057 37.46265,-4.7584 46.54569,-4.8095 0.77287,-0.005 1.24722,-0.25241 1.24722,-0.65225 0,-1.29 10.42164,-9.13488 10.76539,-8.10363 0.094,0.28208 0.94592,2.11086 1.89309,4.06395 1.84937,3.81345 4.02899,6.935 6.99335,10.01556 1.73991,1.80811 2.16144,2.84655 6.71964,16.55407 2.6748,8.04373 4.96107,14.31882 5.08061,13.94465 0.11953,-0.37417 0.63993,-2.31304 1.15643,-4.3086 1.05505,-4.07629 4.61088,-14.79959 6.84283,-20.63589 1.09786,-2.87079 2.02788,-4.43404 3.64261,-6.12274 2.84968,-2.98024 6.06824,-7.87668 7.34946,-11.18086 0.56559,-1.45859 1.161,-2.652 1.32314,-2.652 0.48826,0 7.31173,4.9732 8.89393,6.48223 0.81069,0.7732 1.47399,1.66804 1.47399,1.98852 0,0.77516 0.76872,0.89362 9.52426,1.46779 29.30017,1.92144 36.44419,2.87074 44.54055,5.91856 6.43149,2.4211 14.22107,9.01484 20.37968,17.25105 1.95848,2.61917 3.56152,4.90476 3.56231,5.0791 10e-4,0.17434 -1.14592,0.67865 -2.54824,1.12069 -1.41522,0.44611 -2.82489,1.22375 -3.16823,1.74776 -0.98354,1.50108 -0.99856,14.65575 -0.0205,17.98607 1.53789,5.23672 5.59555,7.51529 16.0443,9.00963 l 3.72961,0.53339 1.12384,3.69127 c 1.53174,5.03097 3.37357,12.40919 3.70945,14.8597 0.19665,1.43467 0.0968,2.16866 -0.3449,2.53523 -0.34192,0.28377 -3.27206,0.94086 -6.51141,1.4602 -12.93255,2.07339 -23.78902,5.6025 -33.55544,10.90785 -2.74389,1.49055 -6.4891,3.47942 -8.32267,4.41972 l -3.33377,1.70963 0.26429,2.26768 c 0.14535,1.24723 0.40095,3.2607 0.56799,4.47439 0.27913,2.02807 0.2339,2.18485 -0.5588,1.93676 -1.26952,-0.39733 -24.62874,-4.19142 -29.7614,-4.83396 -3.44766,-0.43159 -5.2261,-0.43276 -8.16365,-0.005 -13.05171,1.89903 -69.57364,14.47017 -106.18992,23.61787 -6.94869,1.73596 -12.83845,3.1563 -13.08832,3.1563 -0.26187,0 -0.32993,-0.49558 -0.16068,-1.16992 z m 143.89765,-78.29687 c 0.18085,-2.34291 -0.03,-3.62504 -1.18483,-7.20554 -1.70938,-5.2998 -1.75969,-7.25006 -0.2549,-9.88248 0.62645,-1.09588 1.08319,-2.0189 1.015,-2.05116 -0.0682,-0.0322 -1.39344,-1.0322 -2.94497,-2.22209 -2.65224,-2.03403 -2.88283,-2.12359 -3.85506,-1.4973 -1.83115,1.1796 -4.21705,1.36717 -5.76431,0.45318 -1.32156,-0.78067 -1.45963,-0.78293 -2.70972,-0.0445 -1.68082,0.99288 -2.97853,0.96995 -5.32171,-0.0941 l -1.87679,-0.85222 -2.16016,1.78505 c -1.18808,0.98178 -2.44863,1.94649 -2.80119,2.1438 -0.52788,0.29541 -0.43572,0.7449 0.52203,2.5462 1.49774,2.81685 1.46481,4.41811 -0.19753,9.6076 -1.63161,5.09357 -1.74488,8.14539 -0.40504,10.91315 14.00711,4.18743 25.59849,-1.00698 27.93918,-3.59959 z"
     style="fill:#01426b;stroke-width:0.99999982" />
  <path
     inkscape:connector-curvature="0"
     sodipodi:nodetypes="sssssssssscsssssssssssscsssssssssssssssssssssscsssccsssscssssssssscssssssssssssssssssscsscsssssccsssssccsssscssssssssssssssccsssssssssssssssssssssssssssssssssssssssssssssscssscsscssssssczcssssssssccsscssccscc"
     id="path18-5"
     d="m 170.60222,377.61699 c -17.79849,-0.76493 -46.31784,-3.09123 -49.48421,-4.03634 -1.55351,-0.46373 -1.35153,-17.57543 0.33784,-28.6217 0.41307,-2.70091 0.77212,-7.88908 0.7979,-11.52932 0.0321,-4.53865 0.22367,-6.83203 0.60949,-7.29786 0.45554,-0.55 0.25697,-1.92326 -1.04314,-7.21429 -0.88318,-3.59424 -2.3191,-9.6984 -3.19095,-13.56479 -0.87184,-3.8664 -1.67771,-7.34274 -1.79082,-7.7252 -0.16113,-0.54488 0.50588,-0.82657 3.08186,-1.30148 8.22477,-1.51634 28.76528,-7.97382 40.5421,-12.74555 l 6.41413,-2.59887 9.45964,1.7411 c 5.20279,0.9576 9.51065,1.747 9.57301,1.75422 0.0624,0.007 0.11339,8.66516 0.11339,19.23988 0,21.82406 0.44075,19.77733 -4.25901,19.77733 -4.51617,0 -4.46545,-0.10333 -4.28534,8.73236 0.11033,5.41284 0.3207,7.71808 0.74282,8.14008 0.44773,0.4476 3.61058,0.62067 13.19393,0.72197 11.40486,0.12055 12.66586,0.0599 13.24396,-0.63697 0.88025,-1.0611 0.8661,-15.18368 -0.0163,-16.24689 -0.43336,-0.52217 -1.44674,-0.71218 -3.82231,-0.71674 -5.48676,-0.0105 -5.09356,0.62007 -4.74718,-7.61314 0.16476,-3.91632 0.33031,-12.19084 0.36787,-18.38781 l 0.0683,-11.26724 0.99274,0.24108 c 0.54601,0.13259 5.48275,0.9738 10.97054,1.86936 5.48778,0.89555 11.71257,1.9173 13.83285,2.27055 8.99859,1.49919 19.50436,3.03808 29.43831,4.31213 5.8391,0.74887 10.65677,1.4143 10.70593,1.47873 0.10197,0.13361 -4.35685,22.25356 -5.34068,26.49489 -0.5985,2.58008 -0.58689,2.84622 0.15169,3.47863 1.10329,0.94467 1.54109,5.04643 0.95798,8.97519 -0.37526,2.52832 -0.33386,3.94767 0.19483,6.68038 0.36924,1.90849 0.85096,7.21643 1.07049,11.79549 0.56639,11.81373 -0.3029,18.86049 -2.50461,20.30311 -1.92469,1.26111 -7.35039,1.99237 -18.11987,2.44215 -5.98668,0.25005 -15.17078,0.65653 -20.40913,0.90331 -8.40196,0.39584 -39.85249,0.49591 -47.84807,0.15225 z m 19.04853,-61.83297 c -0.66824,-1.24861 0.16937,-2.72122 1.5478,-2.72122 1.42587,0 2.24909,1.08066 1.89573,2.48856 -0.22454,0.89461 -0.5734,1.13973 -1.62207,1.13973 -0.87184,0 -1.50467,-0.31515 -1.82146,-0.90707 z m -79.95409,-67.46351 c 0.60888,-2.93098 1.86643,-9.83507 2.79455,-15.34242 l 1.6875,-10.01337 -2.74209,-1.49582 c -1.50815,-0.82269 -4.47687,-2.48274 -6.59715,-3.68898 -10.377912,-5.90408 -22.90291,-10.06995 -36.005198,-11.97551 -5.285066,-0.76864 -6.627208,-1.23247 -6.627208,-2.29029 3.39299,-25.92365 12.05202,-44.61017 28.27104,-62.20486 3.577598,-3.82447 7.760391,-6.9206 13.000756,-9.62327 3.74101,-1.92939 5.05541,-2.34607 9.9778,-3.16308 10.80828,-1.79393 25.21321,-3.32416 36.73643,-3.90249 2.86862,-0.14397 5.92999,-0.35004 6.80305,-0.45793 l 1.58737,-0.19617 0.0639,5.21123 c 0.0659,5.37638 0.38348,7.77412 2.2305,16.83882 0.21233,1.04204 1.35666,2.41278 2.01425,2.41278 0.21381,0 0.65844,-0.25662 0.98806,-0.57027 0.32962,-0.31365 2.94636,-2.70648 5.81498,-5.31741 2.86862,-2.61092 5.72381,-5.21158 6.34487,-5.77923 1.86652,-1.706 1.62696,-2.04073 4.29243,5.99771 7.36407,22.20837 8.3424,25.83684 7.88742,29.25309 -1.17483,8.82119 -1.44578,14.87171 -1.6952,37.85479 l -0.27544,25.38255 -8.61719,1.94162 c -21.225,4.78239 -41.86079,9.6696 -57.26504,13.5622 -6.30183,1.59244 -11.52977,2.89536 -11.61764,2.89536 -0.0879,0 0.33841,-2.39808 0.9473,-5.32905 z m 49.28959,-49.02527 c 5.2104,-1.77033 9.58153,-3.32684 9.71361,-3.45892 0.93251,-0.93251 1.03189,-13.0355 0.11171,-13.6042 -0.64002,-0.39555 -46.3939,-1.67291 -46.7457,-1.30505 -0.20168,0.2109 -0.58659,3.22217 -0.85534,6.6917 -0.49204,6.35206 -0.32853,7.52461 1.04934,7.52461 0.29068,0 2.25558,0.73694 4.36645,1.63765 17.21277,7.34463 17.96992,7.40346 32.35993,2.51421 z m -14.94898,-2.23127 c -0.81911,-0.56088 -1.12256,-1.93948 -0.62963,-2.86051 0.52342,-0.97804 2.23429,-1.16215 3.06646,-0.32998 1.5852,1.5852 -0.60101,4.44755 -2.43683,3.19049 z m 52.84887,34.92923 c -0.0117,-0.43653 -0.21063,-10.28393 -0.44217,-21.88312 -0.44282,-22.18345 -0.72587,-25.64754 -2.94607,-36.05507 l -1.25754,-5.89489 1.01358,-5.21674 c 2.0022,-10.30498 6.06219,-23.52549 8.21377,-26.74641 l 0.70532,-1.05587 1.13664,1.08821 c 0.62516,0.59851 3.14728,2.92503 5.60473,5.17003 2.45743,2.24501 5.05412,4.64308 5.77039,5.32905 1.69505,1.62333 3.4077,1.65092 4.01082,0.0646 1.07334,-2.82312 2.76543,-14.80039 2.62222,-18.56116 l -0.14631,-3.84224 1.36061,0.003 c 2.67225,0.005 36.18286,2.72324 39.15206,3.17591 12.14739,1.85193 18.90651,4.98466 26.67375,12.36278 1.9061,1.81061 3.29815,3.4965 3.23053,3.91242 -0.0654,0.40197 0.13511,0.68022 0.44548,0.61834 0.49372,-0.0984 3.96576,4.24452 6.09953,7.62953 10.69111,15.36668 14.49516,28.91556 18.33343,44.37362 1.93198,7.83143 1.82918,8.43921 -1.50275,8.88532 -16.02702,2.14584 -27.7579,5.82808 -39.26996,12.32658 -1.94147,1.09596 -3.75881,1.8512 -4.03852,1.67833 -0.27971,-0.17287 -0.38667,-0.11709 -0.2377,0.12395 0.14897,0.24104 -1.06637,1.13996 -2.70075,1.9976 l -2.97161,1.55935 0.27244,2.98504 c 0.14985,1.64177 0.40813,3.6634 0.57395,4.4925 0.17304,0.86525 0.12642,1.40026 -0.10946,1.25583 -0.55463,-0.33962 -14.90217,-2.78346 -24.60386,-4.19083 -8.51395,-1.23507 -11.53205,-1.37846 -14.90227,-0.70802 -1.19713,0.23815 -5.54412,1.06908 -9.65996,1.84653 -4.11584,0.77744 -10.18606,2.01123 -13.48937,2.74175 -7.06702,1.56287 -6.91381,1.55107 -6.94095,0.53454 z m 52.32108,-32.3303 c 5.27374,-1.75483 10.05214,-3.49431 10.61866,-3.86551 0.98544,-0.64568 1.03006,-0.93574 1.03006,-6.69649 0,-4.07873 -0.1756,-6.19718 -0.54425,-6.56582 -0.33877,-0.33878 -2.17942,-0.56451 -4.87551,-0.5979 -11.23154,0.26221 -22.12184,-0.71968 -35.0138,-1.13803 -3.84634,-0.12482 -6.77461,-0.0306 -7.16077,0.23028 -0.72044,0.48681 -1.32678,4.7798 -1.3643,9.6596 -0.0234,3.04349 0.60116,4.45437 1.97181,4.45437 0.31333,0 2.39069,0.78926 4.61635,1.7539 5.70623,2.47319 12.72139,5.05847 14.89778,5.49024 4.27398,0.8479 5.96003,0.55759 15.82397,-2.72462 z m -12.04855,-2.7417 c -1.13428,-0.66066 -1.05566,-2.99416 0.11338,-3.36519 0.49889,-0.15834 1.31526,-0.15834 1.81415,0 1.2261,0.38915 1.24676,2.73427 0.0298,3.38556 -1.04405,0.55877 -0.96156,0.55962 -1.95734,-0.0204 z m -47.39772,20.37424 c -1.29884,-1.29883 -0.14093,-3.30486 1.74604,-3.02496 1.37703,0.20425 2.1429,1.49805 1.49721,2.52926 -0.61012,0.97442 -2.47891,1.26005 -3.24325,0.4957 z m 0.1149,-33.03877 c -1.67018,-1.84553 1.09741,-4.3902 2.85894,-2.62866 0.78577,0.78576 0.6694,1.92312 -0.28515,2.78698 -1.07952,0.97695 -1.57392,0.94654 -2.57379,-0.15832 z m -29.25142,-62.75739 c 0,-0.0942 0.35716,-0.45134 0.79368,-0.79369 0.71934,-0.56414 0.73538,-0.5481 0.17124,0.17124 -0.59248,0.75548 -0.96492,0.99573 -0.96492,0.62245 z M 212.7811,73.870968 c 0,-0.09804 0.30613,-0.295721 0.6803,-0.439306 0.37417,-0.143579 0.6803,-0.06337 0.6803,0.178246 0,0.241617 -0.30613,0.439303 -0.6803,0.439303 -0.37417,0 -0.6803,-0.08021 -0.6803,-0.178243 z m -48.33313,-1.826801 c -0.15157,-0.603879 -0.17914,-1.471267 -0.0613,-1.927526 0.1294,-0.500864 0.23517,-0.281466 0.26693,0.553727 0.029,0.760804 0.29752,1.628192 0.59686,1.927526 0.41354,0.413544 0.41562,0.544244 0.009,0.544244 -0.29458,0 -0.65961,-0.494085 -0.81117,-1.097971 z m 49.95289,-1.517704 c 0.17859,-1.873708 0.078,-2.446368 -0.46666,-2.655354 -0.3819,-0.146551 -0.56797,-0.470947 -0.4135,-0.720888 0.17479,-0.28283 0.41714,-0.233916 0.64176,0.12953 0.23299,0.376994 0.46472,-0.04789 0.65382,-1.198805 0.52673,-3.205995 0.64259,-3.196716 0.39174,0.0314 -0.13569,1.746113 -0.42404,3.991118 -0.64079,4.9889 -0.35829,1.649404 -0.3734,1.597211 -0.16637,-0.574762 z m -1.98488,0.574762 c 0.009,-0.748335 0.11089,-0.999565 0.22587,-0.558289 0.115,0.441276 0.10743,1.05355 -0.0168,1.360609 -0.12424,0.307059 -0.21832,-0.05399 -0.20908,-0.80232 z m -44.9169,-0.226766 c 0,-0.623615 0.10294,-0.878729 0.22876,-0.566922 0.12581,0.311808 0.12581,0.822036 0,1.13384 -0.12582,0.311807 -0.22876,0.05669 -0.22876,-0.566918 z m 1.43382,-2.002224 c -1.04285,-0.596328 -2.02929,-0.951028 -2.19209,-0.788228 -0.1628,0.162804 -0.24554,0.09191 -0.18386,-0.157535 0.19487,-0.788146 -2.03843,-4.93671 -3.36285,-6.246809 -1.18745,-1.174604 -1.2527,-1.429905 -0.98534,-3.855057 0.15748,-1.428432 0.37264,-3.107375 0.47813,-3.73099 -0.0601,-18.410366 6.85987,-32.549538 27.48921,-32.65119 20.62934,-0.101652 26.546,15.742042 27.36713,31.863479 l 0.001,3.681995 c 0.001,3.66933 -0.005,3.687916 -1.74104,5.404266 -1.07463,1.062533 -1.64158,1.983652 -1.48004,2.404621 0.14401,0.375293 0.0824,0.571455 -0.13689,0.435915 -0.50345,-0.311144 -1.85626,1.712948 -1.86551,2.7912 -0.005,0.573388 -0.11185,0.644432 -0.36645,0.243481 -0.26973,-0.424782 -0.74302,-0.283218 -1.89531,0.566918 -1.81766,1.341026 -4.24423,1.460545 -8.3894,0.413227 -1.49667,-0.378151 -5.78258,-0.805021 -9.52426,-0.948606 -5.84581,-0.224331 -7.46604,-0.125312 -11.51494,0.7037 -6.30305,1.290551 -9.27025,1.257481 -11.69735,-0.130387 z m -5.08366,-2.201363 c 0.0577,-1.427561 0.21282,-2.487761 0.34458,-2.355989 0.28242,0.282411 0.0767,4.419638 -0.23543,4.735112 -0.11779,0.119043 -0.1669,-0.951559 -0.10915,-2.379123 z m 1.30145,-0.115972 c -0.31553,-0.380194 -0.4591,-0.805854 -0.31904,-0.945912 0.14005,-0.140061 0.48246,0.171012 0.76089,0.691261 0.59406,1.110018 0.37353,1.23712 -0.44185,0.254651 z"
     style="fill:#002b50;stroke-width:0.99999982" />
  <path
     inkscape:connector-curvature="0"
     sodipodi:nodetypes="ssssssssssssscssssscssssssssssssssssssssssssscssscsssscssscsssssssssssssssssssssssssssssssssssssssssssssssssssssssss"
     id="path16-3"
     d="m 161.94809,392.2166 c -18.26656,-0.81218 -40.88495,-15.87837 -42.02422,-16.79882 -0.90326,-0.7298 0.41917,-23.11045 1.49922,-29.92714 0.47099,-2.97259 0.80806,-7.75543 0.834,-11.83399 0.0323,-5.08208 0.20384,-7.03867 0.66598,-7.59672 0.48976,-0.59143 1.43933,-0.75164 4.45437,-0.75164 2.80144,0 4.01487,-0.18297 4.51223,-0.6803 0.98654,-0.98655 3.43539,-0.85936 4.36533,0.22674 0.73866,0.8627 1.33791,0.90709 12.24548,0.90709 10.90758,0 11.50683,-0.0444 12.24548,-0.90709 0.44,-0.51386 1.33791,-0.90705 2.07141,-0.90705 0.71877,0 1.65994,0.40353 2.11565,0.90705 0.74057,0.81834 1.39688,0.90709 6.70751,0.90709 h 5.88662 l -0.22305,3.11746 c -0.31395,4.38776 0.3249,11.42455 1.08069,11.90359 0.33432,0.21191 6.2464,0.38842 13.13795,0.39223 11.11085,0.006 12.6006,-0.0781 13.15256,-0.74354 0.46793,-0.56418 0.62245,-2.47818 0.62245,-7.7102 v -6.95975 l 4.42198,1.1e-4 c 3.60305,6e-5 4.42197,-0.1243 4.42197,-0.67157 0,-0.82041 1.85969,-1.34322 3.40153,-0.95623 0.62361,0.1565 1.13384,0.58683 1.13384,0.95623 0,0.57653 1.7268,0.67167 12.19258,0.67167 11.81115,0 12.2,-0.0282 12.42979,-0.90709 0.18156,-0.69428 0.61862,-0.90705 1.86319,-0.90705 1.13482,0 1.79712,0.274 2.19247,0.90705 0.50315,0.80569 1.05766,0.90709 4.96035,0.90709 3.30016,0 4.56314,0.16926 5.0739,0.68003 0.98125,0.98124 1.34801,4.93391 0.81481,8.7815 -0.36903,2.66302 -0.31372,4.11499 0.27631,7.25201 0.55124,2.93082 0.8054,21.40486 0.82424,29.877 0.0329,14.79723 -78.99649,315.18561 -4.52344,18.08011 1.8003,-7.18215 -69.07784,2.84033 -92.83318,1.78413 z m 28.02584,-75.80705 c -0.68592,-0.68591 -0.32604,-2.83118 0.51999,-3.0997 1.52025,-0.48251 2.3929,0.19393 2.24261,1.73837 -0.11032,1.1337 -0.3673,1.44287 -1.28861,1.55031 -0.63295,0.0738 -1.29625,-0.0113 -1.47399,-0.18898 z m 0.24374,-98.88972 c -0.31181,-0.12582 -0.56692,-0.82014 -0.56692,-1.54293 0,-1.01539 0.25192,-1.37741 1.10806,-1.59228 1.49633,-0.37556 2.06669,0.0659 2.06669,1.59967 0,1.53454 -1.06143,2.15953 -2.60783,1.53554 z m -46.50444,-20.84384 c -0.57655,-0.57655 -0.34195,-2.31303 0.39514,-2.92477 1.03431,-0.8584 2.22967,0.0361 2.22967,1.66836 0,1.06613 -0.21508,1.33626 -1.15082,1.44539 -0.63295,0.0738 -1.29624,-0.0112 -1.47399,-0.18898 z m 93.12335,-0.377 c -1.08056,-1.302 0.41015,-3.29908 2.00558,-2.68685 1.65012,0.6332 1.11258,3.34539 -0.66303,3.34539 -0.43781,0 -1.04196,-0.29635 -1.34255,-0.65854 z m -46.86265,-11.86848 c -0.57655,-0.57655 -0.34196,-2.31303 0.39514,-2.92477 1.03431,-0.85839 2.22966,0.0361 2.22966,1.66837 0,1.06612 -0.21507,1.33625 -1.15081,1.44538 -0.63295,0.0738 -1.29625,-0.0112 -1.47399,-0.18898 z M 212.7811,73.870968 c 0,-0.09804 0.30613,-0.295721 0.6803,-0.439306 0.37417,-0.143579 0.6803,-0.06337 0.6803,0.178246 0,0.241617 -0.30613,0.439303 -0.6803,0.439303 -0.37417,0 -0.6803,-0.08021 -0.6803,-0.178243 z m -48.33313,-1.826801 c -0.15157,-0.603879 -0.17914,-1.471267 -0.0613,-1.927526 0.1294,-0.500864 0.23517,-0.281466 0.26693,0.553727 0.029,0.760804 0.29752,1.628192 0.59686,1.927526 0.41354,0.413544 0.41562,0.544244 0.009,0.544244 -0.29458,0 -0.65961,-0.494085 -0.81117,-1.097971 z m 49.95289,-1.517704 c 0.17859,-1.873708 0.078,-2.446368 -0.46666,-2.655354 -0.3819,-0.146551 -0.56797,-0.470947 -0.4135,-0.720888 0.17479,-0.28283 0.41714,-0.233916 0.64176,0.12953 0.23299,0.376994 0.46472,-0.04789 0.65382,-1.198805 0.52673,-3.205995 0.64259,-3.196716 0.39174,0.0314 -0.13569,1.746113 -0.42404,3.991118 -0.64079,4.9889 -0.35829,1.649404 -0.3734,1.597211 -0.16637,-0.574762 z m -1.98488,0.574762 c 0.009,-0.748335 0.11089,-0.999565 0.22587,-0.558289 0.115,0.441276 0.10743,1.05355 -0.0168,1.360609 -0.12424,0.307059 -0.21832,-0.05399 -0.20908,-0.80232 z m -44.9169,-0.226766 c 0,-0.623615 0.10294,-0.878729 0.22876,-0.566922 0.12581,0.311808 0.12581,0.822036 0,1.13384 -0.12582,0.311807 -0.22876,0.05669 -0.22876,-0.566918 z m 1.43382,-2.002224 c -1.04285,-0.596328 -2.02929,-0.951028 -2.19209,-0.788228 -0.1628,0.162804 -0.24554,0.09191 -0.18386,-0.157535 0.19409,-0.784989 -2.05254,-5.005206 -3.36119,-6.31385 -1.11887,-1.118866 -1.22484,-1.480818 -0.98549,-3.365887 0.66206,-5.214043 0.47048,-4.870857 2.84083,-5.089068 3.03104,-0.279034 38.06962,-0.159388 45.56626,0.155592 3.42468,0.143892 6.43034,0.387488 6.67924,0.541319 0.26675,0.164858 0.36832,1.67611 0.24738,3.680807 -0.19374,3.211587 -0.29718,3.487879 -1.85621,4.958241 -1.06729,1.006582 -1.55414,1.809641 -1.37698,2.271319 0.15074,0.392801 0.0946,0.603297 -0.12467,0.467757 -0.50345,-0.311144 -1.85626,1.712948 -1.86551,2.7912 -0.006,0.65248 -0.0857,0.685138 -0.41294,0.168253 -0.33185,-0.524253 -0.66827,-0.420711 -1.842,0.566918 -1.69897,1.429591 -4.11502,1.570149 -8.39621,0.488455 -1.49667,-0.378151 -5.78259,-0.805021 -9.52426,-0.948606 -5.84581,-0.224331 -7.46604,-0.125312 -11.51494,0.7037 -6.30306,1.290551 -9.27026,1.257481 -11.69736,-0.130387 z m -5.08366,-2.201363 c 0.0577,-1.427561 0.21282,-2.487761 0.34458,-2.355989 0.28242,0.282411 0.0767,4.419638 -0.23543,4.735112 -0.11779,0.119043 -0.1669,-0.951559 -0.10915,-2.379123 z m 1.30145,-0.115972 c -0.31553,-0.380194 -0.4591,-0.805854 -0.31904,-0.945912 0.14005,-0.140061 0.48246,0.171012 0.76089,0.691261 0.59406,1.110018 0.37353,1.23712 -0.44185,0.254651 z"
     style="fill:#0a1223;stroke-width:0.99999982" />
  <text
     xml:space="preserve"
     style="font-style:normal;font-variant:normal;font-weight:normal;font-stretch:normal;font-size:10.95032406px;line-height:125%;font-family:Marianne;-inkscape-font-specification:'Marianne, Normal';font-variant-ligatures:normal;font-variant-caps:normal;font-variant-numeric:normal;font-feature-settings:normal;text-align:start;letter-spacing:0.27159825px;word-spacing:0px;writing-mode:lr-tb;text-anchor:start;fill:#000000;fill-opacity:1;stroke:none;stroke-width:1px;stroke-linecap:butt;stroke-linejoin:miter;stroke-opacity:1"
     x="169.17308"
     y="46.319485"
     id="text834"><tspan
       sodipodi:role="line"
       id="tspan832"
       x="169.17308"
       y="46.319485"
       style="font-weight:bold;fill:#ffffff;fill-opacity:1;stroke-width:1px">POLICE</tspan></text>
  <g
     id="g893"
     transform="translate(3.4071956)">
    <path
       sodipodi:nodetypes="ccccc"
       inkscape:connector-curvature="0"
       id="rect836-3-6"
       d="m 231.18273,166.57407 h 3.01712 l -4.52568,12.19416 h -3.01711 z"
       style="color:#000000;clip-rule:nonzero;display:inline;overflow:visible;visibility:visible;opacity:1;isolation:auto;mix-blend-mode:normal;color-interpolation:sRGB;color-interpolation-filters:linearRGB;solid-color:#000000;solid-opacity:1;fill:#ffffff;fill-opacity:1;fill-rule:nonzero;stroke:none;stroke-width:4;stroke-linecap:square;stroke-linejoin:miter;stroke-miterlimit:4;stroke-dasharray:none;stroke-dashoffset:0;stroke-opacity:1;color-rendering:auto;image-rendering:auto;shape-rendering:auto;text-rendering:auto;enable-background:accumulate" />
    <path
       sodipodi:nodetypes="ccccc"
       inkscape:connector-curvature="0"
       id="rect836-3-6-7"
       d="m 235.48656,166.57407 h 3.01712 l -4.52568,12.19416 h -3.01711 z"
       style="color:#000000;clip-rule:nonzero;display:inline;overflow:visible;visibility:visible;opacity:1;isolation:auto;mix-blend-mode:normal;color-interpolation:sRGB;color-interpolation-filters:linearRGB;solid-color:#000000;solid-opacity:1;fill:#ffffff;fill-opacity:1;fill-rule:nonzero;stroke:none;stroke-width:4;stroke-linecap:square;stroke-linejoin:miter;stroke-miterlimit:4;stroke-dasharray:none;stroke-dashoffset:0;stroke-opacity:1;color-rendering:auto;image-rendering:auto;shape-rendering:auto;text-rendering:auto;enable-background:accumulate" />
    <path
       sodipodi:nodetypes="ccccc"
       inkscape:connector-curvature="0"
       id="rect836-3-6-5"
       d="m 239.81874,166.57407 h 3.01712 l -4.52568,12.19416 h -3.01711 z"
       style="color:#000000;clip-rule:nonzero;display:inline;overflow:visible;visibility:visible;opacity:1;isolation:auto;mix-blend-mode:normal;color-interpolation:sRGB;color-interpolation-filters:linearRGB;solid-color:#000000;solid-opacity:1;fill:#ffffff;fill-opacity:1;fill-rule:nonzero;stroke:none;stroke-width:4;stroke-linecap:square;stroke-linejoin:miter;stroke-miterlimit:4;stroke-dasharray:none;stroke-dashoffset:0;stroke-opacity:1;color-rendering:auto;image-rendering:auto;shape-rendering:auto;text-rendering:auto;enable-background:accumulate" />
  </g>
  <rect
     style="color:#000000;clip-rule:nonzero;display:inline;overflow:visible;visibility:visible;opacity:1;isolation:auto;mix-blend-mode:normal;color-interpolation:sRGB;color-interpolation-filters:linearRGB;solid-color:#000000;solid-opacity:1;fill:#ffffff;fill-opacity:1;fill-rule:nonzero;stroke:none;stroke-width:4;stroke-linecap:square;stroke-linejoin:miter;stroke-miterlimit:4;stroke-dasharray:none;stroke-dashoffset:0;stroke-opacity:1;color-rendering:auto;image-rendering:auto;shape-rendering:auto;text-rendering:auto;enable-background:accumulate"
     id="rect913"
     width="51.735497"
     height="15.892604"
     x="119.36359"
     y="160.4579" />
  <text
     xml:space="preserve"
     style="font-style:normal;font-variant:normal;font-weight:normal;font-stretch:normal;font-size:10.95032406px;line-height:125%;font-family:Marianne;-inkscape-font-specification:'Marianne, Normal';font-variant-ligatures:normal;font-variant-caps:normal;font-variant-numeric:normal;font-feature-settings:normal;text-align:start;letter-spacing:0.27159825px;word-spacing:0px;writing-mode:lr-tb;text-anchor:start;fill:#002b50;fill-opacity:1;stroke:none;stroke-width:1px;stroke-linecap:butt;stroke-linejoin:miter;stroke-opacity:1"
     x="124.49072"
     y="171.72961"
     id="text834-3"><tspan
       sodipodi:role="line"
       id="tspan832-5"
       x="124.49072"
       y="171.72961"
       style="font-weight:bold;fill:#002b50;fill-opacity:1;stroke-width:1px">POLICE</tspan></text>
  <path
     style="color:#000000;clip-rule:nonzero;display:inline;overflow:visible;visibility:visible;opacity:1;isolation:auto;mix-blend-mode:normal;color-interpolation:sRGB;color-interpolation-filters:linearRGB;solid-color:#000000;solid-opacity:1;fill:#ffffff;fill-opacity:1;fill-rule:nonzero;stroke:none;stroke-width:4;stroke-linecap:square;stroke-linejoin:miter;stroke-miterlimit:4;stroke-dasharray:none;stroke-dashoffset:0;stroke-opacity:1;color-rendering:auto;image-rendering:auto;shape-rendering:auto;text-rendering:auto;enable-background:accumulate"
     d="m 69.094816,176.8683 c 4.149957,-11.14528 8.03051,-17.4866 12.856086,-23.94031 12.79537,4.77717 -2.009765,22.29586 -12.856086,23.94031 z"
     id="path915"
     inkscape:connector-curvature="0"
     sodipodi:nodetypes="ccc" />
</svg>
