<?xml version="1.0" encoding="UTF-8" standalone="no"?>
<svg
   xmlns:dc="http://purl.org/dc/elements/1.1/"
   xmlns:cc="http://creativecommons.org/ns#"
   xmlns:rdf="http://www.w3.org/1999/02/22-rdf-syntax-ns#"
   xmlns:svg="http://www.w3.org/2000/svg"
   xmlns="http://www.w3.org/2000/svg"
   xmlns:sodipodi="http://sodipodi.sourceforge.net/DTD/sodipodi-0.dtd"
   xmlns:inkscape="http://www.inkscape.org/namespaces/inkscape"
   width="389.63"
   height="723.8"
   viewBox="0 0 389.63 723.8"
   version="1.1"
   id="svg82"
   sodipodi:docname="police-man.svg"
   inkscape:version="1.0.1 (3bc2e813f5, 2020-09-07)">
  <metadata
     id="metadata88">
    <rdf:RDF>
      <cc:Work
         rdf:about="">
        <dc:format>image/svg+xml</dc:format>
        <dc:type
           rdf:resource="http://purl.org/dc/dcmitype/StillImage" />
        <dc:title />
      </cc:Work>
    </rdf:RDF>
  </metadata>
  <defs
     id="defs86" />
  <sodipodi:namedview
     pagecolor="#ffffff"
     bordercolor="#666666"
     borderopacity="1"
     objecttolerance="10"
     gridtolerance="10"
     guidetolerance="10"
     inkscape:pageopacity="0"
     inkscape:pageshadow="2"
     inkscape:window-width="1364"
     inkscape:window-height="734"
     id="namedview84"
     showgrid="false"
     inkscape:zoom="4.1823252"
     inkscape:cx="207.49266"
     inkscape:cy="702.08378"
     inkscape:window-x="0"
     inkscape:window-y="33"
     inkscape:window-maximized="1"
     inkscape:current-layer="svg82"
     inkscape:document-rotation="0" />
  <path
     style="fill-rule:evenodd;stroke-width:1"
     inkscape:connector-curvature="0"
     id="path8"
     d="m 158.7597,678.48791 9.15894,39.96506 -51.9659,2.79389 H 67.54355 l 0.10647,-12.70564 c 0,0 34.31942,-6.21086 34.21295,-6.11326 7.09812,-8.45564 13.29614,-21.58495 13.29614,-21.58495 z"
     sodipodi:nodetypes="cccccccc" />
  <path
     style="fill-rule:evenodd;stroke-width:1"
     inkscape:connector-curvature="0"
     id="path150"
     d="m 248.98833,662.68238 -8.14594,51.67001 51.9659,2.79388 h 48.40919 l -0.10647,-12.70564 c 0,0 -34.31942,-6.21085 -34.21295,-6.11325 -7.09812,-8.45564 -13.29614,-21.58496 -13.29614,-21.58496 z"
     sodipodi:nodetypes="cccccccc" />
  <path
     style="fill:#0a1223;fill-opacity:1;fill-rule:evenodd;stroke-width:1"
     inkscape:connector-curvature="0"
     id="path86"
     d="m 119.68218,372.82741 c 0,0 -11.1504,160.59306 -11.39363,175.38848 -0.22786,13.86 -4.9161,138.80625 -4.9161,138.80625 l 66.35585,-1.15756 c 0,0 5.90679,-106.25574 5.99302,-113.21307 0.0862,-6.95733 9.73032,-123.26132 9.73032,-123.26132 l 55.50533,238.99235 58.01224,-4.78372 -40.07517,-312.1304 z"
     sodipodi:nodetypes="cscczccccc" />
  <g
     id="g14"
     transform="matrix(0.34015217,0,0,0.34015217,4.6079607,-22.554005)"
     style="stroke-width:2.93986">
    <path
       style="fill:#fcb086;stroke-width:2.93986"
       d="m 340.25822,989.27499 c -4.42188,-18.66791 -8.78441,-37.39166 -9.6945,-41.60832 -1.90252,-8.81478 -0.30502,-8.36818 -20.56371,-5.7488 -34.52751,4.46426 -64.32779,3.8092 -93.2388,-2.04955 -22.81575,-4.62356 -35.71448,-13.11063 -39.93791,-26.27821 -2.13555,-6.6581 -6.18725,-36.8454 -9.07189,-67.59011 -1.08388,-11.55217 -1.72476,-36.70699 -1.68151,-66 0.0697,-47.21479 1.36073,-67.13983 6.37072,-98.32353 1.68976,-10.51755 1.65188,-11.06578 -0.88088,-12.74747 -3.64153,-2.41789 -3.29652,-6.65181 2.36216,-28.98713 C 189.08853,580.07775 215.08791,524.67316 244.28425,490 c 15.44446,-18.34165 26.86161,-27.40787 48.38243,-38.41992 11.12398,-5.69207 13.60602,-6.38357 34,-9.47259 36.48753,-5.52665 98.26364,-11.43164 119.66667,-11.43856 4.84537,-10e-4 7,-0.53458 7,-1.73166 0,-3.27779 19.92124,-19.86186 28.61908,-23.82486 3.34305,-1.5232 3.38092,-1.71802 3.38092,-17.39264 0,-12.1467 -0.51606,-16.84965 -2.2077,-20.11932 -3.81128,-7.36656 -5.80034,-17.08673 -6.68524,-32.66932 l -0.8557,-15.06888 -4.23515,-1.76954 c -11.87847,-4.96315 -15.00816,-21.64774 -5.98781,-31.92134 3.77554,-4.30012 3.85676,-4.68317 2.60861,-12.30482 -0.70852,-4.3266 -1.29171,-11.7004 -1.29596,-16.38623 -0.005,-6.56855 -0.54208,-8.91068 -2.34105,-10.22703 -1.85204,-1.35517 -2.26312,-3.36536 -1.99296,-9.74538 0.18721,-4.42092 0.89718,-9.50254 1.57772,-11.29247 1.15434,-3.03617 0.25964,-3.97803 -13.34038,-14.04331 -10.37773,-7.68049 -14.57772,-11.58398 -14.57772,-13.54862 0,-1.51786 3.15,-11.22708 7,-21.57606 l 7,-18.8163 6.78063,-3.00175 c 12.30733,-5.44837 48.89511,-17.47372 68.50086,-22.51425 l 19.28146,-4.95716 15.3852,3.6194 c 17.706,4.16537 46.67943,13.27036 66.16567,20.79277 l 13.44715,5.19109 4.85933,12.31938 c 6.00999,15.23646 10.24638,27.53356 10.24638,29.74246 0,0.91975 -6.16355,6.66888 -13.69679,12.77583 l -13.69677,11.10353 -0.3423,11.34878 c -0.2833,9.39314 -0.79508,11.73024 -2.96988,13.56249 -1.44518,1.21755 -2.6276,3.54055 -2.6276,5.16221 0,1.62168 -0.94684,9.32518 -2.1041,17.1189 -1.97483,13.29978 -1.96303,14.25236 0.19194,15.50445 5.71415,3.32005 8.81068,7.06951 9.91636,12.00725 2.46679,11.01627 -2.93336,21.30088 -12.16829,23.17458 -4.12375,0.83668 -4.53059,1.35828 -4.8356,6.19954 -0.82191,13.04596 -3.32705,32.5828 -5.04137,39.31606 -1.03112,4.04985 -2.2404,13.94985 -2.68731,22 l -0.81253,14.63662 8.32508,4.66667 c 4.5788,2.56667 12.53582,8.73756 17.68226,13.71311 l 9.35719,9.04645 25.42152,1.91655 c 13.98184,1.0541 34.12152,2.54534 44.75486,3.31386 68.25106,4.93282 90.7137,11.53259 118.62248,34.85259 9.87855,8.25432 26.13288,27.47579 35.89599,42.4486 20.83324,31.95008 41.33109,81.10497 52.99857,127.09323 5.57136,21.95993 5.89333,26.12989 2.20656,28.57781 -2.35001,1.56035 -2.55515,2.54753 -1.59611,7.68108 10.19859,54.59035 10.38723,140.57523 0.47248,215.35672 -1.1181,8.43333 -2.91522,18.05235 -3.99358,21.37557 -4.49708,13.85884 -16.08975,21.49334 -40.53144,26.69248 -12.89011,2.74194 -16.25938,2.90544 -45.33334,2.19999 -17.27455,-0.41915 -39.72685,-1.73236 -49.89399,-2.91824 -10.16714,-1.18589 -18.61028,-1.97473 -18.76253,-1.75299 -0.15224,0.22176 -4.17777,19.66851 -8.94563,43.215 -48.562,91.82319 -390.81827,121.48969 -410.2146,8.46318 z M 554.08923,505.71015 c 2.54528,-8.22608 4.98064,-15.87608 5.41193,-17 0.67687,-1.76388 -1.34677,-2.04348 -14.7896,-2.04348 -12.62229,0 -15.49204,0.35166 -15.14264,1.8556 0.2371,1.02057 3.7311,12.3939 7.76443,25.27409 l 7.33333,23.41849 2.39739,-8.27409 c 1.31856,-4.55075 4.47988,-15.00453 7.02516,-23.23061 z"
       id="path28"
       sodipodi:nodetypes="csssssssssssscssssscssscsssssscsscsscssscsssssssssscsscsssssssssssssccssssscss" />
    <path
       style="fill:#e6c36c;stroke-width:2.93986"
       d="m 512.66668,1177.8639 c -70.62437,-2.1268 -168.02608,-10.006 -171.89806,-13.9055 -0.95169,-0.9585 -1.38093,-11.8643 -1.27398,-32.3686 0.12893,-24.71 0.75873,-34.8076 3.1348,-50.2565 2.06305,-13.4136 2.911,-24.5101 2.76934,-36.2403 -0.13306,-11.0204 0.34384,-17.7845 1.36979,-19.4273 1.28583,-2.059 -0.16924,-9.9477 -7.94844,-43.09302 -5.23731,-22.31497 -9.51437,-41.31125 -9.50459,-42.21395 0.009,-0.90269 1.3678,-1.93952 3.0178,-2.30405 40.28883,-8.90105 82.09298,-21.98896 126.33334,-39.55203 9.9,-3.93022 18.6,-7.20757 19.33333,-7.28301 1.5411,-0.15852 2.75544,-0.65823 23.33334,-9.60153 119.85426,-52.08956 175.61443,-69.49904 234.00447,-73.06104 13.10858,-0.79967 27.16031,0.17185 42.99174,2.9724 4.16064,0.736 4.30309,0.61708 3.65174,-3.04846 -0.3728,-2.09789 -2.80745,-15.80072 -5.41036,-30.45072 -2.6029,-14.65 -4.99098,-26.8948 -5.30684,-27.21065 -0.31585,-0.31585 0.10534,-1.39323 0.93608,-2.39415 1.18168,-1.42384 1.06866,-1.65037 -0.51937,-1.04098 -1.11636,0.42837 -18.45121,-1.93391 -38.52192,-5.24955 -49.64346,-8.20096 -58.77759,-9.27317 -71.15887,-8.35293 -24.86483,1.84806 -192.28011,38.6415 -317.18692,69.70926 -21.91946,5.45198 -40.02413,9.74211 -40.2326,9.53366 -0.20846,-0.20847 1.11204,-7.27436 2.93446,-15.70199 C 309.33737,788.89533 313.0903,768.5 315.85482,752 l 5.02639,-30 -5.4406,-2.74451 c -2.99233,-1.50948 -10.25036,-5.5311 -16.12897,-8.93694 -33.25005,-19.26383 -64.52666,-30.08406 -108.50635,-37.53804 -11.28939,-1.9134 -19.65524,-3.9796 -20.31292,-5.01688 -1.8785,-2.96278 -1.32487,-7.81803 2.83294,-24.84495 7.46494,-30.57005 20.81447,-67.13672 34.82354,-95.38767 24.63094,-49.67122 49.63252,-78.28714 83.18449,-95.21005 10.25603,-5.17292 14.61596,-6.49299 30,-9.08317 32.52994,-5.47702 74.02202,-9.82112 115.00001,-12.04019 11.45821,-0.62049 17,-1.4238 17,-2.46421 0,-0.84899 1.95,-3.40343 4.33333,-5.67655 4.50924,-4.30069 23.86833,-18.4574 26.38944,-19.29776 1.29608,-0.43203 1.70959,-4.45533 2.40403,-23.39065 l 0.20653,-5.63159 5.66667,5.66339 c 10.58619,10.58006 23.10431,14.26644 48.44572,14.26644 27.87839,0 58.8294,-7.47716 61.82202,-14.935 0.87742,-2.18659 1.25412,0.82602 1.31441,10.51181 0.0771,12.38336 0.31981,13.65149 2.76119,14.42636 4.35048,1.38079 23.12712,15.85221 27.58444,21.25971 l 4.11724,4.99493 23.81082,1.78065 c 13.09596,0.97936 36.71083,2.73036 52.4775,3.8911 45.46575,3.34716 69.54395,8.11158 88,17.41281 42.06303,21.19835 78.28939,75.09328 105.49187,156.94309 5.69888,17.1474 13.1748,46.42462 13.1748,51.59515 0,1.80447 -1.19025,4.54783 -2.64503,6.09635 -2.6378,2.80781 -2.6378,2.86442 1.9e-4,20.7526 4.33569,29.40022 5.78215,53.09529 5.73436,93.9371 -0.048,40.99535 -1.27948,60.3168 -6.4772,101.62298 -3.63397,28.87902 -5.70967,35.018 -14.33716,42.40281 -6.31577,5.40607 -15.04765,8.91279 -30.48099,12.24112 -14.7392,3.17865 -58.96115,2.88697 -90.94143,-0.59983 -15.20168,-1.65742 -22.64261,-2.00034 -22.981,-1.05906 -0.27524,0.7656 -4.34717,20.29198 -9.04876,43.39198 -7.99244,39.26877 -8.40553,42.16117 -6.35233,44.47887 1.8286,2.0641 2.21448,5.968 2.30639,23.3333 0.0607,11.47 0.80325,24.7545 1.65012,29.5212 2.46317,13.8642 3.56046,57.833 1.70845,68.4582 -3.14148,18.023 -5.06537,20.4254 -18.80228,23.4782 -17.73699,3.9418 -165.16118,8.852 -218.00001,7.2608 z m 6.97223,-280.00279 c -0.44305,-0.44306 -1.59307,-0.49042 -2.55556,-0.1052 -1.06364,0.42562 -0.74771,0.74157 0.80556,0.80554 1.40555,0.0579 2.19305,-0.25724 1.75,-0.70029 z m 27.69793,-368.52778 c 0.93732,-4.48069 10.24892,-35.63174 12.0679,-40.37192 0.80184,-2.08954 -0.50328,-2.29474 -14.5954,-2.29474 -8.5118,0 -15.51058,0.45 -15.55284,1 -0.2133,2.77556 15.53118,49.08014 16.25716,47.81238 0.46584,-0.81348 1.28628,-3.57905 1.82318,-6.14572 z M 584.1701,439 c 1.65849,-2.11475 1.61133,-2.16191 -0.50342,-0.50341 -1.28333,1.00646 -2.33333,2.05646 -2.33333,2.33333 0,1.09739 1.09492,0.39108 2.83675,-1.82992 z m 25.97937,-155.42608 c -0.42884,-1.59899 -0.79609,-4.70725 -0.81612,-6.90725 -0.02,-2.2 -0.38364,-5.29431 -0.80801,-6.87626 l -0.77161,-2.87624 -4.72959,3.20958 c -5.43727,3.68984 -9.74826,3.9427 -21.19504,1.24324 -12.21311,-2.88019 -37.41646,-5.08491 -46.49575,-4.06732 -4.4,0.49313 -14.27937,2.1207 -21.95417,3.61681 -14.1894,2.76605 -25.21447,2.65329 -28.76601,-0.29421 -1.3958,-1.15843 -2.07074,-0.39112 -3.18473,3.62056 -0.77745,2.79977 -1.41691,5.8405 -1.42099,6.75717 -0.005,1.04532 -1.93362,1.66667 -5.1741,1.66667 -4.75986,0 -5.23588,-0.3412 -6.0457,-4.33334 -0.48345,-2.38333 -1.23832,-10.03333 -1.67746,-17 -0.53478,-8.48381 -1.47007,-13.43888 -2.83227,-15.00512 -2.23453,-2.56924 -2.41708,-12.20266 -0.36671,-19.3519 1.21088,-4.22211 1.16718,-4.271 -13.34817,-14.93384 -11.18511,-8.21647 -14.55024,-11.39502 -14.50787,-13.7035 0.0304,-1.6531 3.25428,-11.40564 7.16432,-21.6723 L 450.32865,158 460.831,153.70624 c 15.55025,-6.35753 48.18968,-16.84687 67.28367,-21.62297 l 16.78132,-4.19761 14.40604,3.47077 c 20.42889,4.92182 42.37506,11.73322 62.75528,19.47726 l 17.57874,6.67955 7.51532,19.91719 c 4.13342,10.95446 7.51532,20.70037 7.51532,21.65758 0,0.9572 -6.26247,6.80399 -13.91658,12.99286 l -13.91658,11.25246 -0.0835,11 c -0.0663,8.73464 -0.57717,11.49375 -2.48092,13.3975 -1.71063,1.71062 -3.04709,7.02594 -4.66491,18.55302 -1.24708,8.88555 -2.58385,16.98018 -2.97061,17.98806 -1.15577,3.01189 -5.61804,2.53154 -6.4842,-0.69799 z m -58.86684,-82.37491 c 2.5898,-2.27388 4.41728,-4.60589 4.06108,-5.18226 -0.35621,-0.57636 0.36091,-1.86591 1.5936,-2.86567 1.54147,-1.25019 1.92863,-1.29736 1.23996,-0.15108 -0.55072,0.91667 -0.37732,1.66667 0.38532,1.66667 2.11633,0 2.94781,-5.09822 2.50531,-15.36123 -0.37135,-8.61275 -0.6196,-9.29809 -3.33492,-9.20669 -1.61354,0.0543 -2.62814,-0.3957 -2.25464,-1 C 555.85182,168.49444 555.29056,168 554.23111,168 c -1.05945,0 -3.53335,-0.83376 -5.49756,-1.8528 -1.9642,-1.01905 -4.74544,-1.54576 -6.18051,-1.17048 -2.17969,0.57 -2.33022,1.02069 -0.91446,2.73776 1.48389,1.79968 1.33942,1.86613 -1.16103,0.53407 -2.23876,-1.19264 -3.75123,-1.07467 -7,0.54604 -4.32219,2.15618 -4.84623,4.38532 -4.43867,18.88113 0.106,3.76951 4.29447,10.75756 4.29447,7.16488 0,-0.74244 -0.6,-1.72071 -1.33333,-2.17393 -0.73334,-0.45323 -1.33334,-1.50331 -1.33334,-2.33354 0,-2.10024 3.90532,3.25683 3.9576,5.42878 0.0513,2.13177 3.47839,5.75942 4.97098,5.2619 0.58928,-0.19642 1.17018,0.17578 1.29088,0.82712 0.23658,1.27674 3.17933,3.4287 4.73414,3.46199 0.5245,0.0107 3.07255,-1.84003 5.66235,-4.11391 z m -13.94928,-3.86568 c 0,-0.73333 0.6,-1.33333 1.33333,-1.33333 0.73334,0 1.33334,0.6 1.33334,1.33333 0,0.73334 -0.6,1.33334 -1.33334,1.33334 -0.73333,0 -1.33333,-0.6 -1.33333,-1.33334 z m 5.4386,-0.77777 c 0.064,-1.55327 0.37992,-1.8692 0.80555,-0.80556 0.38516,0.96249 0.3378,2.11249 -0.1052,2.55556 -0.44306,0.44305 -0.75819,-0.34445 -0.7003,-1.75 z"
       id="path26-3"
       sodipodi:nodetypes="ssssssscssssssssssssssssscssssssssssssscsssssscsssssssssssssssssssssssssssssssssssssscsssssscsssssssscsscsscssscssssssssssssssssssssssssssscsssssssssss" />
    <path
       style="fill:#ed9b6d;stroke-width:2.93986"
       d="m 339.60661,985.90689 c -3.58565,0.0399 -8.67108,-48.72494 -7.41043,-47.81778 34.11282,24.54764 82.13153,-21.98424 126.4705,-39.58646 9.9,-3.93022 18.6,-7.20757 19.33333,-7.28301 1.5411,-0.15852 2.75544,-0.65823 23.33334,-9.60153 119.85426,-52.08956 175.61443,-69.49904 234.00447,-73.06104 13.10858,-0.79967 27.16031,0.17185 42.99174,2.9724 4.16064,0.736 4.30309,0.61708 3.65174,-3.04846 -0.3728,-2.09789 -2.80745,-15.80072 -5.41036,-30.45072 -2.6029,-14.65 -4.99098,-26.8948 -5.30684,-27.21065 -0.31585,-0.31585 0.10534,-1.39323 0.93608,-2.39415 1.18168,-1.42384 1.06866,-1.65037 -0.51937,-1.04098 -1.11636,0.42837 -18.45121,-1.93391 -38.52192,-5.24955 -49.64346,-8.20096 -58.77759,-9.27317 -71.15887,-8.35293 -24.86483,1.84806 -192.28011,38.6415 -317.18692,69.70926 -21.91946,5.45198 -40.02413,9.74211 -40.2326,9.53366 -0.20846,-0.20847 1.11204,-7.27436 2.93446,-15.70199 C 309.33737,788.89533 313.0903,768.5 315.85482,752 l 5.02639,-30 -5.4406,-2.74451 c -2.99233,-1.50948 -10.25036,-5.5311 -16.12897,-8.93694 -32.90601,-19.06451 -65.35434,-30.39011 -105.9783,-36.99011 -20.15019,-3.27372 -24,-4.94079 -24,-10.39263 0,-4.53477 6.60765,-31.79034 11.29512,-46.5907 2.80245,-8.84852 4.05373,-11.10343 6.42584,-11.57986 1.62013,-0.3254 8.51291,-1.54556 15.31725,-2.71145 23.36856,-4.00412 35.3487,-10.99815 38.96955,-22.75053 2.18027,-7.07655 3.05031,-29.15435 1.72789,-43.84614 l -1.06898,-11.87618 -7.28098,-2.47146 c -4.00454,-1.35929 -7.82482,-3.01529 -8.48952,-3.67998 -1.93646,-1.93647 11.84575,-20.7895 25.7705,-35.25208 15.07256,-15.65472 24.48613,-22.63988 41.40775,-30.7258 11.32721,-5.41267 14.8024,-6.3545 34.59225,-9.37508 27.04699,-4.12828 65.6508,-8.09999 99.66667,-10.25411 17.19936,-1.08919 25.66667,-2.12143 25.66667,-3.12903 0,-0.827 1.95,-3.36345 4.33333,-5.63657 4.50924,-4.30069 23.86833,-18.4574 26.38944,-19.29776 1.29608,-0.43203 1.70959,-4.45533 2.40403,-23.39065 l 0.20653,-5.63159 5.66667,5.66339 c 10.58619,10.58006 23.10431,14.26644 48.44572,14.26644 27.87839,0 58.8294,-7.47716 61.82202,-14.935 0.88318,-2.20095 1.26709,0.69378 1.36182,10.26833 l 0.13187,13.33333 8.83923,5.33334 c 4.86158,2.93333 12.75542,9.12524 17.54188,13.7598 7.60977,7.36826 9.46585,8.50037 14.78002,9.01494 3.34256,0.32368 26.47739,2.1121 51.41072,3.97428 24.93334,1.86219 51.33334,4.26668 58.66667,5.34331 40.8953,6.00396 62.63455,17.43231 88.37819,46.46053 10.18136,11.48038 22.22911,28.60856 21.00643,29.86468 -0.49027,0.50368 -4.30237,2.14008 -8.47135,3.63646 l -7.57993,2.72066 -1.07832,11.946 c -0.59307,6.5703 -0.84669,18.246 -0.5636,25.946 0.99476,27.0566 8.71036,34.82015 40.31011,40.5606 6.59916,1.19882 13.63661,2.50818 15.63877,2.90968 3.22336,0.6464 4.03569,1.97843 7.09249,11.62987 4.4877,14.16924 11.26722,41.91609 11.26722,46.1138 0,1.80447 -1.19026,4.54783 -2.64503,6.09635 -2.6378,2.80781 -2.6378,2.86442 1.9e-4,20.7526 4.33569,29.40022 5.78214,53.09529 5.73436,93.9371 -0.048,40.99535 -1.27948,60.3168 -6.4772,101.62298 -3.63398,28.87902 -5.70967,35.018 -14.33716,42.40281 -6.31578,5.40607 -15.04766,8.91279 -30.48099,12.24112 -14.7392,3.17865 -58.96115,2.88697 -90.94143,-0.59983 -15.20168,-1.65742 -21.98626,-0.95413 -22.981,-1.05906 -20.38903,-2.15068 -34.50646,43.67558 -9.04876,43.39198 z m 180.0323,-88.04578 c -0.44305,-0.44306 -1.59307,-0.49042 -2.55556,-0.1052 -1.06364,0.42562 -0.74771,0.74157 0.80556,0.80554 1.40555,0.0579 2.19305,-0.25724 1.75,-0.70029 z M 690.96779,609.31115 c 2.40106,-1.47888 8.12259,-3.86152 12.71451,-5.29478 15.46207,-4.8261 20.76044,-9.20902 23.80884,-19.69513 2.37886,-8.18297 1.768,-13.85672 -2.96649,-27.55368 -4.0988,-11.85787 -4.19912,-21.94463 -0.28749,-28.90444 1.59709,-2.84164 2.64709,-5.33149 2.33333,-5.53301 -0.31376,-0.20151 -3.74413,-2.9639 -7.62307,-6.13864 l -7.05261,-5.77226 -5.30771,2.12374 c -6.79577,2.71912 -14.39023,2.71517 -17.40047,-0.009 -2.16005,-1.95482 -2.61077,-1.95482 -5.40166,0 -3.86767,2.70903 -10.26611,2.7189 -16.99575,0.0263 l -5.26475,-2.10655 -7.09556,5.58512 c -3.90256,3.07182 -7.27473,6.05728 -7.49372,6.63438 -0.219,0.57708 0.82876,3.06172 2.32835,5.52141 3.75693,6.16233 3.53236,15.95839 -0.65945,28.76431 -4.46795,13.64956 -5.2167,19.81445 -3.28004,27.00665 2.4256,9.00797 9.20852,14.91577 22.0093,19.16971 5.86667,1.94961 12.46667,4.69789 14.66667,6.10732 2.2,1.40942 4.13549,2.60645 4.30111,2.66005 0.16561,0.0536 2.26561,-1.11252 4.66666,-2.59139 z m -7.7011,-5.14558 c -0.69667,-0.64226 -6.18498,-2.78098 -12.19624,-4.7527 -12.53194,-4.11054 -17.29616,-7.36524 -19.89867,-13.59391 -2.88243,-6.89861 -2.1866,-15.41109 2.33583,-28.57569 3.42809,-9.97906 4.05002,-13.52102 3.47932,-19.81484 -0.3822,-4.21506 -1.51062,-8.99407 -2.50758,-10.62006 -1.57914,-2.57546 -1.52056,-3.12234 0.45486,-4.24509 1.24713,-0.70884 3.22941,-2.25068 4.40505,-3.42633 1.86441,-1.86442 3.11937,-1.9292 9.82107,-0.507 5.36369,1.13825 9.12005,1.2339 12.44146,0.31682 3.17594,-0.87692 6.76428,-0.85461 10.7921,0.0671 4.73316,1.08309 7.37133,0.9406 12.23608,-0.66095 6.09357,-2.00608 6.27617,-1.98158 10.45265,1.4024 2.33791,1.89428 4.47928,3.60282 4.75862,3.79675 0.27933,0.19392 -0.47067,2.41472 -1.66667,4.93511 -3.30003,6.95428 -2.70433,16.65553 1.82545,29.72873 4.36466,12.59663 5.00659,20.794 2.16158,27.60307 -2.65063,6.34382 -7.59559,9.64368 -20.22341,13.4954 -6.12857,1.86933 -11.50721,3.98832 -11.95253,4.70888 -1.00449,1.6253 -5.01817,1.71033 -6.71897,0.14233 z M 716.1701,579 c 1.6585,-2.11475 1.61134,-2.16191 -0.50341,-0.50341 -1.28333,1.00646 -2.33333,2.05646 -2.33333,2.33333 0,1.09739 1.09492,0.39108 2.83674,-1.82992 z m -57.77497,-1.60603 c -0.89512,-1.43332 -1.88571,-2.34781 -2.20131,-2.03222 -0.57145,0.57146 2.33432,4.63825 3.31409,4.63825 0.28308,0 -0.21766,-1.17271 -1.11278,-2.60603 z m 8.27156,-3.24062 c 0,-0.28232 -1.65,-1.51794 -3.66667,-2.7458 l -3.66667,-2.23248 3.14771,2.7458 c 3.07164,2.67944 4.18563,3.2736 4.18563,2.23248 z m 28.16545,-27.84224 c -1.31683,-1.30702 -1.46997,-1.15387 -0.7464,0.7464 0.50071,1.31496 1.24625,2.05496 1.65677,1.64444 0.41052,-0.41052 8.6e-4,-1.48639 -0.91037,-2.39084 z m -11.08963,-15.01306 c -0.41052,-0.41052 -1.15606,0.32948 -1.65677,1.64444 -0.72357,1.90027 -0.57043,2.05342 0.7464,0.7464 0.91123,-0.90445 1.32089,-1.98032 0.91037,-2.39084 z M 552.62187,511.61727 c 3.39152,-11.57716 6.50325,-21.92716 6.91493,-23 0.63043,-1.64287 -1.69301,-1.9506 -14.72746,-1.9506 -8.5118,0 -15.50188,0.45 -15.53352,1 -0.0316,0.55 3.41836,11.94864 7.66666,25.3303 5.0116,15.78596 8.0383,23.51196 8.61858,22 0.49192,-1.28166 3.66928,-11.80253 7.06081,-23.3797 z M 584.1701,439 c 1.65849,-2.11475 1.61133,-2.16191 -0.50342,-0.50341 -1.28333,1.00646 -2.33333,2.05646 -2.33333,2.33333 0,1.09739 1.09492,0.39108 2.83675,-1.82992 z m 25.97937,-155.42608 c -0.42884,-1.59899 -0.79609,-4.70725 -0.81612,-6.90725 -0.02,-2.2 -0.38364,-5.29431 -0.80801,-6.87626 l -0.77161,-2.87624 -4.72959,3.20958 c -5.43727,3.68984 -9.74826,3.9427 -21.19504,1.24324 -12.21311,-2.88019 -37.41646,-5.08491 -46.49575,-4.06732 -4.4,0.49313 -14.27937,2.1207 -21.95417,3.61681 -14.1894,2.76605 -25.21447,2.65329 -28.76601,-0.29421 -1.3958,-1.15843 -2.07074,-0.39112 -3.18473,3.62056 -0.77745,2.79977 -1.41691,5.8405 -1.42099,6.75717 -0.005,1.04532 -1.93362,1.66667 -5.1741,1.66667 -4.75986,0 -5.23588,-0.3412 -6.0457,-4.33334 -0.48345,-2.38333 -1.23832,-10.03333 -1.67746,-17 -0.53612,-8.50517 -1.46887,-13.43741 -2.83906,-15.01264 -2.21678,-2.54848 -2.38009,-9.595 -0.42414,-18.30029 l 1.2007,-5.34399 -14.52384,-10.72242 c -10.99892,-8.12011 -14.51045,-11.43818 -14.46868,-13.67154 0.0304,-1.62201 3.25823,-11.34912 7.1731,-21.61578 L 450.3462,158 l 9.16024,-3.75196 c 16.15467,-6.61683 47.27535,-16.68616 66.71223,-21.58525 l 18.88532,-4.76007 16.44801,4.12379 c 33.46299,8.38973 73.32707,22.14837 77.25401,26.66336 2.23188,2.56612 15.86068,37.24205 15.86068,40.35457 0,0.98117 -6.26247,6.84756 -13.91658,13.03643 l -13.91658,11.25246 -0.19175,8 c -0.31813,13.27344 -0.63981,15.21027 -2.81913,16.97396 -1.42231,1.15107 -2.79464,6.88284 -4.28868,17.9124 -1.2084,8.92084 -2.51354,17.04434 -2.9003,18.05222 -1.15577,3.01189 -5.61804,2.53154 -6.4842,-0.69799 z M 544.66668,208 c -0.45322,-0.73333 -0.5377,-1.33333 -0.18773,-1.33333 0.34996,0 1.6838,-0.40196 2.96408,-0.89326 1.71205,-0.65697 2.03908,-0.42614 1.23637,0.87268 -0.7474,1.20932 -0.57825,1.44879 0.53664,0.75974 0.89543,-0.5534 1.27463,-1.35963 0.84264,-1.7916 -1.18945,-1.18946 10.06136,-12.15115 11.79058,-11.48759 1.06381,0.40823 1.38214,-2.6554 1.08493,-10.44111 -0.23135,-6.06037 -0.64996,-11.72352 -0.93023,-12.58477 -0.52324,-1.60784 -6.25958,-4.53879 -13.33728,-6.81459 -2.2,-0.7074 -3.83513,-2.00577 -3.63362,-2.88528 0.20149,-0.8795 -0.2583,-1.21305 -1.02176,-0.7412 -0.76346,0.47184 -1.04292,1.41644 -0.621,2.09911 0.7017,1.13539 -1.50087,1.75335 -5.70927,1.60179 -0.90877,-0.0327 -1.35005,0.42954 -0.98064,1.02729 0.90828,1.46963 -3.81895,2.86667 -6.37767,1.88479 -1.12913,-0.4333 -2.44482,-0.15376 -2.92376,0.62116 -0.54898,0.88828 0.0171,1.09572 1.5318,0.56133 1.96416,-0.69296 2.09846,-0.51985 0.73592,0.9486 -0.92108,0.99269 -1.66666,5.13645 -1.66666,9.26291 0,4.14222 -0.74207,8.25325 -1.66667,9.23333 -1.273,1.34939 -1.29069,1.90511 -0.0749,2.35281 0.87548,0.32238 1.22988,1.59738 0.78756,2.83334 -0.44231,1.23594 -0.3138,1.80238 0.28556,1.25876 1.5019,-1.36227 4.84505,1.62398 3.76837,3.36609 -0.55343,0.89547 -0.008,1.07783 1.49648,0.50047 1.74291,-0.66882 2.16757,-0.38822 1.61028,1.06404 -0.41628,1.08484 -0.0904,2.38434 0.72423,2.8878 0.89688,0.5543 1.10584,0.30817 0.52974,-0.62396 C 534.93745,200.69271 535.07127,200 535.7581,200 c 1.45401,0 3.92509,2.73524 4.216,4.66667 0.1104,0.73333 1.07096,1.15485 2.13448,0.9367 1.06352,-0.21814 1.85312,0.0819 1.75467,0.66667 -0.29323,1.74195 0.0873,3.06329 0.88216,3.06329 0.40994,0 0.37453,-0.6 -0.0787,-1.33333 z m 12.66667,-8.66667 c 2.48771,-2.56666 4.22311,-4.66666 3.85644,-4.66666 -0.36667,0 -2.70207,2.1 -5.18977,4.66666 C 553.51231,201.9 551.77691,204 552.14358,204 c 0.36666,0 2.70206,-2.1 5.18977,-4.66667 z m 6.61351,-30.73072 c -0.88368,-1.06477 -2.28323,-1.91686 -3.1101,-1.89354 -0.82688,0.0233 -0.45341,0.83946 0.82992,1.81366 1.28334,0.97419 2.40294,2.90511 2.488,4.29092 0.14246,2.32071 0.2038,2.33036 0.77678,0.12227 0.34214,-1.31856 -0.10094,-3.26856 -0.9846,-4.33333 z"
       id="path24"
       sodipodi:nodetypes="sssssssssssssssssscssssssssscsssssssssscsssscsssssssscsssssssssssssssssssssssssssscsssscssssssssssssssssssssssssssssssssssssssssscsssssssssssssssssssssssscsssssscssssscssscsscsssscsssssssssssssssssssssssssssssssssssssssssssssssssssss" />
    <path
       style="fill:#9e711a;stroke-width:2.93986"
       d="m 510.00002,1177.1112 c -46.27485,-0.9347 -85.4455,-3.2811 -132.00001,-7.9071 -38.35916,-3.8116 -37.09952,-3.4846 -38.24312,-9.9277 -2.40633,-13.5573 -0.40005,-57.0156 3.78296,-81.9431 1.34137,-7.9935 2.03959,-19.3074 1.89255,-30.6666 -0.17686,-13.661 0.21897,-18.615 1.64197,-20.5511 1.6256,-2.2118 1.54772,-3.8287 -0.58548,-12.1558 -3.27447,-12.7821 -17.15555,-72.69145 -17.15555,-74.04164 0,-0.58433 3.45,-1.74611 7.66667,-2.58171 27.891,-5.52702 75.75272,-20.44861 117.43895,-36.61329 l 23.10563,-8.95967 40.89437,7.42198 c 81.05094,14.71004 200.45941,33.50138 230.80293,36.32152 5.18364,0.48177 9.4248,1.40973 9.4248,2.06213 0,1.28032 -13.52467,68.21158 -15.95169,78.94228 -1.2844,5.6786 -1.16852,6.8472 0.90614,9.1382 1.94032,2.1426 2.37538,4.998 2.35986,15.4886 -0.0107,7.074 -0.25054,14.9618 -0.53347,17.5285 -0.28293,2.5666 0.52195,10.6666 1.78864,18 3.37491,19.5386 3.66285,69.098 0.46149,79.432 -1.26629,4.0875 -3.39096,8.4171 -4.72148,9.6212 -2.7293,2.47 -15.67085,5.6725 -27.64282,6.8404 -32.38946,3.1597 -147.69198,5.7152 -205.33334,4.5509 z m 77.69805,-110.8153 c 1.28044,-1.0114 1.60835,-6.7777 1.33333,-23.4473 -0.36416,-22.0719 -0.36989,-22.1088 -3.69805,-23.8268 -2.53381,-1.3078 -11.866,-1.6323 -38.90739,-1.3527 -19.56573,0.2024 -36.06573,0.8596 -36.66666,1.4605 -0.60095,0.6009 -1.09262,10.8504 -1.09262,22.7766 0,23.8876 0.49,25.5579 7.76596,26.4711 8.31115,1.0431 69.57479,-0.7462 71.26543,-2.0814 z M 305.33334,811.17463 c 0,-1.02824 1.23879,-7.41318 2.75286,-14.18875 2.9387,-13.15093 13.4785,-74.53229 12.89768,-75.11312 -0.19068,-0.19068 -3.64006,-2.10299 -7.66528,-4.24955 -4.02523,-2.14657 -13.7401,-7.49834 -21.58859,-11.89284 -28.51187,-15.96421 -65.5637,-28.15756 -101.06334,-33.2588 -8.43333,-1.21186 -16.75642,-3.07545 -18.49576,-4.1413 -2.82117,-1.72882 -3.07249,-2.59414 -2.32896,-8.01882 1.00694,-7.3464 6.36638,-28.95622 10.87738,-43.85873 l 3.29357,-10.88063 9.66021,-1.58978 c 42.65471,-7.01975 50.50588,-14.72107 50.18219,-49.22431 -0.0796,-8.48357 -0.5296,-18.99141 -1,-23.35076 l -0.85529,-7.92611 -7.8492,-3.03421 c -4.31706,-1.66881 -8.13264,-3.31765 -8.47907,-3.66408 -1.33253,-1.33253 15.47049,-23.34575 26.73312,-35.02239 19.01149,-19.71032 40.82271,-33.04233 60.42399,-36.9339 27.40267,-5.44042 110.13495,-13.98903 136.83783,-14.13926 2.27213,-0.0133 3.66667,-0.74206 3.66667,-1.91753 0,-3.81629 29.86154,-26.25573 31.86849,-23.94755 0.56324,0.64779 2.05772,3.98808 3.32104,7.4229 3.11722,8.47524 11.49612,21.26284 20.92703,31.93809 7.797,8.82577 7.84691,8.93665 18.32824,40.72543 5.78048,17.53156 11.89001,36.52425 13.57673,42.20598 1.68672,5.68174 3.46239,9.8553 3.94594,9.27458 0.48353,-0.58072 1.66513,-4.35586 2.62576,-8.38919 2.47878,-10.40757 14.88093,-49.05919 20.42152,-63.64424 3.64037,-9.58292 6.23865,-14.01475 11.72556,-20 8.74106,-9.53497 15.7632,-20.25567 20.7194,-31.63228 2.09019,-4.79791 4.20379,-8.72348 4.69687,-8.72348 1.45837,0 21.4737,14.57128 26.17676,19.05684 2.38333,2.27312 4.33333,4.90381 4.33333,5.84597 0,2.27886 2.25993,2.62714 28,4.31511 72.50887,4.75497 95.76051,7.24892 115.33334,12.37053 22.73366,5.94871 40.1212,16.63603 58.89479,36.19991 11.47364,11.95663 28.10104,33.66027 26.79108,34.97021 -0.35978,0.35978 -4.18628,2.01984 -8.50334,3.68902 l -7.8492,3.03488 -0.86813,7.25876 c -0.47748,3.99233 -0.92748,14.49986 -1,23.3501 -0.28779,35.11854 7.73365,43.10254 50.15515,49.92102 l 9.62033,1.54629 3.3148,10.88735 c 4.5462,14.9319 9.93015,36.52765 10.93591,43.86546 0.74316,5.42195 0.49078,6.29283 -2.32896,8.03683 -1.73934,1.07577 -8.56243,2.69447 -15.16243,3.59711 -41.53815,5.68082 -72.72159,16.37888 -112.90168,38.73296 -10.50408,5.84392 -19.88508,10.63197 -20.84668,10.64014 -1.78979,0.0152 -1.75479,0.69622 1.01794,19.8119 l 1.03428,7.13038 -4.15193,-0.85032 c -9.53687,-1.95317 -69.35888,-11.4847 -84.00902,-13.3853 -15.01474,-1.9479 -16.71461,-1.91743 -32,0.57345 -51.13516,8.33288 -223.91262,47.26631 -331.14293,74.61927 -11.93772,3.04514 -15,3.44462 -15,1.95676 z m 387.09592,-202.399 c 3.06392,-1.7734 8.26739,-3.936 11.56327,-4.80579 13.51483,-3.56659 21.37585,-10.19667 24.10447,-20.32997 1.86582,-6.92918 0.82446,-15.20428 -3.45463,-27.45202 -4.08147,-11.68202 -4.22535,-20.11969 -0.47521,-27.86642 1.55858,-3.21962 2.30858,-6.28906 1.66666,-6.821 -7.45454,-6.17731 -13.86118,-10.83376 -14.90578,-10.83376 -0.70943,0 -3.00845,0.8963 -5.10894,1.99178 -4.95904,2.58632 -12.44487,2.55515 -16.18907,-0.0673 -2.68206,-1.87859 -3.24462,-1.87859 -5.92669,0 -3.8002,2.66176 -10.23268,2.64244 -16.96416,-0.0509 l -5.3148,-2.12656 -6.37884,5.05986 c -3.50837,2.78292 -6.90407,5.49508 -7.54599,6.02702 -0.64192,0.53194 0.10814,3.60138 1.66667,6.821 3.84539,7.94349 3.56543,15.11876 -1.1662,29.88994 -4.48772,14.00972 -4.96075,20.90414 -1.93243,28.16479 3.64295,8.73427 9.46243,13.39288 21.24479,17.00695 5.8782,1.80304 12.48764,4.4755 14.68764,5.9388 2.2,1.46328 4.19316,2.66448 4.42924,2.6693 0.23608,0.005 2.93608,-1.44217 6,-3.21558 z m -8.42924,-4.7688 c -1.1,-0.71418 -6.8,-2.89298 -12.66667,-4.84179 -13.36836,-4.44076 -17.13905,-7.07029 -19.84834,-13.84149 -3.065,-7.66019 -2.69628,-12.97792 1.84834,-26.65688 4.41264,-13.2817 5.0732,-22.85047 2.0731,-30.03072 -1.89926,-4.54555 -1.86435,-4.65946 2.43154,-7.9361 4.14872,-3.16438 4.71787,-3.24897 11.82716,-1.75778 5.50454,1.15458 8.7222,1.18186 12.23512,0.10373 3.45896,-1.06159 6.07387,-1.06159 9.53283,0 3.50333,1.0752 6.72099,1.05289 12.14217,-0.0843 7.03667,-1.47596 7.58218,-1.38964 11.86611,1.8779 4.35208,3.31949 4.42983,3.54205 2.52451,7.22653 -3.15799,6.10687 -2.41624,17.58556 2.03413,31.47871 4.64448,14.4991 4.88435,19.04513 1.40883,26.7002 -2.81373,6.19746 -5.43827,7.8899 -21.07524,13.59052 -5.68347,2.07197 -11.23359,4.15032 -12.33359,4.61856 -1.1,0.46822 -2.9,0.26701 -4,-0.44716 z m 18.44447,-17.13307 c 3.56018,-1.35276 9.2166,-4.34717 12.56983,-6.65425 5.87984,-4.04544 6.04288,-4.33746 4.58225,-8.2071 -1.77609,-4.70541 -3.79315,-5.00342 -8.96053,-1.32392 -7.19427,5.12278 -15.1651,7.9192 -22.63602,7.94146 -9.82311,0.0293 -15.84177,-1.80654 -24.06471,-7.34016 -3.77846,-2.54272 -7.03684,-4.62312 -7.24085,-4.62312 -0.204,0 -1.15233,1.88652 -2.10741,4.19225 -1.60663,3.87876 -1.49504,4.38776 1.49218,6.80667 12.82268,10.38317 32.82054,14.35476 46.36526,9.20817 z m 0.2222,-20.15773 c 0,-0.70619 -1.17819,-4.27304 -2.61819,-7.92636 l -2.61819,-6.64239 5.28486,-4.18568 c 2.90666,-2.30212 5.28485,-4.96528 5.28485,-5.91813 0,-1.96843 -4.08689,-3.33183 -10.06764,-3.3586 -3.49328,-0.0156 -4.47927,-0.86543 -6.98268,-6.0182 -1.60327,-3.3 -3.7732,-6 -4.82208,-6 -1.04887,0 -2.93819,2.7 -4.19847,6 -1.71498,4.49064 -3.00053,6.00186 -5.11028,6.00744 -4.32848,0.012 -12.81885,2.64006 -12.81885,3.96876 0,0.6513 2.38719,2.8731 5.30487,4.93733 5.79934,4.10297 6.38062,6.16145 3.37001,11.93405 -4.08832,7.83902 -2.27767,8.77894 8.37965,4.34995 l 6.74348,-2.80247 5.76767,3.45652 c 6.04129,3.62051 9.10099,4.35939 9.10099,2.19778 z M 609.90847,276 c -0.50582,-5.13333 -1.19953,-9.33333 -1.54157,-9.33333 -0.34204,0 -2.25111,1.1601 -4.24237,2.57801 -5.86667,4.17743 -9.52954,4.40016 -23.52642,1.43061 -20.48537,-4.34614 -43.46152,-4.95877 -60.59809,-1.61577 -23.37348,4.55971 -27.34812,4.66819 -36.23586,0.98891 -1.83444,-0.75942 -2.39609,0.14292 -3.12836,5.02604 -0.83647,5.57797 -1.19393,6.00053 -5.69412,6.73081 -2.64091,0.42856 -4.97333,0.60749 -5.18319,0.39764 -0.20986,-0.20985 -1.0941,-7.84136 -1.965,-16.95891 -1.03737,-10.86056 -2.27577,-17.39316 -3.59105,-18.94302 -1.67327,-1.97171 -1.79461,-4.16394 -0.72865,-13.16343 l 1.27896,-10.79776 -14.37636,-10.61355 c -7.90702,-5.83745 -14.37638,-11.36997 -14.37638,-12.2945 0,-2.21402 4.22636,-14.48919 10.22324,-29.69268 l 4.83622,-12.26095 18.13694,-6.64069 c 23.92637,-8.76044 41.35326,-14.19711 60.47633,-18.86679 l 15.68736,-3.83071 20.31996,5.19839 c 20.50276,5.24516 47.37077,13.91193 64.03591,20.65599 10.42968,4.22068 10.00193,3.59261 18.92293,27.78526 l 6.31036,17.11291 -3.71341,3.87596 c -2.04238,2.13179 -8.40035,7.63099 -14.12883,12.22043 l -10.4154,8.34446 -0.22373,8 c -0.12307,4.4 -0.118,9.15 0.0107,10.55555 0.1292,1.40556 -0.92782,3.80556 -2.34896,5.33333 -1.90238,2.04515 -3.15226,6.91448 -4.73893,18.46208 -2.53439,18.44891 -2.90817,19.64904 -6.11923,19.64904 -2.04853,0 -2.59186,-1.50792 -3.36296,-9.33333 z m -54.65664,-74.07871 c 4.80529,-4.07662 9.0686,-8.73369 9.47403,-10.34904 0.40542,-1.61534 0.55797,-7.42404 0.33898,-12.90821 -0.4434,-11.10416 0.31367,-10.23603 -13.73226,-15.74697 l -6.66746,-2.61599 -8.66588,3.49513 c -4.76624,1.92232 -9.1067,4.10459 -9.64548,4.84947 -0.53877,0.74488 -0.98877,6.47688 -1,12.73777 l -0.0204,11.38346 6.33334,6.08782 c 6.40998,6.16151 12.13149,10.4786 13.88746,10.4786 0.52843,0 4.89239,-3.33541 9.69768,-7.41204 z"
       id="path22"
       sodipodi:nodetypes="sssssssssscssssssssssssssssssssssssssssscssscsssscssssssssssssssssssscssscssssssscsssssssssssssssscsssssssssssssssssssssssssssssssssssssssscsssssscsssscsssssssssssssscssscsscssscsscscscssssssscssscssss" />
    <path
       style="fill:#01426b;stroke-width:2.93986"
       d="m 468.00001,1175.957 c -40.23761,-2.1646 -106.72279,-7.8475 -121.71249,-10.4035 -5.43771,-0.9272 -5.6502,-1.1528 -6.52202,-6.9226 -2.25524,-14.9259 -0.33736,-55.0266 3.8882,-81.2976 1.45786,-9.0636 2.13362,-19.8766 1.91656,-30.6666 -0.24088,-11.9743 0.16988,-17.6052 1.45899,-20 1.53645,-2.8544 1.44977,-4.6968 -0.60328,-12.8224 -3.57787,-14.16057 -17.09263,-72.68706 -17.09263,-74.02067 0,-0.63634 1.09072,-1.15696 2.42384,-1.15696 1.33311,0 12.88311,-2.63367 25.66667,-5.85259 27.21056,-6.85168 61.4658,-18.04884 95.61054,-31.25267 l 24.3677,-9.42304 21.6323,3.97378 c 89.34873,16.41301 181.39339,31.18745 243.4057,39.06996 8.30871,1.05614 15.37893,2.19245 15.71161,2.52513 0.51091,0.51091 -10.85565,58.55281 -15.40321,78.65466 -1.20156,5.3113 -1.08161,6.9076 0.72639,9.667 2.74561,4.1903 3.79389,17.6626 2.15829,27.7378 -0.92095,5.6731 -0.7746,9.9862 0.54293,16 0.99207,4.5283 2.50076,20.4171 3.35263,35.3084 2.27135,39.7048 -0.62932,58.2851 -9.77641,62.6233 -6.21464,2.9474 -29.89356,5.4703 -66.41897,7.0768 -43.64721,1.9197 -177.31553,2.689 -205.33334,1.1818 z m 113.33334,-107.7555 7.33333,-0.8682 0.78738,-10 c 1.21486,-15.4293 -0.15108,-35.8399 -2.55975,-38.2485 -1.73396,-1.734 -7.29885,-1.9556 -39.01436,-1.5536 -20.34557,0.2578 -37.49173,0.968 -38.1026,1.578 -1.54667,1.5447 -2.19928,36.3848 -0.80336,42.8879 0.95409,4.4449 1.79896,5.4709 5.08512,6.1756 5.20361,1.1159 57.90075,1.1384 67.27424,0.029 z M 305.90749,808.5606 c 3.03521,-12.09323 15.42585,-81.12372 15.42585,-85.94017 0,-0.9907 -27.35414,-16.33454 -43.56948,-24.43956 -23.42904,-11.7107 -53.96487,-20.85203 -87.74551,-26.26786 -9.52324,-1.5268 -18.13742,-3.45856 -19.14262,-4.2928 -1.29852,-1.07766 -1.59208,-3.23549 -1.01398,-7.45322 0.98751,-7.20459 6.40227,-28.89535 10.90595,-43.68768 l 3.30463,-10.85404 6.29717,-0.86927 c 24.14904,-3.33359 38.02196,-8.01924 45.3046,-15.30188 6.89501,-6.89503 8.73755,-15.70811 8.50691,-40.68981 -0.2242,-24.28542 -0.76159,-25.86896 -9.66494,-28.47983 -10.4517,-3.06492 -10.43297,-2.9014 -1.73458,-15.13699 22.55988,-31.73385 53.50191,-55.0507 80.04736,-60.32094 27.40267,-5.44042 110.13495,-13.98903 136.83783,-14.13926 2.27213,-0.0133 3.66667,-0.74206 3.66667,-1.91753 0,-3.79243 30.63816,-26.85527 31.64874,-23.82353 0.27642,0.82926 2.78086,6.20561 5.56542,11.94744 5.43688,11.211 11.84468,20.38794 20.55948,29.44434 5.11509,5.31559 6.35432,8.36846 19.75479,48.66667 7.86354,23.64743 14.58486,42.09532 14.93629,40.99532 0.35141,-1.1 1.88131,-6.8 3.39975,-12.66667 3.1017,-11.98373 13.55533,-43.50873 20.11696,-60.66666 3.22756,-8.43972 5.96169,-13.03546 10.70876,-18 8.37768,-8.76148 17.83978,-23.15635 21.6064,-32.87015 1.66275,-4.28808 3.41317,-7.79652 3.88984,-7.79652 1.43541,0 21.49547,14.62052 26.14691,19.05684 2.38333,2.27312 4.33333,4.90381 4.33333,5.84597 0,2.27886 2.25993,2.62714 28,4.31511 86.13843,5.64876 107.14084,8.43957 130.94302,17.39975 18.90769,7.11769 41.80797,26.50237 59.91343,50.71566 5.75765,7.7 10.47037,14.41934 10.47268,14.93187 0.003,0.51252 -3.36884,1.99513 -7.49146,3.29467 -4.16057,1.3115 -8.30478,3.59766 -9.31416,5.13816 -2.89148,4.41297 -2.93562,43.08588 -0.0604,52.87654 4.52119,15.39524 16.45016,22.09391 47.16803,26.48706 l 10.96452,1.5681 3.30395,10.8518 c 4.50308,14.79036 9.91782,36.4813 10.90526,43.68546 0.57811,4.21773 0.28455,6.37556 -1.01397,7.45322 -1.0052,0.83424 -9.61939,2.766 -19.14263,4.2928 -38.01989,6.09548 -69.93641,16.47056 -98.64832,32.06755 -8.06667,4.382 -19.07704,10.22901 -24.46748,12.99336 L 767.73166,722 l 0.77696,6.66667 c 0.42732,3.66666 1.17875,9.586 1.66983,13.15408 0.82061,5.96224 0.68763,6.42316 -1.6428,5.6938 -3.73221,-1.1681 -72.40507,-12.32219 -87.49436,-14.21116 -10.13566,-1.26884 -15.36402,-1.27227 -24,-0.0157 -38.37022,5.58288 -204.53682,42.54026 -312.18359,69.43324 C 324.42952,807.8244 307.11446,812 306.37988,812 c -0.76986,0 -0.96996,-1.45692 -0.47239,-3.4394 z M 690.67913,609.98501 c 0.91976,-1.10825 5.94322,-3.2859 11.16325,-4.83924 19.39439,-5.77121 25.986,-12.28085 27.10416,-26.76706 0.53167,-6.88783 -0.0881,-10.65712 -3.48322,-21.18328 -5.02536,-15.58067 -5.17324,-21.31416 -0.74938,-29.05312 1.84167,-3.22174 3.18444,-5.93528 2.98395,-6.03011 -0.20049,-0.0948 -4.09651,-3.03452 -8.6578,-6.53263 -7.79721,-5.97978 -8.47511,-6.24308 -11.33334,-4.40186 -5.38332,3.46784 -12.39753,4.01928 -16.94626,1.33228 -3.8852,-2.29506 -4.29112,-2.30172 -7.96619,-0.1308 -4.94139,2.91894 -8.75647,2.85153 -15.64511,-0.2765 l -5.51748,-2.5054 -6.35057,5.2478 c -3.4928,2.8863 -7.19863,5.7224 -8.23513,6.30247 -1.55188,0.86848 -1.28095,2.18992 1.53472,7.48547 4.40313,8.28114 4.30634,12.98864 -0.58071,28.24501 -4.79672,14.9744 -5.12972,23.94633 -1.19076,32.08313 3.49791,7.22571 9.82636,11.63124 21.85743,15.21598 5.13333,1.5295 10.83333,3.89636 12.66666,5.25965 4.07762,3.03217 7.1354,3.21155 9.34578,0.54821 z M 612.00002,283.47599 c 0,-0.28822 0.9,-0.86938 2,-1.2915 1.1,-0.4221 2,-0.18629 2,0.52402 0,0.71032 -0.9,1.29149 -2,1.29149 -1.1,0 -2,-0.23581 -2,-0.52401 z m -142.09267,-5.37054 c -0.44559,-1.77532 -0.52662,-4.32532 -0.18008,-5.66666 0.38042,-1.47247 0.69136,-0.82747 0.78474,1.62788 0.0851,2.23666 0.87467,4.78666 1.75467,5.66666 1.21576,1.21576 1.22187,1.6 0.0253,1.6 -0.86602,0 -1.93916,-1.45254 -2.38473,-3.22788 z m 146.85454,-4.46184 c 0.52505,-5.50844 0.22918,-7.19198 -1.3719,-7.80637 -1.12273,-0.43084 -1.66977,-1.38452 -1.21565,-2.11931 0.51388,-0.83148 1.22635,-0.68768 1.88671,0.3808 0.68496,1.10831 1.36621,-0.1408 1.92212,-3.52432 1.54853,-9.42518 1.88914,-9.3979 1.15168,0.0923 -0.39891,5.13333 -1.24663,11.73333 -1.88383,14.66667 -1.05335,4.84902 -1.09776,4.69558 -0.48913,-1.68972 z m -5.83527,1.68972 c 0.0272,-2.2 0.326,-2.93858 0.66405,-1.64129 0.33806,1.29729 0.31583,3.09729 -0.0495,4 -0.36524,0.90271 -0.64183,-0.15871 -0.61466,-2.35871 z M 478.8772,274.66667 c 0,-1.83334 0.30264,-2.58334 0.67252,-1.66667 0.36988,0.91667 0.36988,2.41667 0,3.33333 -0.36988,0.91667 -0.67252,0.16667 -0.67252,-1.66666 z m 4.21524,-5.88626 c -3.06584,-1.75312 -5.96584,-2.79589 -6.44445,-2.31728 -0.4786,0.47862 -0.72184,0.2702 -0.54052,-0.46313 0.57073,-2.30831 -5.98611,-14.50673 -9.85394,-18.33236 -3.58004,-3.541 -3.67593,-3.99457 -2.81856,-13.33333 0.48816,-5.3172 1.1296,-10.08396 1.42542,-10.5928 0.29581,-0.50884 -6.13346,-5.85035 -14.28727,-11.87002 -17.35628,-12.81349 -16.74324,-9.39086 -6.50711,-36.32954 l 6.84264,-18.008 18.21235,-6.6686 c 23.99856,-8.78728 41.41119,-14.22076 60.55174,-18.89471 l 15.68736,-3.83071 20.31996,5.19839 c 20.50276,5.24516 47.37077,13.91193 64.03591,20.65599 10.42968,4.22068 10.00193,3.59261 18.92293,27.78526 l 6.31036,17.11291 -3.71341,3.87596 c -2.04238,2.13179 -8.40035,7.63099 -14.12883,12.22043 l -10.4154,8.34446 -0.22117,7.33334 c -0.42534,14.10349 -0.5839,14.63728 -5.75491,19.37373 -3.25113,2.97792 -4.73236,5.32588 -4.21327,6.67861 0.4403,1.14739 0.27304,1.76015 -0.37168,1.36168 -1.48006,-0.91472 -5.45713,5.03583 -5.48432,8.20574 -0.0145,1.68568 -0.32882,1.89454 -1.07732,0.7158 -0.79297,-1.2488 -2.18437,-0.83262 -5.57194,1.66666 -5.34367,3.94243 -12.47745,4.2938 -24.66366,1.21483 -4.4,-1.11171 -17,-2.36665 -28,-2.78877 -17.18587,-0.6595 -21.94912,-0.3684 -33.85232,2.06878 -18.53011,3.79404 -27.25326,3.69682 -34.38859,-0.38332 z m 73.68964,-67.65842 8.55127,-8.21134 v -12.5027 -12.50271 l -5.66667,-2.42055 c -14.31202,-6.11344 -14.64406,-6.15304 -23.15245,-2.76105 -4.31616,1.72069 -8.52784,3.76179 -9.35932,4.53577 -0.83148,0.77399 -1.81305,6.62487 -2.18129,13.00195 l -0.66952,11.59471 9.05165,8.73862 c 5.52257,5.3316 10.18688,8.73864 11.96336,8.73864 1.75252,0 6.31612,-3.26906 11.46297,-8.21134 z m -88.63491,61.18672 c 0.1698,-4.19683 0.62567,-7.31367 1.01304,-6.92628 0.83026,0.83025 0.22551,12.99312 -0.69213,13.92057 -0.34629,0.34997 -0.49069,-2.79745 -0.32091,-6.99429 z m 3.8261,-0.34094 c -0.92763,-1.11772 -1.34971,-2.3691 -0.93795,-2.78085 0.41175,-0.41176 1.41836,0.50275 2.23691,2.03221 1.74646,3.2633 1.09813,3.63696 -1.29896,0.74864 z"
       id="path20-67"
       sodipodi:nodetypes="ssssssssssscsssssssssssccssssssscssssssscsssssscsssssssssssssssscsssscsssssscssssssssssssssssssscsssssssssssssssssssssssssssssssssssssssssssssscsscssscsscsssssssssssscccsssscsssssssssss" />
    <path
       style="fill:#002b50;stroke-width:2.93986"
       d="m 488.00001,1176.447 c -52.32508,-2.2488 -136.168,-9.0878 -145.47669,-11.8663 -4.5671,-1.3633 -3.9733,-51.6693 0.99321,-84.1438 1.21435,-7.9403 2.26992,-23.1928 2.34569,-33.8946 0.0945,-13.343 0.65758,-20.0852 1.79184,-21.4547 1.3392,-1.6169 0.75546,-5.6541 -3.0667,-21.209 -2.59642,-10.56657 -6.81783,-28.51193 -9.38094,-39.8786 -2.56309,-11.36667 -4.93224,-21.58661 -5.26476,-22.711 -0.47372,-1.60188 1.4872,-2.42999 9.06023,-3.82616 24.17968,-4.45783 84.56591,-23.44193 119.18812,-37.47015 l 18.85667,-7.64033 27.81,5.11859 c 15.2955,2.81522 27.96,5.13594 28.14334,5.15716 0.18333,0.0212 0.33333,25.47437 0.33333,56.56257 0,64.15972 1.29576,58.14262 -12.52088,58.14262 -13.27692,0 -13.12781,-0.3038 -12.59832,25.6719 0.32437,15.913 0.94283,22.6901 2.1838,23.9307 1.31625,1.3159 10.61459,1.8247 38.78831,2.1225 33.52869,0.3544 37.23588,0.1761 38.9354,-1.8726 2.58781,-3.1195 2.54621,-44.6379 -0.0479,-47.7636 -1.27401,-1.5351 -4.2532,-2.0937 -11.23704,-2.1071 -16.13031,-0.031 -14.97436,1.8229 -13.95605,-22.38158 0.48438,-11.51344 0.97105,-35.83936 1.08148,-54.05761 l 0.20078,-33.1241 2.91852,0.70872 c 1.60519,0.38982 16.11852,2.86286 32.25186,5.49566 16.13333,2.63281 34.43333,5.63661 40.66667,6.6751 26.45458,4.40743 57.34009,8.93154 86.54451,12.67706 17.16614,2.20158 31.32942,4.15785 31.47397,4.34726 0.29976,0.39282 -12.80855,65.42239 -15.70088,77.89129 -1.75949,7.5851 -1.72537,8.3675 0.44597,10.2267 3.2435,2.7772 4.53059,14.8358 2.81632,26.3858 -1.10321,7.4329 -0.98152,11.6056 0.57278,19.6394 1.08549,5.6107 2.50168,21.2153 3.14708,34.6771 1.66512,34.7307 -0.89048,55.4472 -7.3632,59.6883 -5.65832,3.7075 -21.60914,5.8573 -53.26989,7.1796 -17.6,0.7351 -44.6,1.9301 -60,2.6556 -24.7006,1.1637 -117.16079,1.4579 -140.66667,0.4476 z m 56.00001,-181.78033 c -1.96452,-3.67074 0.49792,-8 4.55032,-8 4.19185,0 6.612,3.17697 5.57317,7.31601 -0.66011,2.63003 -1.68569,3.35065 -4.76865,3.35065 -2.56308,0 -4.42352,-0.92649 -5.35484,-2.66666 z M 308.94613,796.33333 c 1.79003,-8.61666 5.48704,-28.91372 8.2156,-45.10457 l 4.961,-29.43792 -8.06136,-4.39748 c -4.43375,-2.41861 -13.16136,-7.29891 -19.39469,-10.84511 -30.50962,-17.35716 -67.33137,-29.60425 -105.85027,-35.20632 -15.53736,-2.2597 -19.48307,-3.6233 -19.48307,-6.73314 0,-7.31926 13.86303,-56.60167 16.35947,-58.15715 0.77826,-0.48492 4.16578,-1.2776 7.52778,-1.76149 45.13084,-6.49566 53.604,-16.40462 51.41812,-60.13096 -1.06934,-21.39126 -1.00733,-21.25686 -11.6387,-25.22452 -3.48334,-1.29999 -6.32038,-3.03211 -6.30452,-3.84915 0.0433,-2.23248 16.74713,-24.12544 25.75077,-33.75036 10.51764,-11.24339 22.81447,-20.3456 38.22042,-28.29107 10.99805,-5.67214 14.8622,-6.89712 29.33333,-9.299 31.77484,-5.27392 74.12334,-9.77257 108,-11.47277 8.43334,-0.42325 17.43334,-1.02908 20,-1.34627 l 4.66667,-0.5767 0.18769,15.32028 c 0.19364,15.80581 1.12738,22.85485 6.55736,49.5038 0.62422,3.06344 3.98839,7.09324 5.92162,7.09324 0.62857,0 1.93572,-0.75443 2.90476,-1.67652 0.96905,-0.92208 8.6619,-7.95668 17.09524,-15.63244 8.43333,-7.67576 16.8272,-15.32134 18.65304,-16.99015 5.48729,-5.0154 4.78303,-5.99945 12.61913,17.63244 21.64935,65.28952 24.52551,75.95671 23.18792,86 -3.45384,25.93309 -4.2504,43.72077 -4.98364,111.28783 l -0.80978,74.62116 -25.33334,5.70808 C 446.26815,777.67663 385.6018,792.04436 340.31545,803.48804 321.78894,808.16961 306.41953,812 306.16121,812 c -0.25832,0 0.99489,-7.05 2.78492,-15.66667 z M 453.85067,652.20587 c 15.31786,-5.20451 28.16836,-9.78044 28.55665,-10.16874 2.74145,-2.74144 3.03363,-38.32254 0.32843,-39.99445 -1.88158,-1.16287 -136.39162,-4.91812 -137.42585,-3.83665 -0.59293,0.62001 -1.7245,9.47272 -2.5146,19.67266 C 341.34877,636.55285 341.82949,640 345.88024,640 c 0.85454,0 6.63108,2.16649 12.83674,4.81444 50.60314,21.59221 52.82907,21.76516 95.13369,7.39143 z m -43.94791,-6.55962 c -2.40807,-1.6489 -3.30017,-5.7018 -1.85105,-8.4095 1.53881,-2.8753 6.56852,-3.41654 9.01497,-0.97008 4.66027,4.66026 -1.76687,13.07517 -7.16392,9.37958 z m 155.3683,102.68708 C 565.23679,747.05 564.65184,718.1 563.97115,684 c -1.30183,-65.21624 -2.13396,-75.4002 -8.66104,-105.99687 l -3.69699,-17.33018 2.97979,-15.33648 c 5.88617,-30.29519 17.82199,-69.16167 24.14732,-78.63071 l 2.07356,-3.10411 3.34157,3.19918 c 1.83787,1.75954 9.25255,8.59917 16.4771,15.19917 7.22453,6.6 14.85841,13.65 16.96417,15.66667 4.9832,4.77236 10.01816,4.85348 11.79123,0.18996 3.15549,-8.29956 8.12999,-43.51108 7.70897,-54.56722 l -0.43014,-11.29564 4,0.008 c 7.85605,0.0145 106.37257,8.00592 115.10163,9.33672 35.71161,5.44443 55.58249,14.65422 78.41709,36.34484 5.60367,5.32295 9.69612,10.27923 9.49731,11.50199 -0.19215,1.18173 0.3972,1.99975 1.30965,1.81781 1.45148,-0.2894 11.65879,12.47831 17.93176,22.42976 l 2.16358,3.4323 -7.19511,2.44569 c -3.95731,1.34513 -8.03228,3.4006 -9.05549,4.56771 -2.71838,3.10064 -4.25412,37.40369 -2.13438,47.67425 2.10092,10.17936 5.59239,16.85436 10.95166,20.93737 5.71018,4.35038 21.6675,9.5881 35.13102,11.53116 5.93198,0.85611 11.41986,1.95166 12.19531,2.43456 1.96268,1.22222 6.26035,14.80688 11.84116,37.42922 5.67973,23.02332 5.37753,24.81012 -4.41788,26.12161 -47.11721,6.30848 -81.60436,17.13376 -115.44822,36.23844 -5.70766,3.22195 -11.05037,5.44227 -11.87268,4.93405 -0.8223,-0.50821 -1.13677,-0.34424 -0.69882,0.36439 0.43796,0.70863 -3.13498,3.35133 -7.93983,5.87268 l -8.73612,4.58427 0.80096,8.7756 c 0.44053,4.82658 1.19983,10.76988 1.68732,13.20732 0.50873,2.5437 0.37165,4.11656 -0.32179,3.69196 -1.63054,-0.99843 -43.8103,-8.18299 -72.33193,-12.32046 -25.02982,-3.63092 -33.90262,-4.05248 -43.81058,-2.08148 -3.51942,0.70014 -16.29896,3.14296 -28.39896,5.42854 -12.1,2.28556 -29.94559,5.91273 -39.65687,8.06037 -20.77605,4.59463 -20.32564,4.55993 -20.40542,1.57148 z m 153.81668,-95.04657 c 15.50406,-5.15896 29.5519,-10.27279 31.2174,-11.36408 2.89704,-1.89821 3.02822,-2.75095 3.02822,-19.68675 0,-11.9909 -0.51624,-18.21884 -1.6,-19.3026 -0.99596,-0.99596 -6.40719,-1.65956 -14.33334,-1.75774 -14.52472,-0.17995 -22.14902,-1.35634 -18.39626,-2.83844 1.28538,-0.50764 4.13538,-3.75864 6.33333,-7.22444 5.37287,-8.47212 5.49207,-18.80322 0.38577,-33.43424 -4.67937,-13.40776 -4.8509,-23.12644 -0.53154,-30.11531 1.73076,-2.80043 2.62076,-5.52949 1.97777,-6.06459 -0.64299,-0.53509 -4.53495,-3.49922 -8.64879,-6.58698 -7.26434,-5.45244 -7.59068,-5.55623 -11.33333,-3.60439 -4.67447,2.43779 -14.24492,2.63704 -17.87171,0.37207 -2.10809,-1.31652 -3.18905,-1.31652 -5.29715,0 -3.76666,2.35233 -14.82681,2.07288 -18.45186,-0.46622 -2.5588,-1.79225 -3.39518,-1.84381 -5.40606,-0.33333 -1.30841,0.98283 -5.1797,3.85245 -8.60288,6.37695 -6.49133,4.78718 -7.43358,6.74625 -4.43976,9.2309 2.8141,2.3355 5.07978,11.72804 4.14738,17.19324 -0.46786,2.74223 -2.37911,9.48586 -4.24723,14.98586 -5.50407,16.20462 -4.25348,27.92653 3.93593,36.89201 l 2.64167,2.89203 -19.13097,-0.62082 c -11.30771,-0.36694 -19.9164,-0.0901 -21.05167,0.677 -2.118,1.43114 -3.90053,14.05195 -4.01084,28.39787 -0.0688,8.94743 1.76731,13.09524 5.79684,13.09524 0.92116,0 7.02831,2.32029 13.57143,5.15621 16.77553,7.27084 37.3991,14.87119 43.79738,16.14054 12.56491,2.49272 17.52167,1.63925 46.52027,-8.00999 z m -35.42105,-8.06023 c -3.33463,-1.94224 -3.10348,-8.8024 0.33333,-9.8932 1.46667,-0.4655 3.86667,-0.4655 5.33333,0 3.60459,1.14406 3.66531,8.03839 0.0876,9.9531 -3.06937,1.64268 -2.82685,1.6452 -5.75432,-0.0599 z m -139.3427,59.89744 c -3.81839,-3.81838 -0.41431,-9.71585 5.13313,-8.89298 4.04827,0.60048 6.29982,4.40406 4.40159,7.43568 -1.79368,2.86466 -7.28765,3.70437 -9.53472,1.4573 z m 0.33779,-97.12938 c -4.9101,-5.4256 3.22624,-12.90659 8.4049,-7.72792 2.31004,2.31004 1.96794,5.65373 -0.83832,8.19334 -3.17362,2.8721 -4.62708,2.7827 -7.56658,-0.46542 z m -85.9951,-184.498 c 0,-0.27687 1.05,-1.32687 2.33333,-2.33334 2.11475,-1.65849 2.16191,-1.61133 0.50342,0.50342 -1.74183,2.221 -2.83675,2.9273 -2.83675,1.82992 z m 153.33334,-140.0206 c 0,-0.28822 0.9,-0.86938 2,-1.2915 1.1,-0.4221 2,-0.18629 2,0.52402 0,0.71032 -0.9,1.29149 -2,1.29149 -1.1,0 -2,-0.23581 -2,-0.52401 z m -142.09267,-5.37054 c -0.44559,-1.77532 -0.52662,-4.32532 -0.18008,-5.66666 0.38042,-1.47247 0.69136,-0.82747 0.78474,1.62788 0.0851,2.23666 0.87467,4.78666 1.75467,5.66666 1.21576,1.21576 1.22187,1.6 0.0253,1.6 -0.86602,0 -1.93916,-1.45254 -2.38473,-3.22788 z m 146.85454,-4.46184 c 0.52505,-5.50844 0.22918,-7.19198 -1.3719,-7.80637 -1.12273,-0.43084 -1.66977,-1.38452 -1.21565,-2.11931 0.51388,-0.83148 1.22635,-0.68768 1.88671,0.3808 0.68496,1.10831 1.36621,-0.1408 1.92212,-3.52432 1.54853,-9.42518 1.88914,-9.3979 1.15168,0.0923 -0.39891,5.13333 -1.24663,11.73333 -1.88383,14.66667 -1.05335,4.84902 -1.09776,4.69558 -0.48913,-1.68972 z m -5.83527,1.68972 c 0.0272,-2.2 0.326,-2.93858 0.66405,-1.64129 0.33806,1.29729 0.31583,3.09729 -0.0495,4 -0.36524,0.90271 -0.64183,-0.15871 -0.61466,-2.35871 z M 478.8772,274.66667 c 0,-1.83334 0.30264,-2.58334 0.67252,-1.66667 0.36988,0.91667 0.36988,2.41667 0,3.33333 -0.36988,0.91667 -0.67252,0.16667 -0.67252,-1.66666 z m 4.21524,-5.88626 c -3.06584,-1.75312 -5.96584,-2.79589 -6.44445,-2.31728 -0.4786,0.47862 -0.72184,0.2702 -0.54052,-0.46313 0.57289,-2.31704 -5.9927,-14.51324 -9.88631,-18.36475 -3.49093,-3.45317 -3.68277,-4.20372 -2.89675,-11.33333 0.46296,-4.19939 1.09551,-9.13525 1.40563,-10.96859 0.49092,-2.90201 -1.08396,-4.54104 -12.17083,-12.66666 -17.79281,-13.04043 -17.10718,-11.98048 -13.87057,-21.44372 1.48412,-4.3393 4.91844,-13.51758 7.63184,-20.39619 4.7536,-12.05069 5.15359,-12.60144 10.97315,-15.10913 19.61665,-8.45292 79.67551,-26.40185 88.25085,-26.37425 8.44904,0.0272 59.04027,15.0473 82.28718,24.43037 l 11.16499,4.50649 6.63377,17.15728 c 9.62961,24.90556 9.64101,24.0018 -0.40657,32.23037 -4.60546,3.77168 -8.95756,6.49667 -9.67136,6.05551 -0.7138,-0.44115 -0.89726,-0.15395 -0.40767,0.63821 0.49135,0.79503 -1.35777,3.0567 -4.12732,5.04814 l -5.01748,3.60782 0.003,10.82455 c 0.003,10.78732 -0.0151,10.84196 -5.11839,15.88779 -3.15928,3.1237 -4.82604,5.83166 -4.35113,7.06925 0.42337,1.10331 0.24228,1.68 -0.40244,1.28153 -1.48007,-0.91472 -5.45714,5.03583 -5.48432,8.20574 -0.0145,1.68568 -0.32883,1.89454 -1.07732,0.7158 -0.79298,-1.2488 -2.18438,-0.83262 -5.57195,1.66666 -5.34367,3.94243 -12.47744,4.2938 -24.66366,1.21483 -4.4,-1.11171 -17,-2.36665 -28,-2.78877 -17.18586,-0.6595 -21.94912,-0.3684 -33.85232,2.06878 -18.5301,3.79404 -27.25325,3.69682 -34.38859,-0.38332 z m 73.8534,-67.44708 7.99806,-7.33333 0.7692,-12.2466 c 0.56042,-8.92281 0.32008,-12.61931 -0.88555,-13.61989 -0.91011,-0.75532 -5.85685,-3.08338 -10.99276,-5.17346 l -9.33801,-3.80013 -8.2737,3.51203 c -4.55053,1.93161 -8.80812,4.07062 -9.4613,4.75337 -0.65319,0.68273 -1.61462,6.51344 -2.13648,12.95712 l -0.94887,11.71577 8.49513,8.0576 c 8.82796,8.3733 12.79536,10.79959 15.30235,9.35824 0.81064,-0.46606 5.07301,-4.14738 9.47193,-8.18072 z m -88.79867,60.97538 c 0.1698,-4.19683 0.62567,-7.31367 1.01304,-6.92628 0.83026,0.83025 0.22551,12.99312 -0.69213,13.92057 -0.34629,0.34997 -0.49069,-2.79745 -0.32091,-6.99429 z m 3.8261,-0.34094 c -0.92763,-1.11772 -1.34971,-2.3691 -0.93795,-2.78085 0.41175,-0.41176 1.41836,0.50275 2.23691,2.03221 1.74646,3.2633 1.09813,3.63696 -1.29896,0.74864 z"
       id="path18-5"
       sodipodi:nodetypes="sssssssssscsssssssssssscsssssssssssssssssssssscsssssssssssssscssssssssscssssssssssssssssssscsscsssssccssssscsssssssssssscsssssssssssssssssssssssssssssscssssssssssssssssssssssssssssssssssssssssssssssssssssssscssssssssssscssssscssssssssssccscssscssscsssssssssss" />
    <path
       style="fill:#0a1223;stroke-width:2.93986"
       d="m 462.55806,1219.3678 c -53.70115,-2.3877 -120.19605,-46.6802 -123.54536,-49.3862 -2.65545,-2.1455 1.2323,-67.9415 4.40752,-87.9816 1.38464,-8.739 2.37556,-22.7999 2.45182,-34.7903 0.0951,-14.9406 0.59928,-20.6927 1.95789,-22.3333 1.43984,-1.7387 4.23143,-2.2097 13.09524,-2.2097 8.23584,0 11.80316,-0.5379 13.26532,-2 2.90029,-2.9003 10.09958,-2.5264 12.83348,0.6666 2.17154,2.5362 3.93326,2.6667 36,2.6667 32.06675,0 33.82847,-0.1305 36,-2.6667 1.29354,-1.5107 3.93326,-2.6666 6.08967,-2.6666 2.11308,0 4.87999,1.1863 6.21971,2.6666 2.17716,2.4058 4.10662,2.6667 19.71913,2.6667 h 17.30584 l -0.65573,9.1649 c -0.92296,12.8994 0.95517,33.5866 3.17708,34.9949 0.98285,0.623 18.36355,1.1419 38.62376,1.1531 32.66433,0.018 37.044,-0.2295 38.66667,-2.1859 1.37565,-1.6586 1.82992,-7.2855 1.82992,-22.6669 v -20.4607 l 13,3e-4 c 10.59247,2e-4 13,-0.3654 13,-1.9743 0,-2.4119 5.46723,-3.9489 10,-2.8112 1.83333,0.4601 3.33333,1.7252 3.33333,2.8112 0,1.6949 5.07656,1.9746 35.8445,1.9746 34.72314,0 35.8663,-0.083 36.54184,-2.6667 0.53376,-2.0411 1.81868,-2.6666 5.47754,-2.6666 3.33619,0 5.28327,0.8055 6.44555,2.6666 1.4792,2.3686 3.10938,2.6667 14.58274,2.6667 9.70201,0 13.415,0.4976 14.91656,1.9992 2.88474,2.8847 3.96296,14.505 2.39542,25.8164 -1.0849,7.8289 -0.92228,12.0975 0.81232,21.3199 1.62056,8.6162 2.36777,62.9273 2.42314,87.8342 0.0967,43.5018 -232.23866,926.6018 -13.29827,53.153 5.29262,-21.1145 -203.07924,8.3502 -272.91663,5.2451 z m 82.39206,-222.86215 c -2.0165,-2.0165 -0.95849,-8.32329 1.52872,-9.1127 4.46931,-1.4185 7.03479,0.57014 6.59296,5.11058 -0.32433,3.3329 -1.07982,4.24182 -3.78834,4.55768 -1.86079,0.217 -3.81079,-0.0331 -4.33334,-0.55556 z m 0.71656,-290.72202 c -0.91666,-0.36988 -1.66666,-2.41108 -1.66666,-4.536 0,-2.98511 0.74062,-4.04938 3.25754,-4.68108 4.39902,-1.10408 6.07579,0.19378 6.07579,4.70282 0,4.51132 -3.12045,6.3487 -7.66667,4.51426 z M 408.95012,644.50565 c -1.69499,-1.69498 -1.00529,-6.8 1.16165,-8.59841 3.04072,-2.52357 6.55491,0.106 6.55491,4.90475 0,3.13426 -0.63229,3.92841 -3.38323,4.24922 -1.86078,0.217 -3.81078,-0.0329 -4.33333,-0.55556 z m 273.76967,-1.10833 c -3.1767,-3.82769 1.20578,-9.69883 5.89614,-7.89896 4.8511,1.86153 3.27081,9.83497 -1.94924,9.83497 -1.28708,0 -3.06319,-0.87121 -3.9469,-1.93601 z M 544.95012,608.50565 c -1.69498,-1.69498 -1.00529,-6.8 1.16166,-8.59841 3.04072,-2.52357 6.5549,0.106 6.5549,4.90475 0,3.13426 -0.63229,3.92841 -3.38322,4.24922 -1.86079,0.217 -3.81079,-0.0329 -4.33334,-0.55556 z m 67.0499,-325.02966 c 0,-0.28822 0.9,-0.86938 2,-1.2915 1.1,-0.4221 2,-0.18629 2,0.52402 0,0.71032 -0.9,1.29149 -2,1.29149 -1.1,0 -2,-0.23581 -2,-0.52401 z m -142.09267,-5.37054 c -0.44559,-1.77532 -0.52662,-4.32532 -0.18008,-5.66666 0.38042,-1.47247 0.69136,-0.82747 0.78474,1.62788 0.0851,2.23666 0.87467,4.78666 1.75467,5.66666 1.21576,1.21576 1.22187,1.6 0.0253,1.6 -0.86602,0 -1.93916,-1.45254 -2.38473,-3.22788 z m 146.85454,-4.46184 c 0.52505,-5.50844 0.22918,-7.19198 -1.3719,-7.80637 -1.12273,-0.43084 -1.66977,-1.38452 -1.21565,-2.11931 0.51388,-0.83148 1.22635,-0.68768 1.88671,0.3808 0.68496,1.10831 1.36621,-0.1408 1.92212,-3.52432 1.54853,-9.42518 1.88914,-9.3979 1.15168,0.0923 -0.39891,5.13333 -1.24663,11.73333 -1.88383,14.66667 -1.05335,4.84902 -1.09776,4.69558 -0.48913,-1.68972 z m -5.83527,1.68972 c 0.0272,-2.2 0.326,-2.93858 0.66405,-1.64129 0.33806,1.29729 0.31583,3.09729 -0.0495,4 -0.36524,0.90271 -0.64183,-0.15871 -0.61466,-2.35871 z M 478.8772,274.66667 c 0,-1.83334 0.30264,-2.58334 0.67252,-1.66667 0.36988,0.91667 0.36988,2.41667 0,3.33333 -0.36988,0.91667 -0.67252,0.16667 -0.67252,-1.66666 z m 4.21524,-5.88626 c -3.06584,-1.75312 -5.96584,-2.79589 -6.44445,-2.31728 -0.4786,0.47862 -0.72184,0.2702 -0.54052,-0.46313 0.5706,-2.30776 -6.03419,-14.71461 -9.88142,-18.56184 -3.28932,-3.28931 -3.60086,-4.3534 -2.8972,-9.89524 1.94634,-15.32856 1.38314,-14.31964 8.35164,-14.96115 8.91082,-0.82032 111.91937,-0.46858 133.95845,0.45742 10.06807,0.42302 18.90429,1.13916 19.63604,1.5914 0.7842,0.48466 1.0828,4.92753 0.72727,10.82106 -0.56959,9.44162 -0.87367,10.25388 -5.45702,14.57654 -3.13769,2.95921 -4.56896,5.32009 -4.04812,6.67736 0.44314,1.15478 0.2782,1.77361 -0.36652,1.37514 -1.48006,-0.91472 -5.45713,5.03583 -5.48432,8.20574 -0.0164,1.9182 -0.2521,2.01421 -1.214,0.49464 -0.97558,-1.54123 -1.96462,-1.23683 -5.41522,1.66666 -4.99474,4.2028 -12.09758,4.61602 -24.6837,1.43599 -4.4,-1.11171 -17,-2.36665 -28,-2.78877 -17.18587,-0.6595 -21.94912,-0.3684 -33.85232,2.06878 -18.53011,3.79404 -27.25326,3.69682 -34.38859,-0.38332 z m -14.94527,-6.4717 c 0.1698,-4.19683 0.62567,-7.31367 1.01304,-6.92628 0.83026,0.83025 0.22551,12.99312 -0.69213,13.92057 -0.34629,0.34997 -0.49069,-2.79745 -0.32091,-6.99429 z m 3.8261,-0.34094 c -0.92763,-1.11772 -1.34971,-2.3691 -0.93795,-2.78085 0.41175,-0.41176 1.41836,0.50275 2.23691,2.03221 1.74646,3.2633 1.09813,3.63696 -1.29896,0.74864 z"
       id="path16-3"
       sodipodi:nodetypes="ssssssssssssscssssscssssssssssssssssssssssssscssscsssscssscsssssssssssssssssssssssssssssssssssssssssssssssssssssssss" />
  </g>
</svg>
