<?xml version="1.0" encoding="UTF-8" standalone="no"?>
<svg
   xmlns:dc="http://purl.org/dc/elements/1.1/"
   xmlns:cc="http://creativecommons.org/ns#"
   xmlns:rdf="http://www.w3.org/1999/02/22-rdf-syntax-ns#"
   xmlns:svg="http://www.w3.org/2000/svg"
   xmlns="http://www.w3.org/2000/svg"
   xmlns:sodipodi="http://sodipodi.sourceforge.net/DTD/sodipodi-0.dtd"
   xmlns:inkscape="http://www.inkscape.org/namespaces/inkscape"
   version="1.1"
   id="Layer_1"
   x="0px"
   y="0px"
   viewBox="0 0 1674.208 1624.161"
   enable-background="new 0 0 1674.208 1624.161"
   xml:space="preserve"
   sodipodi:docname="tree_1.svg"
   inkscape:version="0.92.3 (2405546, 2018-03-11)"><metadata
   id="metadata23"><rdf:RDF><cc:Work
       rdf:about=""><dc:format>image/svg+xml</dc:format><dc:type
         rdf:resource="http://purl.org/dc/dcmitype/StillImage" /><dc:title></dc:title></cc:Work></rdf:RDF></metadata><defs
   id="defs21">
		
		
		
		
		
		
		
	</defs><sodipodi:namedview
   pagecolor="#ffffff"
   bordercolor="#666666"
   borderopacity="1"
   objecttolerance="10"
   gridtolerance="10"
   guidetolerance="10"
   inkscape:pageopacity="0"
   inkscape:pageshadow="2"
   inkscape:window-width="1920"
   inkscape:window-height="1018"
   id="namedview19"
   showgrid="false"
   inkscape:zoom="0.41098684"
   inkscape:cx="598.69331"
   inkscape:cy="624.57612"
   inkscape:window-x="0"
   inkscape:window-y="34"
   inkscape:window-maximized="1"
   inkscape:current-layer="g5341" />
<g
   id="g5341"
   style="fill:#91ae4f;fill-opacity:0.94117647">
	<path
   inkscape:connector-curvature="0"
   style="fill:#91ae4f;fill-opacity:0.94117647"
   id="path2"
   d="m 1511.468,932.223 c -20.345,-1.432 -41.934,-10.957 -68.452,-12.951 -24.504,-1.11 -96.079,31.961 -105.638,21.151 -1.885,1.326 -1.354,-8.477 -11.425,-20.068 -4.999,-4.423 -8.772,-6.235 -10.371,-6.242 -19.567,-7.145 -74.821,-14.956 -91.79,-13.63 -15.577,1.561 -29.966,5.763 -43.486,10.643 82.677,-80.841 56.588,-85.812 112.532,-174.829 14.178,-20.896 12.505,-28.711 79.484,-34.782 38.635,-2.719 49.969,-2.137 62.207,-12.304 2.725,-3.03 3.756,-5.077 3.752,-5.684 1.359,-2.727 6.803,-14.775 8.195,-16.675 10.482,-16.263 44.74,-28.575 54.016,-46.654 -0.7,-3.726 -1.781,-6.374 -3.02,-8.034 0.305,-0.527 0.621,-1.013 0.884,-1.724 -0.394,-0.964 5.957,-1.52 10.994,-8.382 0.821,-6.541 -0.928,-9.718 -1.853,-10.237 35.471,-124.977 26.276,-70.675 59.451,-154.268 -40.166,85.094 -25.367,26.746 -69.177,152.464 -0.249,3.763 0.473,6.333 1.252,7.786 -1.86,0.556 -5.598,1.604 -9.6,5.912 -2.197,0.864 -5.777,5.133 -5.146,13.395 0.56,0.662 1.056,1.083 1.584,1.625 -27.261,21.676 -44.622,21.76 -59.777,50.821 -6.051,11.222 -2.935,7.554 -20.251,10.263 -43.197,3.119 -98.966,-8.879 -130.946,35.021 2.943,-9.263 10.299,-18.184 14.191,-29.582 6.055,-18.464 0.884,-37.255 8.225,-50.463 3.126,-5.973 8.924,-11.562 11.868,-19.341 4.137,-11.686 3.867,-23.341 7.381,-33.05 3.331,-9.33 8.848,-18.097 11.272,-27.774 1.725,-7.387 -0.145,-14.197 0.492,-20.171 4.948,-45.306 16.843,-46.71 30.359,-60.023 11.781,-11.459 8.292,-19.487 8.292,-19.487 4.709,12.505 -19.072,25.079 -27.303,35.575 -17.227,22.186 -13.801,56.762 -15.714,63.077 -2.458,8.791 -8.169,17.06 -12.127,27.009 -4.217,10.741 -4.421,22.622 -8.488,32.637 -2.247,5.951 -8.02,10.918 -12.175,18.165 -8.957,16.389 -4.796,36.276 -10.386,50.921 -3.487,9.565 -11.561,18.377 -15.747,30.53 -2.958,8.815 -2.842,17.241 -6.223,22.515 -2.587,4.586 -12.293,5.902 -12.914,24.614 -6.395,10.914 -12.476,21.837 -18.541,32.765 -55.637,38.159 -37.882,46.224 -42.987,61.691 -19.251,19.414 -43.401,39.766 -64.75,56.953 -1.115,-1.865 -1.856,-2.913 -0.938,-2.832 7.976,-15.265 10.059,-32.745 8.265,-49.277 -4.321,-34.197 -36.286,-36.36 -24.531,-77.122 1.884,-6.33 1.216,-12.13 3.431,-15.994 5.653,-10.779 6.61,-22.204 12.39,-30.029 4.001,-5.636 10.196,-9.847 14.797,-15.492 2.482,-3.172 2.275,-6.657 3.913,-7.663 6.954,-5.928 15.654,-0.789 27.893,-24.28 7.922,-15.618 31.784,-16.237 27.016,-32.487 3.915,16.303 -18.91,15.268 -28.582,31.625 -12.996,22.347 -19.026,15.755 -28.349,22.556 -3.002,2.613 -3.212,6.419 -4.667,7.915 -4.342,4.956 -10.638,8.86 -15.601,15.134 -6.867,8.973 -8.563,20.838 -13.859,29.941 -3.161,5.896 -2.944,12.239 -4.511,16.839 -14.697,43.077 20.136,53.156 20.959,79.878 2.347,39.873 -16.432,41.583 -7.817,59.44 -32.834,25.585 -45.677,43.411 -145.062,42.874 -18.745,-14.498 -43.415,-20.405 -64.985,-15.862 9.914,-17.504 12.883,-27.009 12.288,-44.823 2.569,-10.944 2.895,-19.33 2.011,-24.914 3.641,-10.093 6.508,-23.989 -0.413,-49.091 1.628,-7.764 1.93,-9.461 2.06,-16.069 1.426,-2.862 1.436,-4.476 -0.066,-4.536 -0.274,-11.317 -2.334,-20.274 -4.744,-26.914 8.39,-18.435 13.31,-25.749 13.31,-25.749 15.311,-13.111 24.419,-26.136 32.353,-34.827 4.891,-0.694 8.619,-1.441 13.644,-3.953 41.172,-3.934 54.445,-38.873 61.931,-43.389 8.98,-6.664 19.473,-12.983 30.292,-20.192 4.389,-0.832 9.571,-3.221 14.479,-8.641 0.337,-0.78 0.604,-1.554 0.87,-2.328 3.642,-2.81 7.256,-5.794 10.827,-9.018 14.258,0.904 12.54,0.074 25.158,-2.329 0.805,-0.153 11.797,-2.146 12.255,-1.467 12.097,6.36 25.621,8.033 37.453,6.098 29.43,-4.829 19.973,-16.414 77.738,-41.507 -35.1,13.098 -39.49,18.396 -52.171,27.4 -19.083,13.516 -42.345,13.599 -60.356,3.17 -6.963,-3.172 -21.861,2.719 -33.101,2.023 26.141,-26.678 40.821,-68.031 62.734,-89.389 15.89,-17.227 16.866,-33.99 22.85,-38.798 1.518,-2.266 4.264,-3.64 7.471,-4.088 14.066,-5.102 20.39,-13.652 22.279,-19.835 1.687,0.124 4.524,-0.259 8.058,-1.803 39.205,1.625 34.132,-41.194 40.035,-44.68 9.127,-10.891 30.875,-12.034 47.67,-24.156 21.538,-17.208 5.729,-24.849 44.914,-36.315 29.277,-7.769 32.8,-7.084 79.724,-54.078 14.141,-14.172 23.792,-21.194 23.792,-21.194 -20.698,11.843 -47.656,42.543 -75.97,57.395 -17.283,9.314 -43.029,4.956 -61.608,20.162 -8.916,7.845 -13.083,18.323 -19.465,21.543 -16.751,10.812 -55.049,6.753 -63.889,44.175 -2.715,6.522 -3.434,11.875 -5.468,12.139 0.804,1.113 -4.38,-0.882 -12.817,1.014 -11.028,-4.367 -28.893,10.578 -31.852,18.796 -34.158,5.481 -38.522,41.378 -47.525,46.116 -19.968,17.704 -33.69,39.584 -47.444,58.477 2.938,-10.214 -1.733,-20.119 -9.34,-25.683 -3.821,-5.423 -9.199,-6.881 -7.025,-6.308 -0.933,-0.099 1.474,-1.068 4.076,-3.898 15.487,-11.712 21.975,-31.114 21.562,-48.632 -0.74,-20.301 -16.928,-43.109 -15.573,-54.856 6.157,-4.075 6.3,-22.162 12.062,-39.46 6.153,-18.789 18.414,-35.441 24.959,-53.649 9.625,-27.902 -4.81,-62.387 -0.522,-74.858 7.019,0.17 3.234,-12.811 3.807,-14.467 0.425,-2.014 3.314,-3.183 4.675,-5.674 13.261,-24.955 7.533,-39.835 7.533,-39.835 0,0 4.9,14.943 -8.878,39.094 -1.01,1.812 -3.901,2.852 -5.065,5.871 -0.941,3.184 0.699,6.338 0.138,8.717 -0.855,2.205 -1.103,5.695 -1.636,4.135 -11.295,-2.61 5.869,49.248 -4.919,75.177 -6.79,17.063 -19.526,32.995 -27.033,53.044 -4.19,11.355 -6.131,23.223 -9.666,34.134 -0.736,0.36 -2.287,1.783 -4.029,4.904 -4.403,26.97 29.987,52.028 2.274,90.22 -3.923,6.337 -12.5,5.131 -16.595,17.674 0.274,10.894 6.839,16.591 10.359,18.368 3.573,4.792 7.62,8.052 5.874,9.384 -1.71,11.101 -17.254,25.171 -18.284,39.652 -14.101,9.596 -32.794,17.446 -52.077,29.995 -18.647,13.296 -26.126,27.529 -31.342,29.262 1.268,0.654 -4.003,-0.714 -13.779,1.217 -6.6,-0.716 -17.308,1.099 -30.276,8.367 13.981,-23.185 36.359,-45.359 19.88,-89.349 8.415,-19.238 17.755,-38.27 25.003,-55.214 13.066,-30.821 11.737,-60.539 23.03,-82.29 3.139,-6.694 13.594,-13.215 17.46,-25.315 2.766,-14.318 -5.347,-23.875 -3.473,-30.563 -0.406,-4.11 8.89,-7.202 12.87,-15.853 11.629,-29.498 7.682,-55.633 13.816,-73.562 0.705,-3.532 7.669,-4.472 9.329,-9.207 2.095,-7.847 -3.728,-17.272 -3.505,-30.411 -1.082,12.703 3.981,23.504 1.61,29.812 -0.856,3.229 -7.336,3.016 -10.145,8.777 -7.518,18.176 -5.747,45.96 -18.208,71.477 -1.634,4.173 -10.749,6.307 -14.686,16.809 -2.731,12.364 4.678,23.53 1.637,29.669 -1.403,6.46 -11.405,10.704 -18.191,22.035 -14.386,24.882 -15.782,56.403 -28.461,80.724 -4.216,8.288 -9.171,17.394 -14.312,26.833 -7.081,-42.515 -12.406,-48.085 -37.768,-77.969 -6.382,-12.738 -2.103,-14.267 -9.717,-28.501 -16.347,-25.792 -38.172,-28.012 -48.391,-54.796 -0.347,-6.187 0.962,-19.06 -7.587,-37.917 -0.109,-1.906 -0.187,-3.829 -0.243,-5.759 1.14,-2.631 2.55,-5.595 3.653,-9.436 2.312,-8.123 0.44,-14.609 2.554,-17.596 11.98,-23.632 15.594,-4.72 42.428,-91.132 9.74,-31.083 0.331,-40.005 7.073,-52.458 12.753,-24.387 11.005,-29.745 7.998,-46.5 -2.403,-13.552 -4.836,-21.116 -4.836,-21.116 10.087,37.761 4.273,48.012 -6.133,65.979 -6.245,11.175 -2.672,26.074 -5.28,38.642 -1.72,8.323 -23.796,64.205 -28.126,71.516 -4.831,8.391 -12.756,15.639 -19.305,24.947 -0.689,-62.36 -31.744,-85.866 -33.9,-121.163 -2.305,-18.047 14.502,-36.573 16.086,-56.992 1.268,-22.16 -9.769,-44.275 -21.365,-79.095 -4.064,-10.452 15.161,-23.447 5.866,-35.834 8.291,13.413 -11.62,23.184 -8.462,36.595 9.115,35.448 18.421,58.969 15.678,77.52 -2.071,16.572 -19.664,32.296 -20.337,58.274 0.576,34.564 24.558,67.703 25.562,101.239 0.495,9.555 -0.273,19.646 -1.138,30.17 -12.259,-13.003 -9.467,-36.393 -18.656,-55.186 -13.865,-27.088 -36.613,-47.165 -50.797,-70.322 -8.302,-13.158 -21.96,-18.932 -28.934,-28.67 -13.352,-18.155 -27.439,-90.728 -45.115,-101.664 17.433,12.433 27.012,83.488 40.793,104.655 7.706,11.546 21.356,18.257 27.115,29.265 13.84,25.001 35.817,46.313 47.022,71.5 3.577,7.654 4.117,17.399 6.026,27.292 3.758,28.355 7.163,23.499 21.049,44.2 -2.097,38.913 2.499,74.571 57.218,147.689 -8.306,-2.686 -20.994,-3.522 -26.899,-3.739 -0.106,-0.084 -0.212,-0.155 -0.409,-0.245 1.304,-0.833 -0.793,-3.066 -4.927,-2.706 -2.297,-4.439 -17.72,-14.223 -23.395,-19.104 -4.906,-4.035 -8.246,-10.869 -12.661,-16.967 -5.175,-7.034 -37.229,-28.526 -39.836,-73.371 -0.261,-2.65 1.879,-5.921 1.596,-9.836 -0.493,-4.165 -2.994,-7.048 -3.084,-9.889 -1.574,-27.307 7.237,-46.973 -4.758,-60.418 11.439,14.237 1.866,32.062 2.352,60.5 0.158,3.892 2.575,7.066 2.689,10.037 0.412,3.962 -12.375,20.887 20.683,70.83 4.589,6.719 11.613,10.51 14.978,15.849 3.708,5.678 7.076,12.989 13.12,18.758 7.039,6.529 15.074,11.319 20.814,17.533 0.31,0.848 1.038,2.295 2.664,4.535 0.871,0.052 1.412,0.011 2.085,0.003 0.263,0.087 0.667,0.163 1.217,0.213 0.293,0.984 2.058,2.34 5.51,3.119 77.649,4.461 51.343,69.696 64.688,111.771 -2.07,8.499 0.021,10.516 -0.372,16.39 -7.889,21.171 -33.151,33.98 -43.501,72.09 0.521,9.091 1.426,15.431 2.189,19.2 -16.372,19.626 -20.384,38.018 -19.05,57.565 -2.366,6.448 -4.354,11.439 -1.722,28.095 -9.938,16.166 -12.399,25.432 -8.831,26.24 0.098,8.405 0.879,13.784 1.724,20.043 -3.24,-1.47 -5.254,-2.454 -5.327,-3.535 -15.591,-19.712 -30.347,-24.354 -30.869,-28.008 -6.495,-9.928 -12.009,-23.735 -20.695,-38.464 5.664,-14.031 5.106,-24.562 0.986,-34.682 3.261,-14.618 2.164,-32.64 -7.929,-50.077 -9.843,-10.441 -17.23,-13.506 -19.295,-12.784 -7.107,-3.037 -25.455,-10.252 -32.536,-14.456 8.989,-31.001 -3.243,-56.73 -10.571,-74.511 -0.186,-5.285 -1.059,-12.888 -4.805,-20.543 -1.177,-0.461 -2.408,-0.992 -3.677,-1.567 -1.675,-5.828 -3.56,-9.772 -2.414,-11.331 3.158,-8.107 6.281,-18.036 6.921,-28.614 6.461,-6.077 10.303,-27.792 11.986,-38.063 0.143,0.213 2.031,-2.63 2.597,-9.088 -0.65,-5.894 -0.57,-12.611 -1.552,-19.916 -2.868,-19.311 -15.561,-33.978 -15.567,-49.069 -1.066,-18.661 14.492,-37.86 16.397,-60.314 1.212,-21.919 -12.835,-38.557 -15.589,-55.231 -0.128,-0.766 -21.135,-90.343 -25.107,-104.18 3.179,13.554 19.993,104.484 20.039,104.889 2.226,18.63 15.586,36.318 12.909,53.755 -2.196,19.053 -18.479,37.055 -19.386,61.121 0.125,20.229 12.207,36.215 13.293,50.564 0.549,5.686 0.254,11.907 0.6,18.521 -2.03,1.186 -2.67,7.595 -5.966,19.328 -8.496,-17.041 -43.944,-43.141 -56.702,-63.709 -1.428,-2.267 -38.751,-61.493 -36.873,-58.513 -3.598,-4.717 -41.099,-135.828 -41.168,-152.449 -0.799,11.072 10.605,67.59 12.918,79.087 17.755,88.241 12.66,68.266 51.104,140.037 13.636,24.766 37.211,43.075 51.141,65.304 7.089,6.784 -1.87,20.802 -6.416,38.827 -4.814,18.834 1.766,28.937 11.199,59.557 4.827,19.418 10.298,39.46 1.595,49.499 -2.169,4.932 -2.986,9.624 -2.511,13.872 -4.852,-0.165 -9.37,-1.226 -11.733,-4.244 -0.993,0.963 0.662,-4.14 -2.888,-11.337 -12.242,-21.05 4.843,-45.479 -38.977,-65.69 -8.575,-4.807 -17.936,-5.823 -20.339,-11.149 -4.699,-7.506 -5.283,-19.109 -12.071,-29.109 -10.286,-13.934 -27.359,-17.454 -33.467,-28.386 -8.518,-13.035 5.524,-26.964 -31.374,-44.954 -8.203,-4.193 -16.022,-7.641 -20.962,-13.938 0.077,-1.639 -0.946,-3.368 -1.622,-3.445 -0.769,-2.093 -1.903,-3.549 -2.657,-4.832 -13.651,-12.28 -29.733,-18.687 -40.024,-29.557 -40.695,-42.753 -71.861,-65.284 -72.685,-65.879 0.811,0.625 31.659,24.482 70.521,67.873 10.562,11.709 26.769,18.881 39.177,30.798 1.624,0.882 3.325,1.328 4.151,1.952 0.166,0.126 -0.377,-0.038 -0.745,-0.298 -4.029,2.05 -2.606,5.752 0.11,6.321 5.805,7.476 14.147,11.72 22.175,15.94 34.152,18.781 16.976,23.659 27.69,43.651 8.564,14.281 25.958,18.824 32.699,29.578 5.026,7.127 5.072,18.365 10.938,29.016 8.935,13.656 40.015,18.177 45.602,32.825 5.767,11.908 3.147,28.865 10.86,44.992 1,1.326 -2.628,24.126 32.042,23.121 7.956,9.863 27.821,19.087 40.196,25.229 5.667,5.513 6.747,3.611 10.803,8.808 -0.396,8.097 -6.631,25.221 -7.978,31.663 -13.692,0.849 -25.568,6.74 -36.424,12.654 -35.214,17.647 -33.234,12.881 -52.876,2.868 -30.028,-16.317 -26.961,-14.375 -34.011,-26.102 -3.057,-5.576 -6.022,-11.877 -11.406,-16.858 -32.788,-29.055 -51.018,-67.089 -69.462,-89.751 -2.67,-2.976 -6.72,-2.172 -7.911,-4.128 -13.233,-18.393 -18.596,-31.454 -18.596,-31.454 0,0 4.049,12.29 17.322,32.329 2.101,2.82 6.433,2.407 7.673,4.442 17.356,23.225 33.63,61.475 66.498,93.385 7.991,7.456 9.822,24.131 22.265,31.859 25.55,14.747 33.901,23.994 47.906,25.256 25.023,0.852 46.183,-20.266 67.489,-21.47 -0.239,9.904 1.511,20.872 6.486,32.432 7.494,13.983 12,28.777 19.493,42.761 14.015,21.324 29.505,28.621 30.378,32.781 14.822,19.175 27.951,24.057 42.425,32.169 0.331,9.541 0.24,5.995 0.422,10.338 -13.254,21.787 -53.437,34.216 -77.507,84.348 -9.622,5.3 -18.47,16.771 -24.975,34.554 0.154,14.275 2.529,26.62 6.381,37.018 -0.174,7.782 0.057,2.651 -1.423,11.743 -1.674,1.65 -4.593,5.046 -7.756,10.878 -2.693,2.835 -5.808,6.69 -8.987,11.64 -34.061,20.769 -6.031,2.766 -60.631,29.126 -6.339,1.65 -25.066,3.914 -28.943,-1.156 -3.681,-3.006 -7.763,-7.315 -5.606,-7.47 3.735,-23.303 21.915,-31.322 9.46,-102.368 0.024,-7.459 0.373,-25.728 -11.904,-48.714 -51.579,-70.808 -42.889,-53.615 -69.035,-76.983 -10.013,-18.608 2.834,-14.514 -18.891,-39.898 -3.86,-10.544 -7.41,-20.166 -11.806,-29.828 0.582,-2.266 -1.974,-8.036 -9.016,-15.163 -1.324,-13.48 -1.442,-24.069 -3.457,-35.866 -6.285,-35.01 -22.952,-36.596 -23.938,-88.295 -0.905,-13.811 10.105,1.677 -2.05,-67.987 -2.669,-15.172 -38.307,-107.651 -77.667,-178.404 31.378,60.688 69.304,158.459 72.24,179.268 2.255,15.692 5.254,32.67 4.34,48.872 -0.231,7.654 -8.202,12.235 -2.845,46.23 5.689,34.452 19.34,30.654 21.968,87.466 -23.683,-13.105 -28.598,-35.899 -53.487,-51.885 -7.92,-8.76 -50.058,-45.566 -73.141,-31.958 -4.77,1.529 -7.789,3.769 -8.776,2.905 -0.603,-0.07 -1.255,-0.232 -1.952,-0.447 -0.115,-2.673 -0.228,-5.801 -0.956,-9.324 -1.105,-7.928 -4.281,-13.703 -4.222,-18.239 -1.278,-32.398 14.455,-67.692 12.631,-104.527 -0.449,-4.068 3.081,-10.145 2.227,-18.142 -6.288,-41.012 -21.15,-45.471 -32.145,-68.868 -12.085,-25.313 -13.816,-77.17 -61.38,-133.052 -4.474,-5.242 -5.886,-9.017 -5.886,-9.017 0,0 1.172,3.679 5.578,9.266 45.355,57.407 44.946,108.264 56.444,135.174 11.283,25.976 23.85,27.425 29.017,67.682 0.816,3.847 -2.933,9.309 -2.936,17.294 0.933,39.686 -23.115,82.974 -13.817,118.309 -2.981,-5.507 -4.057,-13.972 -5.968,-23.158 -7.372,-54.608 -36.795,-52.487 -65.816,-75.656 -10.677,-7.549 -16.436,-24.503 -29.165,-37.765 -14.392,-12.663 -35.108,-127.935 -49.922,-156.779 -6.704,-12.942 -14.102,-23.541 -19.643,-33.437 -8.736,-15.458 -12.155,-46.475 -26.034,-53.165 13.184,7.902 14.842,38.426 22.728,54.883 17.446,36.208 17.888,26.936 27.119,69.285 11.859,55.16 18.753,110.67 32.688,128.947 -1.223,-0.68 -2.841,-1.583 -4.985,-2.529 0.251,-0.024 0.52,-0.066 0.816,-0.152 -0.208,-0.321 -0.804,-1.483 -2.195,-2.831 -1.096,0.112 0.924,-5.933 -4.129,-12.446 -3.44,-2.231 -5.892,-2.403 -6.927,-2.304 0.121,-6.678 -36.501,-49.093 -40.863,-53.593 -9.01,-10.332 -90.54,-36.814 -102.344,-53.548 -0.424,-0.335 0.325,-2.622 -1.571,-4.286 -2.875,-0.702 -4.005,1.997 -4.06,1.244 -0.723,0.374 0.614,-2.09 -1.111,-3.896 -24.162,-17.572 -39.744,-24.425 -40.371,-24.699 0.598,0.295 16.671,8.296 39.385,26.013 0.661,-0.002 -0.787,2.285 1.223,4.16 2.637,0.737 4.074,-1.915 3.987,-1.088 0.633,-0.265 -0.503,1.654 0.763,3.769 10.627,15.733 66.746,36.652 97.508,54.299 3.356,1.379 35.251,45.232 39.046,50.931 -0.193,0.288 -0.319,2.945 2.363,6.934 4.198,2.818 7.266,2.53 7.401,2.404 0.754,1 -1.905,12.135 8.824,17.605 0.583,-0.022 1.087,-0.093 1.564,-0.192 0.009,0.062 0.006,0.111 0.007,0.175 6.983,12.832 4.433,15.587 29.865,31.969 4.106,2.748 1.867,1.468 5.531,4.91 15.575,13.719 41.179,26.545 46.919,36.991 8.849,12.008 1.985,40.513 16.981,65.567 32.151,44.173 100.522,37.848 109.821,61.1 9.096,14.307 20.306,29.308 35.724,41.913 19.14,37.286 14.168,39.784 23.616,50.846 4.496,14.996 5.696,20.793 10.847,30.655 13.329,21.525 30.438,32.76 38.685,42.203 11.491,13.012 20.668,30.4 32.856,48.961 2.279,-1.879 -1.98,8.058 1.033,26.073 1.218,18.343 3.809,33.327 0.676,43.649 -2.212,13.954 -21.945,34.703 -13.456,70.141 -4.687,-0.467 -9.496,-0.845 -14.569,-0.958 -12.246,-1.44 -19.326,1.045 -17.527,-0.861 -14.201,-11.778 -26.95,-18.832 -32.599,-27.371 -2.92,1.525 0.118,-14.98 -11.868,-38.018 -20.62,-32.888 -24.125,-45.279 -41.758,-55.342 -2.544,-6.798 -4.97,-19.545 -14.158,-33.753 -8.233,-13.599 -29.546,-22.016 -46.994,-13.752 -2.358,0.373 -4.294,0.966 -5.98,1.606 -3.234,-24.232 -26.837,-37.153 -45.539,-49.522 -19.947,-13.815 -49.175,-22.79 -72.829,-28.261 -24.496,-18.341 -37.03,-41.65 -39.478,-65.03 -1.863,-6.429 6.565,-15.33 9.583,-29.208 12.682,-58.508 -22.909,-81.197 -37.122,-113.125 -8.324,-18.756 -58.939,-125.066 -67.87,-130.438 8.947,6.227 52.922,112.528 60.924,133.31 13.722,35.513 45.231,54.683 31.05,107.107 -2.409,8.575 -11.437,18.739 -11.492,33.624 1.738,25.514 12.553,45.543 23.769,59.526 -33.358,-1.028 -66.76,30.117 -86.605,10.059 -4.718,-2.474 -2.473,-21.817 -10.82,-34.61 C 116.444,831.745 101.76,799.848 86.133,774.94 50.652,718.267 12.454,704.701 12.454,704.701 c 0,0 36.931,16.463 67.727,73.693 13.695,25.482 26.004,57.923 47.536,91.531 2.376,3.038 1.993,8.558 3.005,15.555 0.691,31.409 28.687,41.05 59.657,33.174 26.896,-6.125 31.482,-14.443 63.533,-5.889 -42.695,27.579 -15.877,70.938 -24.525,100.718 -6.922,26.939 -46.254,40.616 -66.409,53.266 -2.698,1.817 -7.037,1.216 -9.931,3.257 -9.939,7.344 -16.567,9.82 -16.567,9.82 0,0 6.826,-1.987 17.322,-8.731 2.367,-1.586 6.265,-0.533 10.204,-2.577 10.896,-5.855 25.635,-11.008 41.225,-19.555 69.022,-37.317 6.149,-93.846 57.672,-124.301 6.391,-2.921 10.824,-5.86 13.4,-4.389 -0.02,-0.059 -0.025,-0.069 -0.039,-0.109 0.205,0.52 1.054,2.374 2.945,4.313 6.327,12.33 16.545,9.176 41.903,20.465 16.72,7.443 27.886,18.501 30.93,23.882 -0.352,0.575 -0.679,3.631 0.608,8.826 -2.661,2.52 -0.377,12.636 12.946,25.726 20.167,6.057 33.936,1.347 37.858,-2.347 1.173,-0.177 1.834,-0.355 2.475,-0.515 0.089,0.428 0.505,1.099 1.301,1.842 2.886,3.311 3.017,12.971 7.986,26.134 -9.973,3.339 -21.716,2.161 -35.577,13.016 -22.923,24.959 -14.614,58.884 -19.187,91.072 -3.807,31.986 19.095,25.975 -10.85,62.512 -25.414,30.32 -70.651,64.066 -91.544,71.136 18.753,-4.522 49.732,-24.747 65.784,-36.583 80.795,-59.52 45.48,-74.092 51.903,-94.249 5.361,-24.273 5.27,-68.124 19.324,-77.174 1.371,-3.074 10.774,-0.301 23.965,-4.438 5.764,-0.884 11.302,-1.819 15.348,-1.477 5.426,9.07 10.4,19.322 15.973,30.172 11.549,56.08 20.75,61.461 55.739,91.627 19.479,13.01 37.278,15.54 48.154,15.019 28.703,1.984 64.694,22.684 109.757,3.573 17.689,-2.184 33.789,-6.952 48.1,-12.713 6.041,21.465 12.558,26.904 14.537,32.09 -20.79,61.891 -37.096,42.607 -47.999,202.177 1.284,16.618 4.071,27.369 6.575,32.592 0.08,0.986 0.158,2.085 0.243,2.992 -2.042,8.796 -17.365,70.271 -16.964,92.747 -1.146,1.947 -2.166,3.613 -3.421,5.809 -0.444,3.796 -0.762,7.121 -1.037,10.281 -11.31,21.894 -19.054,39.711 -25.875,53.412 h 189.911 c -0.417,-6.495 -0.786,-11.08 -1.029,-11.492 -0.252,-23.839 9.344,-82.766 -2.777,-102.12 -0.408,-22.958 -2.385,-43.835 -4.219,-66.068 2.454,-22.246 5.179,-72.084 6.014,-94.78 3.035,-8.21 5.017,-15.271 6.605,-21.52 9.334,-12.223 15.361,-27.571 16.747,-36.658 0.338,-0.602 0.596,-1.017 0.942,-1.64 0.653,-3.817 1.045,-7.687 1.343,-11.525 5.87,-10.034 11.506,-19.369 16.909,-29.4 26.732,-3.352 67.703,-0.107 91.791,-17.172 8.236,-1.461 12.948,-2.064 21.839,-9.154 10.122,-12.443 9.246,-19.502 7.957,-16.243 0.11,-3.075 11.641,-3.307 24.527,-12.135 3.327,-3.062 5.806,-6.24 7.62,-9.37 11.906,-4.954 17.193,-6.886 22.019,-8.591 17.43,15.702 74.344,29.538 136.298,4.303 1.875,0.526 7.541,-1.841 13.462,-9.3 4.188,-8.217 7.627,-15.337 12.744,-20.364 13.225,-15.617 56.319,-11.471 81.064,-26.795 53.786,-34.512 89.649,-48.037 89.649,-48.037 0,0 -37.111,10.157 -94.243,40.156 -31.486,16.93 -73.6,-8.41 -105.18,44.05 -0.051,-0.684 -1.07,-0.861 -4.387,1.28 -45.355,14.046 -86.355,6.322 -106.762,-6.836 2.817,1.758 2.428,-0.501 -2.71,-4.226 14.356,-10.004 18.885,-34.229 28.576,-42.068 16.827,-14.35 31.239,-23.761 40.228,-41.133 9.025,-6.059 45.245,-22.665 59.492,-42.345 -15.257,16.77 -50.484,29.613 -61.638,34.909 -0.514,-0.181 -2.247,0.521 -4.36,3.178 -9.022,14.918 -22.827,20.833 -42.099,34.647 -14.512,11.055 -20.019,29.692 -30.171,37.232 -4.021,6.003 -34.16,-5.857 -47.762,18.217 -13.272,4.254 -37.545,12.375 -49.994,18.551 -0.062,-1.818 -4.605,1.336 -12.405,10.791 -6.474,10.317 -7.329,17.075 -8.159,14.934 0.533,0.646 -2.987,0.309 -8.656,1.31 -27.022,-1.773 -46.355,-3.921 -68.081,-1.972 3.974,-32.221 -0.004,-53.934 -5.656,-66.225 0.35,-2.513 -0.833,-7.741 -2.812,-2.34 4.8,-21.935 5.136,-30.243 1.513,-22.5 -1.285,-5.57 -2.531,-10.222 -9.328,-31.262 11.409,-6.999 26.867,-28.877 26.11,-36.544 0.138,-0.404 0.198,-0.655 0.318,-1.029 8.862,-3.258 17.901,-10.714 23.252,-15.225 15.1,5.029 34.371,5.609 50.606,5.341 0.256,0.378 0.417,0.656 0.674,1.045 16.643,6.823 27.814,6.546 31.863,5.178 45.177,1.621 44.983,8.032 140.024,-40.605 104.163,-53.116 103.755,-52.169 156.388,-47.286 9.103,0.857 27.621,2.725 36.174,5.818 5.78,9.926 15.585,33.529 48.849,24.173 30.407,-6.369 70.325,-28.275 85.129,-27.821 54.783,-0.095 58.438,30.588 156.143,-25.711 16.477,-9.484 59.615,-36.051 63.242,-54.559 -9.015,29.543 -121.854,79.736 -150.29,77.078 z m -310.121,-96.54 c 1.367,-2.835 3.523,-5.412 6.102,-8.028 -1.939,3.072 -4.261,6.081 -6.744,9.075 0.127,-0.445 0.332,-0.801 0.642,-1.047 z m -339.102,402.439 c 0.32,-0.296 1.65,-0.543 2.081,-0.594 -1.738,1.599 -2.403,1.877 -2.081,0.594 z" /><path
   inkscape:connector-curvature="0"
   style="fill:#91ae4f;fill-opacity:0.94117647"
   id="path4"
   d="m 400.44,353.869 c -0.011,-0.01 -0.288,-0.238 -0.288,-0.238 0,0 0.277,0.23 0.288,0.238 z" /><path
   inkscape:connector-curvature="0"
   style="fill:#91ae4f;fill-opacity:0.94117647"
   id="path6"
   d="m 759.272,288.361 c -0.013,-0.014 -0.128,-0.182 -0.128,-0.182 0,0 0.123,0.165 0.128,0.182 z" /><path
   inkscape:connector-curvature="0"
   style="fill:#91ae4f;fill-opacity:0.94117647"
   id="path8"
   d="m 29.53,417.029 c 0,0 0.18,0.098 0.209,0.108 -0.026,-0.014 -0.209,-0.108 -0.209,-0.108 z" /><path
   inkscape:connector-curvature="0"
   style="fill:#91ae4f;fill-opacity:0.94117647"
   id="path10"
   d="m 233.332,573.506 c 0.084,0.122 0.104,0.151 0.088,-0.017 -0.032,0.009 -0.058,0.008 -0.088,0.017 z" /><path
   inkscape:connector-curvature="0"
   style="fill:#91ae4f;fill-opacity:0.94117647"
   id="path12"
   d="m 868.885,707.55 c 0.685,-0.15 0.561,0.177 0.139,0.77 -0.066,-0.289 -0.079,-0.453 -0.139,-0.77 z" /><path
   inkscape:connector-curvature="0"
   style="fill:#91ae4f;fill-opacity:0.94117647"
   id="path14"
   d="m 406.691,1000.353 c 0.618,-0.161 0.723,-0.197 0.214,0.098 -0.102,-0.069 -0.126,-0.042 -0.214,-0.098 z" />
</g>
</svg>