<?xml version="1.0" encoding="UTF-8" standalone="no"?>
<svg
   xmlns:dc="http://purl.org/dc/elements/1.1/"
   xmlns:cc="http://creativecommons.org/ns#"
   xmlns:rdf="http://www.w3.org/1999/02/22-rdf-syntax-ns#"
   xmlns:svg="http://www.w3.org/2000/svg"
   xmlns="http://www.w3.org/2000/svg"
   xmlns:sodipodi="http://sodipodi.sourceforge.net/DTD/sodipodi-0.dtd"
   xmlns:inkscape="http://www.inkscape.org/namespaces/inkscape"
   version="1.1"
   id="Layer_1"
   x="0px"
   y="0px"
   viewBox="0 0 1674.208 1624.161"
   enable-background="new 0 0 1674.208 1624.161"
   xml:space="preserve"
   sodipodi:docname="tree_2.svg"
   inkscape:version="0.92.3 (2405546, 2018-03-11)"><metadata
   id="metadata23"><rdf:RDF><cc:Work
       rdf:about=""><dc:format>image/svg+xml</dc:format><dc:type
         rdf:resource="http://purl.org/dc/dcmitype/StillImage" /><dc:title></dc:title></cc:Work></rdf:RDF></metadata><defs
   id="defs21">
		
		
		
		
		
		
		
	</defs><sodipodi:namedview
   pagecolor="#ffffff"
   bordercolor="#666666"
   borderopacity="1"
   objecttolerance="10"
   gridtolerance="10"
   guidetolerance="10"
   inkscape:pageopacity="0"
   inkscape:pageshadow="2"
   inkscape:window-width="1920"
   inkscape:window-height="1018"
   id="namedview19"
   showgrid="false"
   inkscape:zoom="0.41098684"
   inkscape:cx="598.69331"
   inkscape:cy="624.57612"
   inkscape:window-x="0"
   inkscape:window-y="34"
   inkscape:window-maximized="1"
   inkscape:current-layer="g5341" />
<g
   id="g5341"
   style="fill:#91ae4f;fill-opacity:0.94117647">
	<path
   style="fill:#91ae4f;fill-opacity:0.94117647"
   d="m 1511.468,932.223 c -76.3535,-40.65257 -158.6405,45.42081 -216.0968,-23.44045 -42.3089,-27.96904 -161.3218,30.20769 -78.7731,-36.18183 51.3561,-50.51998 48.8931,-160.21829 133.6598,-168.7052 71.5528,12.44408 120.1832,-50.05824 151.5585,-95.43477 10.6422,-41.20468 53.8031,-156.19607 58.2169,-156.55363 -33.5693,51.38871 -54.2297,118.33598 -74.1723,166.82788 -50.8939,45.66054 -94.0471,74.59318 -166.878,66.55454 -45.8689,19.87158 -46.919,42.01886 -27.0977,-13.84851 22.401,-72.46764 31.851,-155.41643 75.0817,-216.49203 -49.208,54.06751 -49.4613,136.97423 -82.2626,202.5775 -10.8274,73.57596 -60.6989,129.88417 -99.296,186.12325 -9.0951,27.07185 -91.7655,105.33389 -57.8823,28.16958 -44.098,-68.27198 -20.0502,-147.02052 45.5397,-192.48711 81.1055,-74.45733 -120.2686,110.98855 -58.4168,54.12278 -61.6186,67.089 57.8926,164.80959 -39.3505,211.0486 -50.4687,30.17647 -151.28664,16.72596 -169.73836,-9.8216 30.91497,-68.75994 -25.50365,-157.73798 44.36366,-207.7755 69.8606,-13.4034 108.2609,-110.55628 184.9968,-94.67345 40.7121,19.1128 149.9198,-74.97372 62.294,-18.15496 -28.9938,24.21093 -138.0738,21.47399 -76.4633,-22.94455 25.9537,-74.43468 96.0397,-104.36862 134.6351,-155.53712 51.5791,-55.34958 133.4673,-71.41641 185.2238,-132.51979 24.2671,-28.09778 -59.8174,62.60064 -92.1792,53.36287 -73.0627,25.95579 -111.5612,85.6608 -176.2609,113.31836 -38.4833,20.32002 -82.9869,142.63172 -95.7781,65.34314 43.706,-57.8109 -19.516,-136.21016 43.01,-196.597 -3.2383,-37.13873 9.2812,-134.57922 16.2207,-124.34362 -28.9512,67.15879 -15.141,142.37498 -57.7867,209.68162 -5.2702,36.57613 26.9534,85.01542 -18.35,112.798 45.4328,69.36628 -77.6981,117.60203 -129.525,136.245 34.02976,-68.53965 36.33819,-143.62691 64.21701,-218.33633 26.66059,-59.24877 47.19729,-127.71507 50.19299,-193.42767 -5.4752,61.37251 -32.7307,125.00297 -57.983,178.579 -19.61795,43.93801 -38.03165,152.97556 -59.31262,56.18049 -27.09346,-63.135 -119.62366,-116.43342 -73.04947,-192.65493 38.05892,-39.69658 56.54122,-205.216013 47.81244,-186.20892 -2.9539,54.71366 -28.67851,168.67177 -62.37392,176.89482 C 817.55259,228.10114 800.13472,168.58161 818.97575,101.42262 790.89805,72.460634 817.72722,-27.579172 798.16,48.672 c 33.37411,80.3365 -26.45707,156.97844 20.903,237.033 0.13435,63.30371 -32.72344,-77.29484 -70.591,-95.338 C 707.53498,169.85451 683.09058,52.522847 680.61577,67.231348 694.0202,146.4707 749.12039,199.67738 789.353,265.453 c 26.50519,73.86048 27.42462,156.42726 84.293,219.181 -64.67987,-6.69518 -112.78196,-83.46913 -109.77937,-145.74173 1.46616,-42.51807 -1.5737,-65.27559 -1.20555,-9.4816 -11.61981,63.20924 29.54673,121.79184 77.21392,157.20633 90.56288,8.52789 85.30826,140.42712 30.84219,190.19899 C 857.25613,725.197 841.88493,803.72688 835.183,837.595 749.61164,799.87547 827.42492,674.58981 724.845,659.124 c -1.85086,-68.88604 -31.3028,-125.30122 -0.6145,-193.14587 -26.86879,-77.2958 13.03704,-153.28447 -28.94636,-231.40828 -15.21138,-65.3812 -10.13001,-38.60414 -0.62577,9.50253 34.77306,81.28856 -3.54684,156.92641 13.75238,237.1835 -33.88301,-0.028 -100.10347,-95.73472 -111.62152,-154.52911 -13.32133,-40.47312 -37.11646,-155.51291 -18.97569,-54.59241 9.55293,83.48109 42.04086,164.23904 101.92185,224.32525 -4.4614,53.04992 19.53634,113.79411 9.50461,169.92739 -30.96487,-20.64791 -17.3785,-87.80889 -73.937,-92.42 -34.77597,-63.3518 -81.21385,-111.91748 -142.177,-154.221 -21.00026,-25.04046 -107.79648,-96.49837 -41.34147,-38.38496 40.90126,51.83613 97.78799,74.43777 127.69156,126.12944 38.11778,60.41444 97.62852,98.94406 116.69257,169.14332 53.39779,2.70743 101.55486,69.58903 26.08934,81.3562 -81.49594,35.85127 -122.73861,-81.0461 -167.755,-129.843 -30.5726,-35.9453 -31.75771,-36.48306 -1.512,1.189 44.05429,53.7873 78.43836,162.97738 163.40158,144.39863 65.32848,-46.47853 47.11666,85.06527 107.95995,104.58048 86.16085,47.56165 -90.17168,96.01642 -68.67778,169.39679 36.41442,57.8265 -145.06238,126.4447 -97.9675,38.5357 C 652.47245,1010.9126 617.90427,934.84817 555.427,891.463 524.0322,822.99928 496.6114,751.65209 489.32619,675.76002 497.02852,589.52741 443.22232,511.69135 408.602,436.022 c 36.22519,82.71169 90.36246,169.42488 72.30973,262.93721 12.32366,40.59362 45.01095,144.12014 -14.56676,60.02202 -34.41698,-61.39168 -135.51525,-17.2733 -100.65813,-107.66927 36.01523,-86.62489 -28.0175,-156.6991 -49.70454,-236.46801 -20.73264,-39.83304 -55.77393,-81.8564 -12.12063,-18.78801 23.94491,82.66449 87.14882,160.78586 51.41395,249.45019 -9.46763,38.27907 -0.97261,80.1277 -13.49391,16.38585 -50.71,-56.1295 -120.34359,-105.00626 -122.63778,-193.27842 -4.91893,-42.1053 -59.95847,-134.66557 -56.18365,-135.9497 31.84241,71.52871 50.06761,146.549 65.21206,223.41844 18.55283,52.10044 -43.04774,-76.99945 -82.19371,-70.82437 C 107.96762,476.52623 45.440434,422.38455 41.15,423.61725 c 45.85141,48.5518 126.43531,58.28334 163.28298,121.44244 20.34117,59.94737 110.94004,79.09651 117.05532,147.94161 18.10294,83.06613 137.97506,59.19773 161.29721,144.03893 12.91819,83.00962 112.9653,122.77869 102.88411,211.13417 -10.20522,41.7912 -11.2106,125.3343 -66.35212,72.2385 C 483.02238,1056.7456 445.37813,964.70286 379.61716,952.4617 341.05372,890.7753 227.09246,910.41624 227.90798,820.54561 268.11402,744.73117 187.31225,682.12893 166.37462,613.299 c -17.55693,-35.84789 -48.00186,-87.23007 -13.064,-20.76304 16.24147,72.92366 95.78588,139.03411 64.24663,215.42579 -17.02904,48.50161 48.27621,88.84391 -29.46413,90.87 -69.89517,9.03565 -69.3831,-112.19398 -121.935038,-151.4186 -23.904578,-29.03933 -78.954452,-61.54192 -20.939727,-17.48598 50.240573,52.54936 66.944305,130.74648 103.977525,186.8717 40.53259,15.99457 136.17866,-40.24846 80.47404,32.10146 30.66393,69.96847 -53.07208,116.61487 -88.46492,129.08917 72.05187,-15.2312 111.76215,-68.5972 107.25815,-140.77311 40.31068,-38.56589 102.84107,24.82762 117.13285,66.15961 33.1153,-15.9014 75.82541,20.8529 24.04706,31.9863 -61.19002,55.6825 12.42627,167.5842 -87.50843,204.0144 -31.04912,21.5654 -58.25553,35.7528 -10.17175,11.3005 83.91821,-29.3059 87.05719,-106.6611 94.9116,-179.9942 82.24894,-66.9967 60.82053,129.5232 158.00038,118.1426 55.08735,27.1227 134.47069,-11.543 171.7718,4.4977 5.64414,70.4986 -52.18067,151.2458 -36.78675,232.2954 21.35274,59.1667 -42.39731,155.3716 -27.90867,186.4643 58.70792,0 117.41584,0 176.12376,0 7.90228,-85.0141 -15.4798,-168.0058 -2.95786,-253.2041 7.50428,-74.8476 41.21566,-141.7095 125.52025,-133.671 49.10811,-32.0873 89.25201,-79.7254 154.48741,-42.8887 78.2437,11.8801 107.7072,-68.5687 182.8062,-70.2602 25.3239,-20.3964 134.3137,-67.0332 50.3319,-33.7698 -67.8388,30.0776 -135.3477,45.9237 -197.4389,77.9267 -51.3076,8.0584 -103.6157,-14.3454 -47.95,-59.8379 19.6576,-25.5538 101.3715,-80.8553 93.1486,-77.3804 -70.7057,22.3036 -104.8767,100.0728 -173.666,114.637 -49.13433,20.0637 -108.55473,84.8169 -151.95784,39.47 3.89146,-62.4802 -32.61125,-96.3016 9.01524,-148.3076 63.79481,-31.75549 149.5048,26.1906 214.9681,-28.49063 69.1089,-33.29931 156.8322,-96.62626 229.4062,-47.96312 60.3363,41.70454 135.7152,-41.1888 206.831,-5.78841 39.4525,-3.17745 134.7142,-66.04604 133.259,-75.5068 -39.7888,33.34252 -90.732,58.39803 -142.4103,65.17496 z m -310.121,-96.54 c 19.2918,-26.55249 -5.5144,8.7112 0,0 z m -339.102,402.439 2.081,-0.594 z"
   id="path2"
   inkscape:connector-curvature="0" /><path
   inkscape:connector-curvature="0"
   style="fill:#91ae4f;fill-opacity:0.94117647"
   id="path4"
   d="m 400.44,353.869 c -0.011,-0.01 -0.288,-0.238 -0.288,-0.238 0,0 0.277,0.23 0.288,0.238 z" /><path
   inkscape:connector-curvature="0"
   style="fill:#91ae4f;fill-opacity:0.94117647"
   id="path6"
   d="m 759.272,288.361 c -0.013,-0.014 -0.128,-0.182 -0.128,-0.182 0,0 0.123,0.165 0.128,0.182 z" /><path
   inkscape:connector-curvature="0"
   style="fill:#91ae4f;fill-opacity:0.94117647"
   id="path8"
   d="m 29.53,417.029 c 0,0 0.18,0.098 0.209,0.108 -0.026,-0.014 -0.209,-0.108 -0.209,-0.108 z" /><path
   inkscape:connector-curvature="0"
   style="fill:#91ae4f;fill-opacity:0.94117647"
   id="path10"
   d="m 233.332,573.506 c 0.084,0.122 0.104,0.151 0.088,-0.017 -0.032,0.009 -0.058,0.008 -0.088,0.017 z" /><path
   inkscape:connector-curvature="0"
   style="fill:#91ae4f;fill-opacity:0.94117647"
   id="path12"
   d="m 868.885,707.55 c 0.685,-0.15 0.561,0.177 0.139,0.77 -0.066,-0.289 -0.079,-0.453 -0.139,-0.77 z" /><path
   inkscape:connector-curvature="0"
   style="fill:#91ae4f;fill-opacity:0.94117647"
   id="path14"
   d="m 406.691,1000.353 c 0.618,-0.161 0.723,-0.197 0.214,0.098 -0.102,-0.069 -0.126,-0.042 -0.214,-0.098 z" />
</g>
</svg>