<?xml version="1.0" encoding="UTF-8" standalone="no"?>
<svg
   xmlns:dc="http://purl.org/dc/elements/1.1/"
   xmlns:cc="http://creativecommons.org/ns#"
   xmlns:rdf="http://www.w3.org/1999/02/22-rdf-syntax-ns#"
   xmlns:svg="http://www.w3.org/2000/svg"
   xmlns="http://www.w3.org/2000/svg"
   xmlns:sodipodi="http://sodipodi.sourceforge.net/DTD/sodipodi-0.dtd"
   xmlns:inkscape="http://www.inkscape.org/namespaces/inkscape"
   viewBox="0 0 1777.4545 1347.544"
   version="1.1"
   id="svg4843"
   sodipodi:docname="genealogy-multi.svg"
   inkscape:version="0.92.5 (2060ec1f9f, 2020-04-08)"
   width="1777.4545"
   height="1347.5439">
  <metadata
     id="metadata4847">
    <rdf:RDF>
      <cc:Work
         rdf:about="">
        <dc:format>image/svg+xml</dc:format>
        <dc:type
           rdf:resource="http://purl.org/dc/dcmitype/StillImage" />
        <dc:title></dc:title>
      </cc:Work>
    </rdf:RDF>
  </metadata>
  <sodipodi:namedview
     pagecolor="#ffffff"
     bordercolor="#666666"
     borderopacity="1"
     objecttolerance="10"
     gridtolerance="10"
     guidetolerance="10"
     inkscape:pageopacity="0"
     inkscape:pageshadow="2"
     inkscape:window-width="1920"
     inkscape:window-height="1009"
     id="namedview4845"
     showgrid="false"
     inkscape:zoom="0.13927325"
     inkscape:cx="-810.42856"
     inkscape:cy="902.72112"
     inkscape:window-x="0"
     inkscape:window-y="34"
     inkscape:window-maximized="1"
     inkscape:current-layer="svg4843"
     fit-margin-top="0"
     fit-margin-left="0"
     fit-margin-right="0"
     fit-margin-bottom="0" />
  <defs
     id="defs4777">
    <style
       id="style4775">.cls-1,.cls-10,.cls-4,.cls-9{fill:none;}.cls-1,.cls-2{stroke:#6562cf;stroke-miterlimit:10;}.cls-1,.cls-4{stroke-linecap:round;}.cls-1{stroke-width:6px;}.cls-2{fill:#fff;}.cls-10,.cls-2,.cls-9{stroke-width:5px;}.cls-3{fill:#6562cf;}.cls-4,.cls-9{stroke:#ffb000;}.cls-10,.cls-4,.cls-9{stroke-linejoin:round;}.cls-4{stroke-width:10px;}.cls-5{fill:#ffbe00;}.cls-6{fill:#a85f2b;}.cls-7{fill:#b6732b;}.cls-8{fill:#f1f0ff;}.cls-10{stroke:#d1d1ff;}</style>
  </defs>
  <g
     id="g3753">
    <path
       class="cls-3"
       d="m 180.59103,319.82993 c 33.64,-42.95 5.43,-90.58 13.07,-116.32 14.93,-50.36 79.81,10.59 105.55,-51.75 0,0 38.07,26.67 42,21.43 l 98.47,-9.18 c 35.76,-38.15001 23,-79.920006 8.43,-96.000006 0,0 -45,-51.26 -96.24,-26.41 -27.47,13.33 -49.84,55.14 -55.35,87.999996 -5.95,35.53001 -59.09,-69.999996 -136.41,-34.259996 -50.62,23.489996 -12.22,96.620006 -71.390001,98.370006 -77.72,2.31 -114.63,79.46 -23.52,146.12 43.800001,32.09 93.070001,8.51 115.390001,-20 z"
       id="path4798"
       inkscape:connector-curvature="0"
       style="fill:#6562cf" />
    <line
       class="cls-4"
       x1="290.83102"
       y1="135.57991"
       x2="300.17105"
       y2="153.68991"
       id="line4800"
       style="fill:none;stroke:#ffb000;stroke-width:10px;stroke-linecap:round;stroke-linejoin:round" />
    <ellipse
       class="cls-3"
       cx="-307.76334"
       cy="211.40221"
       rx="39.84"
       ry="24.65"
       transform="rotate(-60)"
       id="ellipse4802"
       style="fill:#6562cf" />
    <line
       class="cls-4"
       x1="44.911045"
       y1="329.54993"
       x2="60.231022"
       y2="341.72992"
       id="line4804"
       style="fill:none;stroke:#ffb000;stroke-width:10px;stroke-linecap:round;stroke-linejoin:round" />
    <g
       transform="rotate(7.2567916,1324.416,897.59913)"
       id="RIGHT">
      <path
         class="cls-3"
         d="m 446.24315,1360.3345 c 0,0 -34.76,13.18 -9.27,87.89 h 5.69 c 0,0 5.73,-37.6 12.09,-37.92 6.36,-0.32 24.18,37.92 33.41,37.92 h 74.12 c 0,0 -1.59,-15.13 -13,-16.76 -11.41,-1.63 -35,-25.72 -35,-25.72 z"
         id="path4808"
         inkscape:connector-curvature="0"
         style="fill:#6562cf" />
      <path
         class="cls-6"
         d="m 316.40315,858.82448 c 46.09,14.44 85.2,329.29002 197.84,546.92002 0,0 -61.56,-4.39 -68,-45.41 0,0 -186.87,-192.63 -191.86,-307.62 -4.99,-114.99002 33.68,-202.76002 62.02,-193.89002 z"
         id="path4810"
         inkscape:connector-curvature="0"
         style="fill:#a85f2b" />
    </g>
    <g
       transform="translate(-378.24429,146.52654)"
       id="LEFT">
      <path
         class="cls-3"
         d="m 604.26,1103.94 c 0,0 -34.76,13.18 -9.27,87.89 h 5.69 c 0,0 5.73,-37.6 12.09,-37.92 6.36,-0.32 24.18,37.92 33.41,37.92 h 74.12 c 0,0 -1.59,-15.13 -13,-16.76 -11.41,-1.63 -35,-25.72 -35,-25.72 z"
         id="path4813"
         inkscape:connector-curvature="0"
         style="fill:#6562cf" />
      <path
         class="cls-7"
         d="m 604.47,1104.24 c 0,0 -76.2,-246 -55.83,-342.4 24.81,-117.38 91.57,-180.84 123.54,-159.41 31.97,21.43 -54.83,352.15 -23.1,501.81 3.92,18.47 25.54,47.12 25.54,47.12 0,0 -82.08,-8.54 -70.15,-47.12 z"
         id="path4815"
         inkscape:connector-curvature="0"
         style="fill:#b6732b" />
    </g>
    <path
       style="fill:#ffbe00"
       inkscape:connector-curvature="0"
       d="m 173.29103,251.06993 c 14,-11.34 69.74,-39.4 133.66,-51.74 63.92,-12.34 95.37,9.42 105.12,24 13.14,19.61 -7.17,42.9 2.37,100.77 7.16,43.46 24.06,74.38 15.25,96.74 -13.44,34.09 -49.9,34.68 -51.06,114.7 -0.44,29.88 -146.3,31.61 -163,17.28 -16.7,-14.33 -79.54,-271.63 -42.34,-301.75 z"
       class="cls-5"
       id="TORSO" />
    <path
       sodipodi:nodetypes="ccccccsc"
       style="fill:#ffbe00"
       inkscape:connector-curvature="0"
       d="m 392.51801,558.30731 c 21.91482,90.75728 17.9884,299.01583 0.98681,406.23725 -8.40306,53.00364 -11.0889,4.72752 -64.63801,8.26232 h -46.67085 c -36.57824,2.4332 -106.12222,-37.42958 -114.85809,-73.03261 -19.0451,-77.68905 -23.60574,-222.92601 -16.6562,-242.0183 15.45805,-74.48964 54.81259,-108.32373 111.16779,-135.70874 56.3552,-27.38501 113.21041,-21.66608 130.66855,36.26008 z"
       class="cls-5"
       id="SKIRT" />
    <path
       class="cls-7"
       d="m 161.31103,272.82993 c -20.3,86.89 35.78,222.45 69.22,222.45 71.26,0.03 194.14,-132.45 194.14,-132.45 l -6.8,-24.7 -169.45,84.23 c 0,0 -10.09,-104.9 -19.69,-141.4 -9.81,-37.32 -57.07,-52.38 -67.42,-8.13 z"
       id="path4820"
       inkscape:connector-curvature="0"
       style="fill:#b6732b" />
    <ellipse
       class="cls-8"
       cx="269.30197"
       cy="540.7243"
       rx="51.880001"
       ry="43.650002"
       transform="rotate(-36.64)"
       id="ellipse4822"
       style="fill:#f1f0ff" />
    <ellipse
       class="cls-9"
       cx="270.85889"
       cy="526.99658"
       rx="52.580002"
       ry="43.580002"
       transform="rotate(-36.869898)"
       id="ellipse4824"
       style="fill:none;stroke:#ffb000;stroke-width:5px;stroke-linejoin:round" />
    <path
       class="cls-10"
       d="m 568.22103,259.46993 c -2.35,18.32 -19.84,34 -39.05,35.05"
       id="path4826"
       inkscape:connector-curvature="0"
       style="fill:none;stroke:#d1d1ff;stroke-width:5px;stroke-linejoin:round" />
    <path
       class="cls-2"
       d="m 485.07103,303.69993 -56.91,66.19 a 8.33,8.33 0 0 0 1.52,11.26 v 0 a 7.39,7.39 0 0 0 10.73,-1.39 l 56.91,-66.2 a 8.33,8.33 0 0 0 -1.52,-11.26 v 0 a 7.38,7.38 0 0 0 -10.73,1.4 z"
       id="path4828"
       inkscape:connector-curvature="0"
       style="fill:#ffffff;stroke:#6562cf;stroke-width:5px;stroke-miterlimit:10" />
    <path
       class="cls-7"
       d="m 412.84103,341.01993 c 7.42,-6.91 56,-19.08 60.94,-16 4.94,3.08 44.22,10.53 44.22,10.53 0,0 -0.78,9.39 -16.35,7.77 -18.08,-1.88 -21.91,1.92 -21.91,1.92 0,0 2.5,9.89 -3.11,13.66 -5.61,3.77 1.81,9.1 -6,16.42 -4.58,4.28 -4.77,9.6 -10.74,10.73 -5.97,1.13 -42.51,-17.36 -48.55,-28.67 -5.16,-9.55 -2.91,-12.26 1.5,-16.36 z"
       id="path4830"
       inkscape:connector-curvature="0"
       style="fill:#b6732b" />
    <path
       class="cls-7"
       d="m 238.88103,218.12993 c 11.67,-4.89 66,-39.59 94.14,-76.89 l 18.05,52.5 c 0,0 12,53.34 -55.44,57 -41.79,2.21 -56.75,-32.61 -56.75,-32.61 z"
       id="path4833"
       inkscape:connector-curvature="0"
       style="fill:#b6732b" />
    <path
       class="cls-6"
       d="m 336.23103,237.71993 c -24.49,-22.8 -20.11,-67 -3.9,-95.58 q 0.36,-0.45 0.69,-0.9 l 18.06,52.5 c 0,0 6.09,27.09 -14.85,43.98 z"
       id="path4835"
       inkscape:connector-curvature="0"
       style="fill:#a85f2b" />
    <path
       style="fill:#b6732b"
       inkscape:connector-curvature="0"
       d="m 424.45103,102.28992 c 17.14,1.12 29,26.19 21.05,49.00001 -7.95,22.81 -39.62,68.34 -61.28,66.77 -35.08,-2.53 -53.09,-51.18 -52.32,-71.52 0,0 0.29,-23.32001 26.06,-18.00001 21.19,4.35 42.18,-1.38 51.27,-12.9 9.09,-11.52 15.22,-13.35 15.22,-13.35 z"
       class="cls-7"
       id="HEAD" />
  </g>
  <path
     style="fill:#91ae4f;fill-opacity:0.94117647;stroke-width:0.84614348"
     d="m 515.06113,771.37333 c 64.606,-34.39789 134.2326,38.43253 182.8488,-19.83397 35.7994,-23.66582 136.5014,25.56004 66.6534,-30.61502 -43.4546,-42.74714 -41.3706,-135.56765 -113.0954,-142.7488 -60.5439,10.52948 -101.6922,-42.35644 -128.2402,-80.7515 -9.0048,-34.86507 -45.5251,-132.16428 -49.2598,-132.46683 28.4044,43.48223 45.8861,100.12922 62.7603,141.16032 43.0636,38.63536 79.5774,63.11653 141.2028,56.31469 38.8117,16.8142 39.7001,35.55398 22.9285,-11.71783 -18.9544,-61.31802 -26.9504,-131.50459 -63.5299,-183.1833 41.6371,45.74885 41.8513,115.89984 69.606,171.40962 9.1616,62.25581 51.36,109.90063 84.0186,157.48695 7.6958,22.90667 77.6469,89.12758 48.9767,23.83552 37.3134,-57.7679 16.9654,-124.40045 -38.5331,-162.87171 -68.6269,-63.00159 101.7646,93.91224 49.429,45.79563 52.1382,56.76692 -48.9853,139.45255 33.2962,178.57738 42.7037,25.53363 128.01017,14.15257 143.62307,-8.31048 -26.1586,-58.18077 21.5797,-133.46895 -37.53817,-175.80787 -59.112,-11.34119 -91.6041,-93.54646 -156.5338,-80.10731 -34.4482,16.17216 -126.8535,-63.43852 -52.7096,-15.3617 24.5329,20.48592 116.8303,18.17007 64.6989,-19.41439 -21.9605,-62.98242 -81.2634,-88.31082 -113.9206,-131.60671 -43.6434,-46.83368 -112.9325,-60.42853 -156.7259,-112.13074 -20.5334,-23.77476 50.6141,52.96912 77.9968,45.15264 61.8216,21.96231 94.3969,72.48133 149.1421,95.88359 32.5623,17.19365 70.2187,120.68689 81.042,55.28965 -36.9816,-48.9163 16.5133,-115.25331 -36.3927,-166.34925 2.7402,-31.42469 -7.8533,-113.87333 -13.7249,-105.21254 24.4967,56.82598 12.8113,120.46966 48.8957,177.42073 4.4594,30.94866 -22.8064,71.93524 15.5267,95.44328 -38.4425,58.69382 65.7438,99.50819 109.59677,115.28281 -28.79407,-57.99436 -30.74737,-121.52896 -54.33677,-184.74384 -22.5587,-50.13296 -39.9357,-108.06528 -42.4705,-163.66756 4.6328,51.92995 27.6948,105.77045 49.062,151.10345 16.5996,37.17786 32.1802,129.43927 50.18697,47.53675 22.9249,-53.42126 101.2187,-98.51938 61.8102,-163.0137 -32.2032,-33.589 -47.8419,-173.642173 -40.4561,-157.559453 2.4994,46.295603 24.2661,142.720513 52.7773,149.678383 18.5406,-55.68496 33.2785,-106.04702 17.3363,-162.873173 23.7579,-24.50598 1.0564,-109.15401 17.6132,-44.63458 -28.2394,67.9762 22.3864,132.826273 -17.687,200.563913 -0.1143,53.56402 27.6887,-65.40252 59.7302,-80.66963 34.6385,-17.35649 55.322,-116.635913 57.4161,-104.190413 -11.3421,67.047853 -57.9648,112.068343 -92.0073,167.723953 -22.4273,62.49655 -23.2053,132.35989 -71.3241,185.45856 54.7285,-5.66508 95.4297,-70.62686 92.8891,-123.31841 -1.2405,-35.97638 1.3316,-55.23251 1.0202,-8.0228 9.8319,53.48409 -25.0008,103.05337 -65.3341,133.01911 -76.6293,7.21582 -72.1831,118.82148 -26.097,160.93562 11.3901,40.93728 24.3963,107.38482 30.0672,136.0421 72.4056,-31.91612 6.5643,-137.92577 93.3617,-151.01205 1.566,-58.28747 26.4867,-106.0228 0.5199,-163.42911 22.7348,-65.40333 -11.0312,-129.70065 24.4928,-195.8046 12.871,-55.32187 8.5714,-32.66464 0.5295,8.04051 -29.423,68.78177 3.0011,132.78225 -11.6365,200.69126 28.6699,-0.0237 84.7019,-81.00531 94.4478,-130.75379 11.2718,-34.24607 31.4059,-131.58624 16.0561,-46.19301 -8.0831,70.63697 -35.5725,138.96978 -86.2404,189.81133 3.775,44.88784 -16.5306,96.28614 -8.0423,143.78295 26.2007,-17.47109 14.7047,-74.29891 62.5613,-78.20058 29.4255,-53.60471 68.7186,-94.69824 120.3022,-130.49309 17.7692,-21.18782 91.2112,-81.65146 34.9807,-32.47918 -34.6083,43.8608 -82.7426,62.98504 -108.0452,106.7236 -32.2532,51.11928 -82.6079,83.72087 -98.7388,143.11951 -45.1822,2.29087 -85.93,58.8823 -22.0753,68.83901 68.9573,30.33532 103.8546,-68.57662 141.9448,-109.8658 25.8689,-30.41488 26.8716,-30.86991 1.2794,1.00606 -37.2763,45.51177 -66.3702,137.90224 -138.2612,122.18195 -55.2773,-39.32749 -39.8675,71.97742 -91.3496,88.49009 -72.9045,40.24398 76.2981,81.24367 58.1112,143.33401 -30.8118,48.92952 122.7437,106.99029 82.8945,32.60674 -12.4934,-63.74425 16.7563,-128.10567 69.6211,-164.81575 26.5645,-57.93012 49.7664,-118.30008 55.9307,-182.51565 -6.5173,-72.96517 39.0104,-138.82564 68.3042,-202.85276 -30.6517,69.98596 -76.4595,143.35776 -61.1844,222.48259 -10.4275,34.34803 -38.0857,121.94631 12.3256,50.78725 29.1217,-51.94617 114.6653,-14.61569 85.1712,-91.10365 -30.4741,-73.29708 23.7068,-132.58991 42.0572,-200.08585 17.5427,-33.70447 47.1927,-69.26226 10.2558,-15.89735 -20.2609,69.94601 -73.7404,136.04789 -43.5036,211.07063 8.0109,32.38959 0.8229,67.79953 11.4178,13.86478 42.9079,-47.4936 101.8279,-88.85036 103.7691,-163.54126 4.1621,-35.62712 50.7335,-113.94638 47.5394,-115.03294 -26.9432,60.52355 -42.3643,124.00147 -55.1787,189.04403 -15.6984,44.08446 36.4245,-65.15257 69.5477,-59.92757 32.1627,-7.38827 85.0697,-53.1999 88.7,-52.15685 -38.7969,41.08178 -106.9824,49.31606 -138.1608,102.75772 -17.2116,50.72407 -93.8712,66.927 -99.0456,125.17982 -15.3177,70.28586 -116.7467,50.08978 -136.4807,121.87759 -10.9304,70.23805 -95.5847,103.88839 -87.0546,178.64982 8.6352,35.36136 9.4857,106.05073 56.1435,61.12416 30.7108,-53.87169 62.5632,-131.75308 118.2064,-142.11086 32.6302,-52.19554 129.0578,-35.57648 128.3678,-111.61994 -34.0201,-64.14988 34.3498,-117.12035 52.066,-175.36035 14.8557,-30.33246 40.6165,-73.80915 11.054,-17.5685 -13.7426,61.70387 -81.0486,117.64279 -54.3618,182.28111 14.409,41.03931 -40.8486,75.17469 24.9309,76.88906 59.1413,7.64544 58.708,-94.93221 103.1745,-128.12186 20.2267,-24.57144 66.8068,-52.07329 17.718,-14.79565 -42.5107,44.4643 -56.6445,110.63028 -87.9799,158.12027 -34.2964,13.5337 -115.2267,-34.05597 -68.0926,27.16243 -25.9461,59.20337 44.9066,98.67295 74.854,109.22799 -60.9662,-12.88777 -94.5668,-58.04311 -90.7558,-119.11428 -34.1086,-32.63228 -87.0183,21.00774 -99.1111,55.98052 -28.0203,-13.45486 -64.1593,17.64457 -20.3473,27.06504 51.7755,47.11537 -10.5144,141.80028 74.0447,172.62538 26.272,18.2475 49.2925,30.2521 8.6067,9.5619 -71.0068,-24.797 -73.6628,-90.25065 -80.3088,-152.30091 -69.5945,-56.68884 -51.4629,109.59514 -133.691,99.96562 -46.6118,22.94969 -113.7815,-9.7671 -145.3436,3.80564 -4.7757,59.65195 44.1524,127.97565 31.1269,196.55525 -18.0675,50.0635 35.8743,131.4667 23.6147,157.7756 -49.6753,0 -99.3506,0 -149.026,0 -6.6864,-71.9341 13.0983,-142.157 2.5028,-214.2471 -6.3497,-63.3318 -34.8744,-119.9065 -106.20807,-113.1048 -41.5524,-27.1504 -75.52,-67.4591 -130.7185,-36.28997 -66.2054,10.0523 -91.1357,-58.01895 -154.6802,-59.45021 -21.4277,-17.25827 -113.6487,-56.71969 -42.588,-28.5741 57.4013,25.44998 114.5235,38.85804 167.0615,65.93718 43.4137,6.81857 87.6738,-12.13828 40.5726,-50.63145 -16.6331,-21.62219 -85.7748,-68.41522 -78.817,-65.47496 59.8271,18.87208 88.7406,84.67599 146.9462,96.99944 41.5748,16.97666 91.85297,71.76717 128.57817,33.39715 -3.2927,-52.86713 27.5938,-81.48488 -7.6283,-125.48942 -53.9794,-26.86974 -126.50227,22.161 -181.89367,-24.1072 -58.4761,-28.17599 -132.7026,-81.75967 -194.1106,-40.58367 -51.0532,35.28801 -114.8345,-34.85164 -175.0086,-4.89783 -33.3825,-2.68858 -113.9875,-55.88442 -112.7563,-63.88958 33.667,28.21255 76.7723,49.4131 120.4996,55.14735 z m 262.4068,-81.68668 c -16.3236,-22.46721 4.666,7.37093 0,0 z m 286.92877,340.52115 -1.7608,-0.5026 z"
     id="path2"
     inkscape:connector-curvature="0" />
  <g
     transform="matrix(-0.2996649,0,0,0.2996649,1745.4066,945.23032)"
     id="g3753-1-6-4"
     style="stroke-width:3.33706069">
    <path
       class="cls-3"
       d="m 180.59103,319.82993 c 33.64,-42.95 5.43,-90.58 13.07,-116.32 14.93,-50.36 79.81,10.59 105.55,-51.75 0,0 38.07,26.67 42,21.43 l 98.47,-9.18 c 35.76,-38.15001 23,-79.920006 8.43,-96.000006 0,0 -45,-51.26 -96.24,-26.41 -27.47,13.33 -49.84,55.14 -55.35,87.999996 -5.95,35.53001 -59.09,-69.999996 -136.41,-34.259996 -50.62,23.489996 -12.22,96.620006 -71.390001,98.370006 -77.72,2.31 -114.63,79.46 -23.52,146.12 43.800001,32.09 93.070001,8.51 115.390001,-20 z"
       id="path4798-1-2-3"
       inkscape:connector-curvature="0"
       style="fill:#6562cf;stroke-width:3.33706069" />
    <line
       class="cls-4"
       x1="290.83102"
       y1="135.57991"
       x2="300.17105"
       y2="153.68991"
       id="line4800-5-1-3"
       style="fill:none;stroke:#ffb000;stroke-width:33.37060928px;stroke-linecap:round;stroke-linejoin:round" />
    <ellipse
       class="cls-3"
       cx="-307.76334"
       cy="211.40221"
       rx="39.84"
       ry="24.65"
       transform="rotate(-60)"
       id="ellipse4802-9-7-3"
       style="fill:#6562cf;stroke-width:3.33706069" />
    <line
       class="cls-4"
       x1="44.911045"
       y1="329.54993"
       x2="60.231022"
       y2="341.72992"
       id="line4804-8-8-8"
       style="fill:none;stroke:#ffb000;stroke-width:33.37060928px;stroke-linecap:round;stroke-linejoin:round" />
    <g
       transform="rotate(7.2567916,1324.416,897.59913)"
       id="RIGHT-4-5-6"
       style="stroke-width:3.33706069">
      <path
         class="cls-3"
         d="m 446.24315,1360.3345 c 0,0 -34.76,13.18 -9.27,87.89 h 5.69 c 0,0 5.73,-37.6 12.09,-37.92 6.36,-0.32 24.18,37.92 33.41,37.92 h 74.12 c 0,0 -1.59,-15.13 -13,-16.76 -11.41,-1.63 -35,-25.72 -35,-25.72 z"
         id="path4808-8-7-0"
         inkscape:connector-curvature="0"
         style="fill:#6562cf;stroke-width:3.33706069" />
      <path
         class="cls-6"
         d="m 316.40315,858.82448 c 46.09,14.44 85.2,329.29002 197.84,546.92002 0,0 -61.56,-4.39 -68,-45.41 0,0 -186.87,-192.63 -191.86,-307.62 -4.99,-114.99002 33.68,-202.76002 62.02,-193.89002 z"
         id="path4810-1-4-4"
         inkscape:connector-curvature="0"
         style="fill:#a85f2b;stroke-width:3.33706069" />
    </g>
    <g
       transform="translate(-378.24429,146.52654)"
       id="LEFT-0-1-8"
       style="stroke-width:3.33706069">
      <path
         class="cls-3"
         d="m 604.26,1103.94 c 0,0 -34.76,13.18 -9.27,87.89 h 5.69 c 0,0 5.73,-37.6 12.09,-37.92 6.36,-0.32 24.18,37.92 33.41,37.92 h 74.12 c 0,0 -1.59,-15.13 -13,-16.76 -11.41,-1.63 -35,-25.72 -35,-25.72 z"
         id="path4813-3-8-8"
         inkscape:connector-curvature="0"
         style="fill:#6562cf;stroke-width:3.33706069" />
      <path
         class="cls-7"
         d="m 604.47,1104.24 c 0,0 -76.2,-246 -55.83,-342.4 24.81,-117.38 91.57,-180.84 123.54,-159.41 31.97,21.43 -54.83,352.15 -23.1,501.81 3.92,18.47 25.54,47.12 25.54,47.12 0,0 -82.08,-8.54 -70.15,-47.12 z"
         id="path4815-0-5-8"
         inkscape:connector-curvature="0"
         style="fill:#b6732b;stroke-width:3.33706069" />
    </g>
    <path
       style="fill:#ffbe00;stroke-width:3.33706069"
       inkscape:connector-curvature="0"
       d="m 173.29103,251.06993 c 14,-11.34 69.74,-39.4 133.66,-51.74 63.92,-12.34 95.37,9.42 105.12,24 13.14,19.61 -7.17,42.9 2.37,100.77 7.16,43.46 24.06,74.38 15.25,96.74 -13.44,34.09 -49.9,34.68 -51.06,114.7 -0.44,29.88 -146.3,31.61 -163,17.28 -16.7,-14.33 -79.54,-271.63 -42.34,-301.75 z"
       class="cls-5"
       id="TORSO-4-9-9" />
    <path
       sodipodi:nodetypes="ccccccsc"
       style="fill:#ffbe00;stroke-width:3.33706069"
       inkscape:connector-curvature="0"
       d="m 392.51801,558.30731 c 21.91482,90.75728 17.9884,299.01583 0.98681,406.23725 -8.40306,53.00364 -11.0889,4.72752 -64.63801,8.26232 h -46.67085 c -36.57824,2.4332 -106.12222,-37.42958 -114.85809,-73.03261 -19.0451,-77.68905 -23.60574,-222.92601 -16.6562,-242.0183 15.45805,-74.48964 54.81259,-108.32373 111.16779,-135.70874 56.3552,-27.38501 113.21041,-21.66608 130.66855,36.26008 z"
       class="cls-5"
       id="SKIRT-4-7-7" />
    <path
       class="cls-7"
       d="m 161.31103,272.82993 c -20.3,86.89 35.78,222.45 69.22,222.45 71.26,0.03 194.14,-132.45 194.14,-132.45 l -6.8,-24.7 -169.45,84.23 c 0,0 -10.09,-104.9 -19.69,-141.4 -9.81,-37.32 -57.07,-52.38 -67.42,-8.13 z"
       id="path4820-4-5-7"
       inkscape:connector-curvature="0"
       style="fill:#b6732b;stroke-width:3.33706069" />
    <ellipse
       class="cls-8"
       cx="269.30197"
       cy="540.7243"
       rx="51.880001"
       ry="43.650002"
       transform="rotate(-36.64)"
       id="ellipse4822-4-3-6"
       style="fill:#f1f0ff;stroke-width:3.33706069" />
    <ellipse
       class="cls-9"
       cx="270.85889"
       cy="526.99658"
       rx="52.580002"
       ry="43.580002"
       transform="rotate(-36.869898)"
       id="ellipse4824-7-8-4"
       style="fill:none;stroke:#ffb000;stroke-width:16.68530464px;stroke-linejoin:round" />
    <path
       class="cls-10"
       d="m 568.22103,259.46993 c -2.35,18.32 -19.84,34 -39.05,35.05"
       id="path4826-6-8-3"
       inkscape:connector-curvature="0"
       style="fill:none;stroke:#d1d1ff;stroke-width:16.68530464px;stroke-linejoin:round" />
    <path
       class="cls-2"
       d="m 485.07103,303.69993 -56.91,66.19 a 8.33,8.33 0 0 0 1.52,11.26 v 0 a 7.39,7.39 0 0 0 10.73,-1.39 l 56.91,-66.2 a 8.33,8.33 0 0 0 -1.52,-11.26 v 0 a 7.38,7.38 0 0 0 -10.73,1.4 z"
       id="path4828-3-3-0"
       inkscape:connector-curvature="0"
       style="fill:#ffffff;stroke:#6562cf;stroke-width:16.68530464px;stroke-miterlimit:10" />
    <path
       class="cls-7"
       d="m 412.84103,341.01993 c 7.42,-6.91 56,-19.08 60.94,-16 4.94,3.08 44.22,10.53 44.22,10.53 0,0 -0.78,9.39 -16.35,7.77 -18.08,-1.88 -21.91,1.92 -21.91,1.92 0,0 2.5,9.89 -3.11,13.66 -5.61,3.77 1.81,9.1 -6,16.42 -4.58,4.28 -4.77,9.6 -10.74,10.73 -5.97,1.13 -42.51,-17.36 -48.55,-28.67 -5.16,-9.55 -2.91,-12.26 1.5,-16.36 z"
       id="path4830-1-1-3"
       inkscape:connector-curvature="0"
       style="fill:#b6732b;stroke-width:3.33706069" />
    <path
       class="cls-7"
       d="m 238.88103,218.12993 c 11.67,-4.89 66,-39.59 94.14,-76.89 l 18.05,52.5 c 0,0 12,53.34 -55.44,57 -41.79,2.21 -56.75,-32.61 -56.75,-32.61 z"
       id="path4833-7-8-0"
       inkscape:connector-curvature="0"
       style="fill:#b6732b;stroke-width:3.33706069" />
    <path
       class="cls-6"
       d="m 336.23103,237.71993 c -24.49,-22.8 -20.11,-67 -3.9,-95.58 q 0.36,-0.45 0.69,-0.9 l 18.06,52.5 c 0,0 6.09,27.09 -14.85,43.98 z"
       id="path4835-5-9-9"
       inkscape:connector-curvature="0"
       style="fill:#a85f2b;stroke-width:3.33706069" />
    <path
       style="fill:#b6732b;stroke-width:3.33706069"
       inkscape:connector-curvature="0"
       d="m 424.45103,102.28992 c 17.14,1.12 29,26.19 21.05,49.00001 -7.95,22.81 -39.62,68.34 -61.28,66.77 -35.08,-2.53 -53.09,-51.18 -52.32,-71.52 0,0 0.29,-23.32001 26.06,-18.00001 21.19,4.35 42.18,-1.38 51.27,-12.9 9.09,-11.52 15.22,-13.35 15.22,-13.35 z"
       class="cls-7"
       id="HEAD-9-6-2" />
  </g>
  <g
     transform="matrix(-0.2996649,0,0,0.2996649,1611.3124,191.13266)"
     id="g3753-1-6-4-0"
     style="stroke-width:3.33706069">
    <path
       class="cls-3"
       d="m 180.59103,319.82993 c 33.64,-42.95 5.43,-90.58 13.07,-116.32 14.93,-50.36 79.81,10.59 105.55,-51.75 0,0 38.07,26.67 42,21.43 l 98.47,-9.18 c 35.76,-38.15001 23,-79.920006 8.43,-96.000006 0,0 -45,-51.26 -96.24,-26.41 -27.47,13.33 -49.84,55.14 -55.35,87.999996 -5.95,35.53001 -59.09,-69.999996 -136.41,-34.259996 -50.62,23.489996 -12.22,96.620006 -71.390001,98.370006 -77.72,2.31 -114.63,79.46 -23.52,146.12 43.800001,32.09 93.070001,8.51 115.390001,-20 z"
       id="path4798-1-2-3-4"
       inkscape:connector-curvature="0"
       style="fill:#6562cf;stroke-width:3.33706069" />
    <line
       class="cls-4"
       x1="290.83102"
       y1="135.57991"
       x2="300.17105"
       y2="153.68991"
       id="line4800-5-1-3-8"
       style="fill:none;stroke:#ffb000;stroke-width:33.37060928px;stroke-linecap:round;stroke-linejoin:round" />
    <ellipse
       class="cls-3"
       cx="-307.76334"
       cy="211.40221"
       rx="39.84"
       ry="24.65"
       transform="rotate(-60)"
       id="ellipse4802-9-7-3-0"
       style="fill:#6562cf;stroke-width:3.33706069" />
    <line
       class="cls-4"
       x1="44.911045"
       y1="329.54993"
       x2="60.231022"
       y2="341.72992"
       id="line4804-8-8-8-4"
       style="fill:none;stroke:#ffb000;stroke-width:33.37060928px;stroke-linecap:round;stroke-linejoin:round" />
    <g
       transform="rotate(7.2567916,1324.416,897.59913)"
       id="RIGHT-4-5-6-2"
       style="stroke-width:3.33706069">
      <path
         class="cls-3"
         d="m 446.24315,1360.3345 c 0,0 -34.76,13.18 -9.27,87.89 h 5.69 c 0,0 5.73,-37.6 12.09,-37.92 6.36,-0.32 24.18,37.92 33.41,37.92 h 74.12 c 0,0 -1.59,-15.13 -13,-16.76 -11.41,-1.63 -35,-25.72 -35,-25.72 z"
         id="path4808-8-7-0-9"
         inkscape:connector-curvature="0"
         style="fill:#6562cf;stroke-width:3.33706069" />
      <path
         class="cls-6"
         d="m 316.40315,858.82448 c 46.09,14.44 85.2,329.29002 197.84,546.92002 0,0 -61.56,-4.39 -68,-45.41 0,0 -186.87,-192.63 -191.86,-307.62 -4.99,-114.99002 33.68,-202.76002 62.02,-193.89002 z"
         id="path4810-1-4-4-6"
         inkscape:connector-curvature="0"
         style="fill:#a85f2b;stroke-width:3.33706069" />
    </g>
    <g
       transform="translate(-378.24429,146.52654)"
       id="LEFT-0-1-8-1"
       style="stroke-width:3.33706069">
      <path
         class="cls-3"
         d="m 604.26,1103.94 c 0,0 -34.76,13.18 -9.27,87.89 h 5.69 c 0,0 5.73,-37.6 12.09,-37.92 6.36,-0.32 24.18,37.92 33.41,37.92 h 74.12 c 0,0 -1.59,-15.13 -13,-16.76 -11.41,-1.63 -35,-25.72 -35,-25.72 z"
         id="path4813-3-8-8-0"
         inkscape:connector-curvature="0"
         style="fill:#6562cf;stroke-width:3.33706069" />
      <path
         class="cls-7"
         d="m 604.47,1104.24 c 0,0 -76.2,-246 -55.83,-342.4 24.81,-117.38 91.57,-180.84 123.54,-159.41 31.97,21.43 -54.83,352.15 -23.1,501.81 3.92,18.47 25.54,47.12 25.54,47.12 0,0 -82.08,-8.54 -70.15,-47.12 z"
         id="path4815-0-5-8-4"
         inkscape:connector-curvature="0"
         style="fill:#b6732b;stroke-width:3.33706069" />
    </g>
    <path
       style="fill:#ffbe00;stroke-width:3.33706069"
       inkscape:connector-curvature="0"
       d="m 173.29103,251.06993 c 14,-11.34 69.74,-39.4 133.66,-51.74 63.92,-12.34 95.37,9.42 105.12,24 13.14,19.61 -7.17,42.9 2.37,100.77 7.16,43.46 24.06,74.38 15.25,96.74 -13.44,34.09 -49.9,34.68 -51.06,114.7 -0.44,29.88 -146.3,31.61 -163,17.28 -16.7,-14.33 -79.54,-271.63 -42.34,-301.75 z"
       class="cls-5"
       id="TORSO-4-9-9-2" />
    <path
       sodipodi:nodetypes="ccccccsc"
       style="fill:#ffbe00;stroke-width:3.33706069"
       inkscape:connector-curvature="0"
       d="m 392.51801,558.30731 c 21.91482,90.75728 17.9884,299.01583 0.98681,406.23725 -8.40306,53.00364 -11.0889,4.72752 -64.63801,8.26232 h -46.67085 c -36.57824,2.4332 -106.12222,-37.42958 -114.85809,-73.03261 -19.0451,-77.68905 -23.60574,-222.92601 -16.6562,-242.0183 15.45805,-74.48964 54.81259,-108.32373 111.16779,-135.70874 56.3552,-27.38501 113.21041,-21.66608 130.66855,36.26008 z"
       class="cls-5"
       id="SKIRT-4-7-7-2" />
    <path
       class="cls-7"
       d="m 161.31103,272.82993 c -20.3,86.89 35.78,222.45 69.22,222.45 71.26,0.03 194.14,-132.45 194.14,-132.45 l -6.8,-24.7 -169.45,84.23 c 0,0 -10.09,-104.9 -19.69,-141.4 -9.81,-37.32 -57.07,-52.38 -67.42,-8.13 z"
       id="path4820-4-5-7-2"
       inkscape:connector-curvature="0"
       style="fill:#b6732b;stroke-width:3.33706069" />
    <ellipse
       class="cls-8"
       cx="269.30197"
       cy="540.7243"
       rx="51.880001"
       ry="43.650002"
       transform="rotate(-36.64)"
       id="ellipse4822-4-3-6-0"
       style="fill:#f1f0ff;stroke-width:3.33706069" />
    <ellipse
       class="cls-9"
       cx="270.85889"
       cy="526.99658"
       rx="52.580002"
       ry="43.580002"
       transform="rotate(-36.869898)"
       id="ellipse4824-7-8-4-5"
       style="fill:none;stroke:#ffb000;stroke-width:16.68530464px;stroke-linejoin:round" />
    <path
       class="cls-10"
       d="m 568.22103,259.46993 c -2.35,18.32 -19.84,34 -39.05,35.05"
       id="path4826-6-8-3-5"
       inkscape:connector-curvature="0"
       style="fill:none;stroke:#d1d1ff;stroke-width:16.68530464px;stroke-linejoin:round" />
    <path
       class="cls-2"
       d="m 485.07103,303.69993 -56.91,66.19 a 8.33,8.33 0 0 0 1.52,11.26 v 0 a 7.39,7.39 0 0 0 10.73,-1.39 l 56.91,-66.2 a 8.33,8.33 0 0 0 -1.52,-11.26 v 0 a 7.38,7.38 0 0 0 -10.73,1.4 z"
       id="path4828-3-3-0-2"
       inkscape:connector-curvature="0"
       style="fill:#ffffff;stroke:#6562cf;stroke-width:16.68530464px;stroke-miterlimit:10" />
    <path
       class="cls-7"
       d="m 412.84103,341.01993 c 7.42,-6.91 56,-19.08 60.94,-16 4.94,3.08 44.22,10.53 44.22,10.53 0,0 -0.78,9.39 -16.35,7.77 -18.08,-1.88 -21.91,1.92 -21.91,1.92 0,0 2.5,9.89 -3.11,13.66 -5.61,3.77 1.81,9.1 -6,16.42 -4.58,4.28 -4.77,9.6 -10.74,10.73 -5.97,1.13 -42.51,-17.36 -48.55,-28.67 -5.16,-9.55 -2.91,-12.26 1.5,-16.36 z"
       id="path4830-1-1-3-9"
       inkscape:connector-curvature="0"
       style="fill:#b6732b;stroke-width:3.33706069" />
    <path
       class="cls-7"
       d="m 238.88103,218.12993 c 11.67,-4.89 66,-39.59 94.14,-76.89 l 18.05,52.5 c 0,0 12,53.34 -55.44,57 -41.79,2.21 -56.75,-32.61 -56.75,-32.61 z"
       id="path4833-7-8-0-0"
       inkscape:connector-curvature="0"
       style="fill:#b6732b;stroke-width:3.33706069" />
    <path
       class="cls-6"
       d="m 336.23103,237.71993 c -24.49,-22.8 -20.11,-67 -3.9,-95.58 q 0.36,-0.45 0.69,-0.9 l 18.06,52.5 c 0,0 6.09,27.09 -14.85,43.98 z"
       id="path4835-5-9-9-2"
       inkscape:connector-curvature="0"
       style="fill:#a85f2b;stroke-width:3.33706069" />
    <path
       style="fill:#b6732b;stroke-width:3.33706069"
       inkscape:connector-curvature="0"
       d="m 424.45103,102.28992 c 17.14,1.12 29,26.19 21.05,49.00001 -7.95,22.81 -39.62,68.34 -61.28,66.77 -35.08,-2.53 -53.09,-51.18 -52.32,-71.52 0,0 0.29,-23.32001 26.06,-18.00001 21.19,4.35 42.18,-1.38 51.27,-12.9 9.09,-11.52 15.22,-13.35 15.22,-13.35 z"
       class="cls-7"
       id="HEAD-9-6-2-8" />
  </g>
  <g
     transform="matrix(0.2996649,0,0,0.2996649,865.13812,6.418413)"
     id="g3753-1-6-4-0-3"
     style="stroke-width:3.33706069">
    <path
       class="cls-3"
       d="m 180.59103,319.82993 c 33.64,-42.95 5.43,-90.58 13.07,-116.32 14.93,-50.36 79.81,10.59 105.55,-51.75 0,0 38.07,26.67 42,21.43 l 98.47,-9.18 c 35.76,-38.15001 23,-79.920006 8.43,-96.000006 0,0 -45,-51.26 -96.24,-26.41 -27.47,13.33 -49.84,55.14 -55.35,87.999996 -5.95,35.53001 -59.09,-69.999996 -136.41,-34.259996 -50.62,23.489996 -12.22,96.620006 -71.390001,98.370006 -77.72,2.31 -114.63,79.46 -23.52,146.12 43.800001,32.09 93.070001,8.51 115.390001,-20 z"
       id="path4798-1-2-3-4-8"
       inkscape:connector-curvature="0"
       style="fill:#6562cf;stroke-width:3.33706069" />
    <line
       class="cls-4"
       x1="290.83102"
       y1="135.57991"
       x2="300.17105"
       y2="153.68991"
       id="line4800-5-1-3-8-0"
       style="fill:none;stroke:#ffb000;stroke-width:33.37060928px;stroke-linecap:round;stroke-linejoin:round" />
    <ellipse
       class="cls-3"
       cx="-307.76334"
       cy="211.40221"
       rx="39.84"
       ry="24.65"
       transform="rotate(-60)"
       id="ellipse4802-9-7-3-0-4"
       style="fill:#6562cf;stroke-width:3.33706069" />
    <line
       class="cls-4"
       x1="44.911045"
       y1="329.54993"
       x2="60.231022"
       y2="341.72992"
       id="line4804-8-8-8-4-0"
       style="fill:none;stroke:#ffb000;stroke-width:33.37060928px;stroke-linecap:round;stroke-linejoin:round" />
    <g
       transform="rotate(7.2567916,1324.416,897.59913)"
       id="RIGHT-4-5-6-2-9"
       style="stroke-width:3.33706069">
      <path
         class="cls-3"
         d="m 446.24315,1360.3345 c 0,0 -34.76,13.18 -9.27,87.89 h 5.69 c 0,0 5.73,-37.6 12.09,-37.92 6.36,-0.32 24.18,37.92 33.41,37.92 h 74.12 c 0,0 -1.59,-15.13 -13,-16.76 -11.41,-1.63 -35,-25.72 -35,-25.72 z"
         id="path4808-8-7-0-9-1"
         inkscape:connector-curvature="0"
         style="fill:#6562cf;stroke-width:3.33706069" />
      <path
         class="cls-6"
         d="m 316.40315,858.82448 c 46.09,14.44 85.2,329.29002 197.84,546.92002 0,0 -61.56,-4.39 -68,-45.41 0,0 -186.87,-192.63 -191.86,-307.62 -4.99,-114.99002 33.68,-202.76002 62.02,-193.89002 z"
         id="path4810-1-4-4-6-9"
         inkscape:connector-curvature="0"
         style="fill:#a85f2b;stroke-width:3.33706069" />
    </g>
    <g
       transform="translate(-378.24429,146.52654)"
       id="LEFT-0-1-8-1-6"
       style="stroke-width:3.33706069">
      <path
         class="cls-3"
         d="m 604.26,1103.94 c 0,0 -34.76,13.18 -9.27,87.89 h 5.69 c 0,0 5.73,-37.6 12.09,-37.92 6.36,-0.32 24.18,37.92 33.41,37.92 h 74.12 c 0,0 -1.59,-15.13 -13,-16.76 -11.41,-1.63 -35,-25.72 -35,-25.72 z"
         id="path4813-3-8-8-0-2"
         inkscape:connector-curvature="0"
         style="fill:#6562cf;stroke-width:3.33706069" />
      <path
         class="cls-7"
         d="m 604.47,1104.24 c 0,0 -76.2,-246 -55.83,-342.4 24.81,-117.38 91.57,-180.84 123.54,-159.41 31.97,21.43 -54.83,352.15 -23.1,501.81 3.92,18.47 25.54,47.12 25.54,47.12 0,0 -82.08,-8.54 -70.15,-47.12 z"
         id="path4815-0-5-8-4-5"
         inkscape:connector-curvature="0"
         style="fill:#b6732b;stroke-width:3.33706069" />
    </g>
    <path
       style="fill:#ffbe00;stroke-width:3.33706069"
       inkscape:connector-curvature="0"
       d="m 173.29103,251.06993 c 14,-11.34 69.74,-39.4 133.66,-51.74 63.92,-12.34 95.37,9.42 105.12,24 13.14,19.61 -7.17,42.9 2.37,100.77 7.16,43.46 24.06,74.38 15.25,96.74 -13.44,34.09 -49.9,34.68 -51.06,114.7 -0.44,29.88 -146.3,31.61 -163,17.28 -16.7,-14.33 -79.54,-271.63 -42.34,-301.75 z"
       class="cls-5"
       id="TORSO-4-9-9-2-4" />
    <path
       sodipodi:nodetypes="ccccccsc"
       style="fill:#ffbe00;stroke-width:3.33706069"
       inkscape:connector-curvature="0"
       d="m 392.51801,558.30731 c 21.91482,90.75728 17.9884,299.01583 0.98681,406.23725 -8.40306,53.00364 -11.0889,4.72752 -64.63801,8.26232 h -46.67085 c -36.57824,2.4332 -106.12222,-37.42958 -114.85809,-73.03261 -19.0451,-77.68905 -23.60574,-222.92601 -16.6562,-242.0183 15.45805,-74.48964 54.81259,-108.32373 111.16779,-135.70874 56.3552,-27.38501 113.21041,-21.66608 130.66855,36.26008 z"
       class="cls-5"
       id="SKIRT-4-7-7-2-4" />
    <path
       class="cls-7"
       d="m 161.31103,272.82993 c -20.3,86.89 35.78,222.45 69.22,222.45 71.26,0.03 194.14,-132.45 194.14,-132.45 l -6.8,-24.7 -169.45,84.23 c 0,0 -10.09,-104.9 -19.69,-141.4 -9.81,-37.32 -57.07,-52.38 -67.42,-8.13 z"
       id="path4820-4-5-7-2-9"
       inkscape:connector-curvature="0"
       style="fill:#b6732b;stroke-width:3.33706069" />
    <ellipse
       class="cls-8"
       cx="269.30197"
       cy="540.7243"
       rx="51.880001"
       ry="43.650002"
       transform="rotate(-36.64)"
       id="ellipse4822-4-3-6-0-9"
       style="fill:#f1f0ff;stroke-width:3.33706069" />
    <ellipse
       class="cls-9"
       cx="270.85889"
       cy="526.99658"
       rx="52.580002"
       ry="43.580002"
       transform="rotate(-36.869898)"
       id="ellipse4824-7-8-4-5-3"
       style="fill:none;stroke:#ffb000;stroke-width:16.68530464px;stroke-linejoin:round" />
    <path
       class="cls-10"
       d="m 568.22103,259.46993 c -2.35,18.32 -19.84,34 -39.05,35.05"
       id="path4826-6-8-3-5-6"
       inkscape:connector-curvature="0"
       style="fill:none;stroke:#d1d1ff;stroke-width:16.68530464px;stroke-linejoin:round" />
    <path
       class="cls-2"
       d="m 485.07103,303.69993 -56.91,66.19 a 8.33,8.33 0 0 0 1.52,11.26 v 0 a 7.39,7.39 0 0 0 10.73,-1.39 l 56.91,-66.2 a 8.33,8.33 0 0 0 -1.52,-11.26 v 0 a 7.38,7.38 0 0 0 -10.73,1.4 z"
       id="path4828-3-3-0-2-0"
       inkscape:connector-curvature="0"
       style="fill:#ffffff;stroke:#6562cf;stroke-width:16.68530464px;stroke-miterlimit:10" />
    <path
       class="cls-7"
       d="m 412.84103,341.01993 c 7.42,-6.91 56,-19.08 60.94,-16 4.94,3.08 44.22,10.53 44.22,10.53 0,0 -0.78,9.39 -16.35,7.77 -18.08,-1.88 -21.91,1.92 -21.91,1.92 0,0 2.5,9.89 -3.11,13.66 -5.61,3.77 1.81,9.1 -6,16.42 -4.58,4.28 -4.77,9.6 -10.74,10.73 -5.97,1.13 -42.51,-17.36 -48.55,-28.67 -5.16,-9.55 -2.91,-12.26 1.5,-16.36 z"
       id="path4830-1-1-3-9-5"
       inkscape:connector-curvature="0"
       style="fill:#b6732b;stroke-width:3.33706069" />
    <path
       class="cls-7"
       d="m 238.88103,218.12993 c 11.67,-4.89 66,-39.59 94.14,-76.89 l 18.05,52.5 c 0,0 12,53.34 -55.44,57 -41.79,2.21 -56.75,-32.61 -56.75,-32.61 z"
       id="path4833-7-8-0-0-0"
       inkscape:connector-curvature="0"
       style="fill:#b6732b;stroke-width:3.33706069" />
    <path
       class="cls-6"
       d="m 336.23103,237.71993 c -24.49,-22.8 -20.11,-67 -3.9,-95.58 q 0.36,-0.45 0.69,-0.9 l 18.06,52.5 c 0,0 6.09,27.09 -14.85,43.98 z"
       id="path4835-5-9-9-2-2"
       inkscape:connector-curvature="0"
       style="fill:#a85f2b;stroke-width:3.33706069" />
    <path
       style="fill:#b6732b;stroke-width:3.33706069"
       inkscape:connector-curvature="0"
       d="m 424.45103,102.28992 c 17.14,1.12 29,26.19 21.05,49.00001 -7.95,22.81 -39.62,68.34 -61.28,66.77 -35.08,-2.53 -53.09,-51.18 -52.32,-71.52 0,0 0.29,-23.32001 26.06,-18.00001 21.19,4.35 42.18,-1.38 51.27,-12.9 9.09,-11.52 15.22,-13.35 15.22,-13.35 z"
       class="cls-7"
       id="HEAD-9-6-2-8-9" />
  </g>
  <g
     transform="matrix(0.2996649,0,0,0.2996649,604.53198,758.03035)"
     id="g3753-1-6-4-0-3-4"
     style="stroke-width:3.33706069">
    <path
       class="cls-3"
       d="m 180.59103,319.82993 c 33.64,-42.95 5.43,-90.58 13.07,-116.32 14.93,-50.36 79.81,10.59 105.55,-51.75 0,0 38.07,26.67 42,21.43 l 98.47,-9.18 c 35.76,-38.15001 23,-79.920006 8.43,-96.000006 0,0 -45,-51.26 -96.24,-26.41 -27.47,13.33 -49.84,55.14 -55.35,87.999996 -5.95,35.53001 -59.09,-69.999996 -136.41,-34.259996 -50.62,23.489996 -12.22,96.620006 -71.390001,98.370006 -77.72,2.31 -114.63,79.46 -23.52,146.12 43.800001,32.09 93.070001,8.51 115.390001,-20 z"
       id="path4798-1-2-3-4-8-3"
       inkscape:connector-curvature="0"
       style="fill:#6562cf;stroke-width:3.33706069" />
    <line
       class="cls-4"
       x1="290.83102"
       y1="135.57991"
       x2="300.17105"
       y2="153.68991"
       id="line4800-5-1-3-8-0-5"
       style="fill:none;stroke:#ffb000;stroke-width:33.37060928px;stroke-linecap:round;stroke-linejoin:round" />
    <ellipse
       class="cls-3"
       cx="-307.76334"
       cy="211.40221"
       rx="39.84"
       ry="24.65"
       transform="rotate(-60)"
       id="ellipse4802-9-7-3-0-4-1"
       style="fill:#6562cf;stroke-width:3.33706069" />
    <line
       class="cls-4"
       x1="44.911045"
       y1="329.54993"
       x2="60.231022"
       y2="341.72992"
       id="line4804-8-8-8-4-0-7"
       style="fill:none;stroke:#ffb000;stroke-width:33.37060928px;stroke-linecap:round;stroke-linejoin:round" />
    <g
       transform="rotate(7.2567916,1324.416,897.59913)"
       id="RIGHT-4-5-6-2-9-4"
       style="stroke-width:3.33706069">
      <path
         class="cls-3"
         d="m 446.24315,1360.3345 c 0,0 -34.76,13.18 -9.27,87.89 h 5.69 c 0,0 5.73,-37.6 12.09,-37.92 6.36,-0.32 24.18,37.92 33.41,37.92 h 74.12 c 0,0 -1.59,-15.13 -13,-16.76 -11.41,-1.63 -35,-25.72 -35,-25.72 z"
         id="path4808-8-7-0-9-1-3"
         inkscape:connector-curvature="0"
         style="fill:#6562cf;stroke-width:3.33706069" />
      <path
         class="cls-6"
         d="m 316.40315,858.82448 c 46.09,14.44 85.2,329.29002 197.84,546.92002 0,0 -61.56,-4.39 -68,-45.41 0,0 -186.87,-192.63 -191.86,-307.62 -4.99,-114.99002 33.68,-202.76002 62.02,-193.89002 z"
         id="path4810-1-4-4-6-9-1"
         inkscape:connector-curvature="0"
         style="fill:#a85f2b;stroke-width:3.33706069" />
    </g>
    <g
       transform="translate(-378.24429,146.52654)"
       id="LEFT-0-1-8-1-6-4"
       style="stroke-width:3.33706069">
      <path
         class="cls-3"
         d="m 604.26,1103.94 c 0,0 -34.76,13.18 -9.27,87.89 h 5.69 c 0,0 5.73,-37.6 12.09,-37.92 6.36,-0.32 24.18,37.92 33.41,37.92 h 74.12 c 0,0 -1.59,-15.13 -13,-16.76 -11.41,-1.63 -35,-25.72 -35,-25.72 z"
         id="path4813-3-8-8-0-2-6"
         inkscape:connector-curvature="0"
         style="fill:#6562cf;stroke-width:3.33706069" />
      <path
         class="cls-7"
         d="m 604.47,1104.24 c 0,0 -76.2,-246 -55.83,-342.4 24.81,-117.38 91.57,-180.84 123.54,-159.41 31.97,21.43 -54.83,352.15 -23.1,501.81 3.92,18.47 25.54,47.12 25.54,47.12 0,0 -82.08,-8.54 -70.15,-47.12 z"
         id="path4815-0-5-8-4-5-9"
         inkscape:connector-curvature="0"
         style="fill:#b6732b;stroke-width:3.33706069" />
    </g>
    <path
       style="fill:#ffbe00;stroke-width:3.33706069"
       inkscape:connector-curvature="0"
       d="m 173.29103,251.06993 c 14,-11.34 69.74,-39.4 133.66,-51.74 63.92,-12.34 95.37,9.42 105.12,24 13.14,19.61 -7.17,42.9 2.37,100.77 7.16,43.46 24.06,74.38 15.25,96.74 -13.44,34.09 -49.9,34.68 -51.06,114.7 -0.44,29.88 -146.3,31.61 -163,17.28 -16.7,-14.33 -79.54,-271.63 -42.34,-301.75 z"
       class="cls-5"
       id="TORSO-4-9-9-2-4-4" />
    <path
       sodipodi:nodetypes="ccccccsc"
       style="fill:#ffbe00;stroke-width:3.33706069"
       inkscape:connector-curvature="0"
       d="m 392.51801,558.30731 c 21.91482,90.75728 17.9884,299.01583 0.98681,406.23725 -8.40306,53.00364 -11.0889,4.72752 -64.63801,8.26232 h -46.67085 c -36.57824,2.4332 -106.12222,-37.42958 -114.85809,-73.03261 -19.0451,-77.68905 -23.60574,-222.92601 -16.6562,-242.0183 15.45805,-74.48964 54.81259,-108.32373 111.16779,-135.70874 56.3552,-27.38501 113.21041,-21.66608 130.66855,36.26008 z"
       class="cls-5"
       id="SKIRT-4-7-7-2-4-2" />
    <path
       class="cls-7"
       d="m 161.31103,272.82993 c -20.3,86.89 35.78,222.45 69.22,222.45 71.26,0.03 194.14,-132.45 194.14,-132.45 l -6.8,-24.7 -169.45,84.23 c 0,0 -10.09,-104.9 -19.69,-141.4 -9.81,-37.32 -57.07,-52.38 -67.42,-8.13 z"
       id="path4820-4-5-7-2-9-2"
       inkscape:connector-curvature="0"
       style="fill:#b6732b;stroke-width:3.33706069" />
    <ellipse
       class="cls-8"
       cx="269.30197"
       cy="540.7243"
       rx="51.880001"
       ry="43.650002"
       transform="rotate(-36.64)"
       id="ellipse4822-4-3-6-0-9-6"
       style="fill:#f1f0ff;stroke-width:3.33706069" />
    <ellipse
       class="cls-9"
       cx="270.85889"
       cy="526.99658"
       rx="52.580002"
       ry="43.580002"
       transform="rotate(-36.869898)"
       id="ellipse4824-7-8-4-5-3-4"
       style="fill:none;stroke:#ffb000;stroke-width:16.68530464px;stroke-linejoin:round" />
    <path
       class="cls-10"
       d="m 568.22103,259.46993 c -2.35,18.32 -19.84,34 -39.05,35.05"
       id="path4826-6-8-3-5-6-1"
       inkscape:connector-curvature="0"
       style="fill:none;stroke:#d1d1ff;stroke-width:16.68530464px;stroke-linejoin:round" />
    <path
       class="cls-2"
       d="m 485.07103,303.69993 -56.91,66.19 a 8.33,8.33 0 0 0 1.52,11.26 v 0 a 7.39,7.39 0 0 0 10.73,-1.39 l 56.91,-66.2 a 8.33,8.33 0 0 0 -1.52,-11.26 v 0 a 7.38,7.38 0 0 0 -10.73,1.4 z"
       id="path4828-3-3-0-2-0-2"
       inkscape:connector-curvature="0"
       style="fill:#ffffff;stroke:#6562cf;stroke-width:16.68530464px;stroke-miterlimit:10" />
    <path
       class="cls-7"
       d="m 412.84103,341.01993 c 7.42,-6.91 56,-19.08 60.94,-16 4.94,3.08 44.22,10.53 44.22,10.53 0,0 -0.78,9.39 -16.35,7.77 -18.08,-1.88 -21.91,1.92 -21.91,1.92 0,0 2.5,9.89 -3.11,13.66 -5.61,3.77 1.81,9.1 -6,16.42 -4.58,4.28 -4.77,9.6 -10.74,10.73 -5.97,1.13 -42.51,-17.36 -48.55,-28.67 -5.16,-9.55 -2.91,-12.26 1.5,-16.36 z"
       id="path4830-1-1-3-9-5-8"
       inkscape:connector-curvature="0"
       style="fill:#b6732b;stroke-width:3.33706069" />
    <path
       class="cls-7"
       d="m 238.88103,218.12993 c 11.67,-4.89 66,-39.59 94.14,-76.89 l 18.05,52.5 c 0,0 12,53.34 -55.44,57 -41.79,2.21 -56.75,-32.61 -56.75,-32.61 z"
       id="path4833-7-8-0-0-0-8"
       inkscape:connector-curvature="0"
       style="fill:#b6732b;stroke-width:3.33706069" />
    <path
       class="cls-6"
       d="m 336.23103,237.71993 c -24.49,-22.8 -20.11,-67 -3.9,-95.58 q 0.36,-0.45 0.69,-0.9 l 18.06,52.5 c 0,0 6.09,27.09 -14.85,43.98 z"
       id="path4835-5-9-9-2-2-9"
       inkscape:connector-curvature="0"
       style="fill:#a85f2b;stroke-width:3.33706069" />
    <path
       style="fill:#b6732b;stroke-width:3.33706069"
       inkscape:connector-curvature="0"
       d="m 424.45103,102.28992 c 17.14,1.12 29,26.19 21.05,49.00001 -7.95,22.81 -39.62,68.34 -61.28,66.77 -35.08,-2.53 -53.09,-51.18 -52.32,-71.52 0,0 0.29,-23.32001 26.06,-18.00001 21.19,4.35 42.18,-1.38 51.27,-12.9 9.09,-11.52 15.22,-13.35 15.22,-13.35 z"
       class="cls-7"
       id="HEAD-9-6-2-8-9-2" />
  </g>
</svg>
